%
M48
M72
T01C0.0236
T02C0.0360
T03C0.0440
T04C0.0630
%
T01
X4931Y5856
X3061Y7588
X4518Y8769
X6093Y10462
X7549Y12942
X8286Y14596
X8219Y15501
X7274Y16368
X8219Y16761
X8297Y17982
X7313Y18690
X7136Y20344
X5778Y20226
X6486Y21997
X5423Y22549
X3738Y21486
X3140Y20462
X3140Y19478
X3967Y17194
X3219Y15934
X3100Y14596
X9478Y20501
X9478Y22155
X10148Y23100
X10581Y22312
X11447Y22706
X11604Y23572
X12234Y24517
X11604Y25226
X10581Y26309
X9006Y26092
X9006Y26840
X7392Y25226
X5856Y24517
X4675Y25620
X5856Y26171
X12825Y25620
X14321Y24517
X16408Y24950
X17301Y22942
X18494Y21289
X19242Y20974
X20108Y21210
X21604Y20580
X20305Y18513
X20423Y17627
X20541Y16840
X19065Y17726
X18140Y18080
X15935Y17549
X14518Y16446
X14675Y14871
X14793Y13887
X15522Y13612
X16014Y14911
X17549Y14005
X16998Y13139
X18140Y11289
X18140Y9714
X18573Y3454
X24242Y11289
X24951Y13001
X25896Y14005
X24045Y14753
X24309Y16564
X24624Y17352
X24262Y18100
X24203Y19513
X24419Y20580
X24309Y21631
X19242Y22864
X17313Y20789
X12313Y16309
X11927Y15934
X12156Y15147
X11289Y14557
X10738Y15068
X9990Y14557
X12471Y12942
X9636Y7588
X10266Y6643
T02
X23368Y3454
X23368Y2454
X7695Y26958
X6695Y26958
T03
X3707Y27118
X2711Y27102
X1880Y22482
X1880Y21486
X1880Y20482
X1880Y19478
X1880Y18474
X1880Y17474
X1880Y16472
X1880Y15462
X1880Y11812
X1880Y9812
X12673Y26875
X13665Y26877
X14656Y26871
X15652Y26871
X16648Y26871
X17640Y26866
X18646Y26862
X19656Y26850
X20660Y26852
X21654Y26858
X22652Y26866
X24833Y26828
X25849Y26828
X25929Y23535
X25921Y22541
X25927Y21545
X25927Y20541
X25927Y19537
X25925Y18545
X25927Y17549
X25933Y16555
X25935Y6553
X25935Y5545
T04
X13228Y19289
M30
