G75*
G70*
%OFA0B0*%
%FSLAX24Y24*%
%IPPOS*%
%LPD*%
%AMOC8*
5,1,8,0,0,1.08239X$1,22.5*
%
%ADD10C,0.0160*%
%ADD11C,0.0004*%
%ADD12C,0.0030*%
%ADD13C,0.0040*%
%ADD14C,0.0060*%
%ADD15C,0.0050*%
%ADD16C,0.0010*%
%ADD17C,0.0080*%
%ADD18C,0.0100*%
%ADD19R,0.1102X0.0354*%
%ADD20C,0.0020*%
%ADD21C,0.0106*%
D10*
X000187Y000186D02*
X027628Y000186D01*
X027628Y028375D01*
X000266Y028375D01*
X000266Y000265D01*
D11*
X013415Y009242D02*
X014203Y009242D01*
X013809Y009635D02*
X013809Y008848D01*
X010856Y021053D02*
X010856Y021446D01*
X010660Y021249D02*
X011053Y021249D01*
D12*
X006023Y027131D02*
X006023Y027421D01*
X006023Y027276D02*
X005829Y027276D01*
X005728Y027227D02*
X005728Y027179D01*
X005680Y027131D01*
X005583Y027131D01*
X005535Y027179D01*
X005583Y027276D02*
X005535Y027324D01*
X005535Y027372D01*
X005583Y027421D01*
X005680Y027421D01*
X005728Y027372D01*
X005680Y027276D02*
X005728Y027227D01*
X005680Y027276D02*
X005583Y027276D01*
X005434Y027276D02*
X005240Y027276D01*
X005240Y027324D02*
X005337Y027421D01*
X005434Y027324D01*
X005434Y027131D01*
X005240Y027131D02*
X005240Y027324D01*
X005139Y027131D02*
X004946Y027131D01*
X004946Y027421D01*
X004844Y027421D02*
X004651Y027421D01*
X004651Y027131D01*
X004651Y027276D02*
X004748Y027276D01*
X005829Y027131D02*
X005829Y027421D01*
X001969Y027342D02*
X001776Y027342D01*
X001872Y027342D02*
X001872Y027052D01*
X001674Y027100D02*
X001626Y027052D01*
X001529Y027052D01*
X001481Y027100D01*
X001529Y027197D02*
X001626Y027197D01*
X001674Y027149D01*
X001674Y027100D01*
X001529Y027197D02*
X001481Y027245D01*
X001481Y027294D01*
X001529Y027342D01*
X001626Y027342D01*
X001674Y027294D01*
X001380Y027294D02*
X001380Y027197D01*
X001331Y027149D01*
X001186Y027149D01*
X001283Y027149D02*
X001380Y027052D01*
X001186Y027052D02*
X001186Y027342D01*
X001331Y027342D01*
X001380Y027294D01*
D13*
X001925Y011216D02*
X001925Y011139D01*
X001925Y010986D02*
X001925Y010679D01*
X001849Y010679D02*
X002002Y010679D01*
X002155Y010679D02*
X002155Y010986D01*
X002386Y010986D01*
X002462Y010909D01*
X002462Y010679D01*
X001925Y010986D02*
X001849Y010986D01*
X001695Y010832D02*
X001695Y011139D01*
X001695Y010832D02*
X001542Y010679D01*
X001388Y010832D01*
X001388Y011139D01*
X010456Y005064D02*
X010456Y004604D01*
X010456Y004758D02*
X010686Y004758D01*
X010763Y004834D01*
X010763Y004988D01*
X010686Y005064D01*
X010456Y005064D01*
X010609Y004758D02*
X010763Y004604D01*
X010916Y004681D02*
X010916Y004834D01*
X010993Y004911D01*
X011146Y004911D01*
X011223Y004834D01*
X011223Y004758D01*
X010916Y004758D01*
X010916Y004681D02*
X010993Y004604D01*
X011146Y004604D01*
X011377Y004681D02*
X011453Y004604D01*
X011683Y004604D01*
X011683Y004527D02*
X011607Y004451D01*
X011530Y004451D01*
X011683Y004527D02*
X011683Y004911D01*
X011453Y004911D01*
X011377Y004834D01*
X011377Y004681D01*
X011957Y010167D02*
X011880Y010244D01*
X011957Y010167D02*
X012110Y010167D01*
X012187Y010244D01*
X012187Y010321D01*
X012110Y010397D01*
X011957Y010397D01*
X011880Y010474D01*
X011880Y010551D01*
X011957Y010627D01*
X012110Y010627D01*
X012187Y010551D01*
X012341Y010627D02*
X012341Y010167D01*
X012341Y010321D02*
X012571Y010321D01*
X012648Y010397D01*
X012648Y010551D01*
X012571Y010627D01*
X012341Y010627D01*
X012494Y010321D02*
X012648Y010167D01*
X012801Y010167D02*
X012801Y010474D01*
X012954Y010627D01*
X013108Y010474D01*
X013108Y010167D01*
X013261Y010167D02*
X013261Y010627D01*
X013415Y010474D01*
X013568Y010627D01*
X013568Y010167D01*
X013108Y010397D02*
X012801Y010397D01*
X023134Y025006D02*
X023134Y025366D01*
X023014Y025366D02*
X023254Y025366D01*
X023382Y025306D02*
X023382Y025066D01*
X023442Y025006D01*
X023563Y025006D01*
X023623Y025066D01*
X023623Y025306D01*
X023563Y025366D01*
X023442Y025366D01*
X023382Y025306D01*
X023751Y025366D02*
X023751Y025006D01*
X023751Y025126D02*
X023931Y025126D01*
X023991Y025186D01*
X023991Y025306D01*
X023931Y025366D01*
X023751Y025366D01*
X024487Y025306D02*
X024487Y025066D01*
X024547Y025006D01*
X024667Y025006D01*
X024728Y025066D01*
X024728Y025186D01*
X024607Y025186D01*
X024487Y025306D02*
X024547Y025366D01*
X024667Y025366D01*
X024728Y025306D01*
X024856Y025246D02*
X024856Y025006D01*
X024856Y025186D02*
X025096Y025186D01*
X025096Y025246D02*
X025096Y025006D01*
X025224Y025006D02*
X025464Y025006D01*
X025344Y025006D02*
X025344Y025366D01*
X025224Y025246D01*
X025096Y025246D02*
X024976Y025366D01*
X024856Y025246D01*
X025592Y025186D02*
X025832Y025186D01*
X025961Y025186D02*
X026201Y025186D01*
X026329Y025066D02*
X026389Y025066D01*
X026389Y025006D01*
X026329Y025006D01*
X026329Y025066D01*
X026513Y025126D02*
X026513Y025366D01*
X026753Y025366D02*
X026753Y025126D01*
X026633Y025006D01*
X026513Y025126D01*
X026881Y025246D02*
X027001Y025366D01*
X027001Y025006D01*
X026881Y025006D02*
X027122Y025006D01*
X026141Y025006D02*
X026141Y025366D01*
X025961Y025186D01*
X025772Y025006D02*
X025772Y025366D01*
X025592Y025186D01*
D14*
X009654Y024660D02*
X009654Y023240D01*
X007795Y023240D02*
X007795Y024660D01*
X008016Y026301D02*
X007452Y026301D01*
X007195Y026558D01*
X006859Y026301D01*
X006374Y026301D01*
X006195Y026558D01*
X006195Y027358D01*
X006374Y027616D01*
X006859Y027616D01*
X007195Y027358D01*
X007531Y027616D01*
X008016Y027616D01*
X008195Y027358D01*
X008195Y026558D01*
X008016Y026301D01*
X001257Y009057D02*
X001257Y008630D01*
X001044Y008844D02*
X001471Y008844D01*
X022711Y003775D02*
X022711Y003290D01*
X022968Y002954D01*
X022711Y002697D01*
X022711Y002133D01*
X022968Y001954D01*
X023768Y001954D01*
X024026Y002133D01*
X024026Y002618D01*
X023768Y002954D01*
X024026Y003290D01*
X024026Y003775D01*
X023768Y003954D01*
X022968Y003954D01*
X022711Y003775D01*
D15*
X022536Y003669D02*
X022235Y003819D01*
X022235Y003519D02*
X022536Y003669D01*
X022461Y003359D02*
X022536Y003284D01*
X022536Y003133D01*
X022461Y003058D01*
X022386Y003058D01*
X022311Y003133D01*
X022311Y003284D01*
X022386Y003359D01*
X022461Y003359D01*
X022311Y003284D02*
X022235Y003359D01*
X022160Y003359D01*
X022085Y003284D01*
X022085Y003133D01*
X022160Y003058D01*
X022235Y003058D01*
X022311Y003133D01*
X022461Y002903D02*
X022536Y002903D01*
X022536Y002828D01*
X022461Y002828D01*
X022461Y002903D01*
X022536Y002668D02*
X022536Y002368D01*
X022536Y002518D02*
X022085Y002518D01*
X022235Y002368D01*
X017434Y001243D02*
X017434Y004623D01*
X015814Y004623D01*
X015814Y001243D01*
X017434Y001243D01*
X004464Y003499D02*
X004464Y005119D01*
X001084Y005119D01*
X001084Y003499D01*
X004464Y003499D01*
X011256Y017320D02*
X011256Y017517D01*
X011256Y017320D02*
X011457Y017320D01*
X011669Y020848D02*
X011671Y020866D01*
X011677Y020882D01*
X011686Y020897D01*
X011699Y020910D01*
X011714Y020919D01*
X011730Y020925D01*
X011748Y020927D01*
X011766Y020925D01*
X011782Y020919D01*
X011797Y020910D01*
X011810Y020897D01*
X011819Y020882D01*
X011825Y020866D01*
X011827Y020848D01*
X011825Y020830D01*
X011819Y020814D01*
X011810Y020799D01*
X011797Y020786D01*
X011782Y020777D01*
X011766Y020771D01*
X011748Y020769D01*
X011730Y020771D01*
X011714Y020777D01*
X011699Y020786D01*
X011686Y020799D01*
X011677Y020814D01*
X011671Y020830D01*
X011669Y020848D01*
X011256Y021060D02*
X011256Y021257D01*
X011457Y021257D01*
X015000Y021257D02*
X015197Y021257D01*
X015197Y021060D01*
X015197Y017517D02*
X015197Y017320D01*
X015000Y017320D01*
X005194Y023380D02*
X005194Y025000D01*
X001814Y025000D01*
X001814Y023380D01*
X005194Y023380D01*
D16*
X005349Y023520D02*
X005424Y023445D01*
X005424Y023545D01*
X005474Y023593D02*
X005474Y023618D01*
X005499Y023618D01*
X005499Y023593D01*
X005474Y023593D01*
X005474Y023666D02*
X005499Y023666D01*
X005474Y023666D02*
X005374Y023766D01*
X005349Y023766D01*
X005349Y023666D01*
X005349Y023520D02*
X005499Y023520D01*
X005474Y023814D02*
X005499Y023839D01*
X005499Y023914D01*
X005399Y023914D01*
X005424Y023961D02*
X005424Y024011D01*
X005499Y023961D02*
X005349Y023961D01*
X005349Y024061D01*
X005399Y023814D02*
X005474Y023814D01*
X006020Y025329D02*
X005970Y025379D01*
X006120Y025379D01*
X006120Y025329D02*
X006120Y025429D01*
X006120Y025476D02*
X005970Y025476D01*
X006045Y025501D02*
X006120Y025576D01*
X006070Y025476D02*
X005970Y025576D01*
X003813Y026084D02*
X003738Y026159D01*
X003713Y026134D02*
X003813Y026234D01*
X003713Y026234D02*
X003713Y026084D01*
X003666Y026084D02*
X003566Y026084D01*
X003517Y026084D02*
X003492Y026084D01*
X003492Y026109D01*
X003517Y026109D01*
X003517Y026084D01*
X003445Y026109D02*
X003420Y026084D01*
X003370Y026084D01*
X003345Y026109D01*
X003345Y026159D02*
X003395Y026184D01*
X003420Y026184D01*
X003445Y026159D01*
X003445Y026109D01*
X003345Y026159D02*
X003345Y026234D01*
X003445Y026234D01*
X003566Y026184D02*
X003616Y026234D01*
X003616Y026084D01*
X008837Y024170D02*
X008837Y024145D01*
X008862Y024120D01*
X008912Y024120D01*
X008937Y024095D01*
X008937Y024070D01*
X008912Y024045D01*
X008862Y024045D01*
X008837Y024070D01*
X008837Y024170D02*
X008862Y024195D01*
X008912Y024195D01*
X008937Y024170D01*
X008984Y024195D02*
X009059Y024195D01*
X009084Y024170D01*
X009084Y024120D01*
X009059Y024095D01*
X008984Y024095D01*
X008984Y024045D02*
X008984Y024195D01*
X009131Y024195D02*
X009181Y024195D01*
X009156Y024195D02*
X009156Y024045D01*
X009131Y024045D02*
X009181Y024045D01*
X015104Y024006D02*
X015154Y024056D01*
X015154Y023906D01*
X015104Y023906D02*
X015204Y023906D01*
X015251Y023931D02*
X015351Y024031D01*
X015351Y023931D01*
X015326Y023906D01*
X015276Y023906D01*
X015251Y023931D01*
X015251Y024031D01*
X015276Y024056D01*
X015326Y024056D01*
X015351Y024031D01*
X015398Y024031D02*
X015423Y024056D01*
X015473Y024056D01*
X015498Y024031D01*
X015398Y023931D01*
X015423Y023906D01*
X015473Y023906D01*
X015498Y023931D01*
X015498Y024031D01*
X015545Y024006D02*
X015621Y024006D01*
X015646Y023981D01*
X015646Y023906D01*
X015693Y023906D02*
X015693Y024056D01*
X015793Y024056D01*
X015743Y023981D02*
X015693Y023981D01*
X015545Y024006D02*
X015545Y023906D01*
X015398Y023931D02*
X015398Y024031D01*
X010699Y016141D02*
X010624Y016066D01*
X010649Y016041D02*
X010549Y016141D01*
X010549Y016041D02*
X010699Y016041D01*
X010699Y015994D02*
X010699Y015894D01*
X010699Y015845D02*
X010699Y015820D01*
X010674Y015820D01*
X010674Y015845D01*
X010699Y015845D01*
X010674Y015773D02*
X010699Y015748D01*
X010699Y015698D01*
X010674Y015673D01*
X010624Y015673D02*
X010599Y015723D01*
X010599Y015748D01*
X010624Y015773D01*
X010674Y015773D01*
X010624Y015673D02*
X010549Y015673D01*
X010549Y015773D01*
X010599Y015894D02*
X010549Y015944D01*
X010699Y015944D01*
X008592Y012675D02*
X008492Y012575D01*
X008517Y012600D02*
X008592Y012525D01*
X008492Y012525D02*
X008492Y012675D01*
X008395Y012675D02*
X008395Y012525D01*
X008345Y012525D02*
X008445Y012525D01*
X008345Y012625D02*
X008395Y012675D01*
X008296Y012550D02*
X008296Y012525D01*
X008271Y012525D01*
X008271Y012550D01*
X008296Y012550D01*
X008224Y012550D02*
X008199Y012525D01*
X008149Y012525D01*
X008124Y012550D01*
X008124Y012600D02*
X008174Y012625D01*
X008199Y012625D01*
X008224Y012600D01*
X008224Y012550D01*
X008124Y012600D02*
X008124Y012675D01*
X008224Y012675D01*
X007317Y007625D02*
X007317Y007525D01*
X007468Y007525D01*
X007468Y007478D02*
X007392Y007478D01*
X007367Y007453D01*
X007367Y007378D01*
X007468Y007378D01*
X007443Y007330D02*
X007468Y007305D01*
X007468Y007255D01*
X007443Y007230D01*
X007342Y007330D01*
X007443Y007330D01*
X007443Y007230D02*
X007342Y007230D01*
X007317Y007255D01*
X007317Y007305D01*
X007342Y007330D01*
X007342Y007183D02*
X007443Y007083D01*
X007468Y007108D01*
X007468Y007158D01*
X007443Y007183D01*
X007342Y007183D01*
X007317Y007158D01*
X007317Y007108D01*
X007342Y007083D01*
X007443Y007083D01*
X007468Y007036D02*
X007468Y006936D01*
X007468Y006986D02*
X007317Y006986D01*
X007367Y006936D01*
X007392Y007525D02*
X007392Y007575D01*
X009227Y007487D02*
X009227Y007387D01*
X009377Y007387D01*
X009377Y007340D02*
X009302Y007340D01*
X009277Y007315D01*
X009277Y007240D01*
X009377Y007240D01*
X009352Y007192D02*
X009377Y007167D01*
X009377Y007117D01*
X009352Y007092D01*
X009252Y007192D01*
X009352Y007192D01*
X009352Y007092D02*
X009252Y007092D01*
X009227Y007117D01*
X009227Y007167D01*
X009252Y007192D01*
X009252Y007045D02*
X009352Y006945D01*
X009377Y006970D01*
X009377Y007020D01*
X009352Y007045D01*
X009252Y007045D01*
X009227Y007020D01*
X009227Y006970D01*
X009252Y006945D01*
X009352Y006945D01*
X009377Y006898D02*
X009377Y006798D01*
X009377Y006848D02*
X009227Y006848D01*
X009277Y006798D01*
X009302Y007387D02*
X009302Y007437D01*
X004769Y004079D02*
X004619Y004079D01*
X004619Y004179D01*
X004694Y004129D02*
X004694Y004079D01*
X004669Y004032D02*
X004769Y004032D01*
X004769Y003957D01*
X004744Y003932D01*
X004669Y003932D01*
X004644Y003885D02*
X004744Y003784D01*
X004769Y003784D01*
X004769Y003736D02*
X004769Y003711D01*
X004744Y003711D01*
X004744Y003736D01*
X004769Y003736D01*
X004769Y003639D02*
X004619Y003639D01*
X004694Y003564D01*
X004694Y003664D01*
X004619Y003784D02*
X004619Y003885D01*
X004644Y003885D01*
X002665Y006148D02*
X002665Y006298D01*
X002765Y006298D01*
X002715Y006223D02*
X002665Y006223D01*
X002618Y006223D02*
X002618Y006148D01*
X002618Y006223D02*
X002593Y006248D01*
X002518Y006248D01*
X002518Y006148D01*
X002471Y006173D02*
X002446Y006148D01*
X002396Y006148D01*
X002371Y006173D01*
X002471Y006273D01*
X002471Y006173D01*
X002471Y006273D02*
X002446Y006298D01*
X002396Y006298D01*
X002371Y006273D01*
X002371Y006173D01*
X002323Y006173D02*
X002298Y006148D01*
X002248Y006148D01*
X002223Y006173D01*
X002323Y006273D01*
X002323Y006173D01*
X002223Y006173D02*
X002223Y006273D01*
X002248Y006298D01*
X002298Y006298D01*
X002323Y006273D01*
X002176Y006148D02*
X002076Y006148D01*
X002126Y006148D02*
X002126Y006298D01*
X002076Y006248D01*
X013684Y003233D02*
X013684Y003133D01*
X013834Y003133D01*
X013834Y003085D02*
X013734Y003085D01*
X013759Y003133D02*
X013759Y003183D01*
X013834Y003085D02*
X013834Y003010D01*
X013809Y002985D01*
X013734Y002985D01*
X013684Y002888D02*
X013834Y002888D01*
X013834Y002838D02*
X013834Y002938D01*
X013734Y002838D02*
X013684Y002888D01*
X013809Y002789D02*
X013834Y002789D01*
X013834Y002764D01*
X013809Y002764D01*
X013809Y002789D01*
X013809Y002717D02*
X013834Y002692D01*
X013834Y002642D01*
X013809Y002617D01*
X013709Y002717D01*
X013809Y002717D01*
X013709Y002717D02*
X013684Y002692D01*
X013684Y002642D01*
X013709Y002617D01*
X013809Y002617D01*
X015879Y001013D02*
X015979Y001013D01*
X016026Y000963D02*
X016051Y000963D01*
X016051Y000938D01*
X016026Y000938D01*
X016026Y000963D01*
X016100Y000963D02*
X016100Y000938D01*
X016100Y000963D02*
X016200Y001063D01*
X016200Y001088D01*
X016100Y001088D01*
X015954Y001088D02*
X015879Y001013D01*
X015954Y000938D02*
X015954Y001088D01*
X016247Y001038D02*
X016247Y000963D01*
X016272Y000938D01*
X016347Y000938D01*
X016347Y001038D01*
X016395Y001013D02*
X016445Y001013D01*
X016395Y001088D02*
X016495Y001088D01*
X016395Y001088D02*
X016395Y000938D01*
X020210Y002095D02*
X020210Y002145D01*
X020235Y002170D01*
X020335Y002070D01*
X020360Y002095D01*
X020360Y002145D01*
X020335Y002170D01*
X020235Y002170D01*
X020210Y002095D02*
X020235Y002070D01*
X020335Y002070D01*
X020335Y002217D02*
X020335Y002242D01*
X020360Y002242D01*
X020360Y002217D01*
X020335Y002217D01*
X020360Y002291D02*
X020360Y002391D01*
X020360Y002341D02*
X020210Y002341D01*
X020260Y002291D01*
X020260Y002438D02*
X020335Y002438D01*
X020360Y002463D01*
X020360Y002538D01*
X020260Y002538D01*
X020285Y002585D02*
X020285Y002636D01*
X020210Y002585D02*
X020210Y002686D01*
X020210Y002585D02*
X020360Y002585D01*
X025680Y010862D02*
X025630Y010912D01*
X025780Y010912D01*
X025780Y010862D02*
X025780Y010962D01*
X025780Y011009D02*
X025630Y011009D01*
X025705Y011034D02*
X025780Y011109D01*
X025730Y011009D02*
X025630Y011109D01*
X025587Y014569D02*
X025587Y014669D01*
X025587Y014716D02*
X025437Y014716D01*
X025512Y014741D02*
X025587Y014816D01*
X025537Y014716D02*
X025437Y014816D01*
X025437Y014619D02*
X025587Y014619D01*
X025487Y014569D02*
X025437Y014619D01*
X017231Y014301D02*
X017131Y014301D01*
X017131Y014151D01*
X017084Y014151D02*
X017084Y014226D01*
X017059Y014251D01*
X016984Y014251D01*
X016984Y014151D01*
X016937Y014176D02*
X016912Y014151D01*
X016862Y014151D01*
X016837Y014176D01*
X016937Y014276D01*
X016937Y014176D01*
X016937Y014276D02*
X016912Y014301D01*
X016862Y014301D01*
X016837Y014276D01*
X016837Y014176D01*
X016789Y014176D02*
X016764Y014151D01*
X016714Y014151D01*
X016689Y014176D01*
X016789Y014276D01*
X016789Y014176D01*
X016689Y014176D02*
X016689Y014276D01*
X016714Y014301D01*
X016764Y014301D01*
X016789Y014276D01*
X016642Y014151D02*
X016542Y014151D01*
X016592Y014151D02*
X016592Y014301D01*
X016542Y014251D01*
X017131Y014226D02*
X017181Y014226D01*
D17*
X017215Y012683D02*
X017215Y008037D01*
X010049Y008037D01*
X010049Y012683D01*
X017215Y012683D01*
X009541Y005020D02*
X009541Y001148D01*
X005996Y001148D01*
X005996Y005020D02*
X009541Y005020D01*
X013443Y003551D02*
X013443Y002291D01*
X014467Y002291D02*
X014467Y003551D01*
X019969Y003003D02*
X019969Y001744D01*
X020992Y001744D02*
X020992Y003003D01*
X003055Y005907D02*
X001795Y005907D01*
X001795Y006931D02*
X003055Y006931D01*
X009377Y024340D02*
X009379Y024355D01*
X009385Y024368D01*
X009394Y024380D01*
X009405Y024389D01*
X009419Y024395D01*
X009434Y024397D01*
X009449Y024395D01*
X009462Y024389D01*
X009474Y024380D01*
X009483Y024369D01*
X009489Y024355D01*
X009491Y024340D01*
X009489Y024325D01*
X009483Y024312D01*
X009474Y024300D01*
X009463Y024291D01*
X009449Y024285D01*
X009434Y024283D01*
X009419Y024285D01*
X009406Y024291D01*
X009394Y024300D01*
X009385Y024311D01*
X009379Y024325D01*
X009377Y024340D01*
D18*
X003004Y024190D02*
X002754Y024190D01*
X002274Y004309D02*
X002024Y004309D01*
X016624Y003683D02*
X016624Y003433D01*
D19*
X010132Y003084D03*
X010132Y002084D03*
X010132Y004084D03*
D20*
X000960Y015530D02*
X000813Y015677D01*
X000777Y015677D01*
X000740Y015640D01*
X000740Y015567D01*
X000777Y015530D01*
X000960Y015530D02*
X000960Y015677D01*
X000923Y015751D02*
X000777Y015898D01*
X000923Y015898D01*
X000960Y015861D01*
X000960Y015788D01*
X000923Y015751D01*
X000777Y015751D01*
X000740Y015788D01*
X000740Y015861D01*
X000777Y015898D01*
X000777Y016540D02*
X000740Y016577D01*
X000740Y016650D01*
X000777Y016687D01*
X000813Y016687D01*
X000960Y016540D01*
X000960Y016687D01*
X000960Y016761D02*
X000923Y016761D01*
X000777Y016908D01*
X000740Y016908D01*
X000740Y016761D01*
X000777Y017542D02*
X000740Y017579D01*
X000740Y017652D01*
X000777Y017689D01*
X000813Y017689D01*
X000960Y017542D01*
X000960Y017689D01*
X000923Y017763D02*
X000960Y017800D01*
X000960Y017873D01*
X000923Y017910D01*
X000887Y017910D01*
X000850Y017873D01*
X000850Y017763D01*
X000923Y017763D01*
X000850Y017763D02*
X000777Y017836D01*
X000740Y017910D01*
X000813Y018542D02*
X000740Y018615D01*
X000960Y018615D01*
X000960Y018542D02*
X000960Y018689D01*
X000923Y018763D02*
X000960Y018800D01*
X000960Y018873D01*
X000923Y018910D01*
X000850Y018910D01*
X000813Y018873D01*
X000813Y018836D01*
X000850Y018763D01*
X000740Y018763D01*
X000740Y018910D01*
X000813Y019546D02*
X000740Y019619D01*
X000960Y019619D01*
X000960Y019546D02*
X000960Y019693D01*
X000923Y019767D02*
X000887Y019767D01*
X000850Y019804D01*
X000850Y019877D01*
X000887Y019914D01*
X000923Y019914D01*
X000960Y019877D01*
X000960Y019804D01*
X000923Y019767D01*
X000850Y019804D02*
X000813Y019767D01*
X000777Y019767D01*
X000740Y019804D01*
X000740Y019877D01*
X000777Y019914D01*
X000813Y019914D01*
X000850Y019877D01*
X000813Y020550D02*
X000740Y020623D01*
X000960Y020623D01*
X000960Y020550D02*
X000960Y020697D01*
X000850Y020771D02*
X000850Y020918D01*
X000960Y020881D02*
X000740Y020881D01*
X000850Y020771D01*
X000923Y021775D02*
X000777Y021921D01*
X000740Y021921D01*
X000740Y021775D01*
X000923Y021775D02*
X000960Y021775D01*
X000923Y022771D02*
X000960Y022807D01*
X000960Y022881D01*
X000923Y022918D01*
X000887Y022918D01*
X000850Y022881D01*
X000850Y022771D01*
X000923Y022771D01*
X000850Y022771D02*
X000777Y022844D01*
X000740Y022918D01*
X012741Y027832D02*
X012741Y027869D01*
X012778Y027906D01*
X012851Y027906D01*
X012888Y027869D01*
X012888Y027832D01*
X012851Y027795D01*
X012778Y027795D01*
X012741Y027832D01*
X012778Y027906D02*
X012741Y027942D01*
X012741Y027979D01*
X012778Y028016D01*
X012851Y028016D01*
X012888Y027979D01*
X012888Y027942D01*
X012851Y027906D01*
X012962Y027832D02*
X012962Y027795D01*
X012962Y027832D02*
X013109Y027979D01*
X013109Y028016D01*
X012962Y028016D01*
X013733Y027981D02*
X013733Y027944D01*
X013770Y027907D01*
X013844Y027907D01*
X013880Y027871D01*
X013880Y027834D01*
X013844Y027797D01*
X013770Y027797D01*
X013733Y027834D01*
X013733Y027871D01*
X013770Y027907D01*
X013844Y027907D02*
X013880Y027944D01*
X013880Y027981D01*
X013844Y028018D01*
X013770Y028018D01*
X013733Y027981D01*
X013954Y027907D02*
X014065Y027907D01*
X014101Y027871D01*
X014101Y027834D01*
X014065Y027797D01*
X013991Y027797D01*
X013954Y027834D01*
X013954Y027907D01*
X014028Y027981D01*
X014101Y028018D01*
X014724Y028012D02*
X014870Y028012D01*
X014870Y027975D01*
X014724Y027828D01*
X014724Y027791D01*
X014945Y027828D02*
X014981Y027791D01*
X015055Y027791D01*
X015091Y027828D01*
X015091Y027975D01*
X015055Y028012D01*
X014981Y028012D01*
X014945Y027975D01*
X014945Y027938D01*
X014981Y027902D01*
X015091Y027902D01*
X015720Y027828D02*
X015720Y027791D01*
X015720Y027828D02*
X015866Y027975D01*
X015866Y028012D01*
X015720Y028012D01*
X015941Y027975D02*
X015941Y027938D01*
X015977Y027902D01*
X016051Y027902D01*
X016087Y027865D01*
X016087Y027828D01*
X016051Y027791D01*
X015977Y027791D01*
X015941Y027828D01*
X015941Y027865D01*
X015977Y027902D01*
X016051Y027902D02*
X016087Y027938D01*
X016087Y027975D01*
X016051Y028012D01*
X015977Y028012D01*
X015941Y027975D01*
X016716Y028012D02*
X016863Y028012D01*
X016863Y027975D01*
X016716Y027828D01*
X016716Y027791D01*
X016937Y027791D02*
X016937Y027828D01*
X017084Y027975D01*
X017084Y028012D01*
X016937Y028012D01*
X017708Y028006D02*
X017855Y028006D01*
X017855Y027969D01*
X017708Y027822D01*
X017708Y027786D01*
X017929Y027822D02*
X017966Y027786D01*
X018039Y027786D01*
X018076Y027822D01*
X018076Y027859D01*
X018039Y027896D01*
X017929Y027896D01*
X017929Y027822D01*
X017929Y027896D02*
X018002Y027969D01*
X018076Y028006D01*
X018714Y028002D02*
X018861Y028002D01*
X018861Y027965D01*
X018714Y027818D01*
X018714Y027782D01*
X018935Y027818D02*
X018971Y027782D01*
X019045Y027782D01*
X019082Y027818D01*
X019082Y027855D01*
X019045Y027892D01*
X019008Y027892D01*
X019045Y027892D02*
X019082Y027928D01*
X019082Y027965D01*
X019045Y028002D01*
X018971Y028002D01*
X018935Y027965D01*
X019724Y027990D02*
X019870Y027990D01*
X019870Y027953D01*
X019724Y027807D01*
X019724Y027770D01*
X019945Y027770D02*
X020091Y027917D01*
X020091Y027953D01*
X020055Y027990D01*
X019981Y027990D01*
X019945Y027953D01*
X019945Y027770D02*
X020091Y027770D01*
X020728Y027772D02*
X020728Y027809D01*
X020874Y027955D01*
X020874Y027992D01*
X020728Y027992D01*
X020949Y027919D02*
X021022Y027992D01*
X021022Y027772D01*
X020949Y027772D02*
X021095Y027772D01*
X021722Y027778D02*
X021722Y027814D01*
X021868Y027961D01*
X021868Y027998D01*
X021722Y027998D01*
X021943Y027961D02*
X021979Y027998D01*
X022053Y027998D01*
X022089Y027961D01*
X021943Y027814D01*
X021979Y027778D01*
X022053Y027778D01*
X022089Y027814D01*
X022089Y027961D01*
X021943Y027961D02*
X021943Y027814D01*
X022720Y027822D02*
X022756Y027786D01*
X022830Y027786D01*
X022866Y027822D01*
X022866Y027859D01*
X022830Y027896D01*
X022720Y027896D01*
X022720Y027822D01*
X022720Y027896D02*
X022793Y027969D01*
X022866Y028006D01*
X022941Y027969D02*
X022977Y028006D01*
X023051Y028006D01*
X023087Y027969D01*
X023087Y027822D01*
X023051Y027786D01*
X022977Y027786D01*
X022941Y027822D01*
X022977Y027896D02*
X023087Y027896D01*
X022977Y027896D02*
X022941Y027932D01*
X022941Y027969D01*
X024680Y027858D02*
X024680Y027785D01*
X024716Y027748D01*
X024827Y027748D01*
X024827Y027711D02*
X024827Y027895D01*
X024716Y027895D01*
X024680Y027858D01*
X024753Y027675D02*
X024790Y027675D01*
X024827Y027711D01*
X024901Y027748D02*
X024901Y027895D01*
X025011Y027895D01*
X025048Y027858D01*
X025048Y027748D01*
X025122Y027785D02*
X025122Y027858D01*
X025158Y027895D01*
X025269Y027895D01*
X025269Y027968D02*
X025269Y027748D01*
X025158Y027748D01*
X025122Y027785D01*
X025696Y027785D02*
X025732Y027748D01*
X025842Y027748D01*
X025842Y027711D02*
X025842Y027895D01*
X025732Y027895D01*
X025696Y027858D01*
X025696Y027785D01*
X025769Y027675D02*
X025806Y027675D01*
X025842Y027711D01*
X025917Y027748D02*
X025917Y027895D01*
X026027Y027895D01*
X026063Y027858D01*
X026063Y027748D01*
X026138Y027785D02*
X026138Y027858D01*
X026174Y027895D01*
X026284Y027895D01*
X026284Y027968D02*
X026284Y027748D01*
X026174Y027748D01*
X026138Y027785D01*
X026886Y023413D02*
X026922Y023413D01*
X026959Y023376D01*
X026996Y023413D01*
X027033Y023413D01*
X027069Y023376D01*
X027069Y023303D01*
X027033Y023266D01*
X027033Y023192D02*
X026996Y023192D01*
X026959Y023155D01*
X026959Y023045D01*
X027033Y023045D01*
X027069Y023082D01*
X027069Y023155D01*
X027033Y023192D01*
X026886Y023118D02*
X026959Y023045D01*
X026886Y023118D02*
X026849Y023192D01*
X026886Y023266D02*
X026849Y023303D01*
X026849Y023376D01*
X026886Y023413D01*
X026959Y023376D02*
X026959Y023339D01*
X027061Y022419D02*
X027061Y022272D01*
X027061Y022345D02*
X026841Y022345D01*
X026915Y022272D01*
X026988Y022198D02*
X026951Y022161D01*
X026951Y022051D01*
X027025Y022051D01*
X027061Y022087D01*
X027061Y022161D01*
X027025Y022198D01*
X026988Y022198D01*
X026878Y022124D02*
X026951Y022051D01*
X026878Y022124D02*
X026841Y022198D01*
X026884Y021422D02*
X027031Y021276D01*
X027067Y021312D01*
X027067Y021386D01*
X027031Y021422D01*
X026884Y021422D01*
X026847Y021386D01*
X026847Y021312D01*
X026884Y021276D01*
X027031Y021276D01*
X027031Y021201D02*
X026994Y021201D01*
X026957Y021165D01*
X026957Y021055D01*
X027031Y021055D01*
X027067Y021091D01*
X027067Y021165D01*
X027031Y021201D01*
X026957Y021055D02*
X026884Y021128D01*
X026847Y021201D01*
X026884Y020419D02*
X026847Y020382D01*
X026847Y020308D01*
X026884Y020272D01*
X026920Y020272D01*
X026957Y020308D01*
X026957Y020419D01*
X026884Y020419D02*
X027031Y020419D01*
X027067Y020382D01*
X027067Y020308D01*
X027031Y020272D01*
X027031Y020198D02*
X027067Y020161D01*
X027067Y020087D01*
X027031Y020051D01*
X026957Y020051D02*
X026920Y020124D01*
X026920Y020161D01*
X026957Y020198D01*
X027031Y020198D01*
X026957Y020051D02*
X026847Y020051D01*
X026847Y020198D01*
X026884Y019415D02*
X026847Y019378D01*
X026847Y019305D01*
X026884Y019268D01*
X026847Y019194D02*
X026847Y019047D01*
X026957Y019047D01*
X026920Y019120D01*
X026920Y019157D01*
X026957Y019194D01*
X027031Y019194D01*
X027067Y019157D01*
X027067Y019084D01*
X027031Y019047D01*
X027067Y019268D02*
X026920Y019415D01*
X026884Y019415D01*
X027067Y019415D02*
X027067Y019268D01*
X027029Y018422D02*
X027065Y018386D01*
X027065Y018312D01*
X027029Y018276D01*
X026992Y018276D01*
X026955Y018312D01*
X026955Y018386D01*
X026992Y018422D01*
X027029Y018422D01*
X026955Y018386D02*
X026919Y018422D01*
X026882Y018422D01*
X026845Y018386D01*
X026845Y018312D01*
X026882Y018276D01*
X026919Y018276D01*
X026955Y018312D01*
X026955Y018201D02*
X026955Y018055D01*
X026845Y018165D01*
X027065Y018165D01*
X027067Y017426D02*
X027067Y017280D01*
X027067Y017353D02*
X026847Y017353D01*
X026920Y017280D01*
X026957Y017205D02*
X027031Y017205D01*
X027067Y017169D01*
X027067Y017095D01*
X027031Y017059D01*
X026957Y017059D02*
X026920Y017132D01*
X026920Y017169D01*
X026957Y017205D01*
X026847Y017205D02*
X026847Y017059D01*
X026957Y017059D01*
X026890Y016432D02*
X027036Y016286D01*
X027073Y016322D01*
X027073Y016396D01*
X027036Y016432D01*
X026890Y016432D01*
X026853Y016396D01*
X026853Y016322D01*
X026890Y016286D01*
X027036Y016286D01*
X027036Y016211D02*
X026963Y016211D01*
X026926Y016175D01*
X026926Y016138D01*
X026963Y016065D01*
X026853Y016065D01*
X026853Y016211D01*
X027036Y016211D02*
X027073Y016175D01*
X027073Y016101D01*
X027036Y016065D01*
X024868Y006988D02*
X025015Y006915D01*
X024868Y006842D01*
X024868Y006767D02*
X024905Y006731D01*
X024905Y006657D01*
X024868Y006621D01*
X024832Y006621D01*
X024795Y006657D01*
X024795Y006731D01*
X024832Y006767D01*
X024868Y006767D01*
X024905Y006731D02*
X024942Y006767D01*
X024978Y006767D01*
X025015Y006731D01*
X025015Y006657D01*
X024978Y006621D01*
X024942Y006621D01*
X024905Y006657D01*
X024978Y006547D02*
X025015Y006547D01*
X025015Y006510D01*
X024978Y006510D01*
X024978Y006547D01*
X025015Y006436D02*
X025015Y006289D01*
X025015Y006363D02*
X024795Y006363D01*
X024868Y006289D01*
X024868Y005981D02*
X025015Y005907D01*
X024868Y005834D01*
X024868Y005760D02*
X024905Y005723D01*
X024905Y005649D01*
X024868Y005613D01*
X024832Y005613D01*
X024795Y005649D01*
X024795Y005723D01*
X024832Y005760D01*
X024868Y005760D01*
X024905Y005723D02*
X024942Y005760D01*
X024978Y005760D01*
X025015Y005723D01*
X025015Y005649D01*
X024978Y005613D01*
X024942Y005613D01*
X024905Y005649D01*
X024978Y005539D02*
X025015Y005539D01*
X025015Y005502D01*
X024978Y005502D01*
X024978Y005539D01*
X025015Y005428D02*
X025015Y005281D01*
X025015Y005355D02*
X024795Y005355D01*
X024868Y005281D01*
D21*
X010401Y012131D02*
X010403Y012164D01*
X010409Y012196D01*
X010418Y012228D01*
X010432Y012258D01*
X010448Y012286D01*
X010468Y012312D01*
X010491Y012336D01*
X010517Y012357D01*
X010545Y012374D01*
X010575Y012389D01*
X010606Y012399D01*
X010638Y012406D01*
X010671Y012409D01*
X010704Y012408D01*
X010736Y012403D01*
X010768Y012394D01*
X010799Y012382D01*
X010827Y012366D01*
X010854Y012347D01*
X010878Y012325D01*
X010900Y012300D01*
X010918Y012272D01*
X010933Y012243D01*
X010945Y012212D01*
X010953Y012180D01*
X010957Y012147D01*
X010957Y012115D01*
X010953Y012082D01*
X010945Y012050D01*
X010933Y012019D01*
X010918Y011990D01*
X010900Y011962D01*
X010878Y011937D01*
X010854Y011915D01*
X010827Y011896D01*
X010799Y011880D01*
X010768Y011868D01*
X010736Y011859D01*
X010704Y011854D01*
X010671Y011853D01*
X010638Y011856D01*
X010606Y011863D01*
X010575Y011873D01*
X010545Y011888D01*
X010517Y011905D01*
X010491Y011926D01*
X010468Y011950D01*
X010448Y011976D01*
X010432Y012004D01*
X010418Y012034D01*
X010409Y012066D01*
X010403Y012098D01*
X010401Y012131D01*
M02*
