G75*
G70*
%OFA0B0*%
%FSLAX24Y24*%
%IPPOS*%
%LPD*%
%AMOC8*
5,1,8,0,0,1.08239X$1,22.5*
%
%ADD10R,0.2756X0.2756*%
%ADD11C,0.0557*%
%ADD12C,0.0517*%
%ADD13C,0.0740*%
%ADD14C,0.0354*%
%ADD15C,0.0160*%
%ADD16C,0.0079*%
%ADD17C,0.0100*%
D10*
X016756Y019289D03*
D11*
X005773Y010350D02*
X005215Y010350D01*
X005215Y009366D02*
X005773Y009366D01*
D12*
X010223Y026699D02*
X010223Y027217D01*
X011223Y027217D02*
X011223Y026699D01*
X026637Y003454D02*
X027154Y003454D01*
X027154Y002454D02*
X026637Y002454D01*
D13*
X029091Y016555D02*
X029831Y016555D01*
X029825Y017549D02*
X029085Y017549D01*
X029083Y018545D02*
X029823Y018545D01*
X029825Y019537D02*
X029085Y019537D01*
X029085Y020541D02*
X029825Y020541D01*
X029825Y021545D02*
X029085Y021545D01*
X029079Y022541D02*
X029819Y022541D01*
X029827Y023535D02*
X029087Y023535D01*
X026179Y026496D02*
X026179Y027236D01*
X025181Y027228D02*
X025181Y026488D01*
X024187Y026482D02*
X024187Y027222D01*
X023183Y027220D02*
X023183Y026480D01*
X022173Y026492D02*
X022173Y027232D01*
X021167Y027236D02*
X021167Y026496D01*
X020175Y026501D02*
X020175Y027241D01*
X019179Y027241D02*
X019179Y026501D01*
X018183Y026501D02*
X018183Y027241D01*
X017193Y027247D02*
X017193Y026507D01*
X016201Y026505D02*
X016201Y027245D01*
X007234Y027330D02*
X007234Y026590D01*
X006238Y026574D02*
X006238Y027314D01*
X005778Y022482D02*
X005038Y022482D01*
X005038Y021486D02*
X005778Y021486D01*
X005778Y020482D02*
X005038Y020482D01*
X005038Y019478D02*
X005778Y019478D01*
X005778Y018474D02*
X005038Y018474D01*
X005026Y017474D02*
X005766Y017474D01*
X005785Y016472D02*
X005045Y016472D01*
X005057Y015462D02*
X005797Y015462D01*
D14*
X006746Y015934D03*
X006628Y014596D03*
X007494Y017194D03*
X006667Y019478D03*
X006667Y020462D03*
X007266Y021486D03*
X008951Y022549D03*
X010014Y021997D03*
X010663Y020344D03*
X009305Y020226D03*
X010841Y018690D03*
X011825Y017982D03*
X011746Y016761D03*
X010801Y016368D03*
X011746Y015501D03*
X011813Y014596D03*
X013518Y014557D03*
X014266Y015068D03*
X014817Y014557D03*
X015683Y015147D03*
X015455Y015934D03*
X015841Y016309D03*
X018045Y016446D03*
X018203Y014871D03*
X018321Y013887D03*
X019049Y013612D03*
X019541Y014911D03*
X021077Y014005D03*
X020526Y013139D03*
X021667Y011289D03*
X021667Y009714D03*
X015998Y012942D03*
X011077Y012942D03*
X009620Y010462D03*
X008045Y008769D03*
X006589Y007588D03*
X008459Y005856D03*
X013163Y007588D03*
X013793Y006643D03*
X022100Y003454D03*
X027770Y011289D03*
X028478Y013001D03*
X029423Y014005D03*
X027573Y014753D03*
X027837Y016564D03*
X028152Y017352D03*
X027789Y018100D03*
X027730Y019513D03*
X027947Y020580D03*
X027837Y021631D03*
X025132Y020580D03*
X023636Y021210D03*
X022770Y020974D03*
X022022Y021289D03*
X020841Y020789D03*
X020829Y022942D03*
X022770Y022864D03*
X019935Y024950D03*
X017849Y024517D03*
X016352Y025620D03*
X015762Y024517D03*
X015132Y025226D03*
X014108Y026309D03*
X012534Y026092D03*
X012534Y026840D03*
X010919Y025226D03*
X009384Y024517D03*
X008203Y025620D03*
X009384Y026171D03*
X013675Y023100D03*
X014108Y022312D03*
X014974Y022706D03*
X015132Y023572D03*
X013006Y022155D03*
X013006Y020501D03*
X019463Y017549D03*
X021667Y018080D03*
X022593Y017726D03*
X023951Y017627D03*
X024069Y016840D03*
X023833Y018513D03*
D15*
X023833Y019419D01*
X023951Y019537D01*
X027707Y019537D01*
X027947Y020580D02*
X025132Y020580D01*
X024057Y021631D02*
X023636Y021210D01*
X024057Y021631D02*
X027837Y021631D01*
X027789Y018100D02*
X022908Y018100D01*
X022593Y017726D01*
X021667Y018080D02*
X021667Y019419D01*
X021786Y019537D01*
X022022Y019793D01*
X022022Y021289D01*
X022022Y024320D01*
X021825Y024517D01*
X017849Y024517D01*
X015762Y024517D01*
X015132Y025226D02*
X014660Y024911D01*
X014660Y023021D01*
X014974Y022706D01*
X014108Y022312D02*
X014108Y026309D01*
X013675Y025856D02*
X013439Y026092D01*
X012534Y026092D01*
X013675Y025856D02*
X013675Y023100D01*
X013006Y022155D02*
X012612Y022549D01*
X008951Y022549D01*
X008203Y023060D01*
X008203Y025620D01*
X009384Y026171D02*
X009384Y024517D01*
X010014Y021997D02*
X010014Y020501D01*
X010211Y020344D01*
X010663Y020344D01*
X009305Y020226D02*
X009305Y021131D01*
X009069Y021368D01*
X007384Y021368D01*
X007297Y020462D02*
X006667Y020462D01*
X007297Y020462D02*
X007652Y020147D01*
X007652Y018927D01*
X007888Y018690D01*
X010841Y018690D01*
X011825Y017982D02*
X007652Y017982D01*
X007219Y018257D01*
X007219Y019360D01*
X007022Y019478D01*
X006667Y019478D01*
X007494Y017194D02*
X007494Y016958D01*
X008085Y016368D01*
X010801Y016368D01*
X011746Y016761D02*
X012849Y016761D01*
X013006Y016978D01*
X013006Y020501D01*
X013006Y022155D01*
X015841Y016309D02*
X017927Y016309D01*
X018045Y016446D02*
X019266Y016446D01*
X019266Y017352D01*
X019463Y017549D01*
X020034Y018080D01*
X021667Y018080D01*
X023951Y017588D02*
X024187Y017352D01*
X028152Y017352D01*
X027837Y016564D02*
X024345Y016564D01*
X024069Y016840D01*
X021077Y014005D02*
X029423Y014005D01*
X028478Y013001D02*
X027593Y013612D01*
X019049Y013612D01*
X018439Y014005D02*
X019030Y014478D01*
X027258Y014478D01*
X027534Y014753D01*
X027770Y011289D02*
X021667Y011289D01*
X021667Y009714D02*
X021667Y006761D01*
X022100Y006328D01*
X022100Y003454D01*
X010014Y003454D01*
X007750Y005718D01*
X007750Y006407D01*
X008419Y007076D01*
X013636Y007076D01*
X013793Y006919D01*
X013793Y006643D01*
X013163Y007588D02*
X006589Y007588D01*
X008459Y005856D02*
X014837Y005856D01*
X015211Y006131D01*
X015211Y014753D01*
X015683Y015147D01*
X016471Y013139D02*
X015998Y012942D01*
X016471Y013139D02*
X020526Y013139D01*
X019541Y014911D02*
X019541Y016210D01*
X019266Y016446D01*
X020829Y020789D02*
X020829Y022942D01*
X022770Y022864D02*
X022770Y020974D01*
X013518Y014557D02*
X012927Y014557D01*
X012022Y015501D01*
X011746Y015501D01*
X011813Y014596D02*
X006628Y014596D01*
X009620Y012549D02*
X010014Y012942D01*
X011077Y012942D01*
X009620Y012549D02*
X009620Y010462D01*
D16*
X008045Y008769D02*
X008045Y012942D01*
X008439Y013257D01*
X013951Y013257D01*
X014266Y013494D01*
X014266Y015068D01*
X014266Y015423D01*
X014502Y015620D01*
X017967Y015620D01*
X018203Y015383D01*
X018203Y014871D01*
X018439Y014005D02*
X018321Y013887D01*
X017927Y016309D02*
X018045Y016446D01*
X015455Y015934D02*
X006746Y015934D01*
X011077Y012942D02*
X014581Y012942D01*
X014817Y013100D01*
X014817Y014557D01*
X020829Y020789D02*
X020841Y020789D01*
X023951Y017627D02*
X023951Y017588D01*
X027534Y014753D02*
X027573Y014753D01*
X027730Y019513D02*
X027707Y019537D01*
X016352Y025620D02*
X015211Y024675D01*
X015132Y024596D01*
X015132Y023572D01*
X012534Y026840D02*
X010919Y025226D01*
X007266Y021486D02*
X007384Y021368D01*
X013793Y006643D02*
X013793Y006604D01*
D17*
X004201Y000787D02*
X004201Y028005D01*
X030701Y028005D01*
X030701Y000787D01*
X004201Y000787D01*
X004201Y000880D02*
X030701Y000880D01*
X030701Y000979D02*
X004201Y000979D01*
X004201Y001077D02*
X030701Y001077D01*
X030701Y001176D02*
X004201Y001176D01*
X004201Y001274D02*
X030701Y001274D01*
X030701Y001373D02*
X004201Y001373D01*
X004201Y001471D02*
X030701Y001471D01*
X030701Y001570D02*
X004201Y001570D01*
X004201Y001668D02*
X030701Y001668D01*
X030701Y001767D02*
X004201Y001767D01*
X004201Y001865D02*
X030701Y001865D01*
X030701Y001964D02*
X027405Y001964D01*
X027465Y001989D02*
X027620Y002143D01*
X027703Y002345D01*
X027703Y002563D01*
X027620Y002765D01*
X027465Y002919D01*
X027381Y002954D01*
X027465Y002989D01*
X027620Y003143D01*
X027703Y003345D01*
X027703Y003563D01*
X027620Y003765D01*
X027465Y003919D01*
X027264Y004003D01*
X026528Y004003D01*
X026326Y003919D01*
X026172Y003765D01*
X026088Y003563D01*
X026088Y003345D01*
X026172Y003143D01*
X026326Y002989D01*
X026410Y002954D01*
X026326Y002919D01*
X026172Y002765D01*
X026088Y002563D01*
X026088Y002345D01*
X026172Y002143D01*
X026326Y001989D01*
X026528Y001905D01*
X027264Y001905D01*
X027465Y001989D01*
X027539Y002063D02*
X030701Y002063D01*
X030701Y002161D02*
X027627Y002161D01*
X027668Y002260D02*
X030701Y002260D01*
X030701Y002358D02*
X027703Y002358D01*
X027703Y002457D02*
X030701Y002457D01*
X030701Y002555D02*
X027703Y002555D01*
X027666Y002654D02*
X030701Y002654D01*
X030701Y002752D02*
X027625Y002752D01*
X027534Y002851D02*
X030701Y002851D01*
X030701Y002949D02*
X027393Y002949D01*
X027524Y003048D02*
X030701Y003048D01*
X030701Y003147D02*
X027621Y003147D01*
X027662Y003245D02*
X030701Y003245D01*
X030701Y003344D02*
X027703Y003344D01*
X027703Y003442D02*
X030701Y003442D01*
X030701Y003541D02*
X027703Y003541D01*
X027672Y003639D02*
X030701Y003639D01*
X030701Y003738D02*
X027631Y003738D01*
X027548Y003836D02*
X030701Y003836D01*
X030701Y003935D02*
X027428Y003935D01*
X026364Y003935D02*
X022470Y003935D01*
X022470Y004033D02*
X030701Y004033D01*
X030701Y004132D02*
X022470Y004132D01*
X022470Y004231D02*
X030701Y004231D01*
X030701Y004329D02*
X022470Y004329D01*
X022470Y004428D02*
X030701Y004428D01*
X030701Y004526D02*
X022470Y004526D01*
X022470Y004625D02*
X030701Y004625D01*
X030701Y004723D02*
X022470Y004723D01*
X022470Y004822D02*
X030701Y004822D01*
X030701Y004920D02*
X022470Y004920D01*
X022470Y005019D02*
X030701Y005019D01*
X030701Y005117D02*
X022470Y005117D01*
X022470Y005216D02*
X030701Y005216D01*
X030701Y005314D02*
X022470Y005314D01*
X022470Y005413D02*
X030701Y005413D01*
X030701Y005512D02*
X022470Y005512D01*
X022470Y005610D02*
X030701Y005610D01*
X030701Y005709D02*
X022470Y005709D01*
X022470Y005807D02*
X030701Y005807D01*
X030701Y005906D02*
X022470Y005906D01*
X022470Y006004D02*
X030701Y006004D01*
X030701Y006103D02*
X022470Y006103D01*
X022470Y006201D02*
X030701Y006201D01*
X030701Y006300D02*
X022470Y006300D01*
X022470Y006255D02*
X022470Y006402D01*
X022414Y006538D01*
X022037Y006914D01*
X022037Y009423D01*
X022063Y009449D01*
X022135Y009621D01*
X022135Y009807D01*
X022063Y009979D01*
X021932Y010110D01*
X021760Y010181D01*
X021574Y010181D01*
X021403Y010110D01*
X021271Y009979D01*
X021200Y009807D01*
X021200Y009621D01*
X021271Y009449D01*
X021297Y009423D01*
X021297Y006835D01*
X021297Y006688D01*
X021354Y006552D01*
X021730Y006175D01*
X021730Y003824D01*
X010167Y003824D01*
X008588Y005404D01*
X008723Y005460D01*
X008749Y005486D01*
X014809Y005486D01*
X014854Y005479D01*
X014882Y005486D01*
X014910Y005486D01*
X014952Y005503D01*
X014997Y005514D01*
X015020Y005531D01*
X015046Y005542D01*
X015079Y005574D01*
X015394Y005807D01*
X015420Y005818D01*
X015453Y005850D01*
X015489Y005877D01*
X015504Y005902D01*
X015524Y005922D01*
X015542Y005964D01*
X015565Y006003D01*
X015570Y006031D01*
X015581Y006058D01*
X015581Y006103D01*
X021730Y006103D01*
X021730Y006004D02*
X015566Y006004D01*
X015581Y006103D02*
X015588Y006149D01*
X015581Y006176D01*
X015581Y012729D01*
X015602Y012678D01*
X015733Y012546D01*
X015905Y012475D01*
X016091Y012475D01*
X016263Y012546D01*
X016394Y012678D01*
X016409Y012713D01*
X016545Y012769D01*
X020235Y012769D01*
X020261Y012743D01*
X020433Y012672D01*
X020619Y012672D01*
X020790Y012743D01*
X020922Y012875D01*
X020993Y013046D01*
X020993Y013232D01*
X020989Y013242D01*
X027477Y013242D01*
X028031Y012860D01*
X028082Y012737D01*
X028214Y012605D01*
X028385Y012534D01*
X028571Y012534D01*
X028743Y012605D01*
X028874Y012737D01*
X028946Y012908D01*
X028946Y013094D01*
X028874Y013266D01*
X028743Y013397D01*
X028571Y013469D01*
X028452Y013469D01*
X027830Y013897D01*
X027802Y013925D01*
X027770Y013938D01*
X027742Y013958D01*
X027703Y013966D01*
X027666Y013982D01*
X027632Y013982D01*
X027598Y013989D01*
X027559Y013982D01*
X019340Y013982D01*
X019314Y014008D01*
X019142Y014079D01*
X019123Y014079D01*
X019159Y014108D01*
X027332Y014108D01*
X027468Y014164D01*
X027572Y014268D01*
X027590Y014286D01*
X027666Y014286D01*
X027838Y014357D01*
X027969Y014489D01*
X028040Y014660D01*
X028040Y014846D01*
X027969Y015018D01*
X027838Y015149D01*
X027666Y015221D01*
X027480Y015221D01*
X027308Y015149D01*
X027177Y015018D01*
X027108Y014851D01*
X027105Y014848D01*
X020009Y014848D01*
X020009Y015004D01*
X019937Y015175D01*
X019911Y015202D01*
X019911Y016151D01*
X019916Y016165D01*
X019911Y016224D01*
X019911Y016284D01*
X019906Y016297D01*
X019905Y016312D01*
X019878Y016365D01*
X019855Y016420D01*
X019845Y016430D01*
X019838Y016443D01*
X019793Y016482D01*
X019751Y016524D01*
X019737Y016529D01*
X019636Y016616D01*
X019636Y017115D01*
X019727Y017153D01*
X019859Y017284D01*
X019930Y017456D01*
X019930Y017478D01*
X020179Y017710D01*
X021377Y017710D01*
X021403Y017684D01*
X021574Y017613D01*
X021760Y017613D01*
X021932Y017684D01*
X022063Y017816D01*
X022135Y017987D01*
X022135Y018173D01*
X022063Y018345D01*
X022037Y018371D01*
X022037Y019264D01*
X022052Y019280D01*
X022099Y019327D01*
X022102Y019334D01*
X022289Y019536D01*
X022335Y019583D01*
X022338Y019590D01*
X022344Y019596D01*
X022366Y019658D01*
X022392Y019719D01*
X022392Y019727D01*
X022394Y019734D01*
X022392Y019800D01*
X022392Y020691D01*
X022505Y020578D01*
X022677Y020507D01*
X022863Y020507D01*
X023034Y020578D01*
X023166Y020709D01*
X023237Y020881D01*
X023237Y020953D01*
X023240Y020945D01*
X023371Y020814D01*
X023543Y020743D01*
X023729Y020743D01*
X023901Y020814D01*
X024032Y020945D01*
X024103Y021117D01*
X024103Y021154D01*
X024210Y021261D01*
X027546Y021261D01*
X027572Y021235D01*
X027744Y021164D01*
X027930Y021164D01*
X028101Y021235D01*
X028233Y021367D01*
X028304Y021538D01*
X028304Y021724D01*
X028233Y021896D01*
X028101Y022027D01*
X027930Y022098D01*
X027744Y022098D01*
X027572Y022027D01*
X027546Y022001D01*
X024131Y022001D01*
X023984Y022001D01*
X023848Y021945D01*
X023580Y021677D01*
X023543Y021677D01*
X023371Y021606D01*
X023240Y021475D01*
X023169Y021303D01*
X023169Y021231D01*
X023166Y021238D01*
X023140Y021265D01*
X023140Y022573D01*
X023166Y022599D01*
X023237Y022771D01*
X023237Y022957D01*
X023166Y023128D01*
X023034Y023260D01*
X022863Y023331D01*
X022677Y023331D01*
X022505Y023260D01*
X022392Y023146D01*
X022392Y024247D01*
X022392Y024394D01*
X022335Y024530D01*
X022139Y024727D01*
X022034Y024831D01*
X021898Y024887D01*
X018139Y024887D01*
X018113Y024913D01*
X017941Y024984D01*
X017756Y024984D01*
X017584Y024913D01*
X017558Y024887D01*
X016053Y024887D01*
X016026Y024913D01*
X016019Y024916D01*
X016304Y025152D01*
X016445Y025152D01*
X016617Y025223D01*
X016748Y025355D01*
X016820Y025527D01*
X016820Y025712D01*
X016748Y025884D01*
X016631Y026002D01*
X016698Y026069D01*
X016819Y025948D01*
X017062Y025847D01*
X017324Y025847D01*
X017567Y025948D01*
X017685Y026066D01*
X017809Y025942D01*
X018052Y025841D01*
X018314Y025841D01*
X018557Y025942D01*
X018681Y026066D01*
X018805Y025942D01*
X019048Y025841D01*
X019310Y025841D01*
X019553Y025942D01*
X019677Y026066D01*
X019801Y025942D01*
X020044Y025841D01*
X020307Y025841D01*
X020549Y025942D01*
X020668Y026061D01*
X020794Y025936D01*
X021036Y025836D01*
X021299Y025836D01*
X021541Y025936D01*
X021668Y026063D01*
X021799Y025932D01*
X022042Y025832D01*
X022305Y025832D01*
X022547Y025932D01*
X022672Y026057D01*
X022809Y025920D01*
X023052Y025820D01*
X023314Y025820D01*
X023557Y025920D01*
X023686Y026049D01*
X023813Y025922D01*
X024056Y025822D01*
X024318Y025822D01*
X024561Y025922D01*
X024687Y026048D01*
X024807Y025928D01*
X025050Y025828D01*
X025312Y025828D01*
X025555Y025928D01*
X025684Y026057D01*
X025805Y025936D01*
X026048Y025836D01*
X026310Y025836D01*
X026553Y025936D01*
X026739Y026122D01*
X026839Y026364D01*
X026839Y027367D01*
X026739Y027609D01*
X026553Y027795D01*
X026310Y027896D01*
X026048Y027896D01*
X025805Y027795D01*
X025676Y027666D01*
X025555Y027787D01*
X025312Y027888D01*
X025050Y027888D01*
X024807Y027787D01*
X024681Y027661D01*
X024561Y027781D01*
X024318Y027882D01*
X024056Y027882D01*
X023813Y027781D01*
X023684Y027652D01*
X023557Y027779D01*
X023314Y027880D01*
X023052Y027880D01*
X022809Y027779D01*
X022684Y027654D01*
X022547Y027791D01*
X022305Y027892D01*
X022042Y027892D01*
X021799Y027791D01*
X021672Y027664D01*
X021541Y027795D01*
X021299Y027896D01*
X021036Y027896D01*
X020794Y027795D01*
X020674Y027676D01*
X020549Y027801D01*
X020307Y027901D01*
X020044Y027901D01*
X019801Y027801D01*
X019677Y027677D01*
X019553Y027801D01*
X019310Y027901D01*
X019048Y027901D01*
X018805Y027801D01*
X018681Y027677D01*
X018557Y027801D01*
X018314Y027901D01*
X018052Y027901D01*
X017809Y027801D01*
X017691Y027683D01*
X017567Y027807D01*
X017324Y027907D01*
X017062Y027907D01*
X016819Y027807D01*
X016696Y027684D01*
X016696Y027684D01*
X016575Y027805D01*
X016332Y027905D01*
X016070Y027905D01*
X015827Y027805D01*
X015641Y027619D01*
X015541Y027377D01*
X015541Y026374D01*
X015641Y026132D01*
X015827Y025946D01*
X015962Y025890D01*
X015956Y025884D01*
X015885Y025712D01*
X015885Y025660D01*
X015567Y025397D01*
X015528Y025490D01*
X015397Y025622D01*
X015225Y025693D01*
X015039Y025693D01*
X014867Y025622D01*
X014736Y025490D01*
X014688Y025374D01*
X014484Y025239D01*
X014478Y025236D01*
X014478Y026018D01*
X014504Y026044D01*
X014575Y026216D01*
X014575Y026401D01*
X014504Y026573D01*
X014373Y026705D01*
X014201Y026776D01*
X014015Y026776D01*
X013844Y026705D01*
X013712Y026573D01*
X013644Y026408D01*
X013513Y026462D01*
X012824Y026462D01*
X012798Y026488D01*
X012626Y026559D01*
X012441Y026559D01*
X012269Y026488D01*
X012137Y026357D01*
X012066Y026185D01*
X012066Y025999D01*
X012137Y025827D01*
X012269Y025696D01*
X012441Y025625D01*
X012626Y025625D01*
X012798Y025696D01*
X012824Y025722D01*
X013286Y025722D01*
X013305Y025702D01*
X013305Y023391D01*
X013279Y023364D01*
X013208Y023193D01*
X013208Y023007D01*
X013279Y022835D01*
X013411Y022704D01*
X013582Y022633D01*
X013738Y022633D01*
X013738Y022603D01*
X013712Y022577D01*
X013641Y022405D01*
X013641Y022219D01*
X013712Y022048D01*
X013844Y021916D01*
X014015Y021845D01*
X014201Y021845D01*
X014373Y021916D01*
X014504Y022048D01*
X014575Y022219D01*
X014575Y022405D01*
X014504Y022577D01*
X014478Y022603D01*
X014478Y022679D01*
X014507Y022650D01*
X014507Y022613D01*
X014578Y022441D01*
X014710Y022310D01*
X014882Y022239D01*
X015067Y022239D01*
X015239Y022310D01*
X015371Y022441D01*
X015442Y022613D01*
X015442Y022799D01*
X015371Y022971D01*
X015239Y023102D01*
X015228Y023107D01*
X015397Y023176D01*
X015528Y023308D01*
X015599Y023479D01*
X015599Y023665D01*
X015528Y023837D01*
X015461Y023904D01*
X015461Y024157D01*
X015497Y024121D01*
X015669Y024050D01*
X015855Y024050D01*
X016026Y024121D01*
X016053Y024147D01*
X017558Y024147D01*
X017584Y024121D01*
X017756Y024050D01*
X017941Y024050D01*
X018113Y024121D01*
X018139Y024147D01*
X021652Y024147D01*
X021652Y021579D01*
X021626Y021553D01*
X021555Y021382D01*
X021555Y021196D01*
X021626Y021024D01*
X021652Y020998D01*
X021652Y019937D01*
X021519Y019793D01*
X021458Y019732D01*
X021354Y019628D01*
X021297Y019492D01*
X021297Y018450D01*
X020040Y018450D01*
X019973Y018453D01*
X019967Y018450D01*
X019960Y018450D01*
X019898Y018425D01*
X019835Y018401D01*
X019830Y018396D01*
X019824Y018394D01*
X019777Y018346D01*
X019421Y018016D01*
X019370Y018016D01*
X019198Y017945D01*
X019067Y017813D01*
X018996Y017642D01*
X018996Y017605D01*
X018952Y017561D01*
X018896Y017425D01*
X018896Y016816D01*
X018336Y016816D01*
X018310Y016842D01*
X018138Y016913D01*
X017952Y016913D01*
X017781Y016842D01*
X017649Y016711D01*
X017636Y016678D01*
X016131Y016678D01*
X016105Y016705D01*
X015934Y016776D01*
X015748Y016776D01*
X015576Y016705D01*
X015445Y016573D01*
X015374Y016402D01*
X015362Y016402D01*
X015190Y016331D01*
X015123Y016264D01*
X011264Y016264D01*
X011268Y016275D01*
X011268Y016460D01*
X011197Y016632D01*
X011066Y016764D01*
X010894Y016835D01*
X010708Y016835D01*
X010537Y016764D01*
X010511Y016738D01*
X008238Y016738D01*
X007936Y017040D01*
X007961Y017101D01*
X007961Y017287D01*
X007890Y017459D01*
X007759Y017590D01*
X007707Y017612D01*
X011534Y017612D01*
X011560Y017586D01*
X011732Y017515D01*
X011918Y017515D01*
X012089Y017586D01*
X012221Y017717D01*
X012292Y017889D01*
X012292Y018075D01*
X012221Y018246D01*
X012089Y018378D01*
X011918Y018449D01*
X011732Y018449D01*
X011560Y018378D01*
X011534Y018352D01*
X011163Y018352D01*
X011237Y018426D01*
X011308Y018597D01*
X011308Y018783D01*
X011237Y018955D01*
X011105Y019086D01*
X010934Y019158D01*
X010748Y019158D01*
X010576Y019086D01*
X010550Y019060D01*
X008041Y019060D01*
X008022Y019080D01*
X008022Y020085D01*
X008025Y020095D01*
X008022Y020158D01*
X008022Y020221D01*
X008017Y020231D01*
X008017Y020242D01*
X007989Y020299D01*
X007965Y020357D01*
X007957Y020365D01*
X007952Y020375D01*
X007905Y020417D01*
X007861Y020461D01*
X007851Y020465D01*
X007551Y020731D01*
X007507Y020776D01*
X007496Y020780D01*
X007488Y020787D01*
X007429Y020808D01*
X007371Y020832D01*
X007360Y020832D01*
X007349Y020836D01*
X007286Y020832D01*
X006958Y020832D01*
X006932Y020858D01*
X006760Y020929D01*
X006574Y020929D01*
X006403Y020858D01*
X006356Y020811D01*
X006337Y020856D01*
X006209Y020984D01*
X006337Y021112D01*
X006438Y021354D01*
X006438Y021617D01*
X006337Y021859D01*
X006213Y021984D01*
X006337Y022108D01*
X006438Y022350D01*
X006438Y022613D01*
X006337Y022856D01*
X006151Y023041D01*
X005909Y023142D01*
X004906Y023142D01*
X004664Y023041D01*
X004478Y022856D01*
X004378Y022613D01*
X004378Y022350D01*
X004478Y022108D01*
X004602Y021984D01*
X004478Y021859D01*
X004378Y021617D01*
X004378Y021354D01*
X004478Y021112D01*
X004606Y020984D01*
X004478Y020856D01*
X004378Y020613D01*
X004378Y020350D01*
X004478Y020108D01*
X004606Y019980D01*
X004478Y019852D01*
X004378Y019609D01*
X004378Y019346D01*
X004478Y019104D01*
X004606Y018976D01*
X004478Y018848D01*
X004378Y018605D01*
X004378Y018343D01*
X004478Y018100D01*
X004598Y017980D01*
X004466Y017848D01*
X004366Y017605D01*
X004366Y017343D01*
X004466Y017100D01*
X004603Y016963D01*
X004486Y016846D01*
X004385Y016603D01*
X004385Y016341D01*
X004486Y016098D01*
X004623Y015961D01*
X004498Y015836D01*
X004397Y015593D01*
X004397Y015331D01*
X004498Y015088D01*
X004683Y014903D01*
X004926Y014802D01*
X005929Y014802D01*
X006171Y014903D01*
X006357Y015088D01*
X006457Y015331D01*
X006457Y015563D01*
X006481Y015538D01*
X006653Y015467D01*
X006839Y015467D01*
X007011Y015538D01*
X007077Y015605D01*
X011283Y015605D01*
X011279Y015594D01*
X011279Y015408D01*
X011350Y015237D01*
X011481Y015105D01*
X011652Y015035D01*
X011548Y014992D01*
X011522Y014966D01*
X006919Y014966D01*
X006893Y014992D01*
X006721Y015063D01*
X006535Y015063D01*
X006363Y014992D01*
X006232Y014861D01*
X006161Y014689D01*
X006161Y014503D01*
X006232Y014331D01*
X006363Y014200D01*
X006535Y014129D01*
X006721Y014129D01*
X006893Y014200D01*
X006919Y014226D01*
X011522Y014226D01*
X011548Y014200D01*
X011720Y014129D01*
X011906Y014129D01*
X012078Y014200D01*
X012209Y014331D01*
X012280Y014503D01*
X012280Y014689D01*
X012274Y014703D01*
X012612Y014351D01*
X012614Y014347D01*
X012663Y014298D01*
X012711Y014247D01*
X012715Y014246D01*
X012718Y014243D01*
X012781Y014217D01*
X012846Y014188D01*
X012850Y014188D01*
X012854Y014187D01*
X012922Y014187D01*
X012993Y014185D01*
X012997Y014187D01*
X013227Y014187D01*
X013253Y014160D01*
X013425Y014089D01*
X013611Y014089D01*
X013782Y014160D01*
X013914Y014292D01*
X013936Y014347D01*
X013936Y013658D01*
X013841Y013587D01*
X008457Y013587D01*
X008410Y013592D01*
X008392Y013587D01*
X008374Y013587D01*
X008330Y013569D01*
X008284Y013555D01*
X008270Y013544D01*
X008252Y013537D01*
X008219Y013503D01*
X007876Y013229D01*
X007859Y013222D01*
X007825Y013188D01*
X007788Y013159D01*
X007779Y013142D01*
X007766Y013129D01*
X007748Y013085D01*
X007725Y013044D01*
X007723Y013025D01*
X007716Y013008D01*
X007716Y012961D01*
X007711Y012914D01*
X007716Y012896D01*
X007716Y009100D01*
X007649Y009034D01*
X007578Y008862D01*
X006043Y008862D01*
X006095Y008883D02*
X006255Y009043D01*
X006342Y009252D01*
X006342Y009479D01*
X006255Y009688D01*
X006095Y009848D01*
X005886Y009934D01*
X005102Y009934D01*
X004893Y009848D01*
X004733Y009688D01*
X004647Y009479D01*
X004647Y009252D01*
X004733Y009043D01*
X004893Y008883D01*
X005102Y008797D01*
X005886Y008797D01*
X006095Y008883D01*
X006172Y008961D02*
X007619Y008961D01*
X007578Y008862D02*
X007578Y008676D01*
X007649Y008504D01*
X007781Y008373D01*
X007952Y008302D01*
X008138Y008302D01*
X008310Y008373D01*
X008441Y008504D01*
X008512Y008676D01*
X008512Y008862D01*
X014841Y008862D01*
X014841Y008764D02*
X008512Y008764D01*
X008512Y008862D02*
X008441Y009034D01*
X008375Y009100D01*
X008375Y012784D01*
X008555Y012928D01*
X009476Y012928D01*
X009306Y012758D01*
X009250Y012622D01*
X009250Y012475D01*
X009250Y010753D01*
X009224Y010727D01*
X009153Y010555D01*
X009153Y010369D01*
X009224Y010197D01*
X009356Y010066D01*
X009527Y009995D01*
X009713Y009995D01*
X009885Y010066D01*
X010016Y010197D01*
X010087Y010369D01*
X010087Y010555D01*
X010016Y010727D01*
X009990Y010753D01*
X009990Y012395D01*
X010167Y012572D01*
X010786Y012572D01*
X010812Y012546D01*
X010984Y012475D01*
X011170Y012475D01*
X011341Y012546D01*
X011408Y012613D01*
X014548Y012613D01*
X014580Y012607D01*
X011402Y012607D01*
X011249Y012508D02*
X014841Y012508D01*
X014841Y012410D02*
X010004Y012410D01*
X009990Y012311D02*
X014841Y012311D01*
X014841Y012213D02*
X009990Y012213D01*
X009990Y012114D02*
X014841Y012114D01*
X014841Y012015D02*
X009990Y012015D01*
X009990Y011917D02*
X014841Y011917D01*
X014841Y011818D02*
X009990Y011818D01*
X009990Y011720D02*
X014841Y011720D01*
X014841Y011621D02*
X009990Y011621D01*
X009990Y011523D02*
X014841Y011523D01*
X014841Y011424D02*
X009990Y011424D01*
X009990Y011326D02*
X014841Y011326D01*
X014841Y011227D02*
X009990Y011227D01*
X009990Y011129D02*
X014841Y011129D01*
X014841Y011030D02*
X009990Y011030D01*
X009990Y010931D02*
X014841Y010931D01*
X014841Y010833D02*
X009990Y010833D01*
X010008Y010734D02*
X014841Y010734D01*
X014841Y010636D02*
X010054Y010636D01*
X010087Y010537D02*
X014841Y010537D01*
X014841Y010439D02*
X010087Y010439D01*
X010075Y010340D02*
X014841Y010340D01*
X014841Y010242D02*
X010034Y010242D01*
X009962Y010143D02*
X014841Y010143D01*
X014841Y010045D02*
X009833Y010045D01*
X009407Y010045D02*
X008375Y010045D01*
X008375Y010143D02*
X009278Y010143D01*
X009206Y010242D02*
X008375Y010242D01*
X008375Y010340D02*
X009165Y010340D01*
X009153Y010439D02*
X008375Y010439D01*
X008375Y010537D02*
X009153Y010537D01*
X009186Y010636D02*
X008375Y010636D01*
X008375Y010734D02*
X009232Y010734D01*
X009250Y010833D02*
X008375Y010833D01*
X008375Y010931D02*
X009250Y010931D01*
X009250Y011030D02*
X008375Y011030D01*
X008375Y011129D02*
X009250Y011129D01*
X009250Y011227D02*
X008375Y011227D01*
X008375Y011326D02*
X009250Y011326D01*
X009250Y011424D02*
X008375Y011424D01*
X008375Y011523D02*
X009250Y011523D01*
X009250Y011621D02*
X008375Y011621D01*
X008375Y011720D02*
X009250Y011720D01*
X009250Y011818D02*
X008375Y011818D01*
X008375Y011917D02*
X009250Y011917D01*
X009250Y012015D02*
X008375Y012015D01*
X008375Y012114D02*
X009250Y012114D01*
X009250Y012213D02*
X008375Y012213D01*
X008375Y012311D02*
X009250Y012311D01*
X009250Y012410D02*
X008375Y012410D01*
X008375Y012508D02*
X009250Y012508D01*
X009250Y012607D02*
X008375Y012607D01*
X008375Y012705D02*
X009285Y012705D01*
X009352Y012804D02*
X008399Y012804D01*
X008523Y012902D02*
X009451Y012902D01*
X010103Y012508D02*
X010904Y012508D01*
X011588Y014183D02*
X006853Y014183D01*
X006403Y014183D02*
X004201Y014183D01*
X004201Y014085D02*
X013936Y014085D01*
X013936Y014183D02*
X013805Y014183D01*
X013904Y014282D02*
X013936Y014282D01*
X013936Y013986D02*
X004201Y013986D01*
X004201Y013888D02*
X013936Y013888D01*
X013936Y013789D02*
X004201Y013789D01*
X004201Y013691D02*
X013936Y013691D01*
X013848Y013592D02*
X004201Y013592D01*
X004201Y013494D02*
X008207Y013494D01*
X008084Y013395D02*
X004201Y013395D01*
X004201Y013296D02*
X007961Y013296D01*
X007835Y013198D02*
X004201Y013198D01*
X004201Y013099D02*
X007754Y013099D01*
X007716Y013001D02*
X004201Y013001D01*
X004201Y012902D02*
X007714Y012902D01*
X007716Y012804D02*
X004201Y012804D01*
X004201Y012705D02*
X007716Y012705D01*
X007716Y012607D02*
X004201Y012607D01*
X004201Y012508D02*
X007716Y012508D01*
X007716Y012410D02*
X004201Y012410D01*
X004201Y012311D02*
X007716Y012311D01*
X007716Y012213D02*
X004201Y012213D01*
X004201Y012114D02*
X007716Y012114D01*
X007716Y012015D02*
X004201Y012015D01*
X004201Y011917D02*
X007716Y011917D01*
X007716Y011818D02*
X004201Y011818D01*
X004201Y011720D02*
X007716Y011720D01*
X007716Y011621D02*
X004201Y011621D01*
X004201Y011523D02*
X007716Y011523D01*
X007716Y011424D02*
X004201Y011424D01*
X004201Y011326D02*
X007716Y011326D01*
X007716Y011227D02*
X004201Y011227D01*
X004201Y011129D02*
X007716Y011129D01*
X007716Y011030D02*
X004201Y011030D01*
X004201Y010931D02*
X007716Y010931D01*
X007716Y010833D02*
X004201Y010833D01*
X004201Y010734D02*
X005080Y010734D01*
X005059Y010727D02*
X005002Y010698D01*
X004950Y010661D01*
X004905Y010615D01*
X004867Y010563D01*
X004838Y010506D01*
X004818Y010445D01*
X004811Y010400D01*
X005444Y010400D01*
X005444Y010757D01*
X005183Y010757D01*
X005120Y010747D01*
X005059Y010727D01*
X004925Y010636D02*
X004201Y010636D01*
X004201Y010537D02*
X004854Y010537D01*
X004817Y010439D02*
X004201Y010439D01*
X004201Y010340D02*
X005444Y010340D01*
X005444Y010300D02*
X004811Y010300D01*
X004818Y010254D01*
X004838Y010193D01*
X004867Y010136D01*
X004905Y010084D01*
X004950Y010039D01*
X005002Y010001D01*
X005059Y009972D01*
X005120Y009952D01*
X005183Y009942D01*
X005444Y009942D01*
X005444Y010300D01*
X005444Y010400D01*
X005544Y010400D01*
X005544Y010757D01*
X005805Y010757D01*
X005868Y010747D01*
X005929Y010727D01*
X005986Y010698D01*
X006038Y010661D01*
X006084Y010615D01*
X006121Y010563D01*
X006151Y010506D01*
X006170Y010445D01*
X006177Y010400D01*
X005544Y010400D01*
X005544Y010300D01*
X006177Y010300D01*
X006170Y010254D01*
X006151Y010193D01*
X006121Y010136D01*
X006084Y010084D01*
X006038Y010039D01*
X005986Y010001D01*
X005929Y009972D01*
X005868Y009952D01*
X005805Y009942D01*
X005544Y009942D01*
X005544Y010300D01*
X005444Y010300D01*
X005444Y010242D02*
X005544Y010242D01*
X005544Y010340D02*
X007716Y010340D01*
X007716Y010242D02*
X006166Y010242D01*
X006125Y010143D02*
X007716Y010143D01*
X007716Y010045D02*
X006044Y010045D01*
X006095Y009847D02*
X007716Y009847D01*
X007716Y009749D02*
X006194Y009749D01*
X006271Y009650D02*
X007716Y009650D01*
X007716Y009552D02*
X006311Y009552D01*
X006342Y009453D02*
X007716Y009453D01*
X007716Y009355D02*
X006342Y009355D01*
X006342Y009256D02*
X007716Y009256D01*
X007716Y009158D02*
X006302Y009158D01*
X006262Y009059D02*
X007675Y009059D01*
X007578Y008764D02*
X004201Y008764D01*
X004201Y008862D02*
X004945Y008862D01*
X004816Y008961D02*
X004201Y008961D01*
X004201Y009059D02*
X004727Y009059D01*
X004686Y009158D02*
X004201Y009158D01*
X004201Y009256D02*
X004647Y009256D01*
X004647Y009355D02*
X004201Y009355D01*
X004201Y009453D02*
X004647Y009453D01*
X004677Y009552D02*
X004201Y009552D01*
X004201Y009650D02*
X004718Y009650D01*
X004794Y009749D02*
X004201Y009749D01*
X004201Y009847D02*
X004893Y009847D01*
X004944Y010045D02*
X004201Y010045D01*
X004201Y010143D02*
X004863Y010143D01*
X004822Y010242D02*
X004201Y010242D01*
X004201Y009946D02*
X005160Y009946D01*
X005444Y009946D02*
X005544Y009946D01*
X005544Y010045D02*
X005444Y010045D01*
X005444Y010143D02*
X005544Y010143D01*
X005544Y010439D02*
X005444Y010439D01*
X005444Y010537D02*
X005544Y010537D01*
X005544Y010636D02*
X005444Y010636D01*
X005444Y010734D02*
X005544Y010734D01*
X005908Y010734D02*
X007716Y010734D01*
X007716Y010636D02*
X006063Y010636D01*
X006135Y010537D02*
X007716Y010537D01*
X007716Y010439D02*
X006171Y010439D01*
X005828Y009946D02*
X007716Y009946D01*
X008375Y009946D02*
X014841Y009946D01*
X014841Y009847D02*
X008375Y009847D01*
X008375Y009749D02*
X014841Y009749D01*
X014841Y009650D02*
X008375Y009650D01*
X008375Y009552D02*
X014841Y009552D01*
X014841Y009453D02*
X008375Y009453D01*
X008375Y009355D02*
X014841Y009355D01*
X014841Y009256D02*
X008375Y009256D01*
X008375Y009158D02*
X014841Y009158D01*
X014841Y009059D02*
X008416Y009059D01*
X008472Y008961D02*
X014841Y008961D01*
X014841Y008665D02*
X008508Y008665D01*
X008467Y008566D02*
X014841Y008566D01*
X014841Y008468D02*
X008405Y008468D01*
X008301Y008369D02*
X014841Y008369D01*
X014841Y008271D02*
X004201Y008271D01*
X004201Y008369D02*
X007790Y008369D01*
X007686Y008468D02*
X004201Y008468D01*
X004201Y008566D02*
X007624Y008566D01*
X007583Y008665D02*
X004201Y008665D01*
X004201Y008172D02*
X014841Y008172D01*
X014841Y008074D02*
X004201Y008074D01*
X004201Y007975D02*
X014841Y007975D01*
X014841Y007877D02*
X004201Y007877D01*
X004201Y007778D02*
X014841Y007778D01*
X014841Y007680D02*
X004201Y007680D01*
X004201Y007581D02*
X014841Y007581D01*
X014841Y007482D02*
X004201Y007482D01*
X004201Y007384D02*
X008204Y007384D01*
X008210Y007390D02*
X008106Y007286D01*
X007436Y006616D01*
X007380Y006481D01*
X007380Y006333D01*
X007380Y005644D01*
X007436Y005508D01*
X007540Y005404D01*
X007541Y005404D01*
X009804Y003141D01*
X009940Y003084D01*
X010087Y003084D01*
X021810Y003084D01*
X021836Y003058D01*
X022008Y002987D01*
X022193Y002987D01*
X022365Y003058D01*
X022496Y003190D01*
X022568Y003361D01*
X022568Y003547D01*
X022496Y003719D01*
X022470Y003745D01*
X022470Y006255D01*
X022470Y006398D02*
X030701Y006398D01*
X030701Y006497D02*
X022431Y006497D01*
X022356Y006596D02*
X030701Y006596D01*
X030701Y006694D02*
X022258Y006694D01*
X022159Y006793D02*
X030701Y006793D01*
X030701Y006891D02*
X022061Y006891D01*
X022037Y006990D02*
X030701Y006990D01*
X030701Y007088D02*
X022037Y007088D01*
X022037Y007187D02*
X030701Y007187D01*
X030701Y007285D02*
X022037Y007285D01*
X022037Y007384D02*
X030701Y007384D01*
X030701Y007482D02*
X022037Y007482D01*
X022037Y007581D02*
X030701Y007581D01*
X030701Y007680D02*
X022037Y007680D01*
X022037Y007778D02*
X030701Y007778D01*
X030701Y007877D02*
X022037Y007877D01*
X022037Y007975D02*
X030701Y007975D01*
X030701Y008074D02*
X022037Y008074D01*
X022037Y008172D02*
X030701Y008172D01*
X030701Y008271D02*
X022037Y008271D01*
X022037Y008369D02*
X030701Y008369D01*
X030701Y008468D02*
X022037Y008468D01*
X022037Y008566D02*
X030701Y008566D01*
X030701Y008665D02*
X022037Y008665D01*
X022037Y008764D02*
X030701Y008764D01*
X030701Y008862D02*
X022037Y008862D01*
X022037Y008961D02*
X030701Y008961D01*
X030701Y009059D02*
X022037Y009059D01*
X022037Y009158D02*
X030701Y009158D01*
X030701Y009256D02*
X022037Y009256D01*
X022037Y009355D02*
X030701Y009355D01*
X030701Y009453D02*
X022065Y009453D01*
X022106Y009552D02*
X030701Y009552D01*
X030701Y009650D02*
X022135Y009650D01*
X022135Y009749D02*
X030701Y009749D01*
X030701Y009847D02*
X022118Y009847D01*
X022077Y009946D02*
X030701Y009946D01*
X030701Y010045D02*
X021997Y010045D01*
X021852Y010143D02*
X030701Y010143D01*
X030701Y010242D02*
X015581Y010242D01*
X015581Y010340D02*
X030701Y010340D01*
X030701Y010439D02*
X015581Y010439D01*
X015581Y010537D02*
X030701Y010537D01*
X030701Y010636D02*
X015581Y010636D01*
X015581Y010734D02*
X030701Y010734D01*
X030701Y010833D02*
X015581Y010833D01*
X015581Y010931D02*
X030701Y010931D01*
X030701Y011030D02*
X015581Y011030D01*
X015581Y011129D02*
X030701Y011129D01*
X030701Y011227D02*
X015581Y011227D01*
X015581Y011326D02*
X030701Y011326D01*
X030701Y011424D02*
X015581Y011424D01*
X015581Y011523D02*
X030701Y011523D01*
X030701Y011621D02*
X015581Y011621D01*
X015581Y011720D02*
X030701Y011720D01*
X030701Y011818D02*
X015581Y011818D01*
X015581Y011917D02*
X030701Y011917D01*
X030701Y012015D02*
X015581Y012015D01*
X015581Y012114D02*
X030701Y012114D01*
X030701Y012213D02*
X015581Y012213D01*
X015581Y012311D02*
X030701Y012311D01*
X030701Y012410D02*
X015581Y012410D01*
X015581Y012508D02*
X015826Y012508D01*
X015673Y012607D02*
X015581Y012607D01*
X015581Y012705D02*
X015591Y012705D01*
X016171Y012508D02*
X030701Y012508D01*
X030701Y012607D02*
X028744Y012607D01*
X028843Y012705D02*
X030701Y012705D01*
X030701Y012804D02*
X028902Y012804D01*
X028943Y012902D02*
X030701Y012902D01*
X030701Y013001D02*
X028946Y013001D01*
X028943Y013099D02*
X030701Y013099D01*
X030701Y013198D02*
X028903Y013198D01*
X028844Y013296D02*
X030701Y013296D01*
X030701Y013395D02*
X028745Y013395D01*
X028416Y013494D02*
X030701Y013494D01*
X030701Y013592D02*
X028273Y013592D01*
X028130Y013691D02*
X030701Y013691D01*
X030701Y013789D02*
X027987Y013789D01*
X027844Y013888D02*
X030701Y013888D01*
X030701Y013986D02*
X027610Y013986D01*
X027584Y013986D02*
X019335Y013986D01*
X019131Y014085D02*
X030701Y014085D01*
X030701Y014183D02*
X027487Y014183D01*
X027572Y014268D02*
X027572Y014268D01*
X027585Y014282D02*
X030701Y014282D01*
X030701Y014380D02*
X027861Y014380D01*
X027959Y014479D02*
X030701Y014479D01*
X030701Y014578D02*
X028006Y014578D01*
X028040Y014676D02*
X030701Y014676D01*
X030701Y014775D02*
X028040Y014775D01*
X028029Y014873D02*
X030701Y014873D01*
X030701Y014972D02*
X027988Y014972D01*
X027917Y015070D02*
X030701Y015070D01*
X030701Y015169D02*
X027791Y015169D01*
X027355Y015169D02*
X019940Y015169D01*
X019911Y015267D02*
X030701Y015267D01*
X030701Y015366D02*
X019911Y015366D01*
X019911Y015464D02*
X030701Y015464D01*
X030701Y015563D02*
X019911Y015563D01*
X019911Y015662D02*
X030701Y015662D01*
X030701Y015760D02*
X019911Y015760D01*
X019911Y015859D02*
X030701Y015859D01*
X030701Y015957D02*
X030113Y015957D01*
X030205Y015995D02*
X030390Y016181D01*
X030491Y016423D01*
X030491Y016686D01*
X030390Y016928D01*
X030264Y017055D01*
X030384Y017175D01*
X030485Y017417D01*
X030485Y017680D01*
X030384Y017922D01*
X030259Y018048D01*
X030382Y018171D01*
X030483Y018413D01*
X030483Y018676D01*
X030382Y018919D01*
X030261Y019040D01*
X030384Y019163D01*
X030485Y019406D01*
X030701Y019406D01*
X030701Y019308D02*
X030444Y019308D01*
X030485Y019406D02*
X030485Y019668D01*
X030384Y019911D01*
X030256Y020039D01*
X030384Y020167D01*
X030485Y020409D01*
X030485Y020672D01*
X030384Y020915D01*
X030256Y021043D01*
X030384Y021171D01*
X030485Y021413D01*
X030485Y021676D01*
X030384Y021919D01*
X030257Y022046D01*
X030378Y022167D01*
X030479Y022409D01*
X030479Y022672D01*
X030378Y022915D01*
X030259Y023034D01*
X030386Y023161D01*
X030487Y023404D01*
X030487Y023666D01*
X030386Y023909D01*
X030201Y024094D01*
X029958Y024195D01*
X028955Y024195D01*
X028713Y024094D01*
X028527Y023909D01*
X028427Y023666D01*
X028427Y023404D01*
X028527Y023161D01*
X028647Y023042D01*
X028519Y022915D01*
X028419Y022672D01*
X028419Y022409D01*
X028519Y022167D01*
X028647Y022040D01*
X028525Y021919D01*
X028425Y021676D01*
X028425Y021413D01*
X028525Y021171D01*
X028653Y021043D01*
X028525Y020915D01*
X028425Y020672D01*
X028425Y020409D01*
X028525Y020167D01*
X028653Y020039D01*
X028525Y019911D01*
X028425Y019668D01*
X028425Y019406D01*
X028192Y019406D01*
X028198Y019420D02*
X028198Y019606D01*
X028126Y019778D01*
X027995Y019909D01*
X027823Y019980D01*
X027637Y019980D01*
X027466Y019909D01*
X027463Y019907D01*
X023877Y019907D01*
X023741Y019850D01*
X023637Y019746D01*
X023519Y019628D01*
X023463Y019492D01*
X023463Y019345D01*
X023463Y018804D01*
X023437Y018778D01*
X023366Y018606D01*
X023366Y018470D01*
X022965Y018470D01*
X022949Y018475D01*
X022892Y018470D01*
X022834Y018470D01*
X022819Y018464D01*
X022803Y018462D01*
X022751Y018436D01*
X022698Y018413D01*
X022686Y018402D01*
X022672Y018394D01*
X022635Y018350D01*
X022594Y018309D01*
X022588Y018294D01*
X022502Y018193D01*
X022500Y018193D01*
X022328Y018122D01*
X022197Y017990D01*
X022125Y017819D01*
X022125Y017633D01*
X022197Y017461D01*
X022328Y017330D01*
X022500Y017259D01*
X022686Y017259D01*
X022857Y017330D01*
X022989Y017461D01*
X023060Y017633D01*
X023060Y017706D01*
X023080Y017730D01*
X023488Y017730D01*
X023484Y017720D01*
X023484Y017534D01*
X023019Y017534D01*
X023060Y017632D02*
X023484Y017632D01*
X023484Y017534D02*
X023555Y017363D01*
X023686Y017231D01*
X023766Y017198D01*
X023673Y017105D01*
X023602Y016933D01*
X023602Y016747D01*
X023673Y016575D01*
X023804Y016444D01*
X023976Y016373D01*
X024013Y016373D01*
X024031Y016355D01*
X024031Y016355D01*
X024135Y016251D01*
X024271Y016194D01*
X027546Y016194D01*
X027572Y016168D01*
X027744Y016097D01*
X027930Y016097D01*
X028101Y016168D01*
X028233Y016300D01*
X028304Y016471D01*
X028304Y016657D01*
X028233Y016829D01*
X028177Y016885D01*
X028245Y016885D01*
X028416Y016956D01*
X028548Y017087D01*
X028567Y017133D01*
X028651Y017049D01*
X028531Y016928D01*
X028431Y016686D01*
X028431Y016423D01*
X028531Y016181D01*
X028717Y015995D01*
X028959Y015895D01*
X029962Y015895D01*
X030205Y015995D01*
X030265Y016056D02*
X030701Y016056D01*
X030701Y016154D02*
X030364Y016154D01*
X030420Y016253D02*
X030701Y016253D01*
X030701Y016351D02*
X030461Y016351D01*
X030491Y016450D02*
X030701Y016450D01*
X030701Y016548D02*
X030491Y016548D01*
X030491Y016647D02*
X030701Y016647D01*
X030701Y016746D02*
X030466Y016746D01*
X030425Y016844D02*
X030701Y016844D01*
X030701Y016943D02*
X030376Y016943D01*
X030277Y017041D02*
X030701Y017041D01*
X030701Y017140D02*
X030349Y017140D01*
X030411Y017238D02*
X030701Y017238D01*
X030701Y017337D02*
X030451Y017337D01*
X030485Y017435D02*
X030701Y017435D01*
X030701Y017534D02*
X030485Y017534D01*
X030485Y017632D02*
X030701Y017632D01*
X030701Y017731D02*
X030464Y017731D01*
X030423Y017829D02*
X030701Y017829D01*
X030701Y017928D02*
X030379Y017928D01*
X030280Y018027D02*
X030701Y018027D01*
X030701Y018125D02*
X030337Y018125D01*
X030404Y018224D02*
X030701Y018224D01*
X030701Y018322D02*
X030445Y018322D01*
X030483Y018421D02*
X030701Y018421D01*
X030701Y018519D02*
X030483Y018519D01*
X030483Y018618D02*
X030701Y018618D01*
X030701Y018716D02*
X030466Y018716D01*
X030425Y018815D02*
X030701Y018815D01*
X030701Y018913D02*
X030384Y018913D01*
X030289Y019012D02*
X030701Y019012D01*
X030701Y019111D02*
X030332Y019111D01*
X030403Y019209D02*
X030701Y019209D01*
X030701Y019505D02*
X030485Y019505D01*
X030485Y019603D02*
X030701Y019603D01*
X030701Y019702D02*
X030471Y019702D01*
X030430Y019800D02*
X030701Y019800D01*
X030701Y019899D02*
X030389Y019899D01*
X030298Y019997D02*
X030701Y019997D01*
X030701Y020096D02*
X030313Y020096D01*
X030396Y020195D02*
X030701Y020195D01*
X030701Y020293D02*
X030437Y020293D01*
X030477Y020392D02*
X030701Y020392D01*
X030701Y020490D02*
X030485Y020490D01*
X030485Y020589D02*
X030701Y020589D01*
X030701Y020687D02*
X030479Y020687D01*
X030438Y020786D02*
X030701Y020786D01*
X030701Y020884D02*
X030397Y020884D01*
X030316Y020983D02*
X030701Y020983D01*
X030701Y021081D02*
X030295Y021081D01*
X030388Y021180D02*
X030701Y021180D01*
X030701Y021279D02*
X030429Y021279D01*
X030470Y021377D02*
X030701Y021377D01*
X030701Y021476D02*
X030485Y021476D01*
X030485Y021574D02*
X030701Y021574D01*
X030701Y021673D02*
X030485Y021673D01*
X030445Y021771D02*
X030701Y021771D01*
X030701Y021870D02*
X030405Y021870D01*
X030335Y021968D02*
X030701Y021968D01*
X030701Y022067D02*
X030278Y022067D01*
X030377Y022165D02*
X030701Y022165D01*
X030701Y022264D02*
X030419Y022264D01*
X030459Y022362D02*
X030701Y022362D01*
X030701Y022461D02*
X030479Y022461D01*
X030479Y022560D02*
X030701Y022560D01*
X030701Y022658D02*
X030479Y022658D01*
X030444Y022757D02*
X030701Y022757D01*
X030701Y022855D02*
X030403Y022855D01*
X030339Y022954D02*
X030701Y022954D01*
X030701Y023052D02*
X030277Y023052D01*
X030376Y023151D02*
X030701Y023151D01*
X030701Y023249D02*
X030423Y023249D01*
X030464Y023348D02*
X030701Y023348D01*
X030701Y023446D02*
X030487Y023446D01*
X030487Y023545D02*
X030701Y023545D01*
X030701Y023644D02*
X030487Y023644D01*
X030455Y023742D02*
X030701Y023742D01*
X030701Y023841D02*
X030414Y023841D01*
X030356Y023939D02*
X030701Y023939D01*
X030701Y024038D02*
X030257Y024038D01*
X030099Y024136D02*
X030701Y024136D01*
X030701Y024235D02*
X022392Y024235D01*
X022392Y024333D02*
X030701Y024333D01*
X030701Y024432D02*
X022376Y024432D01*
X022335Y024530D02*
X030701Y024530D01*
X030701Y024629D02*
X022236Y024629D01*
X022138Y024728D02*
X030701Y024728D01*
X030701Y024826D02*
X022039Y024826D01*
X022392Y024136D02*
X028814Y024136D01*
X028656Y024038D02*
X022392Y024038D01*
X022392Y023939D02*
X028558Y023939D01*
X028499Y023841D02*
X022392Y023841D01*
X022392Y023742D02*
X028458Y023742D01*
X028427Y023644D02*
X022392Y023644D01*
X022392Y023545D02*
X028427Y023545D01*
X028427Y023446D02*
X022392Y023446D01*
X022392Y023348D02*
X028450Y023348D01*
X028491Y023249D02*
X023045Y023249D01*
X023143Y023151D02*
X028537Y023151D01*
X028636Y023052D02*
X023197Y023052D01*
X023237Y022954D02*
X028559Y022954D01*
X028495Y022855D02*
X023237Y022855D01*
X023231Y022757D02*
X028454Y022757D01*
X028419Y022658D02*
X023190Y022658D01*
X023140Y022560D02*
X028419Y022560D01*
X028419Y022461D02*
X023140Y022461D01*
X023140Y022362D02*
X028438Y022362D01*
X028479Y022264D02*
X023140Y022264D01*
X023140Y022165D02*
X028521Y022165D01*
X028619Y022067D02*
X028006Y022067D01*
X028160Y021968D02*
X028575Y021968D01*
X028505Y021870D02*
X028244Y021870D01*
X028284Y021771D02*
X028464Y021771D01*
X028425Y021673D02*
X028304Y021673D01*
X028304Y021574D02*
X028425Y021574D01*
X028425Y021476D02*
X028278Y021476D01*
X028237Y021377D02*
X028440Y021377D01*
X028481Y021279D02*
X028145Y021279D01*
X027968Y021180D02*
X028521Y021180D01*
X028615Y021081D02*
X024088Y021081D01*
X024047Y020983D02*
X024884Y020983D01*
X024867Y020976D02*
X024736Y020845D01*
X024665Y020673D01*
X024665Y020487D01*
X024736Y020316D01*
X024867Y020184D01*
X025039Y020113D01*
X025225Y020113D01*
X025397Y020184D01*
X025423Y020210D01*
X027656Y020210D01*
X027682Y020184D01*
X027854Y020113D01*
X028040Y020113D01*
X028212Y020184D01*
X028343Y020316D01*
X028414Y020487D01*
X028414Y020673D01*
X028343Y020845D01*
X028212Y020976D01*
X028040Y021047D01*
X027854Y021047D01*
X027682Y020976D01*
X027656Y020950D01*
X025423Y020950D01*
X025397Y020976D01*
X025225Y021047D01*
X025039Y021047D01*
X024867Y020976D01*
X024775Y020884D02*
X023971Y020884D01*
X023832Y020786D02*
X024711Y020786D01*
X024671Y020687D02*
X023144Y020687D01*
X023197Y020786D02*
X023439Y020786D01*
X023301Y020884D02*
X023237Y020884D01*
X023045Y020589D02*
X024665Y020589D01*
X024665Y020490D02*
X022392Y020490D01*
X022392Y020392D02*
X024704Y020392D01*
X024758Y020293D02*
X022392Y020293D01*
X022392Y020195D02*
X024857Y020195D01*
X025407Y020195D02*
X027672Y020195D01*
X028005Y019899D02*
X028520Y019899D01*
X028480Y019800D02*
X028104Y019800D01*
X028158Y019702D02*
X028439Y019702D01*
X028425Y019603D02*
X028198Y019603D01*
X028198Y019505D02*
X028425Y019505D01*
X028425Y019406D02*
X028525Y019163D01*
X028647Y019042D01*
X028523Y018919D01*
X028423Y018676D01*
X028423Y018413D01*
X028523Y018171D01*
X028649Y018046D01*
X028525Y017922D01*
X028442Y017722D01*
X028416Y017748D01*
X028245Y017819D01*
X028169Y017819D01*
X028185Y017835D01*
X028257Y018007D01*
X028257Y018193D01*
X028185Y018364D01*
X028054Y018496D01*
X027882Y018567D01*
X027696Y018567D01*
X027525Y018496D01*
X027499Y018470D01*
X024300Y018470D01*
X024300Y018606D01*
X024229Y018778D01*
X024203Y018804D01*
X024203Y019167D01*
X027416Y019167D01*
X027466Y019117D01*
X027637Y019046D01*
X027823Y019046D01*
X027995Y019117D01*
X028126Y019249D01*
X028198Y019420D01*
X028151Y019308D02*
X028465Y019308D01*
X028506Y019209D02*
X028087Y019209D01*
X027979Y019111D02*
X028578Y019111D01*
X028617Y019012D02*
X024203Y019012D01*
X024203Y019111D02*
X027482Y019111D01*
X027581Y018519D02*
X024300Y018519D01*
X024295Y018618D02*
X028423Y018618D01*
X028423Y018519D02*
X027998Y018519D01*
X028129Y018421D02*
X028423Y018421D01*
X028461Y018322D02*
X028203Y018322D01*
X028244Y018224D02*
X028501Y018224D01*
X028569Y018125D02*
X028257Y018125D01*
X028257Y018027D02*
X028629Y018027D01*
X028531Y017928D02*
X028224Y017928D01*
X028180Y017829D02*
X028487Y017829D01*
X028446Y017731D02*
X028433Y017731D01*
X028502Y017041D02*
X028644Y017041D01*
X028545Y016943D02*
X028384Y016943D01*
X028496Y016844D02*
X028218Y016844D01*
X028267Y016746D02*
X028455Y016746D01*
X028431Y016647D02*
X028304Y016647D01*
X028304Y016548D02*
X028431Y016548D01*
X028431Y016450D02*
X028295Y016450D01*
X028254Y016351D02*
X028460Y016351D01*
X028501Y016253D02*
X028186Y016253D01*
X028067Y016154D02*
X028558Y016154D01*
X028656Y016056D02*
X019911Y016056D01*
X019912Y016154D02*
X027606Y016154D01*
X028808Y015957D02*
X019911Y015957D01*
X019911Y016253D02*
X024133Y016253D01*
X024034Y016351D02*
X019885Y016351D01*
X019830Y016450D02*
X023798Y016450D01*
X023700Y016548D02*
X019715Y016548D01*
X019636Y016647D02*
X023643Y016647D01*
X023602Y016746D02*
X019636Y016746D01*
X019636Y016844D02*
X023602Y016844D01*
X023606Y016943D02*
X019636Y016943D01*
X019636Y017041D02*
X023647Y017041D01*
X023708Y017140D02*
X019696Y017140D01*
X019813Y017238D02*
X023679Y017238D01*
X023581Y017337D02*
X022864Y017337D01*
X022963Y017435D02*
X023525Y017435D01*
X023366Y018519D02*
X022037Y018519D01*
X022037Y018421D02*
X022716Y018421D01*
X022607Y018322D02*
X022073Y018322D01*
X022114Y018224D02*
X022528Y018224D01*
X022336Y018125D02*
X022135Y018125D01*
X022135Y018027D02*
X022233Y018027D01*
X022171Y017928D02*
X022110Y017928D01*
X022130Y017829D02*
X022069Y017829D01*
X022125Y017731D02*
X021979Y017731D01*
X022126Y017632D02*
X021807Y017632D01*
X021528Y017632D02*
X020096Y017632D01*
X019990Y017534D02*
X022166Y017534D01*
X022222Y017435D02*
X019921Y017435D01*
X019881Y017337D02*
X022321Y017337D01*
X021297Y018519D02*
X018263Y018519D01*
X018263Y018421D02*
X019888Y018421D01*
X019751Y018322D02*
X018263Y018322D01*
X018263Y018224D02*
X019645Y018224D01*
X019539Y018125D02*
X018263Y018125D01*
X018263Y018027D02*
X019433Y018027D01*
X019181Y017928D02*
X018263Y017928D01*
X018263Y017894D02*
X018263Y019239D01*
X016806Y019239D01*
X016806Y019339D01*
X016706Y019339D01*
X016706Y020795D01*
X015361Y020795D01*
X015328Y020787D01*
X015299Y020770D01*
X015275Y020746D01*
X015258Y020716D01*
X015249Y020684D01*
X015249Y019339D01*
X016706Y019339D01*
X016706Y019239D01*
X015249Y019239D01*
X015249Y017894D01*
X015258Y017861D01*
X015275Y017832D01*
X015299Y017808D01*
X015328Y017791D01*
X015361Y017782D01*
X016706Y017782D01*
X016706Y019239D01*
X016806Y019239D01*
X016806Y017782D01*
X018151Y017782D01*
X018184Y017791D01*
X018213Y017808D01*
X018237Y017832D01*
X018254Y017861D01*
X018263Y017894D01*
X018235Y017829D02*
X019083Y017829D01*
X019033Y017731D02*
X013376Y017731D01*
X013376Y017829D02*
X015277Y017829D01*
X015249Y017928D02*
X013376Y017928D01*
X013376Y018027D02*
X015249Y018027D01*
X015249Y018125D02*
X013376Y018125D01*
X013376Y018224D02*
X015249Y018224D01*
X015249Y018322D02*
X013376Y018322D01*
X013376Y018421D02*
X015249Y018421D01*
X015249Y018519D02*
X013376Y018519D01*
X013376Y018618D02*
X015249Y018618D01*
X015249Y018716D02*
X013376Y018716D01*
X013376Y018815D02*
X015249Y018815D01*
X015249Y018913D02*
X013376Y018913D01*
X013376Y019012D02*
X015249Y019012D01*
X015249Y019111D02*
X013376Y019111D01*
X013376Y019209D02*
X015249Y019209D01*
X015249Y019406D02*
X013376Y019406D01*
X013376Y019308D02*
X016706Y019308D01*
X016706Y019406D02*
X016806Y019406D01*
X016806Y019339D02*
X016806Y020795D01*
X018151Y020795D01*
X018184Y020787D01*
X018213Y020770D01*
X018237Y020746D01*
X018254Y020716D01*
X018263Y020684D01*
X018263Y019339D01*
X016806Y019339D01*
X016806Y019308D02*
X021297Y019308D01*
X021297Y019406D02*
X018263Y019406D01*
X018263Y019505D02*
X021303Y019505D01*
X021343Y019603D02*
X018263Y019603D01*
X018263Y019702D02*
X021427Y019702D01*
X021525Y019800D02*
X018263Y019800D01*
X018263Y019899D02*
X021616Y019899D01*
X021652Y019997D02*
X018263Y019997D01*
X018263Y020096D02*
X021652Y020096D01*
X021652Y020195D02*
X018263Y020195D01*
X018263Y020293D02*
X021652Y020293D01*
X021652Y020392D02*
X021102Y020392D01*
X021105Y020393D02*
X021237Y020524D01*
X021308Y020696D01*
X021308Y020882D01*
X021237Y021053D01*
X021199Y021091D01*
X021199Y022652D01*
X021225Y022678D01*
X021296Y022849D01*
X021296Y023035D01*
X021225Y023207D01*
X021093Y023338D01*
X020922Y023409D01*
X020736Y023409D01*
X020564Y023338D01*
X020433Y023207D01*
X020362Y023035D01*
X020362Y022849D01*
X020433Y022678D01*
X020459Y022652D01*
X020459Y021068D01*
X020445Y021053D01*
X020373Y020882D01*
X020373Y020696D01*
X020445Y020524D01*
X020576Y020393D01*
X020748Y020322D01*
X020934Y020322D01*
X021105Y020393D01*
X021203Y020490D02*
X021652Y020490D01*
X021652Y020589D02*
X021263Y020589D01*
X021304Y020687D02*
X021652Y020687D01*
X021652Y020786D02*
X021308Y020786D01*
X021307Y020884D02*
X021652Y020884D01*
X021652Y020983D02*
X021266Y020983D01*
X021209Y021081D02*
X021602Y021081D01*
X021561Y021180D02*
X021199Y021180D01*
X021199Y021279D02*
X021555Y021279D01*
X021555Y021377D02*
X021199Y021377D01*
X021199Y021476D02*
X021593Y021476D01*
X021646Y021574D02*
X021199Y021574D01*
X021199Y021673D02*
X021652Y021673D01*
X021652Y021771D02*
X021199Y021771D01*
X021199Y021870D02*
X021652Y021870D01*
X021652Y021968D02*
X021199Y021968D01*
X021199Y022067D02*
X021652Y022067D01*
X021652Y022165D02*
X021199Y022165D01*
X021199Y022264D02*
X021652Y022264D01*
X021652Y022362D02*
X021199Y022362D01*
X021199Y022461D02*
X021652Y022461D01*
X021652Y022560D02*
X021199Y022560D01*
X021205Y022658D02*
X021652Y022658D01*
X021652Y022757D02*
X021258Y022757D01*
X021296Y022855D02*
X021652Y022855D01*
X021652Y022954D02*
X021296Y022954D01*
X021289Y023052D02*
X021652Y023052D01*
X021652Y023151D02*
X021248Y023151D01*
X021182Y023249D02*
X021652Y023249D01*
X021652Y023348D02*
X021070Y023348D01*
X020587Y023348D02*
X015545Y023348D01*
X015585Y023446D02*
X021652Y023446D01*
X021652Y023545D02*
X015599Y023545D01*
X015599Y023644D02*
X021652Y023644D01*
X021652Y023742D02*
X015567Y023742D01*
X015524Y023841D02*
X021652Y023841D01*
X021652Y023939D02*
X015461Y023939D01*
X015461Y024038D02*
X021652Y024038D01*
X021652Y024136D02*
X018128Y024136D01*
X017569Y024136D02*
X016042Y024136D01*
X015482Y024136D02*
X015461Y024136D01*
X015470Y023249D02*
X020475Y023249D01*
X020410Y023151D02*
X015335Y023151D01*
X015289Y023052D02*
X020369Y023052D01*
X020362Y022954D02*
X015378Y022954D01*
X015418Y022855D02*
X020362Y022855D01*
X020400Y022757D02*
X015442Y022757D01*
X015442Y022658D02*
X020452Y022658D01*
X020459Y022560D02*
X015419Y022560D01*
X015379Y022461D02*
X020459Y022461D01*
X020459Y022362D02*
X015291Y022362D01*
X015128Y022264D02*
X020459Y022264D01*
X020459Y022165D02*
X014553Y022165D01*
X014575Y022264D02*
X014821Y022264D01*
X014657Y022362D02*
X014575Y022362D01*
X014570Y022461D02*
X014552Y022461D01*
X014530Y022560D02*
X014512Y022560D01*
X014499Y022658D02*
X014478Y022658D01*
X014512Y022067D02*
X020459Y022067D01*
X020459Y021968D02*
X014425Y021968D01*
X014260Y021870D02*
X020459Y021870D01*
X020459Y021771D02*
X013376Y021771D01*
X013376Y021864D02*
X013402Y021890D01*
X013473Y022062D01*
X013473Y022248D01*
X013402Y022420D01*
X013271Y022551D01*
X013099Y022622D01*
X013062Y022622D01*
X012822Y022862D01*
X012686Y022919D01*
X012539Y022919D01*
X009242Y022919D01*
X009215Y022945D01*
X009044Y023016D01*
X008923Y023016D01*
X008573Y023256D01*
X008573Y025329D01*
X008599Y025355D01*
X008670Y025527D01*
X008670Y025712D01*
X008599Y025884D01*
X008467Y026016D01*
X008296Y026087D01*
X008110Y026087D01*
X007938Y026016D01*
X007807Y025884D01*
X007736Y025712D01*
X007736Y025527D01*
X007807Y025355D01*
X007833Y025329D01*
X007833Y023099D01*
X007826Y023065D01*
X007833Y023026D01*
X007833Y022987D01*
X007846Y022955D01*
X007853Y022920D01*
X007874Y022887D01*
X007889Y022851D01*
X007914Y022826D01*
X007933Y022797D01*
X007966Y022774D01*
X007993Y022747D01*
X008026Y022733D01*
X008504Y022406D01*
X008555Y022284D01*
X008686Y022153D01*
X008858Y022081D01*
X009044Y022081D01*
X009215Y022153D01*
X009242Y022179D01*
X009583Y022179D01*
X009547Y022090D01*
X009547Y021905D01*
X009618Y021733D01*
X009644Y021707D01*
X009644Y021280D01*
X009619Y021341D01*
X009383Y021577D01*
X009279Y021681D01*
X009143Y021738D01*
X007667Y021738D01*
X007662Y021750D01*
X007530Y021882D01*
X007359Y021953D01*
X007173Y021953D01*
X007001Y021882D01*
X006870Y021750D01*
X006799Y021579D01*
X006799Y021393D01*
X006870Y021221D01*
X007001Y021090D01*
X007173Y021019D01*
X007260Y021019D01*
X007310Y020998D01*
X008916Y020998D01*
X008935Y020978D01*
X008935Y020516D01*
X008909Y020490D01*
X007823Y020490D01*
X007933Y020392D02*
X008868Y020392D01*
X008838Y020319D02*
X008838Y020133D01*
X008909Y019961D01*
X009041Y019830D01*
X009212Y019759D01*
X009398Y019759D01*
X009570Y019830D01*
X009701Y019961D01*
X009772Y020133D01*
X009772Y020220D01*
X009804Y020188D01*
X009824Y020180D01*
X009964Y020068D01*
X010001Y020030D01*
X010021Y020022D01*
X010037Y020009D01*
X010088Y019994D01*
X010137Y019974D01*
X010158Y019974D01*
X010178Y019968D01*
X010231Y019974D01*
X010373Y019974D01*
X010399Y019948D01*
X010571Y019877D01*
X010756Y019877D01*
X010928Y019948D01*
X011059Y020079D01*
X011131Y020251D01*
X011131Y020437D01*
X011059Y020609D01*
X010928Y020740D01*
X010756Y020811D01*
X010571Y020811D01*
X010399Y020740D01*
X010384Y020725D01*
X010384Y021707D01*
X010410Y021733D01*
X010481Y021905D01*
X010481Y022090D01*
X010444Y022179D01*
X012459Y022179D01*
X012539Y022099D01*
X012539Y022062D01*
X012610Y021890D01*
X012636Y021864D01*
X012636Y020792D01*
X012610Y020766D01*
X012539Y020594D01*
X012539Y020408D01*
X012610Y020237D01*
X012636Y020211D01*
X012636Y017131D01*
X012037Y017131D01*
X012011Y017157D01*
X011839Y017228D01*
X011653Y017228D01*
X011481Y017157D01*
X011350Y017026D01*
X011279Y016854D01*
X011279Y016668D01*
X011350Y016497D01*
X011481Y016365D01*
X011653Y016294D01*
X011839Y016294D01*
X012011Y016365D01*
X012037Y016391D01*
X012805Y016391D01*
X012833Y016384D01*
X012878Y016391D01*
X012922Y016391D01*
X012950Y016403D01*
X012979Y016407D01*
X013017Y016431D01*
X013058Y016448D01*
X013079Y016469D01*
X013104Y016484D01*
X013131Y016520D01*
X013162Y016552D01*
X013173Y016579D01*
X013288Y016737D01*
X013320Y016768D01*
X013331Y016796D01*
X013348Y016820D01*
X013359Y016863D01*
X013376Y016904D01*
X013376Y016934D01*
X013383Y016963D01*
X013376Y017007D01*
X013376Y020211D01*
X013402Y020237D01*
X013473Y020408D01*
X013473Y020594D01*
X013402Y020766D01*
X013376Y020792D01*
X013376Y021864D01*
X013381Y021870D02*
X013956Y021870D01*
X013792Y021968D02*
X013434Y021968D01*
X013473Y022067D02*
X013704Y022067D01*
X013664Y022165D02*
X013473Y022165D01*
X013466Y022264D02*
X013641Y022264D01*
X013641Y022362D02*
X013426Y022362D01*
X013361Y022461D02*
X013664Y022461D01*
X013705Y022560D02*
X013250Y022560D01*
X013358Y022757D02*
X012927Y022757D01*
X012829Y022855D02*
X013271Y022855D01*
X013230Y022954D02*
X009194Y022954D01*
X008870Y023052D02*
X013208Y023052D01*
X013208Y023151D02*
X008726Y023151D01*
X008582Y023249D02*
X013232Y023249D01*
X013272Y023348D02*
X008573Y023348D01*
X008573Y023446D02*
X013305Y023446D01*
X013305Y023545D02*
X008573Y023545D01*
X008573Y023644D02*
X013305Y023644D01*
X013305Y023742D02*
X008573Y023742D01*
X008573Y023841D02*
X013305Y023841D01*
X013305Y023939D02*
X008573Y023939D01*
X008573Y024038D02*
X013305Y024038D01*
X013305Y024136D02*
X009664Y024136D01*
X009649Y024121D02*
X009780Y024253D01*
X009851Y024424D01*
X009851Y024610D01*
X009780Y024782D01*
X009754Y024808D01*
X009754Y025880D01*
X009780Y025906D01*
X009851Y026078D01*
X009851Y026264D01*
X009829Y026317D01*
X009912Y026234D01*
X010113Y026151D01*
X010332Y026151D01*
X010533Y026234D01*
X010688Y026389D01*
X010722Y026473D01*
X010757Y026389D01*
X010912Y026234D01*
X011113Y026151D01*
X011332Y026151D01*
X011533Y026234D01*
X011688Y026389D01*
X011771Y026590D01*
X011771Y027326D01*
X011688Y027528D01*
X011533Y027682D01*
X011332Y027766D01*
X011113Y027766D01*
X010912Y027682D01*
X010757Y027528D01*
X010722Y027444D01*
X010688Y027528D01*
X010533Y027682D01*
X010332Y027766D01*
X010113Y027766D01*
X009912Y027682D01*
X009757Y027528D01*
X009674Y027326D01*
X009674Y026590D01*
X009708Y026507D01*
X009649Y026567D01*
X009477Y026638D01*
X009291Y026638D01*
X009119Y026567D01*
X008988Y026435D01*
X008917Y026264D01*
X008917Y026078D01*
X008988Y025906D01*
X009014Y025880D01*
X009014Y024808D01*
X008988Y024782D01*
X008917Y024610D01*
X008917Y024424D01*
X008988Y024253D01*
X009119Y024121D01*
X009291Y024050D01*
X009477Y024050D01*
X009649Y024121D01*
X009762Y024235D02*
X013305Y024235D01*
X013305Y024333D02*
X009813Y024333D01*
X009851Y024432D02*
X013305Y024432D01*
X013305Y024530D02*
X009851Y024530D01*
X009843Y024629D02*
X013305Y024629D01*
X013305Y024728D02*
X009802Y024728D01*
X009754Y024826D02*
X013305Y024826D01*
X013305Y024925D02*
X009754Y024925D01*
X009754Y025023D02*
X013305Y025023D01*
X013305Y025122D02*
X009754Y025122D01*
X009754Y025220D02*
X013305Y025220D01*
X013305Y025319D02*
X009754Y025319D01*
X009754Y025417D02*
X013305Y025417D01*
X013305Y025516D02*
X009754Y025516D01*
X009754Y025614D02*
X013305Y025614D01*
X013295Y025713D02*
X012815Y025713D01*
X012252Y025713D02*
X009754Y025713D01*
X009754Y025811D02*
X012153Y025811D01*
X012103Y025910D02*
X009782Y025910D01*
X009822Y026009D02*
X012066Y026009D01*
X012066Y026107D02*
X009851Y026107D01*
X009851Y026206D02*
X009980Y026206D01*
X009842Y026304D02*
X009834Y026304D01*
X009674Y026600D02*
X009569Y026600D01*
X009674Y026698D02*
X007733Y026698D01*
X007733Y026600D02*
X009199Y026600D01*
X009054Y026501D02*
X007725Y026501D01*
X007721Y026473D02*
X007733Y026551D01*
X007733Y026910D01*
X007284Y026910D01*
X007284Y026093D01*
X007351Y026104D01*
X007426Y026128D01*
X007496Y026164D01*
X007559Y026210D01*
X007615Y026265D01*
X007661Y026329D01*
X007696Y026399D01*
X007721Y026473D01*
X007698Y026403D02*
X008974Y026403D01*
X008934Y026304D02*
X007643Y026304D01*
X007554Y026206D02*
X008917Y026206D01*
X008917Y026107D02*
X007362Y026107D01*
X007284Y026107D02*
X007184Y026107D01*
X007184Y026093D02*
X007184Y026910D01*
X007284Y026910D01*
X007284Y027010D01*
X007184Y027010D01*
X007184Y027827D01*
X007118Y027816D01*
X007043Y027792D01*
X006973Y027757D01*
X006909Y027710D01*
X006854Y027655D01*
X006827Y027618D01*
X006798Y027688D01*
X006612Y027874D01*
X006370Y027974D01*
X006107Y027974D01*
X005864Y027874D01*
X005679Y027688D01*
X005578Y027446D01*
X005578Y026443D01*
X005679Y026200D01*
X005864Y026015D01*
X006107Y025914D01*
X006370Y025914D01*
X006612Y026015D01*
X006798Y026200D01*
X006835Y026291D01*
X006854Y026265D01*
X006909Y026210D01*
X006973Y026164D01*
X007043Y026128D01*
X007118Y026104D01*
X007184Y026093D01*
X007107Y026107D02*
X006704Y026107D01*
X006800Y026206D02*
X006915Y026206D01*
X007184Y026206D02*
X007284Y026206D01*
X007284Y026304D02*
X007184Y026304D01*
X007184Y026403D02*
X007284Y026403D01*
X007284Y026501D02*
X007184Y026501D01*
X007184Y026600D02*
X007284Y026600D01*
X007284Y026698D02*
X007184Y026698D01*
X007184Y026797D02*
X007284Y026797D01*
X007284Y026895D02*
X007184Y026895D01*
X007284Y026994D02*
X009674Y026994D01*
X009674Y027093D02*
X007733Y027093D01*
X007733Y027010D02*
X007733Y027369D01*
X007721Y027447D01*
X007696Y027521D01*
X007661Y027591D01*
X007615Y027655D01*
X007559Y027710D01*
X007496Y027757D01*
X007426Y027792D01*
X007351Y027816D01*
X007284Y027827D01*
X007284Y027010D01*
X007733Y027010D01*
X007733Y026895D02*
X009674Y026895D01*
X009674Y026797D02*
X007733Y026797D01*
X007284Y027093D02*
X007184Y027093D01*
X007184Y027191D02*
X007284Y027191D01*
X007284Y027290D02*
X007184Y027290D01*
X007184Y027388D02*
X007284Y027388D01*
X007284Y027487D02*
X007184Y027487D01*
X007184Y027585D02*
X007284Y027585D01*
X007284Y027684D02*
X007184Y027684D01*
X007184Y027782D02*
X007284Y027782D01*
X007445Y027782D02*
X015804Y027782D01*
X015706Y027684D02*
X011529Y027684D01*
X011630Y027585D02*
X015627Y027585D01*
X015586Y027487D02*
X011705Y027487D01*
X011745Y027388D02*
X015546Y027388D01*
X015541Y027290D02*
X011771Y027290D01*
X011771Y027191D02*
X015541Y027191D01*
X015541Y027093D02*
X011771Y027093D01*
X011771Y026994D02*
X015541Y026994D01*
X015541Y026895D02*
X011771Y026895D01*
X011771Y026797D02*
X015541Y026797D01*
X015541Y026698D02*
X014379Y026698D01*
X014478Y026600D02*
X015541Y026600D01*
X015541Y026501D02*
X014534Y026501D01*
X014575Y026403D02*
X015541Y026403D01*
X015570Y026304D02*
X014575Y026304D01*
X014571Y026206D02*
X015611Y026206D01*
X015666Y026107D02*
X014531Y026107D01*
X014478Y026009D02*
X015764Y026009D01*
X015914Y025910D02*
X014478Y025910D01*
X014478Y025811D02*
X015926Y025811D01*
X015886Y025713D02*
X014478Y025713D01*
X014478Y025614D02*
X014860Y025614D01*
X014761Y025516D02*
X014478Y025516D01*
X014478Y025417D02*
X014706Y025417D01*
X014604Y025319D02*
X014478Y025319D01*
X015404Y025614D02*
X015830Y025614D01*
X015711Y025516D02*
X015503Y025516D01*
X015558Y025417D02*
X015592Y025417D01*
X016029Y024925D02*
X017611Y024925D01*
X018086Y024925D02*
X030701Y024925D01*
X030701Y025023D02*
X016148Y025023D01*
X016267Y025122D02*
X030701Y025122D01*
X030701Y025220D02*
X016609Y025220D01*
X016712Y025319D02*
X030701Y025319D01*
X030701Y025417D02*
X016774Y025417D01*
X016815Y025516D02*
X030701Y025516D01*
X030701Y025614D02*
X016820Y025614D01*
X016819Y025713D02*
X030701Y025713D01*
X030701Y025811D02*
X016779Y025811D01*
X016723Y025910D02*
X016910Y025910D01*
X016758Y026009D02*
X016637Y026009D01*
X017475Y025910D02*
X017886Y025910D01*
X017743Y026009D02*
X017628Y026009D01*
X018480Y025910D02*
X018882Y025910D01*
X018739Y026009D02*
X018624Y026009D01*
X019476Y025910D02*
X019878Y025910D01*
X019735Y026009D02*
X019620Y026009D01*
X020472Y025910D02*
X020856Y025910D01*
X020721Y026009D02*
X020616Y026009D01*
X021478Y025910D02*
X021853Y025910D01*
X021723Y026009D02*
X021614Y026009D01*
X022494Y025910D02*
X022834Y025910D01*
X022721Y026009D02*
X022624Y026009D01*
X023532Y025910D02*
X023843Y025910D01*
X023727Y026009D02*
X023645Y026009D01*
X024531Y025910D02*
X024851Y025910D01*
X024727Y026009D02*
X024647Y026009D01*
X025511Y025910D02*
X025868Y025910D01*
X025733Y026009D02*
X025635Y026009D01*
X026490Y025910D02*
X030701Y025910D01*
X030701Y026009D02*
X026626Y026009D01*
X026724Y026107D02*
X030701Y026107D01*
X030701Y026206D02*
X026773Y026206D01*
X026814Y026304D02*
X030701Y026304D01*
X030701Y026403D02*
X026839Y026403D01*
X026839Y026501D02*
X030701Y026501D01*
X030701Y026600D02*
X026839Y026600D01*
X026839Y026698D02*
X030701Y026698D01*
X030701Y026797D02*
X026839Y026797D01*
X026839Y026895D02*
X030701Y026895D01*
X030701Y026994D02*
X026839Y026994D01*
X026839Y027093D02*
X030701Y027093D01*
X030701Y027191D02*
X026839Y027191D01*
X026839Y027290D02*
X030701Y027290D01*
X030701Y027388D02*
X026830Y027388D01*
X026790Y027487D02*
X030701Y027487D01*
X030701Y027585D02*
X026749Y027585D01*
X026664Y027684D02*
X030701Y027684D01*
X030701Y027782D02*
X026566Y027782D01*
X026346Y027881D02*
X030701Y027881D01*
X030701Y027979D02*
X004201Y027979D01*
X004201Y027881D02*
X005882Y027881D01*
X005773Y027782D02*
X004201Y027782D01*
X004201Y027684D02*
X005677Y027684D01*
X005636Y027585D02*
X004201Y027585D01*
X004201Y027487D02*
X005595Y027487D01*
X005578Y027388D02*
X004201Y027388D01*
X004201Y027290D02*
X005578Y027290D01*
X005578Y027191D02*
X004201Y027191D01*
X004201Y027093D02*
X005578Y027093D01*
X005578Y026994D02*
X004201Y026994D01*
X004201Y026895D02*
X005578Y026895D01*
X005578Y026797D02*
X004201Y026797D01*
X004201Y026698D02*
X005578Y026698D01*
X005578Y026600D02*
X004201Y026600D01*
X004201Y026501D02*
X005578Y026501D01*
X005595Y026403D02*
X004201Y026403D01*
X004201Y026304D02*
X005636Y026304D01*
X005677Y026206D02*
X004201Y026206D01*
X004201Y026107D02*
X005772Y026107D01*
X005879Y026009D02*
X004201Y026009D01*
X004201Y025910D02*
X007833Y025910D01*
X007777Y025811D02*
X004201Y025811D01*
X004201Y025713D02*
X007736Y025713D01*
X007736Y025614D02*
X004201Y025614D01*
X004201Y025516D02*
X007740Y025516D01*
X007781Y025417D02*
X004201Y025417D01*
X004201Y025319D02*
X007833Y025319D01*
X007833Y025220D02*
X004201Y025220D01*
X004201Y025122D02*
X007833Y025122D01*
X007833Y025023D02*
X004201Y025023D01*
X004201Y024925D02*
X007833Y024925D01*
X007833Y024826D02*
X004201Y024826D01*
X004201Y024728D02*
X007833Y024728D01*
X007833Y024629D02*
X004201Y024629D01*
X004201Y024530D02*
X007833Y024530D01*
X007833Y024432D02*
X004201Y024432D01*
X004201Y024333D02*
X007833Y024333D01*
X007833Y024235D02*
X004201Y024235D01*
X004201Y024136D02*
X007833Y024136D01*
X007833Y024038D02*
X004201Y024038D01*
X004201Y023939D02*
X007833Y023939D01*
X007833Y023841D02*
X004201Y023841D01*
X004201Y023742D02*
X007833Y023742D01*
X007833Y023644D02*
X004201Y023644D01*
X004201Y023545D02*
X007833Y023545D01*
X007833Y023446D02*
X004201Y023446D01*
X004201Y023348D02*
X007833Y023348D01*
X007833Y023249D02*
X004201Y023249D01*
X004201Y023151D02*
X007833Y023151D01*
X007828Y023052D02*
X006125Y023052D01*
X006239Y022954D02*
X007846Y022954D01*
X007887Y022855D02*
X006337Y022855D01*
X006378Y022757D02*
X007983Y022757D01*
X008136Y022658D02*
X006419Y022658D01*
X006438Y022560D02*
X008280Y022560D01*
X008424Y022461D02*
X006438Y022461D01*
X006438Y022362D02*
X008522Y022362D01*
X008575Y022264D02*
X006402Y022264D01*
X006361Y022165D02*
X008673Y022165D01*
X009228Y022165D02*
X009578Y022165D01*
X009547Y022067D02*
X006296Y022067D01*
X006228Y021968D02*
X009547Y021968D01*
X009561Y021870D02*
X007542Y021870D01*
X007641Y021771D02*
X009602Y021771D01*
X009644Y021673D02*
X009287Y021673D01*
X009386Y021574D02*
X009644Y021574D01*
X009644Y021476D02*
X009484Y021476D01*
X009583Y021377D02*
X009644Y021377D01*
X008930Y020983D02*
X006210Y020983D01*
X006307Y021081D02*
X007021Y021081D01*
X006911Y021180D02*
X006365Y021180D01*
X006406Y021279D02*
X006846Y021279D01*
X006805Y021377D02*
X006438Y021377D01*
X006438Y021476D02*
X006799Y021476D01*
X006799Y021574D02*
X006438Y021574D01*
X006414Y021673D02*
X006838Y021673D01*
X006891Y021771D02*
X006374Y021771D01*
X006327Y021870D02*
X006989Y021870D01*
X006869Y020884D02*
X008935Y020884D01*
X008935Y020786D02*
X007490Y020786D01*
X007601Y020687D02*
X008935Y020687D01*
X008935Y020589D02*
X007712Y020589D01*
X007992Y020293D02*
X008838Y020293D01*
X008838Y020319D02*
X008909Y020490D01*
X008838Y020195D02*
X008022Y020195D01*
X008025Y020096D02*
X008853Y020096D01*
X008894Y019997D02*
X008022Y019997D01*
X008022Y019899D02*
X008971Y019899D01*
X009112Y019800D02*
X008022Y019800D01*
X008022Y019702D02*
X012636Y019702D01*
X012636Y019800D02*
X009499Y019800D01*
X009639Y019899D02*
X010517Y019899D01*
X010810Y019899D02*
X012636Y019899D01*
X012636Y019997D02*
X010978Y019997D01*
X011066Y020096D02*
X012636Y020096D01*
X012636Y020195D02*
X011107Y020195D01*
X011131Y020293D02*
X012587Y020293D01*
X012546Y020392D02*
X011131Y020392D01*
X011109Y020490D02*
X012539Y020490D01*
X012539Y020589D02*
X011068Y020589D01*
X010981Y020687D02*
X012577Y020687D01*
X012630Y020786D02*
X010817Y020786D01*
X010509Y020786D02*
X010384Y020786D01*
X010384Y020884D02*
X012636Y020884D01*
X012636Y020983D02*
X010384Y020983D01*
X010384Y021081D02*
X012636Y021081D01*
X012636Y021180D02*
X010384Y021180D01*
X010384Y021279D02*
X012636Y021279D01*
X012636Y021377D02*
X010384Y021377D01*
X010384Y021476D02*
X012636Y021476D01*
X012636Y021574D02*
X010384Y021574D01*
X010384Y021673D02*
X012636Y021673D01*
X012636Y021771D02*
X010426Y021771D01*
X010467Y021870D02*
X012630Y021870D01*
X012578Y021968D02*
X010481Y021968D01*
X010481Y022067D02*
X012539Y022067D01*
X012472Y022165D02*
X010450Y022165D01*
X009797Y020195D02*
X009772Y020195D01*
X009757Y020096D02*
X009928Y020096D01*
X010077Y019997D02*
X009716Y019997D01*
X010634Y019111D02*
X008022Y019111D01*
X008022Y019209D02*
X012636Y019209D01*
X012636Y019111D02*
X011047Y019111D01*
X011180Y019012D02*
X012636Y019012D01*
X012636Y018913D02*
X011254Y018913D01*
X011295Y018815D02*
X012636Y018815D01*
X012636Y018716D02*
X011308Y018716D01*
X011308Y018618D02*
X012636Y018618D01*
X012636Y018519D02*
X011275Y018519D01*
X011232Y018421D02*
X011664Y018421D01*
X011986Y018421D02*
X012636Y018421D01*
X012636Y018322D02*
X012145Y018322D01*
X012230Y018224D02*
X012636Y018224D01*
X012636Y018125D02*
X012271Y018125D01*
X012292Y018027D02*
X012636Y018027D01*
X012636Y017928D02*
X012292Y017928D01*
X012267Y017829D02*
X012636Y017829D01*
X012636Y017731D02*
X012227Y017731D01*
X012136Y017632D02*
X012636Y017632D01*
X012636Y017534D02*
X011964Y017534D01*
X011685Y017534D02*
X007815Y017534D01*
X007900Y017435D02*
X012636Y017435D01*
X012636Y017337D02*
X007941Y017337D01*
X007961Y017238D02*
X012636Y017238D01*
X012636Y017140D02*
X012028Y017140D01*
X011464Y017140D02*
X007961Y017140D01*
X007936Y017041D02*
X011365Y017041D01*
X011316Y016943D02*
X008033Y016943D01*
X008131Y016844D02*
X011279Y016844D01*
X011279Y016746D02*
X011084Y016746D01*
X011182Y016647D02*
X011288Y016647D01*
X011329Y016548D02*
X011232Y016548D01*
X011268Y016450D02*
X011397Y016450D01*
X011515Y016351D02*
X011268Y016351D01*
X010519Y016746D02*
X008230Y016746D01*
X007035Y015563D02*
X011279Y015563D01*
X011279Y015464D02*
X006457Y015464D01*
X006457Y015366D02*
X011297Y015366D01*
X011337Y015267D02*
X006431Y015267D01*
X006390Y015169D02*
X011418Y015169D01*
X011566Y015070D02*
X006339Y015070D01*
X006343Y014972D02*
X006240Y014972D01*
X006245Y014873D02*
X006100Y014873D01*
X006196Y014775D02*
X004201Y014775D01*
X004201Y014873D02*
X004754Y014873D01*
X004614Y014972D02*
X004201Y014972D01*
X004201Y015070D02*
X004516Y015070D01*
X004464Y015169D02*
X004201Y015169D01*
X004201Y015267D02*
X004423Y015267D01*
X004397Y015366D02*
X004201Y015366D01*
X004201Y015464D02*
X004397Y015464D01*
X004397Y015563D02*
X004201Y015563D01*
X004201Y015662D02*
X004426Y015662D01*
X004466Y015760D02*
X004201Y015760D01*
X004201Y015859D02*
X004521Y015859D01*
X004619Y015957D02*
X004201Y015957D01*
X004201Y016056D02*
X004528Y016056D01*
X004463Y016154D02*
X004201Y016154D01*
X004201Y016253D02*
X004422Y016253D01*
X004385Y016351D02*
X004201Y016351D01*
X004201Y016450D02*
X004385Y016450D01*
X004385Y016548D02*
X004201Y016548D01*
X004201Y016647D02*
X004404Y016647D01*
X004444Y016746D02*
X004201Y016746D01*
X004201Y016844D02*
X004485Y016844D01*
X004583Y016943D02*
X004201Y016943D01*
X004201Y017041D02*
X004525Y017041D01*
X004450Y017140D02*
X004201Y017140D01*
X004201Y017238D02*
X004409Y017238D01*
X004368Y017337D02*
X004201Y017337D01*
X004201Y017435D02*
X004366Y017435D01*
X004366Y017534D02*
X004201Y017534D01*
X004201Y017632D02*
X004377Y017632D01*
X004418Y017731D02*
X004201Y017731D01*
X004201Y017829D02*
X004459Y017829D01*
X004547Y017928D02*
X004201Y017928D01*
X004201Y018027D02*
X004551Y018027D01*
X004468Y018125D02*
X004201Y018125D01*
X004201Y018224D02*
X004427Y018224D01*
X004386Y018322D02*
X004201Y018322D01*
X004201Y018421D02*
X004378Y018421D01*
X004378Y018519D02*
X004201Y018519D01*
X004201Y018618D02*
X004383Y018618D01*
X004424Y018716D02*
X004201Y018716D01*
X004201Y018815D02*
X004464Y018815D01*
X004544Y018913D02*
X004201Y018913D01*
X004201Y019012D02*
X004570Y019012D01*
X004475Y019111D02*
X004201Y019111D01*
X004201Y019209D02*
X004434Y019209D01*
X004394Y019308D02*
X004201Y019308D01*
X004201Y019406D02*
X004378Y019406D01*
X004378Y019505D02*
X004201Y019505D01*
X004201Y019603D02*
X004378Y019603D01*
X004416Y019702D02*
X004201Y019702D01*
X004201Y019800D02*
X004457Y019800D01*
X004525Y019899D02*
X004201Y019899D01*
X004201Y019997D02*
X004588Y019997D01*
X004490Y020096D02*
X004201Y020096D01*
X004201Y020195D02*
X004442Y020195D01*
X004401Y020293D02*
X004201Y020293D01*
X004201Y020392D02*
X004378Y020392D01*
X004378Y020490D02*
X004201Y020490D01*
X004201Y020589D02*
X004378Y020589D01*
X004408Y020687D02*
X004201Y020687D01*
X004201Y020786D02*
X004449Y020786D01*
X004507Y020884D02*
X004201Y020884D01*
X004201Y020983D02*
X004605Y020983D01*
X004508Y021081D02*
X004201Y021081D01*
X004201Y021180D02*
X004450Y021180D01*
X004409Y021279D02*
X004201Y021279D01*
X004201Y021377D02*
X004378Y021377D01*
X004378Y021476D02*
X004201Y021476D01*
X004201Y021574D02*
X004378Y021574D01*
X004401Y021673D02*
X004201Y021673D01*
X004201Y021771D02*
X004441Y021771D01*
X004488Y021870D02*
X004201Y021870D01*
X004201Y021968D02*
X004587Y021968D01*
X004519Y022067D02*
X004201Y022067D01*
X004201Y022165D02*
X004454Y022165D01*
X004413Y022264D02*
X004201Y022264D01*
X004201Y022362D02*
X004378Y022362D01*
X004378Y022461D02*
X004201Y022461D01*
X004201Y022560D02*
X004378Y022560D01*
X004396Y022658D02*
X004201Y022658D01*
X004201Y022757D02*
X004437Y022757D01*
X004478Y022855D02*
X004201Y022855D01*
X004201Y022954D02*
X004576Y022954D01*
X004690Y023052D02*
X004201Y023052D01*
X006308Y020884D02*
X006466Y020884D01*
X008022Y019603D02*
X012636Y019603D01*
X012636Y019505D02*
X008022Y019505D01*
X008022Y019406D02*
X012636Y019406D01*
X012636Y019308D02*
X008022Y019308D01*
X011977Y016351D02*
X015240Y016351D01*
X015394Y016450D02*
X013060Y016450D01*
X013159Y016548D02*
X015434Y016548D01*
X015518Y016647D02*
X013223Y016647D01*
X013297Y016746D02*
X015675Y016746D01*
X016006Y016746D02*
X017684Y016746D01*
X017785Y016844D02*
X013354Y016844D01*
X013378Y016943D02*
X018896Y016943D01*
X018896Y017041D02*
X013376Y017041D01*
X013376Y017140D02*
X018896Y017140D01*
X018896Y017238D02*
X013376Y017238D01*
X013376Y017337D02*
X018896Y017337D01*
X018900Y017435D02*
X013376Y017435D01*
X013376Y017534D02*
X018941Y017534D01*
X018996Y017632D02*
X013376Y017632D01*
X013376Y019505D02*
X015249Y019505D01*
X015249Y019603D02*
X013376Y019603D01*
X013376Y019702D02*
X015249Y019702D01*
X015249Y019800D02*
X013376Y019800D01*
X013376Y019899D02*
X015249Y019899D01*
X015249Y019997D02*
X013376Y019997D01*
X013376Y020096D02*
X015249Y020096D01*
X015249Y020195D02*
X013376Y020195D01*
X013425Y020293D02*
X015249Y020293D01*
X015249Y020392D02*
X013466Y020392D01*
X013473Y020490D02*
X015249Y020490D01*
X015249Y020589D02*
X013473Y020589D01*
X013435Y020687D02*
X015250Y020687D01*
X015327Y020786D02*
X013382Y020786D01*
X013376Y020884D02*
X020375Y020884D01*
X020373Y020786D02*
X018185Y020786D01*
X018262Y020687D02*
X020377Y020687D01*
X020418Y020589D02*
X018263Y020589D01*
X018263Y020490D02*
X020479Y020490D01*
X020579Y020392D02*
X018263Y020392D01*
X018263Y019209D02*
X021297Y019209D01*
X021297Y019111D02*
X018263Y019111D01*
X018263Y019012D02*
X021297Y019012D01*
X021297Y018913D02*
X018263Y018913D01*
X018263Y018815D02*
X021297Y018815D01*
X021297Y018716D02*
X018263Y018716D01*
X018263Y018618D02*
X021297Y018618D01*
X022037Y018618D02*
X023370Y018618D01*
X023411Y018716D02*
X022037Y018716D01*
X022037Y018815D02*
X023463Y018815D01*
X023463Y018913D02*
X022037Y018913D01*
X022037Y019012D02*
X023463Y019012D01*
X023463Y019111D02*
X022037Y019111D01*
X022037Y019209D02*
X023463Y019209D01*
X023463Y019308D02*
X022079Y019308D01*
X022168Y019406D02*
X023463Y019406D01*
X023468Y019505D02*
X022259Y019505D01*
X022346Y019603D02*
X023509Y019603D01*
X023593Y019702D02*
X022384Y019702D01*
X022392Y019800D02*
X023691Y019800D01*
X023858Y019899D02*
X022392Y019899D01*
X022392Y019997D02*
X028612Y019997D01*
X028596Y020096D02*
X022392Y020096D01*
X022392Y020589D02*
X022494Y020589D01*
X022396Y020687D02*
X022392Y020687D01*
X023140Y021279D02*
X023169Y021279D01*
X023140Y021377D02*
X023199Y021377D01*
X023241Y021476D02*
X023140Y021476D01*
X023140Y021574D02*
X023339Y021574D01*
X023532Y021673D02*
X023140Y021673D01*
X023140Y021771D02*
X023674Y021771D01*
X023772Y021870D02*
X023140Y021870D01*
X023140Y021968D02*
X023904Y021968D01*
X024129Y021180D02*
X027706Y021180D01*
X027698Y020983D02*
X025380Y020983D01*
X024203Y018913D02*
X028521Y018913D01*
X028480Y018815D02*
X024203Y018815D01*
X024254Y018716D02*
X028440Y018716D01*
X028514Y020195D02*
X028222Y020195D01*
X028321Y020293D02*
X028473Y020293D01*
X028432Y020392D02*
X028374Y020392D01*
X028414Y020490D02*
X028425Y020490D01*
X028414Y020589D02*
X028425Y020589D01*
X028431Y020687D02*
X028408Y020687D01*
X028367Y020786D02*
X028472Y020786D01*
X028513Y020884D02*
X028303Y020884D01*
X028195Y020983D02*
X028594Y020983D01*
X027667Y022067D02*
X023140Y022067D01*
X022396Y023151D02*
X022392Y023151D01*
X022392Y023249D02*
X022495Y023249D01*
X020459Y021673D02*
X013376Y021673D01*
X013376Y021574D02*
X020459Y021574D01*
X020459Y021476D02*
X013376Y021476D01*
X013376Y021377D02*
X020459Y021377D01*
X020459Y021279D02*
X013376Y021279D01*
X013376Y021180D02*
X020459Y021180D01*
X020459Y021081D02*
X013376Y021081D01*
X013376Y020983D02*
X020415Y020983D01*
X016806Y020786D02*
X016706Y020786D01*
X016706Y020687D02*
X016806Y020687D01*
X016806Y020589D02*
X016706Y020589D01*
X016706Y020490D02*
X016806Y020490D01*
X016806Y020392D02*
X016706Y020392D01*
X016706Y020293D02*
X016806Y020293D01*
X016806Y020195D02*
X016706Y020195D01*
X016706Y020096D02*
X016806Y020096D01*
X016806Y019997D02*
X016706Y019997D01*
X016706Y019899D02*
X016806Y019899D01*
X016806Y019800D02*
X016706Y019800D01*
X016706Y019702D02*
X016806Y019702D01*
X016806Y019603D02*
X016706Y019603D01*
X016706Y019505D02*
X016806Y019505D01*
X016806Y019209D02*
X016706Y019209D01*
X016706Y019111D02*
X016806Y019111D01*
X016806Y019012D02*
X016706Y019012D01*
X016706Y018913D02*
X016806Y018913D01*
X016806Y018815D02*
X016706Y018815D01*
X016706Y018716D02*
X016806Y018716D01*
X016806Y018618D02*
X016706Y018618D01*
X016706Y018519D02*
X016806Y018519D01*
X016806Y018421D02*
X016706Y018421D01*
X016706Y018322D02*
X016806Y018322D01*
X016806Y018224D02*
X016706Y018224D01*
X016706Y018125D02*
X016806Y018125D01*
X016806Y018027D02*
X016706Y018027D01*
X016706Y017928D02*
X016806Y017928D01*
X016806Y017829D02*
X016706Y017829D01*
X018306Y016844D02*
X018896Y016844D01*
X019981Y015070D02*
X027229Y015070D01*
X027158Y014972D02*
X020009Y014972D01*
X020009Y014873D02*
X027117Y014873D01*
X027541Y013198D02*
X020993Y013198D01*
X020993Y013099D02*
X027684Y013099D01*
X027827Y013001D02*
X020974Y013001D01*
X020933Y012902D02*
X027970Y012902D01*
X028055Y012804D02*
X020851Y012804D01*
X020699Y012705D02*
X028114Y012705D01*
X028212Y012607D02*
X016323Y012607D01*
X016406Y012705D02*
X020353Y012705D01*
X021483Y010143D02*
X015581Y010143D01*
X015581Y010045D02*
X021337Y010045D01*
X021258Y009946D02*
X015581Y009946D01*
X015581Y009847D02*
X021217Y009847D01*
X021200Y009749D02*
X015581Y009749D01*
X015581Y009650D02*
X021200Y009650D01*
X021229Y009552D02*
X015581Y009552D01*
X015581Y009453D02*
X021270Y009453D01*
X021297Y009355D02*
X015581Y009355D01*
X015581Y009256D02*
X021297Y009256D01*
X021297Y009158D02*
X015581Y009158D01*
X015581Y009059D02*
X021297Y009059D01*
X021297Y008961D02*
X015581Y008961D01*
X015581Y008862D02*
X021297Y008862D01*
X021297Y008764D02*
X015581Y008764D01*
X015581Y008665D02*
X021297Y008665D01*
X021297Y008566D02*
X015581Y008566D01*
X015581Y008468D02*
X021297Y008468D01*
X021297Y008369D02*
X015581Y008369D01*
X015581Y008271D02*
X021297Y008271D01*
X021297Y008172D02*
X015581Y008172D01*
X015581Y008074D02*
X021297Y008074D01*
X021297Y007975D02*
X015581Y007975D01*
X015581Y007877D02*
X021297Y007877D01*
X021297Y007778D02*
X015581Y007778D01*
X015581Y007680D02*
X021297Y007680D01*
X021297Y007581D02*
X015581Y007581D01*
X015581Y007482D02*
X021297Y007482D01*
X021297Y007384D02*
X015581Y007384D01*
X015581Y007285D02*
X021297Y007285D01*
X021297Y007187D02*
X015581Y007187D01*
X015581Y007088D02*
X021297Y007088D01*
X021297Y006990D02*
X015581Y006990D01*
X015581Y006891D02*
X021297Y006891D01*
X021297Y006793D02*
X015581Y006793D01*
X015581Y006694D02*
X021297Y006694D01*
X021336Y006596D02*
X015581Y006596D01*
X015581Y006497D02*
X021408Y006497D01*
X021507Y006398D02*
X015581Y006398D01*
X015581Y006300D02*
X021605Y006300D01*
X021704Y006201D02*
X015581Y006201D01*
X015508Y005906D02*
X021730Y005906D01*
X021730Y005807D02*
X015395Y005807D01*
X015261Y005709D02*
X021730Y005709D01*
X021730Y005610D02*
X015127Y005610D01*
X014986Y005512D02*
X021730Y005512D01*
X021730Y005413D02*
X008611Y005413D01*
X008677Y005314D02*
X021730Y005314D01*
X021730Y005216D02*
X008775Y005216D01*
X008874Y005117D02*
X021730Y005117D01*
X021730Y005019D02*
X008972Y005019D01*
X009071Y004920D02*
X021730Y004920D01*
X021730Y004822D02*
X009169Y004822D01*
X009268Y004723D02*
X021730Y004723D01*
X021730Y004625D02*
X009367Y004625D01*
X009465Y004526D02*
X021730Y004526D01*
X021730Y004428D02*
X009564Y004428D01*
X009662Y004329D02*
X021730Y004329D01*
X021730Y004231D02*
X009761Y004231D01*
X009859Y004132D02*
X021730Y004132D01*
X021730Y004033D02*
X009958Y004033D01*
X010056Y003935D02*
X021730Y003935D01*
X021730Y003836D02*
X010155Y003836D01*
X009601Y003344D02*
X004201Y003344D01*
X004201Y003442D02*
X009503Y003442D01*
X009404Y003541D02*
X004201Y003541D01*
X004201Y003639D02*
X009306Y003639D01*
X009207Y003738D02*
X004201Y003738D01*
X004201Y003836D02*
X009108Y003836D01*
X009010Y003935D02*
X004201Y003935D01*
X004201Y004033D02*
X008911Y004033D01*
X008813Y004132D02*
X004201Y004132D01*
X004201Y004231D02*
X008714Y004231D01*
X008616Y004329D02*
X004201Y004329D01*
X004201Y004428D02*
X008517Y004428D01*
X008419Y004526D02*
X004201Y004526D01*
X004201Y004625D02*
X008320Y004625D01*
X008222Y004723D02*
X004201Y004723D01*
X004201Y004822D02*
X008123Y004822D01*
X008024Y004920D02*
X004201Y004920D01*
X004201Y005019D02*
X007926Y005019D01*
X007827Y005117D02*
X004201Y005117D01*
X004201Y005216D02*
X007729Y005216D01*
X007630Y005314D02*
X004201Y005314D01*
X004201Y005413D02*
X007532Y005413D01*
X007435Y005512D02*
X004201Y005512D01*
X004201Y005610D02*
X007394Y005610D01*
X007380Y005709D02*
X004201Y005709D01*
X004201Y005807D02*
X007380Y005807D01*
X007380Y005906D02*
X004201Y005906D01*
X004201Y006004D02*
X007380Y006004D01*
X007380Y006103D02*
X004201Y006103D01*
X004201Y006201D02*
X007380Y006201D01*
X007380Y006300D02*
X004201Y006300D01*
X004201Y006398D02*
X007380Y006398D01*
X007387Y006497D02*
X004201Y006497D01*
X004201Y006596D02*
X007428Y006596D01*
X007514Y006694D02*
X004201Y006694D01*
X004201Y006793D02*
X007613Y006793D01*
X007711Y006891D02*
X004201Y006891D01*
X004201Y006990D02*
X007810Y006990D01*
X007908Y007088D02*
X004201Y007088D01*
X004201Y007187D02*
X008007Y007187D01*
X008105Y007285D02*
X004201Y007285D01*
X008210Y007390D02*
X008346Y007446D01*
X013562Y007446D01*
X013709Y007446D01*
X013845Y007390D01*
X014107Y007128D01*
X014163Y006992D01*
X014163Y006934D01*
X014189Y006908D01*
X014261Y006736D01*
X014261Y006550D01*
X014189Y006379D01*
X014058Y006247D01*
X014006Y006226D01*
X014715Y006226D01*
X014841Y006318D01*
X014841Y012720D01*
X014791Y012686D01*
X014767Y012663D01*
X014737Y012650D01*
X014709Y012632D01*
X014677Y012626D01*
X014646Y012613D01*
X014613Y012613D01*
X014580Y012607D01*
X014581Y012607D02*
X014841Y012607D01*
X014841Y012705D02*
X014819Y012705D01*
X013230Y014183D02*
X012038Y014183D01*
X012160Y014282D02*
X012678Y014282D01*
X012584Y014380D02*
X012229Y014380D01*
X012270Y014479D02*
X012489Y014479D01*
X012395Y014578D02*
X012280Y014578D01*
X012280Y014676D02*
X012300Y014676D01*
X011528Y014972D02*
X006913Y014972D01*
X006281Y014282D02*
X004201Y014282D01*
X004201Y014380D02*
X006212Y014380D01*
X006171Y014479D02*
X004201Y014479D01*
X004201Y014578D02*
X006161Y014578D01*
X006161Y014676D02*
X004201Y014676D01*
X013026Y022658D02*
X013521Y022658D01*
X012075Y026206D02*
X011465Y026206D01*
X011603Y026304D02*
X012116Y026304D01*
X012184Y026403D02*
X011694Y026403D01*
X011734Y026501D02*
X012301Y026501D01*
X012766Y026501D02*
X013683Y026501D01*
X013739Y026600D02*
X011771Y026600D01*
X011771Y026698D02*
X013838Y026698D01*
X016010Y027881D02*
X006595Y027881D01*
X006704Y027782D02*
X007024Y027782D01*
X006883Y027684D02*
X006800Y027684D01*
X007586Y027684D02*
X009916Y027684D01*
X009815Y027585D02*
X007664Y027585D01*
X007708Y027487D02*
X009740Y027487D01*
X009700Y027388D02*
X007730Y027388D01*
X007733Y027290D02*
X009674Y027290D01*
X009674Y027191D02*
X007733Y027191D01*
X007931Y026009D02*
X006597Y026009D01*
X008474Y026009D02*
X008945Y026009D01*
X008986Y025910D02*
X008573Y025910D01*
X008629Y025811D02*
X009014Y025811D01*
X009014Y025713D02*
X008670Y025713D01*
X008670Y025614D02*
X009014Y025614D01*
X009014Y025516D02*
X008666Y025516D01*
X008625Y025417D02*
X009014Y025417D01*
X009014Y025319D02*
X008573Y025319D01*
X008573Y025220D02*
X009014Y025220D01*
X009014Y025122D02*
X008573Y025122D01*
X008573Y025023D02*
X009014Y025023D01*
X009014Y024925D02*
X008573Y024925D01*
X008573Y024826D02*
X009014Y024826D01*
X008965Y024728D02*
X008573Y024728D01*
X008573Y024629D02*
X008925Y024629D01*
X008917Y024530D02*
X008573Y024530D01*
X008573Y024432D02*
X008917Y024432D01*
X008954Y024333D02*
X008573Y024333D01*
X008573Y024235D02*
X009006Y024235D01*
X009104Y024136D02*
X008573Y024136D01*
X010465Y026206D02*
X010980Y026206D01*
X010842Y026304D02*
X010603Y026304D01*
X010694Y026403D02*
X010751Y026403D01*
X010705Y027487D02*
X010740Y027487D01*
X010815Y027585D02*
X010630Y027585D01*
X010529Y027684D02*
X010916Y027684D01*
X016391Y027881D02*
X016998Y027881D01*
X016795Y027782D02*
X016597Y027782D01*
X017388Y027881D02*
X018002Y027881D01*
X017791Y027782D02*
X017591Y027782D01*
X017690Y027684D02*
X017692Y027684D01*
X018364Y027881D02*
X018998Y027881D01*
X018787Y027782D02*
X018576Y027782D01*
X018674Y027684D02*
X018688Y027684D01*
X019360Y027881D02*
X019994Y027881D01*
X019783Y027782D02*
X019572Y027782D01*
X019670Y027684D02*
X019684Y027684D01*
X020356Y027881D02*
X021001Y027881D01*
X020781Y027782D02*
X020568Y027782D01*
X020666Y027684D02*
X020682Y027684D01*
X021334Y027881D02*
X022016Y027881D01*
X021791Y027782D02*
X021554Y027782D01*
X021652Y027684D02*
X021692Y027684D01*
X022330Y027881D02*
X024054Y027881D01*
X023816Y027782D02*
X023550Y027782D01*
X023652Y027684D02*
X023716Y027684D01*
X024320Y027881D02*
X025034Y027881D01*
X024802Y027782D02*
X024558Y027782D01*
X024658Y027684D02*
X024704Y027684D01*
X025329Y027881D02*
X026013Y027881D01*
X025793Y027782D02*
X025560Y027782D01*
X025658Y027684D02*
X025694Y027684D01*
X022817Y027782D02*
X022556Y027782D01*
X022654Y027684D02*
X022714Y027684D01*
X014841Y007384D02*
X013851Y007384D01*
X013950Y007285D02*
X014841Y007285D01*
X014841Y007187D02*
X014049Y007187D01*
X014124Y007088D02*
X014841Y007088D01*
X014841Y006990D02*
X014163Y006990D01*
X014196Y006891D02*
X014841Y006891D01*
X014841Y006793D02*
X014237Y006793D01*
X014261Y006694D02*
X014841Y006694D01*
X014841Y006596D02*
X014261Y006596D01*
X014238Y006497D02*
X014841Y006497D01*
X014841Y006398D02*
X014198Y006398D01*
X014111Y006300D02*
X014816Y006300D01*
X009798Y003147D02*
X004201Y003147D01*
X004201Y003245D02*
X009700Y003245D01*
X004201Y003048D02*
X021860Y003048D01*
X022341Y003048D02*
X026267Y003048D01*
X026170Y003147D02*
X022454Y003147D01*
X022519Y003245D02*
X026130Y003245D01*
X026089Y003344D02*
X022560Y003344D01*
X022568Y003442D02*
X026088Y003442D01*
X026088Y003541D02*
X022568Y003541D01*
X022529Y003639D02*
X026120Y003639D01*
X026161Y003738D02*
X022477Y003738D01*
X022470Y003836D02*
X026243Y003836D01*
X026399Y002949D02*
X004201Y002949D01*
X004201Y002851D02*
X026258Y002851D01*
X026167Y002752D02*
X004201Y002752D01*
X004201Y002654D02*
X026126Y002654D01*
X026088Y002555D02*
X004201Y002555D01*
X004201Y002457D02*
X026088Y002457D01*
X026088Y002358D02*
X004201Y002358D01*
X004201Y002260D02*
X026124Y002260D01*
X026164Y002161D02*
X004201Y002161D01*
X004201Y002063D02*
X026253Y002063D01*
X026386Y001964D02*
X004201Y001964D01*
M02*
