G75*
G70*
%OFA0B0*%
%FSLAX24Y24*%
%IPPOS*%
%LPD*%
%AMOC8*
5,1,8,0,0,1.08239X$1,22.5*
%
%ADD10R,0.2815X0.2815*%
%ADD11C,0.0617*%
%ADD12C,0.0577*%
%ADD13C,0.0799*%
%ADD14C,0.0413*%
D10*
X016756Y019289D03*
D11*
X005773Y010350D02*
X005215Y010350D01*
X005215Y009366D02*
X005773Y009366D01*
D12*
X010223Y026699D02*
X010223Y027217D01*
X011223Y027217D02*
X011223Y026699D01*
X026637Y003454D02*
X027154Y003454D01*
X027154Y002454D02*
X026637Y002454D01*
D13*
X029091Y016555D02*
X029831Y016555D01*
X029825Y017549D02*
X029085Y017549D01*
X029083Y018545D02*
X029823Y018545D01*
X029825Y019537D02*
X029085Y019537D01*
X029085Y020541D02*
X029825Y020541D01*
X029825Y021545D02*
X029085Y021545D01*
X029079Y022541D02*
X029819Y022541D01*
X029827Y023535D02*
X029087Y023535D01*
X026179Y026496D02*
X026179Y027236D01*
X025181Y027228D02*
X025181Y026488D01*
X024187Y026482D02*
X024187Y027222D01*
X023183Y027220D02*
X023183Y026480D01*
X022173Y026492D02*
X022173Y027232D01*
X021167Y027236D02*
X021167Y026496D01*
X020175Y026501D02*
X020175Y027241D01*
X019179Y027241D02*
X019179Y026501D01*
X018183Y026501D02*
X018183Y027241D01*
X017193Y027247D02*
X017193Y026507D01*
X016201Y026505D02*
X016201Y027245D01*
X007234Y027330D02*
X007234Y026590D01*
X006238Y026574D02*
X006238Y027314D01*
X005778Y022482D02*
X005038Y022482D01*
X005038Y021486D02*
X005778Y021486D01*
X005778Y020482D02*
X005038Y020482D01*
X005038Y019478D02*
X005778Y019478D01*
X005778Y018474D02*
X005038Y018474D01*
X005026Y017474D02*
X005766Y017474D01*
X005785Y016472D02*
X005045Y016472D01*
X005057Y015462D02*
X005797Y015462D01*
D14*
X006589Y007588D03*
X008045Y008769D03*
X009620Y010462D03*
X011077Y012942D03*
X011813Y014596D03*
X011746Y015501D03*
X010801Y016368D03*
X011746Y016761D03*
X011825Y017982D03*
X010841Y018690D03*
X009305Y020226D03*
X010663Y020344D03*
X010014Y021997D03*
X008951Y022549D03*
X007266Y021486D03*
X006667Y020462D03*
X006667Y019478D03*
X007494Y017194D03*
X006746Y015934D03*
X006628Y014596D03*
X013006Y020501D03*
X013006Y022155D03*
X013675Y023100D03*
X014108Y022312D03*
X014974Y022706D03*
X015132Y023572D03*
X015762Y024517D03*
X015132Y025226D03*
X016352Y025620D03*
X017849Y024517D03*
X019935Y024950D03*
X020829Y022942D03*
X022770Y022864D03*
X022022Y021289D03*
X022770Y020974D03*
X023636Y021210D03*
X025132Y020580D03*
X023833Y018513D03*
X023951Y017627D03*
X024069Y016840D03*
X022593Y017726D03*
X021667Y018080D03*
X019463Y017549D03*
X018045Y016446D03*
X018203Y014871D03*
X018321Y013887D03*
X019049Y013612D03*
X019541Y014911D03*
X021077Y014005D03*
X020526Y013139D03*
X021667Y011289D03*
X021667Y009714D03*
X015998Y012942D03*
X014817Y014557D03*
X014266Y015068D03*
X013518Y014557D03*
X015455Y015934D03*
X015841Y016309D03*
X015683Y015147D03*
X020841Y020789D03*
X014108Y026309D03*
X012534Y026092D03*
X012534Y026840D03*
X010919Y025226D03*
X009384Y024517D03*
X008203Y025620D03*
X009384Y026171D03*
X027573Y014753D03*
X027837Y016564D03*
X028152Y017352D03*
X027789Y018100D03*
X027730Y019513D03*
X027947Y020580D03*
X027837Y021631D03*
X029423Y014005D03*
X028478Y013001D03*
X027770Y011289D03*
X022100Y003454D03*
X013793Y006643D03*
X013163Y007588D03*
X008459Y005856D03*
M02*
