G75*
G70*
%OFA0B0*%
%FSLAX24Y24*%
%IPPOS*%
%LPD*%
%AMOC8*
5,1,8,0,0,1.08239X$1,22.5*
%
%ADD10C,0.0160*%
%ADD11R,0.2756X0.2756*%
%ADD12C,0.0517*%
%ADD13C,0.0740*%
%ADD14C,0.0354*%
%ADD15C,0.0079*%
%ADD16C,0.0100*%
D10*
X000187Y000186D02*
X027628Y000186D01*
X027628Y028375D01*
X000266Y028375D01*
X000266Y000265D01*
X004223Y005718D02*
X004223Y006407D01*
X004892Y007076D01*
X010108Y007076D01*
X010266Y006919D01*
X010266Y006643D01*
X009636Y007588D02*
X003061Y007588D01*
X004223Y005718D02*
X006486Y003454D01*
X018573Y003454D01*
X018573Y006328D01*
X018140Y006761D01*
X018140Y009714D01*
X018140Y011289D02*
X024242Y011289D01*
X024951Y013001D02*
X024065Y013612D01*
X015522Y013612D01*
X014911Y014005D02*
X015502Y014478D01*
X023730Y014478D01*
X024006Y014753D01*
X024309Y016564D02*
X020817Y016564D01*
X020541Y016840D01*
X020660Y017352D02*
X024624Y017352D01*
X024262Y018100D02*
X019380Y018100D01*
X019065Y017726D01*
X018140Y018080D02*
X018140Y019419D01*
X018258Y019537D01*
X018494Y019793D01*
X018494Y021289D01*
X018494Y024320D01*
X018297Y024517D01*
X014321Y024517D01*
X012234Y024517D01*
X011604Y025226D02*
X011132Y024911D01*
X011132Y023021D01*
X011447Y022706D01*
X010581Y022312D02*
X010581Y026309D01*
X010148Y025856D02*
X009911Y026092D01*
X009006Y026092D01*
X010148Y025856D02*
X010148Y023100D01*
X009478Y022155D02*
X009085Y022549D01*
X005423Y022549D01*
X004675Y023060D01*
X004675Y025620D01*
X005856Y026171D02*
X005856Y024517D01*
X006486Y021997D02*
X006486Y020501D01*
X006683Y020344D01*
X007136Y020344D01*
X005778Y020226D02*
X005778Y021131D01*
X005541Y021368D01*
X003856Y021368D01*
X003770Y020462D02*
X003140Y020462D01*
X003770Y020462D02*
X004124Y020147D01*
X004124Y018927D01*
X004360Y018690D01*
X007313Y018690D01*
X008297Y017982D02*
X004124Y017982D01*
X003691Y018257D01*
X003691Y019360D01*
X003494Y019478D01*
X003140Y019478D01*
X003967Y017194D02*
X003967Y016958D01*
X004557Y016368D01*
X007274Y016368D01*
X008219Y016761D02*
X009321Y016761D01*
X009478Y016978D01*
X009478Y020501D01*
X009478Y022155D01*
X012313Y016309D02*
X014400Y016309D01*
X014518Y016446D02*
X015738Y016446D01*
X015738Y017352D01*
X015935Y017549D01*
X016506Y018080D01*
X018140Y018080D01*
X020305Y018513D02*
X020305Y019419D01*
X020423Y019537D01*
X024179Y019537D01*
X024419Y020580D02*
X021604Y020580D01*
X020530Y021631D02*
X020108Y021210D01*
X020530Y021631D02*
X024309Y021631D01*
X020423Y017588D02*
X020660Y017352D01*
X017549Y014005D02*
X025896Y014005D01*
X019242Y020974D02*
X019242Y022864D01*
X017301Y022942D02*
X017301Y020789D01*
X015738Y016446D02*
X016014Y016210D01*
X016014Y014911D01*
X016998Y013139D02*
X012943Y013139D01*
X012471Y012942D01*
X011683Y014753D02*
X012156Y015147D01*
X011683Y014753D02*
X011683Y006131D01*
X011309Y005856D01*
X004931Y005856D01*
X006093Y010462D02*
X006093Y012549D01*
X006486Y012942D01*
X007549Y012942D01*
X008286Y014596D02*
X003100Y014596D01*
X008219Y015501D02*
X008494Y015501D01*
X009400Y014557D01*
X009990Y014557D01*
D11*
X013228Y019289D03*
D12*
X007695Y026699D02*
X007695Y027217D01*
X006695Y027217D02*
X006695Y026699D01*
X023109Y003454D02*
X023627Y003454D01*
X023627Y002454D02*
X023109Y002454D01*
D13*
X025565Y005545D02*
X026305Y005545D01*
X026305Y006553D02*
X025565Y006553D01*
X025563Y016555D02*
X026303Y016555D01*
X026297Y017549D02*
X025557Y017549D01*
X025555Y018545D02*
X026295Y018545D01*
X026297Y019537D02*
X025557Y019537D01*
X025557Y020541D02*
X026297Y020541D01*
X026297Y021545D02*
X025557Y021545D01*
X025551Y022541D02*
X026291Y022541D01*
X026299Y023535D02*
X025559Y023535D01*
X025849Y026458D02*
X025849Y027198D01*
X024833Y027198D02*
X024833Y026458D01*
X022652Y026496D02*
X022652Y027236D01*
X021654Y027228D02*
X021654Y026488D01*
X020660Y026482D02*
X020660Y027222D01*
X019656Y027220D02*
X019656Y026480D01*
X018646Y026492D02*
X018646Y027232D01*
X017640Y027236D02*
X017640Y026496D01*
X016648Y026501D02*
X016648Y027241D01*
X015652Y027241D02*
X015652Y026501D01*
X014656Y026501D02*
X014656Y027241D01*
X013665Y027247D02*
X013665Y026507D01*
X012673Y026505D02*
X012673Y027245D01*
X003707Y027488D02*
X003707Y026748D01*
X002711Y026732D02*
X002711Y027472D01*
X002250Y022482D02*
X001510Y022482D01*
X001510Y021486D02*
X002250Y021486D01*
X002250Y020482D02*
X001510Y020482D01*
X001510Y019478D02*
X002250Y019478D01*
X002250Y018474D02*
X001510Y018474D01*
X001510Y017474D02*
X002250Y017474D01*
X002250Y016472D02*
X001510Y016472D01*
X001510Y015462D02*
X002250Y015462D01*
X002250Y011812D02*
X001510Y011812D01*
X001510Y009812D02*
X002250Y009812D01*
D14*
X003061Y007588D03*
X004518Y008769D03*
X006093Y010462D03*
X007549Y012942D03*
X008286Y014596D03*
X008219Y015501D03*
X007274Y016368D03*
X008219Y016761D03*
X008297Y017982D03*
X007313Y018690D03*
X007136Y020344D03*
X005778Y020226D03*
X006486Y021997D03*
X005423Y022549D03*
X003738Y021486D03*
X003140Y020462D03*
X003140Y019478D03*
X003967Y017194D03*
X003219Y015934D03*
X003100Y014596D03*
X009478Y020501D03*
X009478Y022155D03*
X010148Y023100D03*
X010581Y022312D03*
X011447Y022706D03*
X011604Y023572D03*
X012234Y024517D03*
X011604Y025226D03*
X010581Y026309D03*
X009006Y026092D03*
X009006Y026840D03*
X007392Y025226D03*
X005856Y024517D03*
X004675Y025620D03*
X005856Y026171D03*
X012825Y025620D03*
X014321Y024517D03*
X016408Y024950D03*
X017301Y022942D03*
X018494Y021289D03*
X019242Y020974D03*
X020108Y021210D03*
X021604Y020580D03*
X020305Y018513D03*
X020423Y017627D03*
X020541Y016840D03*
X019065Y017726D03*
X018140Y018080D03*
X015935Y017549D03*
X014518Y016446D03*
X014675Y014871D03*
X014793Y013887D03*
X015522Y013612D03*
X016014Y014911D03*
X017549Y014005D03*
X016998Y013139D03*
X018140Y011289D03*
X018140Y009714D03*
X018573Y003454D03*
X024242Y011289D03*
X024951Y013001D03*
X025896Y014005D03*
X024045Y014753D03*
X024309Y016564D03*
X024624Y017352D03*
X024262Y018100D03*
X024203Y019513D03*
X024419Y020580D03*
X024309Y021631D03*
X019242Y022864D03*
X017313Y020789D03*
X012313Y016309D03*
X011927Y015934D03*
X012156Y015147D03*
X011289Y014557D03*
X010738Y015068D03*
X009990Y014557D03*
X012471Y012942D03*
X009636Y007588D03*
X010266Y006643D03*
X004931Y005856D03*
D15*
X004518Y008769D02*
X004518Y012942D01*
X004911Y013257D01*
X010423Y013257D01*
X010738Y013494D01*
X010738Y015068D01*
X010738Y015423D01*
X010974Y015620D01*
X014439Y015620D01*
X014675Y015383D01*
X014675Y014871D01*
X014911Y014005D02*
X014793Y013887D01*
X014400Y016309D02*
X014518Y016446D01*
X011927Y015934D02*
X003219Y015934D01*
X007549Y012942D02*
X011053Y012942D01*
X011289Y013100D01*
X011289Y014557D01*
X017301Y020789D02*
X017313Y020789D01*
X020423Y017627D02*
X020423Y017588D01*
X024179Y019537D02*
X024203Y019513D01*
X024045Y014753D02*
X024006Y014753D01*
X012825Y025620D02*
X011683Y024675D01*
X011604Y024596D01*
X011604Y023572D01*
X009006Y026840D02*
X007392Y025226D01*
X003738Y021486D02*
X003856Y021368D01*
X010266Y006643D02*
X010266Y006604D01*
D16*
X010479Y006226D02*
X010530Y006247D01*
X010662Y006379D01*
X010733Y006550D01*
X010733Y006736D01*
X010662Y006908D01*
X010636Y006934D01*
X010636Y006992D01*
X010579Y007128D01*
X010318Y007390D01*
X010182Y007446D01*
X010035Y007446D01*
X004818Y007446D01*
X004682Y007390D01*
X004578Y007286D01*
X003909Y006616D01*
X003853Y006481D01*
X003853Y006333D01*
X003853Y005644D01*
X003909Y005508D01*
X004013Y005404D01*
X006277Y003141D01*
X006413Y003084D01*
X006560Y003084D01*
X018282Y003084D01*
X018308Y003058D01*
X018480Y002987D01*
X018666Y002987D01*
X018838Y003058D01*
X018969Y003190D01*
X019040Y003361D01*
X019040Y003547D01*
X018969Y003719D01*
X018943Y003745D01*
X018943Y006255D01*
X018943Y006402D01*
X018887Y006538D01*
X018510Y006914D01*
X018510Y009423D01*
X018536Y009449D01*
X018607Y009621D01*
X018607Y009807D01*
X018536Y009979D01*
X018404Y010110D01*
X018233Y010181D01*
X018047Y010181D01*
X017875Y010110D01*
X017744Y009979D01*
X017673Y009807D01*
X017673Y009621D01*
X017744Y009449D01*
X017770Y009423D01*
X017770Y006835D01*
X017770Y006688D01*
X017826Y006552D01*
X018203Y006175D01*
X018203Y003824D01*
X006640Y003824D01*
X005060Y005404D01*
X005196Y005460D01*
X005222Y005486D01*
X011281Y005486D01*
X011326Y005479D01*
X011354Y005486D01*
X011383Y005486D01*
X011425Y005503D01*
X011469Y005514D01*
X011492Y005531D01*
X011519Y005542D01*
X011551Y005574D01*
X011866Y005807D01*
X011893Y005818D01*
X011925Y005850D01*
X011962Y005877D01*
X011977Y005902D01*
X011997Y005922D01*
X012014Y005964D01*
X012038Y006003D01*
X012042Y006031D01*
X012053Y006058D01*
X012053Y006103D01*
X018203Y006103D01*
X018203Y006004D02*
X012038Y006004D01*
X012053Y006103D02*
X012060Y006149D01*
X012053Y006176D01*
X012053Y012729D01*
X012074Y012678D01*
X012206Y012546D01*
X012378Y012475D01*
X012563Y012475D01*
X012735Y012546D01*
X012867Y012678D01*
X012881Y012713D01*
X013017Y012769D01*
X016707Y012769D01*
X016733Y012743D01*
X016905Y012672D01*
X017091Y012672D01*
X017263Y012743D01*
X017394Y012875D01*
X017465Y013046D01*
X017465Y013232D01*
X017461Y013242D01*
X023950Y013242D01*
X024504Y012860D01*
X024555Y012737D01*
X024686Y012605D01*
X024858Y012534D01*
X025044Y012534D01*
X025215Y012605D01*
X025347Y012737D01*
X025418Y012908D01*
X025418Y013094D01*
X025347Y013266D01*
X025215Y013397D01*
X025044Y013469D01*
X024925Y013469D01*
X024303Y013897D01*
X024275Y013925D01*
X024243Y013938D01*
X024214Y013958D01*
X024175Y013966D01*
X024139Y013982D01*
X024104Y013982D01*
X024070Y013989D01*
X024031Y013982D01*
X015812Y013982D01*
X015786Y014008D01*
X015615Y014079D01*
X015596Y014079D01*
X015632Y014108D01*
X023657Y014108D01*
X023804Y014108D01*
X023940Y014164D01*
X024062Y014286D01*
X024138Y014286D01*
X024310Y014357D01*
X024441Y014489D01*
X024512Y014660D01*
X024512Y014846D01*
X024441Y015018D01*
X024310Y015149D01*
X024138Y015221D01*
X023952Y015221D01*
X023781Y015149D01*
X023649Y015018D01*
X023580Y014851D01*
X023577Y014848D01*
X016481Y014848D01*
X016481Y015004D01*
X016410Y015175D01*
X016384Y015202D01*
X016384Y016151D01*
X016388Y016165D01*
X016384Y016224D01*
X016384Y016284D01*
X016378Y016297D01*
X016377Y016312D01*
X016350Y016365D01*
X016327Y016420D01*
X016317Y016430D01*
X016311Y016443D01*
X016265Y016482D01*
X016223Y016524D01*
X016210Y016529D01*
X016108Y016616D01*
X016108Y017115D01*
X016200Y017153D01*
X016331Y017284D01*
X016402Y017456D01*
X016402Y017478D01*
X016652Y017710D01*
X017849Y017710D01*
X017875Y017684D01*
X018047Y017613D01*
X018233Y017613D01*
X018404Y017684D01*
X018536Y017816D01*
X018607Y017987D01*
X018607Y018173D01*
X018536Y018345D01*
X018510Y018371D01*
X018510Y019264D01*
X018525Y019280D01*
X018572Y019327D01*
X018574Y019334D01*
X018761Y019536D01*
X018808Y019583D01*
X018811Y019590D01*
X018816Y019596D01*
X018839Y019658D01*
X018864Y019719D01*
X018864Y019727D01*
X018867Y019734D01*
X018864Y019800D01*
X018864Y020691D01*
X018978Y020578D01*
X019149Y020507D01*
X019335Y020507D01*
X019507Y020578D01*
X019638Y020709D01*
X019709Y020881D01*
X019709Y020953D01*
X019712Y020945D01*
X019844Y020814D01*
X020015Y020743D01*
X020201Y020743D01*
X020373Y020814D01*
X020504Y020945D01*
X020575Y021117D01*
X020575Y021154D01*
X020683Y021261D01*
X024018Y021261D01*
X024044Y021235D01*
X024216Y021164D01*
X024402Y021164D01*
X024574Y021235D01*
X024705Y021367D01*
X024776Y021538D01*
X024776Y021724D01*
X024705Y021896D01*
X024574Y022027D01*
X024402Y022098D01*
X024216Y022098D01*
X024044Y022027D01*
X024018Y022001D01*
X020603Y022001D01*
X020456Y022001D01*
X020320Y021945D01*
X020052Y021677D01*
X020015Y021677D01*
X019844Y021606D01*
X019712Y021475D01*
X019641Y021303D01*
X019641Y021231D01*
X019638Y021238D01*
X019612Y021265D01*
X019612Y022573D01*
X019638Y022599D01*
X019709Y022771D01*
X019709Y022957D01*
X019638Y023128D01*
X019507Y023260D01*
X019335Y023331D01*
X019149Y023331D01*
X018978Y023260D01*
X018864Y023146D01*
X018864Y024247D01*
X018864Y024394D01*
X018808Y024530D01*
X018611Y024727D01*
X018507Y024831D01*
X018371Y024887D01*
X014612Y024887D01*
X014586Y024913D01*
X014414Y024984D01*
X014228Y024984D01*
X014056Y024913D01*
X014030Y024887D01*
X012525Y024887D01*
X012499Y024913D01*
X012492Y024916D01*
X012777Y025152D01*
X012918Y025152D01*
X013089Y025223D01*
X013221Y025355D01*
X013292Y025527D01*
X013292Y025712D01*
X013221Y025884D01*
X013103Y026002D01*
X013170Y026069D01*
X013292Y025948D01*
X013534Y025847D01*
X013797Y025847D01*
X014039Y025948D01*
X014158Y026066D01*
X014282Y025942D01*
X014524Y025841D01*
X014787Y025841D01*
X015029Y025942D01*
X015154Y026066D01*
X015278Y025942D01*
X015520Y025841D01*
X015783Y025841D01*
X016025Y025942D01*
X016150Y026066D01*
X016274Y025942D01*
X016516Y025841D01*
X016779Y025841D01*
X017022Y025942D01*
X017141Y026061D01*
X017266Y025936D01*
X017509Y025836D01*
X017771Y025836D01*
X018014Y025936D01*
X018141Y026063D01*
X018272Y025932D01*
X018514Y025832D01*
X018777Y025832D01*
X019020Y025932D01*
X019145Y026057D01*
X019282Y025920D01*
X019524Y025820D01*
X019787Y025820D01*
X020029Y025920D01*
X020159Y026049D01*
X020286Y025922D01*
X020528Y025822D01*
X020791Y025822D01*
X021033Y025922D01*
X021159Y026048D01*
X021280Y025928D01*
X021522Y025828D01*
X021785Y025828D01*
X022027Y025928D01*
X022157Y026057D01*
X022278Y025936D01*
X022520Y025836D01*
X022783Y025836D01*
X023025Y025936D01*
X023211Y026122D01*
X023312Y026364D01*
X023312Y027367D01*
X023211Y027609D01*
X023025Y027795D01*
X022783Y027896D01*
X022520Y027896D01*
X022278Y027795D01*
X022149Y027666D01*
X022027Y027787D01*
X021785Y027888D01*
X021522Y027888D01*
X021280Y027787D01*
X021154Y027661D01*
X021033Y027781D01*
X020791Y027882D01*
X020528Y027882D01*
X020286Y027781D01*
X020157Y027652D01*
X020029Y027779D01*
X019787Y027880D01*
X019524Y027880D01*
X019282Y027779D01*
X019157Y027654D01*
X019020Y027791D01*
X018777Y027892D01*
X018514Y027892D01*
X018272Y027791D01*
X018145Y027664D01*
X018014Y027795D01*
X017771Y027896D01*
X017509Y027896D01*
X017266Y027795D01*
X017147Y027676D01*
X017022Y027801D01*
X016779Y027901D01*
X016516Y027901D01*
X016274Y027801D01*
X016150Y027677D01*
X016025Y027801D01*
X015783Y027901D01*
X015520Y027901D01*
X015278Y027801D01*
X015154Y027677D01*
X015029Y027801D01*
X014787Y027901D01*
X014524Y027901D01*
X014282Y027801D01*
X014163Y027683D01*
X014039Y027807D01*
X013797Y027907D01*
X013534Y027907D01*
X013292Y027807D01*
X013168Y027684D01*
X013169Y027684D01*
X013168Y027684D02*
X013047Y027805D01*
X012805Y027905D01*
X012542Y027905D01*
X012299Y027805D01*
X012114Y027619D01*
X012013Y027377D01*
X012013Y026374D01*
X012114Y026132D01*
X012299Y025946D01*
X012435Y025890D01*
X012429Y025884D01*
X012358Y025712D01*
X012358Y025660D01*
X012039Y025397D01*
X012000Y025490D01*
X011869Y025622D01*
X011697Y025693D01*
X011511Y025693D01*
X011340Y025622D01*
X011208Y025490D01*
X011160Y025374D01*
X010957Y025239D01*
X010951Y025236D01*
X010951Y026018D01*
X010977Y026044D01*
X011048Y026216D01*
X011048Y026401D01*
X010977Y026573D01*
X010845Y026705D01*
X010674Y026776D01*
X010488Y026776D01*
X010316Y026705D01*
X010185Y026573D01*
X010116Y026408D01*
X009985Y026462D01*
X009297Y026462D01*
X009271Y026488D01*
X009099Y026559D01*
X008913Y026559D01*
X008741Y026488D01*
X008610Y026357D01*
X008539Y026185D01*
X008539Y025999D01*
X008610Y025827D01*
X008741Y025696D01*
X008913Y025625D01*
X009099Y025625D01*
X009271Y025696D01*
X009297Y025722D01*
X009758Y025722D01*
X009778Y025702D01*
X009778Y023390D01*
X009752Y023364D01*
X009681Y023193D01*
X009681Y023007D01*
X009752Y022835D01*
X009883Y022704D01*
X010055Y022633D01*
X010211Y022633D01*
X010211Y022603D01*
X010185Y022577D01*
X010114Y022405D01*
X010114Y022219D01*
X010185Y022048D01*
X010316Y021916D01*
X010488Y021845D01*
X010674Y021845D01*
X010845Y021916D01*
X010977Y022048D01*
X011048Y022219D01*
X011048Y022405D01*
X010977Y022577D01*
X010951Y022603D01*
X010951Y022679D01*
X010980Y022650D01*
X010980Y022613D01*
X011051Y022441D01*
X011182Y022310D01*
X011354Y022239D01*
X011540Y022239D01*
X011712Y022310D01*
X011843Y022441D01*
X011914Y022613D01*
X011914Y022799D01*
X011843Y022971D01*
X011712Y023102D01*
X011701Y023107D01*
X011869Y023176D01*
X012000Y023308D01*
X012072Y023479D01*
X012072Y023665D01*
X012000Y023837D01*
X011934Y023904D01*
X011934Y024157D01*
X011970Y024121D01*
X012141Y024050D01*
X012327Y024050D01*
X012499Y024121D01*
X012525Y024147D01*
X014030Y024147D01*
X014056Y024121D01*
X014228Y024050D01*
X014414Y024050D01*
X014586Y024121D01*
X014612Y024147D01*
X018124Y024147D01*
X018124Y021579D01*
X018098Y021553D01*
X018027Y021382D01*
X018027Y021196D01*
X018098Y021024D01*
X018124Y020998D01*
X018124Y019937D01*
X017991Y019793D01*
X017930Y019732D01*
X017826Y019628D01*
X017770Y019492D01*
X017770Y018450D01*
X016513Y018450D01*
X016446Y018453D01*
X016439Y018450D01*
X016432Y018450D01*
X016371Y018425D01*
X016308Y018401D01*
X016303Y018396D01*
X016296Y018394D01*
X016249Y018346D01*
X015894Y018016D01*
X015842Y018016D01*
X015670Y017945D01*
X015539Y017813D01*
X015468Y017642D01*
X015468Y017605D01*
X015425Y017561D01*
X015368Y017425D01*
X015368Y016816D01*
X014808Y016816D01*
X014782Y016842D01*
X014611Y016913D01*
X014425Y016913D01*
X014253Y016842D01*
X014122Y016711D01*
X014108Y016678D01*
X012604Y016678D01*
X012578Y016705D01*
X012406Y016776D01*
X012220Y016776D01*
X012048Y016705D01*
X011917Y016573D01*
X011846Y016402D01*
X011834Y016402D01*
X011663Y016331D01*
X011596Y016264D01*
X007736Y016264D01*
X007741Y016275D01*
X007741Y016460D01*
X007670Y016632D01*
X007538Y016764D01*
X007367Y016835D01*
X007181Y016835D01*
X007009Y016764D01*
X006983Y016738D01*
X004710Y016738D01*
X004408Y017040D01*
X004434Y017101D01*
X004434Y017287D01*
X004363Y017459D01*
X004231Y017590D01*
X004179Y017612D01*
X008007Y017612D01*
X008033Y017586D01*
X008204Y017515D01*
X008390Y017515D01*
X008562Y017586D01*
X008693Y017717D01*
X008764Y017889D01*
X008764Y018075D01*
X008693Y018246D01*
X008562Y018378D01*
X008390Y018449D01*
X008204Y018449D01*
X008033Y018378D01*
X008007Y018352D01*
X007635Y018352D01*
X007709Y018426D01*
X007780Y018597D01*
X007780Y018783D01*
X007709Y018955D01*
X007578Y019086D01*
X007406Y019158D01*
X007220Y019158D01*
X007048Y019086D01*
X007022Y019060D01*
X004514Y019060D01*
X004494Y019080D01*
X004494Y020085D01*
X004498Y020095D01*
X004494Y020158D01*
X004494Y020221D01*
X004490Y020231D01*
X004489Y020242D01*
X004462Y020299D01*
X004438Y020357D01*
X004430Y020365D01*
X004425Y020375D01*
X004378Y020417D01*
X004334Y020461D01*
X004323Y020465D01*
X004024Y020731D01*
X003979Y020776D01*
X003969Y020780D01*
X003961Y020787D01*
X003901Y020808D01*
X003843Y020832D01*
X003832Y020832D01*
X003821Y020836D01*
X003759Y020832D01*
X003431Y020832D01*
X003404Y020858D01*
X003233Y020929D01*
X003047Y020929D01*
X002875Y020858D01*
X002828Y020811D01*
X002809Y020856D01*
X002681Y020984D01*
X002809Y021112D01*
X002910Y021354D01*
X002910Y021617D01*
X002809Y021859D01*
X002685Y021984D01*
X002809Y022108D01*
X002910Y022350D01*
X002910Y022613D01*
X002809Y022856D01*
X002624Y023041D01*
X002381Y023142D01*
X001379Y023142D01*
X001136Y023041D01*
X000950Y022856D01*
X000850Y022613D01*
X000850Y022350D01*
X000950Y022108D01*
X001075Y021984D01*
X000950Y021859D01*
X000850Y021617D01*
X000850Y021354D01*
X000950Y021112D01*
X001079Y020984D01*
X000950Y020856D01*
X000850Y020613D01*
X000850Y020350D01*
X000950Y020108D01*
X001079Y019980D01*
X000950Y019852D01*
X000850Y019609D01*
X000850Y019346D01*
X000950Y019104D01*
X001079Y018976D01*
X000950Y018848D01*
X000850Y018605D01*
X000850Y018343D01*
X000950Y018100D01*
X001077Y017974D01*
X000950Y017848D01*
X000850Y017605D01*
X000850Y017343D01*
X000950Y017100D01*
X001078Y016973D01*
X000950Y016846D01*
X000850Y016603D01*
X000850Y016341D01*
X000950Y016098D01*
X001082Y015967D01*
X000950Y015836D01*
X000850Y015593D01*
X000850Y015331D01*
X000950Y015088D01*
X001136Y014903D01*
X001379Y014802D01*
X002381Y014802D01*
X002624Y014903D01*
X002809Y015088D01*
X002910Y015331D01*
X002910Y015582D01*
X002954Y015538D01*
X003126Y015467D01*
X003311Y015467D01*
X003483Y015538D01*
X003550Y015605D01*
X007756Y015605D01*
X007751Y015594D01*
X007751Y015408D01*
X007823Y015237D01*
X007954Y015105D01*
X008124Y015035D01*
X008021Y014992D01*
X007995Y014966D01*
X003391Y014966D01*
X003365Y014992D01*
X003193Y015063D01*
X003008Y015063D01*
X002836Y014992D01*
X002704Y014861D01*
X002633Y014689D01*
X002633Y014503D01*
X002704Y014331D01*
X002836Y014200D01*
X003008Y014129D01*
X003193Y014129D01*
X003365Y014200D01*
X003391Y014226D01*
X007995Y014226D01*
X008021Y014200D01*
X008193Y014129D01*
X008378Y014129D01*
X008550Y014200D01*
X008682Y014331D01*
X008753Y014503D01*
X008753Y014689D01*
X008747Y014703D01*
X009084Y014351D01*
X009086Y014347D01*
X009135Y014298D01*
X009183Y014247D01*
X009187Y014246D01*
X009190Y014243D01*
X009254Y014216D01*
X009318Y014188D01*
X009322Y014188D01*
X009326Y014187D01*
X009395Y014187D01*
X009465Y014185D01*
X009469Y014187D01*
X009700Y014187D01*
X009726Y014160D01*
X009897Y014089D01*
X010083Y014089D01*
X010255Y014160D01*
X010386Y014292D01*
X010409Y014347D01*
X010409Y013658D01*
X010314Y013587D01*
X004930Y013587D01*
X004883Y013592D01*
X004865Y013587D01*
X004846Y013587D01*
X004802Y013569D01*
X004757Y013555D01*
X004742Y013544D01*
X004725Y013537D01*
X004691Y013503D01*
X004349Y013229D01*
X004331Y013222D01*
X004298Y013188D01*
X004261Y013159D01*
X004252Y013142D01*
X004239Y013129D01*
X004220Y013085D01*
X004198Y013044D01*
X004196Y013025D01*
X004188Y013008D01*
X004188Y012961D01*
X004183Y012914D01*
X004188Y012896D01*
X004188Y009100D01*
X004122Y009034D01*
X004051Y008862D01*
X000673Y008862D01*
X000673Y008764D02*
X004051Y008764D01*
X004051Y008676D02*
X004122Y008504D01*
X004253Y008373D01*
X004425Y008302D01*
X004611Y008302D01*
X004782Y008373D01*
X004914Y008504D01*
X004985Y008676D01*
X004985Y008862D01*
X011313Y008862D01*
X011313Y008764D02*
X004985Y008764D01*
X004985Y008862D02*
X004914Y009034D01*
X004847Y009100D01*
X004847Y012784D01*
X005027Y012928D01*
X005949Y012928D01*
X005779Y012758D01*
X005723Y012622D01*
X005723Y012475D01*
X005723Y010753D01*
X005697Y010727D01*
X005625Y010555D01*
X005625Y010369D01*
X005697Y010197D01*
X005828Y010066D01*
X006000Y009995D01*
X006186Y009995D01*
X006357Y010066D01*
X006489Y010197D01*
X006560Y010369D01*
X006560Y010555D01*
X006489Y010727D01*
X006463Y010753D01*
X006463Y012395D01*
X006640Y012572D01*
X007259Y012572D01*
X007285Y012546D01*
X007456Y012475D01*
X007642Y012475D01*
X007814Y012546D01*
X007881Y012613D01*
X011021Y012613D01*
X011053Y012607D01*
X011085Y012613D01*
X011119Y012613D01*
X011149Y012626D01*
X011181Y012632D01*
X011209Y012650D01*
X011240Y012663D01*
X011263Y012686D01*
X011313Y012720D01*
X011313Y006318D01*
X011188Y006226D01*
X010479Y006226D01*
X010583Y006300D02*
X011288Y006300D01*
X011313Y006398D02*
X010670Y006398D01*
X010711Y006497D02*
X011313Y006497D01*
X011313Y006596D02*
X010733Y006596D01*
X010733Y006694D02*
X011313Y006694D01*
X011313Y006793D02*
X010710Y006793D01*
X010669Y006891D02*
X011313Y006891D01*
X011313Y006990D02*
X010636Y006990D01*
X010596Y007088D02*
X011313Y007088D01*
X011313Y007187D02*
X010521Y007187D01*
X010422Y007285D02*
X011313Y007285D01*
X011313Y007384D02*
X010324Y007384D01*
X011313Y007482D02*
X000673Y007482D01*
X000673Y007384D02*
X004676Y007384D01*
X004578Y007285D02*
X000673Y007285D01*
X000673Y007187D02*
X004479Y007187D01*
X004381Y007088D02*
X000673Y007088D01*
X000673Y006990D02*
X004282Y006990D01*
X004184Y006891D02*
X000673Y006891D01*
X000673Y006793D02*
X004085Y006793D01*
X003986Y006694D02*
X000673Y006694D01*
X000673Y006596D02*
X003900Y006596D01*
X003859Y006497D02*
X000673Y006497D01*
X000673Y006398D02*
X003853Y006398D01*
X003853Y006300D02*
X000673Y006300D01*
X000673Y006201D02*
X003853Y006201D01*
X003853Y006103D02*
X000673Y006103D01*
X000673Y006004D02*
X003853Y006004D01*
X003853Y005906D02*
X000673Y005906D01*
X000673Y005807D02*
X003853Y005807D01*
X003853Y005709D02*
X000673Y005709D01*
X000673Y005610D02*
X003867Y005610D01*
X003908Y005512D02*
X000673Y005512D01*
X000673Y005413D02*
X004004Y005413D01*
X004103Y005314D02*
X000673Y005314D01*
X000673Y005216D02*
X004201Y005216D01*
X004300Y005117D02*
X000673Y005117D01*
X000673Y005019D02*
X004398Y005019D01*
X004497Y004920D02*
X000673Y004920D01*
X000673Y004822D02*
X004595Y004822D01*
X004694Y004723D02*
X000673Y004723D01*
X000673Y004625D02*
X004793Y004625D01*
X004891Y004526D02*
X000673Y004526D01*
X000673Y004428D02*
X004990Y004428D01*
X005088Y004329D02*
X000673Y004329D01*
X000673Y004231D02*
X005187Y004231D01*
X005285Y004132D02*
X000673Y004132D01*
X000673Y004033D02*
X005384Y004033D01*
X005482Y003935D02*
X000673Y003935D01*
X000673Y003836D02*
X005581Y003836D01*
X005679Y003738D02*
X000673Y003738D01*
X000673Y003639D02*
X005778Y003639D01*
X005876Y003541D02*
X000673Y003541D01*
X000673Y003442D02*
X005975Y003442D01*
X006074Y003344D02*
X000673Y003344D01*
X000673Y003245D02*
X006172Y003245D01*
X006271Y003147D02*
X000673Y003147D01*
X000673Y003048D02*
X018333Y003048D01*
X018813Y003048D02*
X022740Y003048D01*
X022799Y002989D02*
X022883Y002954D01*
X022799Y002919D01*
X022644Y002765D01*
X022561Y002563D01*
X022561Y002345D01*
X022644Y002143D01*
X022799Y001989D01*
X023000Y001905D01*
X023736Y001905D01*
X023938Y001989D01*
X024092Y002143D01*
X024176Y002345D01*
X024176Y002563D01*
X024092Y002765D01*
X023938Y002919D01*
X023854Y002954D01*
X023938Y002989D01*
X024092Y003143D01*
X024176Y003345D01*
X024176Y003563D01*
X024092Y003765D01*
X023938Y003919D01*
X023736Y004003D01*
X023000Y004003D01*
X022799Y003919D01*
X022644Y003765D01*
X022561Y003563D01*
X022561Y003345D01*
X022644Y003143D01*
X022799Y002989D01*
X022871Y002949D02*
X000673Y002949D01*
X000673Y002851D02*
X022730Y002851D01*
X022639Y002752D02*
X000673Y002752D01*
X000673Y002654D02*
X022598Y002654D01*
X022561Y002555D02*
X000673Y002555D01*
X000673Y002457D02*
X022561Y002457D01*
X022561Y002358D02*
X000673Y002358D01*
X000673Y002260D02*
X022596Y002260D01*
X022637Y002161D02*
X000673Y002161D01*
X000673Y002063D02*
X022725Y002063D01*
X022859Y001964D02*
X000673Y001964D01*
X000673Y001865D02*
X027173Y001865D01*
X027173Y001767D02*
X000673Y001767D01*
X000673Y001668D02*
X027173Y001668D01*
X027173Y001570D02*
X000673Y001570D01*
X000673Y001471D02*
X027173Y001471D01*
X027173Y001373D02*
X000673Y001373D01*
X000673Y001274D02*
X027173Y001274D01*
X027173Y001176D02*
X000673Y001176D01*
X000673Y001077D02*
X027173Y001077D01*
X027173Y000979D02*
X000673Y000979D01*
X000673Y000880D02*
X027173Y000880D01*
X027173Y000787D02*
X000673Y000787D01*
X000673Y028005D01*
X002311Y028005D01*
X002151Y027846D01*
X002051Y027603D01*
X002051Y026601D01*
X002151Y026358D01*
X002337Y026172D01*
X002579Y026072D01*
X002842Y026072D01*
X003085Y026172D01*
X003270Y026358D01*
X003308Y026448D01*
X003326Y026423D01*
X003382Y026367D01*
X003445Y026321D01*
X003515Y026285D01*
X003590Y026261D01*
X003657Y026251D01*
X003657Y027067D01*
X003757Y027067D01*
X003757Y026251D01*
X003824Y026261D01*
X003898Y026285D01*
X003968Y026321D01*
X004032Y026367D01*
X004087Y026423D01*
X004133Y026486D01*
X004169Y026556D01*
X004193Y026631D01*
X004205Y026708D01*
X004205Y027068D01*
X003757Y027068D01*
X003757Y027167D01*
X004205Y027167D01*
X004205Y027527D01*
X004193Y027604D01*
X004169Y027679D01*
X004133Y027749D01*
X004087Y027812D01*
X004032Y027868D01*
X003968Y027914D01*
X003898Y027950D01*
X003824Y027974D01*
X003757Y027985D01*
X003757Y027168D01*
X003657Y027168D01*
X003657Y027985D01*
X003590Y027974D01*
X003515Y027950D01*
X003445Y027914D01*
X003382Y027868D01*
X003326Y027812D01*
X003299Y027775D01*
X003270Y027846D01*
X003110Y028005D01*
X027173Y028005D01*
X027173Y000787D01*
X027173Y001964D02*
X023877Y001964D01*
X024011Y002063D02*
X027173Y002063D01*
X027173Y002161D02*
X024099Y002161D01*
X024140Y002260D02*
X027173Y002260D01*
X027173Y002358D02*
X024176Y002358D01*
X024176Y002457D02*
X027173Y002457D01*
X027173Y002555D02*
X024176Y002555D01*
X024138Y002654D02*
X027173Y002654D01*
X027173Y002752D02*
X024097Y002752D01*
X024006Y002851D02*
X027173Y002851D01*
X027173Y002949D02*
X023865Y002949D01*
X023997Y003048D02*
X027173Y003048D01*
X027173Y003147D02*
X024093Y003147D01*
X024134Y003245D02*
X027173Y003245D01*
X027173Y003344D02*
X024175Y003344D01*
X024176Y003442D02*
X027173Y003442D01*
X027173Y003541D02*
X024176Y003541D01*
X024144Y003639D02*
X027173Y003639D01*
X027173Y003738D02*
X024103Y003738D01*
X024021Y003836D02*
X027173Y003836D01*
X027173Y003935D02*
X023900Y003935D01*
X022836Y003935D02*
X018943Y003935D01*
X018943Y004033D02*
X027173Y004033D01*
X027173Y004132D02*
X018943Y004132D01*
X018943Y004231D02*
X027173Y004231D01*
X027173Y004329D02*
X018943Y004329D01*
X018943Y004428D02*
X027173Y004428D01*
X027173Y004526D02*
X018943Y004526D01*
X018943Y004625D02*
X027173Y004625D01*
X027173Y004723D02*
X018943Y004723D01*
X018943Y004822D02*
X027173Y004822D01*
X027173Y004920D02*
X026522Y004920D01*
X026436Y004885D02*
X026679Y004985D01*
X026865Y005171D01*
X026965Y005413D01*
X027173Y005413D01*
X027173Y005314D02*
X026924Y005314D01*
X026883Y005216D02*
X027173Y005216D01*
X027173Y005117D02*
X026811Y005117D01*
X026713Y005019D02*
X027173Y005019D01*
X026965Y005413D02*
X026965Y005676D01*
X026865Y005919D01*
X026734Y006049D01*
X026865Y006179D01*
X026965Y006421D01*
X026965Y006684D01*
X026865Y006926D01*
X026679Y007112D01*
X026436Y007213D01*
X025434Y007213D01*
X025191Y007112D01*
X025006Y006926D01*
X024905Y006684D01*
X024905Y006421D01*
X025006Y006179D01*
X025136Y006049D01*
X025006Y005919D01*
X024905Y005676D01*
X024905Y005413D01*
X018943Y005413D01*
X018943Y005314D02*
X024946Y005314D01*
X024987Y005216D02*
X018943Y005216D01*
X018943Y005117D02*
X025059Y005117D01*
X025006Y005171D02*
X025191Y004985D01*
X025434Y004885D01*
X026436Y004885D01*
X026965Y005512D02*
X027173Y005512D01*
X027173Y005610D02*
X026965Y005610D01*
X026952Y005709D02*
X027173Y005709D01*
X027173Y005807D02*
X026911Y005807D01*
X026870Y005906D02*
X027173Y005906D01*
X027173Y006004D02*
X026779Y006004D01*
X026789Y006103D02*
X027173Y006103D01*
X027173Y006201D02*
X026874Y006201D01*
X026915Y006300D02*
X027173Y006300D01*
X027173Y006398D02*
X026956Y006398D01*
X026965Y006497D02*
X027173Y006497D01*
X027173Y006596D02*
X026965Y006596D01*
X026961Y006694D02*
X027173Y006694D01*
X027173Y006793D02*
X026920Y006793D01*
X026879Y006891D02*
X027173Y006891D01*
X027173Y006990D02*
X026801Y006990D01*
X026703Y007088D02*
X027173Y007088D01*
X027173Y007187D02*
X026499Y007187D01*
X027173Y007285D02*
X018510Y007285D01*
X018510Y007187D02*
X025372Y007187D01*
X025167Y007088D02*
X018510Y007088D01*
X018510Y006990D02*
X025069Y006990D01*
X024991Y006891D02*
X018533Y006891D01*
X018632Y006793D02*
X024950Y006793D01*
X024909Y006694D02*
X018730Y006694D01*
X018829Y006596D02*
X024905Y006596D01*
X024905Y006497D02*
X018903Y006497D01*
X018943Y006398D02*
X024915Y006398D01*
X024955Y006300D02*
X018943Y006300D01*
X018943Y006201D02*
X024996Y006201D01*
X025081Y006103D02*
X018943Y006103D01*
X018943Y006004D02*
X025091Y006004D01*
X025000Y005906D02*
X018943Y005906D01*
X018943Y005807D02*
X024959Y005807D01*
X024919Y005709D02*
X018943Y005709D01*
X018943Y005610D02*
X024905Y005610D01*
X024905Y005512D02*
X018943Y005512D01*
X018943Y005019D02*
X025158Y005019D01*
X025348Y004920D02*
X018943Y004920D01*
X018203Y004920D02*
X005543Y004920D01*
X005445Y005019D02*
X018203Y005019D01*
X018203Y005117D02*
X005346Y005117D01*
X005248Y005216D02*
X018203Y005216D01*
X018203Y005314D02*
X005149Y005314D01*
X005083Y005413D02*
X018203Y005413D01*
X018203Y005512D02*
X011459Y005512D01*
X011599Y005610D02*
X018203Y005610D01*
X018203Y005709D02*
X011733Y005709D01*
X011867Y005807D02*
X018203Y005807D01*
X018203Y005906D02*
X011981Y005906D01*
X012053Y006201D02*
X018176Y006201D01*
X018078Y006300D02*
X012053Y006300D01*
X012053Y006398D02*
X017979Y006398D01*
X017881Y006497D02*
X012053Y006497D01*
X012053Y006596D02*
X017808Y006596D01*
X017770Y006694D02*
X012053Y006694D01*
X012053Y006793D02*
X017770Y006793D01*
X017770Y006891D02*
X012053Y006891D01*
X012053Y006990D02*
X017770Y006990D01*
X017770Y007088D02*
X012053Y007088D01*
X012053Y007187D02*
X017770Y007187D01*
X017770Y007285D02*
X012053Y007285D01*
X012053Y007384D02*
X017770Y007384D01*
X017770Y007482D02*
X012053Y007482D01*
X012053Y007581D02*
X017770Y007581D01*
X017770Y007680D02*
X012053Y007680D01*
X012053Y007778D02*
X017770Y007778D01*
X017770Y007877D02*
X012053Y007877D01*
X012053Y007975D02*
X017770Y007975D01*
X017770Y008074D02*
X012053Y008074D01*
X012053Y008172D02*
X017770Y008172D01*
X017770Y008271D02*
X012053Y008271D01*
X012053Y008369D02*
X017770Y008369D01*
X017770Y008468D02*
X012053Y008468D01*
X012053Y008566D02*
X017770Y008566D01*
X017770Y008665D02*
X012053Y008665D01*
X012053Y008764D02*
X017770Y008764D01*
X017770Y008862D02*
X012053Y008862D01*
X012053Y008961D02*
X017770Y008961D01*
X017770Y009059D02*
X012053Y009059D01*
X012053Y009158D02*
X017770Y009158D01*
X017770Y009256D02*
X012053Y009256D01*
X012053Y009355D02*
X017770Y009355D01*
X017742Y009453D02*
X012053Y009453D01*
X012053Y009552D02*
X017701Y009552D01*
X017673Y009650D02*
X012053Y009650D01*
X012053Y009749D02*
X017673Y009749D01*
X017689Y009847D02*
X012053Y009847D01*
X012053Y009946D02*
X017730Y009946D01*
X017810Y010045D02*
X012053Y010045D01*
X012053Y010143D02*
X017955Y010143D01*
X018325Y010143D02*
X027173Y010143D01*
X027173Y010045D02*
X018470Y010045D01*
X018549Y009946D02*
X027173Y009946D01*
X027173Y009847D02*
X018590Y009847D01*
X018607Y009749D02*
X027173Y009749D01*
X027173Y009650D02*
X018607Y009650D01*
X018578Y009552D02*
X027173Y009552D01*
X027173Y009453D02*
X018537Y009453D01*
X018510Y009355D02*
X027173Y009355D01*
X027173Y009256D02*
X018510Y009256D01*
X018510Y009158D02*
X027173Y009158D01*
X027173Y009059D02*
X018510Y009059D01*
X018510Y008961D02*
X027173Y008961D01*
X027173Y008862D02*
X018510Y008862D01*
X018510Y008764D02*
X027173Y008764D01*
X027173Y008665D02*
X018510Y008665D01*
X018510Y008566D02*
X027173Y008566D01*
X027173Y008468D02*
X018510Y008468D01*
X018510Y008369D02*
X027173Y008369D01*
X027173Y008271D02*
X018510Y008271D01*
X018510Y008172D02*
X027173Y008172D01*
X027173Y008074D02*
X018510Y008074D01*
X018510Y007975D02*
X027173Y007975D01*
X027173Y007877D02*
X018510Y007877D01*
X018510Y007778D02*
X027173Y007778D01*
X027173Y007680D02*
X018510Y007680D01*
X018510Y007581D02*
X027173Y007581D01*
X027173Y007482D02*
X018510Y007482D01*
X018510Y007384D02*
X027173Y007384D01*
X024905Y005413D02*
X025006Y005171D01*
X022716Y003836D02*
X018943Y003836D01*
X018950Y003738D02*
X022633Y003738D01*
X022592Y003639D02*
X019002Y003639D01*
X019040Y003541D02*
X022561Y003541D01*
X022561Y003442D02*
X019040Y003442D01*
X019033Y003344D02*
X022561Y003344D01*
X022602Y003245D02*
X018992Y003245D01*
X018926Y003147D02*
X022643Y003147D01*
X018203Y003836D02*
X006627Y003836D01*
X006529Y003935D02*
X018203Y003935D01*
X018203Y004033D02*
X006430Y004033D01*
X006332Y004132D02*
X018203Y004132D01*
X018203Y004231D02*
X006233Y004231D01*
X006135Y004329D02*
X018203Y004329D01*
X018203Y004428D02*
X006036Y004428D01*
X005938Y004526D02*
X018203Y004526D01*
X018203Y004625D02*
X005839Y004625D01*
X005740Y004723D02*
X018203Y004723D01*
X018203Y004822D02*
X005642Y004822D01*
X004773Y008369D02*
X011313Y008369D01*
X011313Y008271D02*
X000673Y008271D01*
X000673Y008369D02*
X004262Y008369D01*
X004158Y008468D02*
X000673Y008468D01*
X000673Y008566D02*
X004096Y008566D01*
X004055Y008665D02*
X000673Y008665D01*
X000673Y008961D02*
X004091Y008961D01*
X004051Y008862D02*
X004051Y008676D01*
X004147Y009059D02*
X000673Y009059D01*
X000673Y009158D02*
X001366Y009158D01*
X001379Y009152D02*
X001136Y009253D01*
X000950Y009439D01*
X000850Y009681D01*
X000850Y009944D01*
X000950Y010186D01*
X001136Y010372D01*
X001379Y010472D01*
X002381Y010472D01*
X002624Y010372D01*
X002809Y010186D01*
X002910Y009944D01*
X002910Y009681D01*
X002809Y009439D01*
X002624Y009253D01*
X002381Y009152D01*
X001379Y009152D01*
X001133Y009256D02*
X000673Y009256D01*
X000673Y009355D02*
X001034Y009355D01*
X000944Y009453D02*
X000673Y009453D01*
X000673Y009552D02*
X000904Y009552D01*
X000863Y009650D02*
X000673Y009650D01*
X000673Y009749D02*
X000850Y009749D01*
X000850Y009847D02*
X000673Y009847D01*
X000673Y009946D02*
X000851Y009946D01*
X000892Y010045D02*
X000673Y010045D01*
X000673Y010143D02*
X000933Y010143D01*
X001006Y010242D02*
X000673Y010242D01*
X000673Y010340D02*
X001104Y010340D01*
X001297Y010439D02*
X000673Y010439D01*
X000673Y010537D02*
X004188Y010537D01*
X004188Y010439D02*
X002463Y010439D01*
X002656Y010340D02*
X004188Y010340D01*
X004188Y010242D02*
X002754Y010242D01*
X002827Y010143D02*
X004188Y010143D01*
X004188Y010045D02*
X002868Y010045D01*
X002909Y009946D02*
X004188Y009946D01*
X004188Y009847D02*
X002910Y009847D01*
X002910Y009749D02*
X004188Y009749D01*
X004188Y009650D02*
X002897Y009650D01*
X002856Y009552D02*
X004188Y009552D01*
X004188Y009453D02*
X002816Y009453D01*
X002726Y009355D02*
X004188Y009355D01*
X004188Y009256D02*
X002627Y009256D01*
X002394Y009158D02*
X004188Y009158D01*
X004847Y009158D02*
X011313Y009158D01*
X011313Y009256D02*
X004847Y009256D01*
X004847Y009355D02*
X011313Y009355D01*
X011313Y009453D02*
X004847Y009453D01*
X004847Y009552D02*
X011313Y009552D01*
X011313Y009650D02*
X004847Y009650D01*
X004847Y009749D02*
X011313Y009749D01*
X011313Y009847D02*
X004847Y009847D01*
X004847Y009946D02*
X011313Y009946D01*
X011313Y010045D02*
X006305Y010045D01*
X006434Y010143D02*
X011313Y010143D01*
X011313Y010242D02*
X006507Y010242D01*
X006548Y010340D02*
X011313Y010340D01*
X011313Y010439D02*
X006560Y010439D01*
X006560Y010537D02*
X011313Y010537D01*
X011313Y010636D02*
X006526Y010636D01*
X006481Y010734D02*
X011313Y010734D01*
X011313Y010833D02*
X006463Y010833D01*
X006463Y010931D02*
X011313Y010931D01*
X011313Y011030D02*
X006463Y011030D01*
X006463Y011129D02*
X011313Y011129D01*
X011313Y011227D02*
X006463Y011227D01*
X006463Y011326D02*
X011313Y011326D01*
X011313Y011424D02*
X006463Y011424D01*
X006463Y011523D02*
X011313Y011523D01*
X011313Y011621D02*
X006463Y011621D01*
X006463Y011720D02*
X011313Y011720D01*
X011313Y011818D02*
X006463Y011818D01*
X006463Y011917D02*
X011313Y011917D01*
X011313Y012015D02*
X006463Y012015D01*
X006463Y012114D02*
X011313Y012114D01*
X011313Y012213D02*
X006463Y012213D01*
X006463Y012311D02*
X011313Y012311D01*
X011313Y012410D02*
X006477Y012410D01*
X006575Y012508D02*
X007377Y012508D01*
X007722Y012508D02*
X011313Y012508D01*
X011313Y012607D02*
X011054Y012607D01*
X011052Y012607D02*
X007874Y012607D01*
X008061Y014183D02*
X003325Y014183D01*
X002876Y014183D02*
X000673Y014183D01*
X000673Y014085D02*
X010409Y014085D01*
X010409Y014183D02*
X010278Y014183D01*
X010376Y014282D02*
X010409Y014282D01*
X010409Y013986D02*
X000673Y013986D01*
X000673Y013888D02*
X010409Y013888D01*
X010409Y013789D02*
X000673Y013789D01*
X000673Y013691D02*
X010409Y013691D01*
X010321Y013592D02*
X000673Y013592D01*
X000673Y013494D02*
X004680Y013494D01*
X004556Y013395D02*
X000673Y013395D01*
X000673Y013296D02*
X004433Y013296D01*
X004308Y013198D02*
X000673Y013198D01*
X000673Y013099D02*
X004226Y013099D01*
X004188Y013001D02*
X000673Y013001D01*
X000673Y012902D02*
X004186Y012902D01*
X004188Y012804D02*
X000673Y012804D01*
X000673Y012705D02*
X004188Y012705D01*
X004188Y012607D02*
X000673Y012607D01*
X000673Y012508D02*
X004188Y012508D01*
X004188Y012410D02*
X000673Y012410D01*
X000673Y012311D02*
X001470Y012311D01*
X001471Y012311D02*
X001393Y012299D01*
X001319Y012275D01*
X001249Y012239D01*
X001185Y012193D01*
X001130Y012137D01*
X001083Y012074D01*
X001048Y012004D01*
X001024Y011929D01*
X001013Y011862D01*
X001830Y011862D01*
X001830Y011762D01*
X001930Y011762D01*
X001930Y011314D01*
X002289Y011314D01*
X002367Y011326D01*
X002441Y011350D01*
X002511Y011386D01*
X002575Y011432D01*
X002630Y011488D01*
X002677Y011551D01*
X002712Y011621D01*
X002736Y011696D01*
X002747Y011762D01*
X001930Y011762D01*
X001930Y011862D01*
X002747Y011862D01*
X002736Y011929D01*
X002712Y012004D01*
X002677Y012074D01*
X002630Y012137D01*
X002575Y012193D01*
X002511Y012239D01*
X002441Y012275D01*
X002367Y012299D01*
X002289Y012311D01*
X001930Y012311D01*
X001830Y012311D01*
X001471Y012311D01*
X001212Y012213D02*
X000673Y012213D01*
X000673Y012114D02*
X001113Y012114D01*
X001054Y012015D02*
X000673Y012015D01*
X000673Y011917D02*
X001022Y011917D01*
X001013Y011762D02*
X001024Y011696D01*
X001048Y011621D01*
X001083Y011551D01*
X001130Y011488D01*
X001185Y011432D01*
X001249Y011386D01*
X001319Y011350D01*
X001393Y011326D01*
X001471Y011314D01*
X001830Y011314D01*
X001830Y011762D01*
X001013Y011762D01*
X001020Y011720D02*
X000673Y011720D01*
X000673Y011818D02*
X001830Y011818D01*
X001830Y011863D02*
X001830Y012311D01*
X001830Y012213D02*
X001930Y012213D01*
X001930Y012311D02*
X001930Y011863D01*
X001830Y011863D01*
X001830Y011917D02*
X001930Y011917D01*
X001930Y012015D02*
X001830Y012015D01*
X001830Y012114D02*
X001930Y012114D01*
X001930Y011818D02*
X004188Y011818D01*
X004188Y011720D02*
X002740Y011720D01*
X002712Y011621D02*
X004188Y011621D01*
X004188Y011523D02*
X002656Y011523D01*
X002564Y011424D02*
X004188Y011424D01*
X004188Y011326D02*
X002365Y011326D01*
X001930Y011326D02*
X001830Y011326D01*
X001830Y011424D02*
X001930Y011424D01*
X001930Y011523D02*
X001830Y011523D01*
X001830Y011621D02*
X001930Y011621D01*
X001930Y011720D02*
X001830Y011720D01*
X001395Y011326D02*
X000673Y011326D01*
X000673Y011424D02*
X001196Y011424D01*
X001104Y011523D02*
X000673Y011523D01*
X000673Y011621D02*
X001048Y011621D01*
X000673Y011227D02*
X004188Y011227D01*
X004188Y011129D02*
X000673Y011129D01*
X000673Y011030D02*
X004188Y011030D01*
X004188Y010931D02*
X000673Y010931D01*
X000673Y010833D02*
X004188Y010833D01*
X004188Y010734D02*
X000673Y010734D01*
X000673Y010636D02*
X004188Y010636D01*
X004847Y010636D02*
X005659Y010636D01*
X005625Y010537D02*
X004847Y010537D01*
X004847Y010439D02*
X005625Y010439D01*
X005637Y010340D02*
X004847Y010340D01*
X004847Y010242D02*
X005678Y010242D01*
X005751Y010143D02*
X004847Y010143D01*
X004847Y010045D02*
X005880Y010045D01*
X005704Y010734D02*
X004847Y010734D01*
X004847Y010833D02*
X005723Y010833D01*
X005723Y010931D02*
X004847Y010931D01*
X004847Y011030D02*
X005723Y011030D01*
X005723Y011129D02*
X004847Y011129D01*
X004847Y011227D02*
X005723Y011227D01*
X005723Y011326D02*
X004847Y011326D01*
X004847Y011424D02*
X005723Y011424D01*
X005723Y011523D02*
X004847Y011523D01*
X004847Y011621D02*
X005723Y011621D01*
X005723Y011720D02*
X004847Y011720D01*
X004847Y011818D02*
X005723Y011818D01*
X005723Y011917D02*
X004847Y011917D01*
X004847Y012015D02*
X005723Y012015D01*
X005723Y012114D02*
X004847Y012114D01*
X004847Y012213D02*
X005723Y012213D01*
X005723Y012311D02*
X004847Y012311D01*
X004847Y012410D02*
X005723Y012410D01*
X005723Y012508D02*
X004847Y012508D01*
X004847Y012607D02*
X005723Y012607D01*
X005757Y012705D02*
X004847Y012705D01*
X004872Y012804D02*
X005825Y012804D01*
X005923Y012902D02*
X004995Y012902D01*
X004188Y012311D02*
X002290Y012311D01*
X002548Y012213D02*
X004188Y012213D01*
X004188Y012114D02*
X002647Y012114D01*
X002706Y012015D02*
X004188Y012015D01*
X004188Y011917D02*
X002738Y011917D01*
X002754Y014282D02*
X000673Y014282D01*
X000673Y014380D02*
X002684Y014380D01*
X002643Y014479D02*
X000673Y014479D01*
X000673Y014578D02*
X002633Y014578D01*
X002633Y014676D02*
X000673Y014676D01*
X000673Y014775D02*
X002669Y014775D01*
X002717Y014873D02*
X002553Y014873D01*
X002693Y014972D02*
X002816Y014972D01*
X002792Y015070D02*
X008039Y015070D01*
X008001Y014972D02*
X003385Y014972D01*
X002843Y015169D02*
X007890Y015169D01*
X007810Y015267D02*
X002884Y015267D01*
X002910Y015366D02*
X007769Y015366D01*
X007751Y015464D02*
X002910Y015464D01*
X002910Y015563D02*
X002929Y015563D01*
X003508Y015563D02*
X007751Y015563D01*
X007741Y016351D02*
X007987Y016351D01*
X007954Y016365D02*
X008126Y016294D01*
X008311Y016294D01*
X008483Y016365D01*
X008509Y016391D01*
X009277Y016391D01*
X009306Y016384D01*
X009350Y016391D01*
X009395Y016391D01*
X009422Y016403D01*
X009451Y016407D01*
X009489Y016431D01*
X009531Y016448D01*
X009551Y016469D01*
X009577Y016484D01*
X009603Y016520D01*
X009635Y016552D01*
X009646Y016579D01*
X009761Y016737D01*
X009792Y016768D01*
X009803Y016796D01*
X009821Y016820D01*
X009831Y016863D01*
X009848Y016904D01*
X009848Y016934D01*
X009855Y016963D01*
X009848Y017007D01*
X009848Y020211D01*
X009874Y020237D01*
X009946Y020408D01*
X009946Y020594D01*
X009874Y020766D01*
X009848Y020792D01*
X009848Y021864D01*
X009874Y021890D01*
X009946Y022062D01*
X009946Y022248D01*
X009874Y022420D01*
X009743Y022551D01*
X009571Y022622D01*
X009534Y022622D01*
X009294Y022862D01*
X009158Y022919D01*
X009011Y022919D01*
X005714Y022919D01*
X005688Y022945D01*
X005516Y023016D01*
X005396Y023016D01*
X005045Y023256D01*
X005045Y025329D01*
X005071Y025355D01*
X005142Y025527D01*
X005142Y025712D01*
X005071Y025884D01*
X004940Y026016D01*
X004768Y026087D01*
X004582Y026087D01*
X004411Y026016D01*
X004279Y025884D01*
X004208Y025712D01*
X004208Y025527D01*
X004279Y025355D01*
X004305Y025329D01*
X004305Y023099D01*
X004298Y023065D01*
X004305Y023026D01*
X004305Y022987D01*
X004319Y022955D01*
X004325Y022920D01*
X004347Y022887D01*
X004362Y022851D01*
X004386Y022826D01*
X004406Y022797D01*
X004438Y022774D01*
X004466Y022747D01*
X004498Y022733D01*
X004977Y022406D01*
X005027Y022284D01*
X005159Y022153D01*
X005330Y022081D01*
X005516Y022081D01*
X005688Y022153D01*
X005714Y022179D01*
X006056Y022179D01*
X006019Y022090D01*
X006019Y021905D01*
X006090Y021733D01*
X006116Y021707D01*
X006116Y021280D01*
X006091Y021341D01*
X005855Y021577D01*
X005751Y021681D01*
X005615Y021738D01*
X004140Y021738D01*
X004134Y021750D01*
X004003Y021882D01*
X003831Y021953D01*
X003645Y021953D01*
X003474Y021882D01*
X003342Y021750D01*
X003271Y021579D01*
X003271Y021393D01*
X003342Y021221D01*
X003474Y021090D01*
X003645Y021019D01*
X003732Y021019D01*
X003783Y020998D01*
X005388Y020998D01*
X005408Y020978D01*
X005408Y020516D01*
X005382Y020490D01*
X005381Y020490D02*
X004295Y020490D01*
X004406Y020392D02*
X005341Y020392D01*
X005310Y020319D02*
X005310Y020133D01*
X005382Y019961D01*
X005513Y019830D01*
X005685Y019759D01*
X005871Y019759D01*
X006042Y019830D01*
X006174Y019961D01*
X006245Y020133D01*
X006245Y020220D01*
X006277Y020188D01*
X006296Y020180D01*
X006436Y020068D01*
X006474Y020030D01*
X006493Y020022D01*
X006509Y020009D01*
X006560Y019994D01*
X006610Y019974D01*
X006631Y019974D01*
X006651Y019968D01*
X006704Y019974D01*
X006845Y019974D01*
X006871Y019948D01*
X007043Y019877D01*
X007229Y019877D01*
X007401Y019948D01*
X007532Y020079D01*
X007603Y020251D01*
X007603Y020437D01*
X007532Y020609D01*
X007401Y020740D01*
X007229Y020811D01*
X007043Y020811D01*
X006871Y020740D01*
X006856Y020725D01*
X006856Y021707D01*
X006882Y021733D01*
X006953Y021905D01*
X006953Y022090D01*
X006917Y022179D01*
X008931Y022179D01*
X009011Y022099D01*
X009011Y022062D01*
X009082Y021890D01*
X009108Y021864D01*
X009108Y020792D01*
X009082Y020766D01*
X009011Y020594D01*
X009011Y020408D01*
X009082Y020237D01*
X009108Y020211D01*
X009108Y017131D01*
X008509Y017131D01*
X008483Y017157D01*
X008311Y017228D01*
X008126Y017228D01*
X007954Y017157D01*
X007823Y017026D01*
X007751Y016854D01*
X007751Y016668D01*
X007823Y016497D01*
X007954Y016365D01*
X007869Y016450D02*
X007741Y016450D01*
X007704Y016548D02*
X007801Y016548D01*
X007760Y016647D02*
X007655Y016647D01*
X007751Y016746D02*
X007556Y016746D01*
X007751Y016844D02*
X004604Y016844D01*
X004702Y016746D02*
X006991Y016746D01*
X007788Y016943D02*
X004505Y016943D01*
X004409Y017041D02*
X007838Y017041D01*
X007936Y017140D02*
X004434Y017140D01*
X004434Y017238D02*
X009108Y017238D01*
X009108Y017140D02*
X008501Y017140D01*
X008437Y017534D02*
X009108Y017534D01*
X009108Y017632D02*
X008609Y017632D01*
X008699Y017731D02*
X009108Y017731D01*
X009108Y017829D02*
X008740Y017829D01*
X008764Y017928D02*
X009108Y017928D01*
X009108Y018027D02*
X008764Y018027D01*
X008744Y018125D02*
X009108Y018125D01*
X009108Y018224D02*
X008703Y018224D01*
X008617Y018322D02*
X009108Y018322D01*
X009108Y018421D02*
X008458Y018421D01*
X008136Y018421D02*
X007704Y018421D01*
X007748Y018519D02*
X009108Y018519D01*
X009108Y018618D02*
X007780Y018618D01*
X007780Y018716D02*
X009108Y018716D01*
X009108Y018815D02*
X007767Y018815D01*
X007726Y018913D02*
X009108Y018913D01*
X009108Y019012D02*
X007652Y019012D01*
X007519Y019111D02*
X009108Y019111D01*
X009108Y019209D02*
X004494Y019209D01*
X004494Y019111D02*
X007107Y019111D01*
X006989Y019899D02*
X006111Y019899D01*
X006189Y019997D02*
X006550Y019997D01*
X006401Y020096D02*
X006229Y020096D01*
X006245Y020195D02*
X006270Y020195D01*
X005971Y019800D02*
X009108Y019800D01*
X009108Y019702D02*
X004494Y019702D01*
X004494Y019800D02*
X005584Y019800D01*
X005444Y019899D02*
X004494Y019899D01*
X004494Y019997D02*
X005367Y019997D01*
X005326Y020096D02*
X004498Y020096D01*
X004494Y020195D02*
X005310Y020195D01*
X005310Y020293D02*
X004464Y020293D01*
X004184Y020589D02*
X005408Y020589D01*
X005408Y020687D02*
X004073Y020687D01*
X003962Y020786D02*
X005408Y020786D01*
X005408Y020884D02*
X003341Y020884D01*
X003493Y021081D02*
X002779Y021081D01*
X002838Y021180D02*
X003383Y021180D01*
X003318Y021279D02*
X002879Y021279D01*
X002910Y021377D02*
X003278Y021377D01*
X003271Y021476D02*
X002910Y021476D01*
X002910Y021574D02*
X003271Y021574D01*
X003310Y021673D02*
X002887Y021673D01*
X002846Y021771D02*
X003363Y021771D01*
X003462Y021870D02*
X002799Y021870D01*
X002701Y021968D02*
X006019Y021968D01*
X006019Y022067D02*
X002768Y022067D01*
X002833Y022165D02*
X005146Y022165D01*
X005047Y022264D02*
X002874Y022264D01*
X002910Y022362D02*
X004995Y022362D01*
X004896Y022461D02*
X002910Y022461D01*
X002910Y022560D02*
X004752Y022560D01*
X004608Y022658D02*
X002891Y022658D01*
X002850Y022757D02*
X004456Y022757D01*
X004360Y022855D02*
X002810Y022855D01*
X002711Y022954D02*
X004319Y022954D01*
X004300Y023052D02*
X002597Y023052D01*
X001163Y023052D02*
X000673Y023052D01*
X000673Y022954D02*
X001049Y022954D01*
X000950Y022855D02*
X000673Y022855D01*
X000673Y022757D02*
X000910Y022757D01*
X000869Y022658D02*
X000673Y022658D01*
X000673Y022560D02*
X000850Y022560D01*
X000850Y022461D02*
X000673Y022461D01*
X000673Y022362D02*
X000850Y022362D01*
X000886Y022264D02*
X000673Y022264D01*
X000673Y022165D02*
X000927Y022165D01*
X000991Y022067D02*
X000673Y022067D01*
X000673Y021968D02*
X001059Y021968D01*
X000961Y021870D02*
X000673Y021870D01*
X000673Y021771D02*
X000914Y021771D01*
X000873Y021673D02*
X000673Y021673D01*
X000673Y021574D02*
X000850Y021574D01*
X000850Y021476D02*
X000673Y021476D01*
X000673Y021377D02*
X000850Y021377D01*
X000881Y021279D02*
X000673Y021279D01*
X000673Y021180D02*
X000922Y021180D01*
X000981Y021081D02*
X000673Y021081D01*
X000673Y020983D02*
X001078Y020983D01*
X000979Y020884D02*
X000673Y020884D01*
X000673Y020786D02*
X000922Y020786D01*
X000881Y020687D02*
X000673Y020687D01*
X000673Y020589D02*
X000850Y020589D01*
X000850Y020490D02*
X000673Y020490D01*
X000673Y020392D02*
X000850Y020392D01*
X000874Y020293D02*
X000673Y020293D01*
X000673Y020195D02*
X000915Y020195D01*
X000962Y020096D02*
X000673Y020096D01*
X000673Y019997D02*
X001061Y019997D01*
X000998Y019899D02*
X000673Y019899D01*
X000673Y019800D02*
X000929Y019800D01*
X000888Y019702D02*
X000673Y019702D01*
X000673Y019603D02*
X000850Y019603D01*
X000850Y019505D02*
X000673Y019505D01*
X000673Y019406D02*
X000850Y019406D01*
X000866Y019308D02*
X000673Y019308D01*
X000673Y019209D02*
X000907Y019209D01*
X000948Y019111D02*
X000673Y019111D01*
X000673Y019012D02*
X001042Y019012D01*
X001016Y018913D02*
X000673Y018913D01*
X000673Y018815D02*
X000937Y018815D01*
X000896Y018716D02*
X000673Y018716D01*
X000673Y018618D02*
X000855Y018618D01*
X000850Y018519D02*
X000673Y018519D01*
X000673Y018421D02*
X000850Y018421D01*
X000858Y018322D02*
X000673Y018322D01*
X000673Y018224D02*
X000899Y018224D01*
X000940Y018125D02*
X000673Y018125D01*
X000673Y018027D02*
X001024Y018027D01*
X001031Y017928D02*
X000673Y017928D01*
X000673Y017829D02*
X000943Y017829D01*
X000902Y017731D02*
X000673Y017731D01*
X000673Y017632D02*
X000861Y017632D01*
X000850Y017534D02*
X000673Y017534D01*
X000673Y017435D02*
X000850Y017435D01*
X000852Y017337D02*
X000673Y017337D01*
X000673Y017238D02*
X000893Y017238D01*
X000934Y017140D02*
X000673Y017140D01*
X000673Y017041D02*
X001009Y017041D01*
X001047Y016943D02*
X000673Y016943D01*
X000673Y016844D02*
X000950Y016844D01*
X000909Y016746D02*
X000673Y016746D01*
X000673Y016647D02*
X000868Y016647D01*
X000850Y016548D02*
X000673Y016548D01*
X000673Y016450D02*
X000850Y016450D01*
X000850Y016351D02*
X000673Y016351D01*
X000673Y016253D02*
X000886Y016253D01*
X000927Y016154D02*
X000673Y016154D01*
X000673Y016056D02*
X000993Y016056D01*
X001072Y015957D02*
X000673Y015957D01*
X000673Y015859D02*
X000973Y015859D01*
X000919Y015760D02*
X000673Y015760D01*
X000673Y015662D02*
X000878Y015662D01*
X000850Y015563D02*
X000673Y015563D01*
X000673Y015464D02*
X000850Y015464D01*
X000850Y015366D02*
X000673Y015366D01*
X000673Y015267D02*
X000876Y015267D01*
X000917Y015169D02*
X000673Y015169D01*
X000673Y015070D02*
X000968Y015070D01*
X001067Y014972D02*
X000673Y014972D01*
X000673Y014873D02*
X001207Y014873D01*
X004413Y017337D02*
X009108Y017337D01*
X009108Y017435D02*
X004372Y017435D01*
X004288Y017534D02*
X008158Y017534D01*
X008450Y016351D02*
X011713Y016351D01*
X011866Y016450D02*
X009533Y016450D01*
X009631Y016548D02*
X011907Y016548D01*
X011991Y016647D02*
X009695Y016647D01*
X009769Y016746D02*
X012147Y016746D01*
X012479Y016746D02*
X014156Y016746D01*
X014257Y016844D02*
X009827Y016844D01*
X009850Y016943D02*
X015368Y016943D01*
X015368Y017041D02*
X009848Y017041D01*
X009848Y017140D02*
X015368Y017140D01*
X015368Y017238D02*
X009848Y017238D01*
X009848Y017337D02*
X015368Y017337D01*
X015372Y017435D02*
X009848Y017435D01*
X009848Y017534D02*
X015413Y017534D01*
X015468Y017632D02*
X009848Y017632D01*
X009848Y017731D02*
X015505Y017731D01*
X015555Y017829D02*
X014707Y017829D01*
X014709Y017832D02*
X014726Y017861D01*
X014735Y017894D01*
X014735Y019239D01*
X013279Y019239D01*
X013279Y019339D01*
X014735Y019339D01*
X014735Y020684D01*
X014726Y020716D01*
X014709Y020746D01*
X014685Y020770D01*
X014656Y020787D01*
X014623Y020795D01*
X013278Y020795D01*
X013278Y019339D01*
X013178Y019339D01*
X013178Y019239D01*
X011722Y019239D01*
X011722Y017894D01*
X011731Y017861D01*
X011747Y017832D01*
X011771Y017808D01*
X011801Y017791D01*
X011834Y017782D01*
X013178Y017782D01*
X013178Y019239D01*
X013278Y019239D01*
X013278Y017782D01*
X014623Y017782D01*
X014656Y017791D01*
X014685Y017808D01*
X014709Y017832D01*
X014735Y017928D02*
X015654Y017928D01*
X015906Y018027D02*
X014735Y018027D01*
X014735Y018125D02*
X016011Y018125D01*
X016117Y018224D02*
X014735Y018224D01*
X014735Y018322D02*
X016223Y018322D01*
X016361Y018421D02*
X014735Y018421D01*
X014735Y018519D02*
X017770Y018519D01*
X017770Y018618D02*
X014735Y018618D01*
X014735Y018716D02*
X017770Y018716D01*
X017770Y018815D02*
X014735Y018815D01*
X014735Y018913D02*
X017770Y018913D01*
X017770Y019012D02*
X014735Y019012D01*
X014735Y019111D02*
X017770Y019111D01*
X017770Y019209D02*
X014735Y019209D01*
X014735Y019406D02*
X017770Y019406D01*
X017770Y019308D02*
X013279Y019308D01*
X013278Y019406D02*
X013178Y019406D01*
X013178Y019339D02*
X013178Y020795D01*
X011834Y020795D01*
X011801Y020787D01*
X011771Y020770D01*
X011747Y020746D01*
X011731Y020716D01*
X011722Y020684D01*
X011722Y019339D01*
X013178Y019339D01*
X013178Y019308D02*
X009848Y019308D01*
X009848Y019406D02*
X011722Y019406D01*
X011722Y019505D02*
X009848Y019505D01*
X009848Y019603D02*
X011722Y019603D01*
X011722Y019702D02*
X009848Y019702D01*
X009848Y019800D02*
X011722Y019800D01*
X011722Y019899D02*
X009848Y019899D01*
X009848Y019997D02*
X011722Y019997D01*
X011722Y020096D02*
X009848Y020096D01*
X009848Y020195D02*
X011722Y020195D01*
X011722Y020293D02*
X009898Y020293D01*
X009939Y020392D02*
X011722Y020392D01*
X011722Y020490D02*
X009946Y020490D01*
X009946Y020589D02*
X011722Y020589D01*
X011723Y020687D02*
X009907Y020687D01*
X009855Y020786D02*
X011799Y020786D01*
X010897Y021968D02*
X016931Y021968D01*
X016931Y021870D02*
X010733Y021870D01*
X010429Y021870D02*
X009854Y021870D01*
X009848Y021771D02*
X016931Y021771D01*
X016931Y021673D02*
X009848Y021673D01*
X009848Y021574D02*
X016931Y021574D01*
X016931Y021476D02*
X009848Y021476D01*
X009848Y021377D02*
X016931Y021377D01*
X016931Y021279D02*
X009848Y021279D01*
X009848Y021180D02*
X016931Y021180D01*
X016931Y021081D02*
X009848Y021081D01*
X009848Y020983D02*
X016888Y020983D01*
X016917Y021053D02*
X016846Y020882D01*
X016846Y020696D01*
X016917Y020524D01*
X017048Y020393D01*
X017220Y020322D01*
X017406Y020322D01*
X017578Y020393D01*
X017709Y020524D01*
X017780Y020696D01*
X017780Y020882D01*
X017709Y021053D01*
X017671Y021091D01*
X017671Y022652D01*
X017697Y022678D01*
X017768Y022849D01*
X017768Y023035D01*
X017697Y023207D01*
X017566Y023338D01*
X017394Y023409D01*
X017208Y023409D01*
X017037Y023338D01*
X016905Y023207D01*
X016834Y023035D01*
X016834Y022849D01*
X016905Y022678D01*
X016931Y022652D01*
X016931Y021068D01*
X016917Y021053D01*
X016847Y020884D02*
X009848Y020884D01*
X009108Y020884D02*
X006856Y020884D01*
X006856Y020786D02*
X006982Y020786D01*
X006856Y020983D02*
X009108Y020983D01*
X009108Y021081D02*
X006856Y021081D01*
X006856Y021180D02*
X009108Y021180D01*
X009108Y021279D02*
X006856Y021279D01*
X006856Y021377D02*
X009108Y021377D01*
X009108Y021476D02*
X006856Y021476D01*
X006856Y021574D02*
X009108Y021574D01*
X009108Y021673D02*
X006856Y021673D01*
X006898Y021771D02*
X009108Y021771D01*
X009103Y021870D02*
X006939Y021870D01*
X006953Y021968D02*
X009050Y021968D01*
X009011Y022067D02*
X006953Y022067D01*
X006922Y022165D02*
X008945Y022165D01*
X009498Y022658D02*
X009993Y022658D01*
X009830Y022757D02*
X009400Y022757D01*
X009301Y022855D02*
X009743Y022855D01*
X009703Y022954D02*
X005666Y022954D01*
X005342Y023052D02*
X009681Y023052D01*
X009681Y023151D02*
X005198Y023151D01*
X005054Y023249D02*
X009704Y023249D01*
X009745Y023348D02*
X005045Y023348D01*
X005045Y023446D02*
X009778Y023446D01*
X009778Y023545D02*
X005045Y023545D01*
X005045Y023644D02*
X009778Y023644D01*
X009778Y023742D02*
X005045Y023742D01*
X005045Y023841D02*
X009778Y023841D01*
X009778Y023939D02*
X005045Y023939D01*
X005045Y024038D02*
X009778Y024038D01*
X009778Y024136D02*
X006136Y024136D01*
X006121Y024121D02*
X006252Y024253D01*
X006324Y024424D01*
X006324Y024610D01*
X006252Y024782D01*
X006226Y024808D01*
X006226Y025880D01*
X006252Y025906D01*
X006324Y026078D01*
X006324Y026264D01*
X006301Y026317D01*
X006384Y026234D01*
X006586Y026151D01*
X006804Y026151D01*
X007006Y026234D01*
X007160Y026389D01*
X007195Y026473D01*
X007230Y026389D01*
X007384Y026234D01*
X007586Y026151D01*
X007804Y026151D01*
X008006Y026234D01*
X008160Y026389D01*
X008244Y026590D01*
X008244Y027326D01*
X008160Y027528D01*
X008006Y027682D01*
X007804Y027766D01*
X007586Y027766D01*
X007384Y027682D01*
X007230Y027528D01*
X007195Y027444D01*
X007160Y027528D01*
X007006Y027682D01*
X006804Y027766D01*
X006586Y027766D01*
X006384Y027682D01*
X006230Y027528D01*
X006146Y027326D01*
X006146Y026590D01*
X006181Y026507D01*
X006121Y026567D01*
X005949Y026638D01*
X005763Y026638D01*
X005592Y026567D01*
X005460Y026435D01*
X005389Y026264D01*
X005389Y026078D01*
X005460Y025906D01*
X005486Y025880D01*
X005486Y024808D01*
X005460Y024782D01*
X005389Y024610D01*
X005389Y024424D01*
X005460Y024253D01*
X005592Y024121D01*
X005763Y024050D01*
X005949Y024050D01*
X006121Y024121D01*
X006235Y024235D02*
X009778Y024235D01*
X009778Y024333D02*
X006286Y024333D01*
X006324Y024432D02*
X009778Y024432D01*
X009778Y024530D02*
X006324Y024530D01*
X006316Y024629D02*
X009778Y024629D01*
X009778Y024728D02*
X006275Y024728D01*
X006226Y024826D02*
X009778Y024826D01*
X009778Y024925D02*
X006226Y024925D01*
X006226Y025023D02*
X009778Y025023D01*
X009778Y025122D02*
X006226Y025122D01*
X006226Y025220D02*
X009778Y025220D01*
X009778Y025319D02*
X006226Y025319D01*
X006226Y025417D02*
X009778Y025417D01*
X009778Y025516D02*
X006226Y025516D01*
X006226Y025614D02*
X009778Y025614D01*
X009767Y025713D02*
X009288Y025713D01*
X008724Y025713D02*
X006226Y025713D01*
X006226Y025811D02*
X008626Y025811D01*
X008576Y025910D02*
X006254Y025910D01*
X006295Y026009D02*
X008539Y026009D01*
X008539Y026107D02*
X006324Y026107D01*
X006324Y026206D02*
X006453Y026206D01*
X006314Y026304D02*
X006307Y026304D01*
X006146Y026600D02*
X006041Y026600D01*
X006146Y026698D02*
X004204Y026698D01*
X004205Y026797D02*
X006146Y026797D01*
X006146Y026895D02*
X004205Y026895D01*
X004205Y026994D02*
X006146Y026994D01*
X006146Y027093D02*
X003757Y027093D01*
X003757Y027191D02*
X003657Y027191D01*
X003657Y027290D02*
X003757Y027290D01*
X003757Y027388D02*
X003657Y027388D01*
X003657Y027487D02*
X003757Y027487D01*
X003757Y027585D02*
X003657Y027585D01*
X003657Y027684D02*
X003757Y027684D01*
X003757Y027782D02*
X003657Y027782D01*
X003657Y027881D02*
X003757Y027881D01*
X003757Y027979D02*
X003657Y027979D01*
X003625Y027979D02*
X003136Y027979D01*
X003235Y027881D02*
X003400Y027881D01*
X003305Y027782D02*
X003296Y027782D01*
X003789Y027979D02*
X027173Y027979D01*
X027173Y027881D02*
X022818Y027881D01*
X023038Y027782D02*
X027173Y027782D01*
X027173Y027684D02*
X025968Y027684D01*
X025965Y027685D02*
X025898Y027695D01*
X025898Y026878D01*
X025799Y026878D01*
X025799Y027695D01*
X025732Y027685D01*
X025657Y027660D01*
X025587Y027625D01*
X025524Y027579D01*
X025468Y027523D01*
X025422Y027460D01*
X025386Y027390D01*
X025362Y027315D01*
X025350Y027237D01*
X025350Y026878D01*
X025798Y026878D01*
X025798Y026778D01*
X025350Y026778D01*
X025350Y026419D01*
X025362Y026341D01*
X025386Y026267D01*
X025422Y026197D01*
X025468Y026133D01*
X025524Y026078D01*
X025587Y026032D01*
X025657Y025996D01*
X025732Y025972D01*
X025799Y025961D01*
X025799Y026778D01*
X025898Y026778D01*
X025898Y025961D01*
X025965Y025972D01*
X026040Y025996D01*
X026110Y026032D01*
X026173Y026078D01*
X026229Y026133D01*
X026275Y026197D01*
X026311Y026267D01*
X026335Y026341D01*
X026347Y026419D01*
X026347Y026778D01*
X025899Y026778D01*
X025899Y026878D01*
X026347Y026878D01*
X026347Y027237D01*
X026335Y027315D01*
X026311Y027390D01*
X026275Y027460D01*
X026229Y027523D01*
X026173Y027579D01*
X026110Y027625D01*
X026040Y027660D01*
X025965Y027685D01*
X025898Y027684D02*
X025799Y027684D01*
X025729Y027684D02*
X024952Y027684D01*
X024950Y027685D02*
X024883Y027695D01*
X024883Y026878D01*
X025331Y026878D01*
X025331Y027237D01*
X025319Y027315D01*
X025295Y027390D01*
X025259Y027460D01*
X025213Y027523D01*
X025158Y027579D01*
X025094Y027625D01*
X025024Y027660D01*
X024950Y027685D01*
X024883Y027684D02*
X024783Y027684D01*
X024783Y027695D02*
X024716Y027685D01*
X024641Y027660D01*
X024571Y027625D01*
X024508Y027579D01*
X024452Y027523D01*
X024406Y027460D01*
X024371Y027390D01*
X024346Y027315D01*
X024334Y027237D01*
X024334Y026878D01*
X024783Y026878D01*
X024783Y027695D01*
X024714Y027684D02*
X023137Y027684D01*
X023221Y027585D02*
X024517Y027585D01*
X024426Y027487D02*
X023262Y027487D01*
X023303Y027388D02*
X024370Y027388D01*
X024342Y027290D02*
X023312Y027290D01*
X023312Y027191D02*
X024334Y027191D01*
X024334Y027093D02*
X023312Y027093D01*
X023312Y026994D02*
X024334Y026994D01*
X024334Y026895D02*
X023312Y026895D01*
X023312Y026797D02*
X024783Y026797D01*
X024783Y026778D02*
X024334Y026778D01*
X024334Y026419D01*
X024346Y026341D01*
X024371Y026267D01*
X024406Y026197D01*
X024452Y026133D01*
X024508Y026078D01*
X024571Y026032D01*
X024641Y025996D01*
X024716Y025972D01*
X024783Y025961D01*
X024783Y026778D01*
X024883Y026778D01*
X024883Y026878D01*
X024783Y026878D01*
X024783Y026778D01*
X024783Y026698D02*
X024883Y026698D01*
X024883Y026778D02*
X024883Y025961D01*
X024950Y025972D01*
X025024Y025996D01*
X025094Y026032D01*
X025158Y026078D01*
X025213Y026133D01*
X025259Y026197D01*
X025295Y026267D01*
X025319Y026341D01*
X025331Y026419D01*
X025331Y026778D01*
X024883Y026778D01*
X024883Y026797D02*
X025798Y026797D01*
X025799Y026895D02*
X025898Y026895D01*
X025899Y026797D02*
X027173Y026797D01*
X027173Y026895D02*
X026347Y026895D01*
X026347Y026994D02*
X027173Y026994D01*
X027173Y027093D02*
X026347Y027093D01*
X026347Y027191D02*
X027173Y027191D01*
X027173Y027290D02*
X026339Y027290D01*
X026311Y027388D02*
X027173Y027388D01*
X027173Y027487D02*
X026255Y027487D01*
X026164Y027585D02*
X027173Y027585D01*
X027173Y026698D02*
X026347Y026698D01*
X026347Y026600D02*
X027173Y026600D01*
X027173Y026501D02*
X026347Y026501D01*
X026345Y026403D02*
X027173Y026403D01*
X027173Y026304D02*
X026323Y026304D01*
X026280Y026206D02*
X027173Y026206D01*
X027173Y026107D02*
X026203Y026107D01*
X026065Y026009D02*
X027173Y026009D01*
X027173Y025910D02*
X022963Y025910D01*
X023098Y026009D02*
X024617Y026009D01*
X024783Y026009D02*
X024883Y026009D01*
X024883Y026107D02*
X024783Y026107D01*
X024783Y026206D02*
X024883Y026206D01*
X024883Y026304D02*
X024783Y026304D01*
X024783Y026403D02*
X024883Y026403D01*
X024883Y026501D02*
X024783Y026501D01*
X024783Y026600D02*
X024883Y026600D01*
X024883Y026895D02*
X024783Y026895D01*
X024783Y026994D02*
X024883Y026994D01*
X024883Y027093D02*
X024783Y027093D01*
X024783Y027191D02*
X024883Y027191D01*
X024883Y027290D02*
X024783Y027290D01*
X024783Y027388D02*
X024883Y027388D01*
X024883Y027487D02*
X024783Y027487D01*
X024783Y027585D02*
X024883Y027585D01*
X025148Y027585D02*
X025533Y027585D01*
X025442Y027487D02*
X025240Y027487D01*
X025295Y027388D02*
X025386Y027388D01*
X025358Y027290D02*
X025323Y027290D01*
X025331Y027191D02*
X025350Y027191D01*
X025350Y027093D02*
X025331Y027093D01*
X025331Y026994D02*
X025350Y026994D01*
X025350Y026895D02*
X025331Y026895D01*
X025331Y026698D02*
X025350Y026698D01*
X025350Y026600D02*
X025331Y026600D01*
X025331Y026501D02*
X025350Y026501D01*
X025352Y026403D02*
X025329Y026403D01*
X025307Y026304D02*
X025374Y026304D01*
X025417Y026206D02*
X025264Y026206D01*
X025187Y026107D02*
X025494Y026107D01*
X025632Y026009D02*
X025049Y026009D01*
X024478Y026107D02*
X023197Y026107D01*
X023246Y026206D02*
X024402Y026206D01*
X024358Y026304D02*
X023287Y026304D01*
X023312Y026403D02*
X024337Y026403D01*
X024334Y026501D02*
X023312Y026501D01*
X023312Y026600D02*
X024334Y026600D01*
X024334Y026698D02*
X023312Y026698D01*
X022341Y025910D02*
X021984Y025910D01*
X022108Y026009D02*
X022205Y026009D01*
X021324Y025910D02*
X021004Y025910D01*
X021120Y026009D02*
X021199Y026009D01*
X020315Y025910D02*
X020005Y025910D01*
X020118Y026009D02*
X020199Y026009D01*
X019307Y025910D02*
X018966Y025910D01*
X019096Y026009D02*
X019193Y026009D01*
X018325Y025910D02*
X017951Y025910D01*
X018086Y026009D02*
X018195Y026009D01*
X017329Y025910D02*
X016944Y025910D01*
X017088Y026009D02*
X017193Y026009D01*
X016351Y025910D02*
X015948Y025910D01*
X016092Y026009D02*
X016207Y026009D01*
X015355Y025910D02*
X014952Y025910D01*
X015096Y026009D02*
X015211Y026009D01*
X014359Y025910D02*
X013948Y025910D01*
X014100Y026009D02*
X014215Y026009D01*
X013383Y025910D02*
X013195Y025910D01*
X013231Y026009D02*
X013110Y026009D01*
X013251Y025811D02*
X027173Y025811D01*
X027173Y025713D02*
X013292Y025713D01*
X013292Y025614D02*
X027173Y025614D01*
X027173Y025516D02*
X013288Y025516D01*
X013247Y025417D02*
X027173Y025417D01*
X027173Y025319D02*
X013185Y025319D01*
X013082Y025220D02*
X027173Y025220D01*
X027173Y025122D02*
X012740Y025122D01*
X012621Y025023D02*
X027173Y025023D01*
X027173Y024925D02*
X014558Y024925D01*
X014084Y024925D02*
X012502Y024925D01*
X012064Y025417D02*
X012031Y025417D01*
X011975Y025516D02*
X012183Y025516D01*
X012302Y025614D02*
X011876Y025614D01*
X012358Y025713D02*
X010951Y025713D01*
X010951Y025811D02*
X012399Y025811D01*
X012386Y025910D02*
X010951Y025910D01*
X010951Y026009D02*
X012237Y026009D01*
X012138Y026107D02*
X011003Y026107D01*
X011044Y026206D02*
X012083Y026206D01*
X012042Y026304D02*
X011048Y026304D01*
X011047Y026403D02*
X012013Y026403D01*
X012013Y026501D02*
X011007Y026501D01*
X010950Y026600D02*
X012013Y026600D01*
X012013Y026698D02*
X010852Y026698D01*
X010310Y026698D02*
X008244Y026698D01*
X008244Y026600D02*
X010211Y026600D01*
X010155Y026501D02*
X009238Y026501D01*
X008774Y026501D02*
X008207Y026501D01*
X008166Y026403D02*
X008656Y026403D01*
X008588Y026304D02*
X008076Y026304D01*
X007937Y026206D02*
X008547Y026206D01*
X008244Y026797D02*
X012013Y026797D01*
X012013Y026895D02*
X008244Y026895D01*
X008244Y026994D02*
X012013Y026994D01*
X012013Y027093D02*
X008244Y027093D01*
X008244Y027191D02*
X012013Y027191D01*
X012013Y027290D02*
X008244Y027290D01*
X008218Y027388D02*
X012018Y027388D01*
X012059Y027487D02*
X008177Y027487D01*
X008103Y027585D02*
X012100Y027585D01*
X012178Y027684D02*
X008001Y027684D01*
X007389Y027684D02*
X007001Y027684D01*
X007103Y027585D02*
X007287Y027585D01*
X007213Y027487D02*
X007177Y027487D01*
X006389Y027684D02*
X004166Y027684D01*
X004196Y027585D02*
X006287Y027585D01*
X006213Y027487D02*
X004205Y027487D01*
X004205Y027388D02*
X006172Y027388D01*
X006146Y027290D02*
X004205Y027290D01*
X004205Y027191D02*
X006146Y027191D01*
X005672Y026600D02*
X004183Y026600D01*
X004141Y026501D02*
X005526Y026501D01*
X005447Y026403D02*
X004067Y026403D01*
X003935Y026304D02*
X005406Y026304D01*
X005389Y026206D02*
X003118Y026206D01*
X003216Y026304D02*
X003478Y026304D01*
X003346Y026403D02*
X003289Y026403D01*
X002927Y026107D02*
X005389Y026107D01*
X005418Y026009D02*
X004947Y026009D01*
X005045Y025910D02*
X005459Y025910D01*
X005486Y025811D02*
X005101Y025811D01*
X005142Y025713D02*
X005486Y025713D01*
X005486Y025614D02*
X005142Y025614D01*
X005138Y025516D02*
X005486Y025516D01*
X005486Y025417D02*
X005097Y025417D01*
X005045Y025319D02*
X005486Y025319D01*
X005486Y025220D02*
X005045Y025220D01*
X005045Y025122D02*
X005486Y025122D01*
X005486Y025023D02*
X005045Y025023D01*
X005045Y024925D02*
X005486Y024925D01*
X005486Y024826D02*
X005045Y024826D01*
X005045Y024728D02*
X005438Y024728D01*
X005397Y024629D02*
X005045Y024629D01*
X005045Y024530D02*
X005389Y024530D01*
X005389Y024432D02*
X005045Y024432D01*
X005045Y024333D02*
X005427Y024333D01*
X005478Y024235D02*
X005045Y024235D01*
X005045Y024136D02*
X005577Y024136D01*
X004305Y024136D02*
X000673Y024136D01*
X000673Y024038D02*
X004305Y024038D01*
X004305Y023939D02*
X000673Y023939D01*
X000673Y023841D02*
X004305Y023841D01*
X004305Y023742D02*
X000673Y023742D01*
X000673Y023644D02*
X004305Y023644D01*
X004305Y023545D02*
X000673Y023545D01*
X000673Y023446D02*
X004305Y023446D01*
X004305Y023348D02*
X000673Y023348D01*
X000673Y023249D02*
X004305Y023249D01*
X004305Y023151D02*
X000673Y023151D01*
X000673Y024235D02*
X004305Y024235D01*
X004305Y024333D02*
X000673Y024333D01*
X000673Y024432D02*
X004305Y024432D01*
X004305Y024530D02*
X000673Y024530D01*
X000673Y024629D02*
X004305Y024629D01*
X004305Y024728D02*
X000673Y024728D01*
X000673Y024826D02*
X004305Y024826D01*
X004305Y024925D02*
X000673Y024925D01*
X000673Y025023D02*
X004305Y025023D01*
X004305Y025122D02*
X000673Y025122D01*
X000673Y025220D02*
X004305Y025220D01*
X004305Y025319D02*
X000673Y025319D01*
X000673Y025417D02*
X004253Y025417D01*
X004213Y025516D02*
X000673Y025516D01*
X000673Y025614D02*
X004208Y025614D01*
X004208Y025713D02*
X000673Y025713D01*
X000673Y025811D02*
X004249Y025811D01*
X004305Y025910D02*
X000673Y025910D01*
X000673Y026009D02*
X004404Y026009D01*
X003757Y026304D02*
X003657Y026304D01*
X003657Y026403D02*
X003757Y026403D01*
X003757Y026501D02*
X003657Y026501D01*
X003657Y026600D02*
X003757Y026600D01*
X003757Y026698D02*
X003657Y026698D01*
X003657Y026797D02*
X003757Y026797D01*
X003757Y026895D02*
X003657Y026895D01*
X003657Y026994D02*
X003757Y026994D01*
X004109Y027782D02*
X012277Y027782D01*
X012483Y027881D02*
X004014Y027881D01*
X002285Y027979D02*
X000673Y027979D01*
X000673Y027881D02*
X002186Y027881D01*
X002125Y027782D02*
X000673Y027782D01*
X000673Y027684D02*
X002084Y027684D01*
X002051Y027585D02*
X000673Y027585D01*
X000673Y027487D02*
X002051Y027487D01*
X002051Y027388D02*
X000673Y027388D01*
X000673Y027290D02*
X002051Y027290D01*
X002051Y027191D02*
X000673Y027191D01*
X000673Y027093D02*
X002051Y027093D01*
X002051Y026994D02*
X000673Y026994D01*
X000673Y026895D02*
X002051Y026895D01*
X002051Y026797D02*
X000673Y026797D01*
X000673Y026698D02*
X002051Y026698D01*
X002051Y026600D02*
X000673Y026600D01*
X000673Y026501D02*
X002092Y026501D01*
X002133Y026403D02*
X000673Y026403D01*
X000673Y026304D02*
X002205Y026304D01*
X002303Y026206D02*
X000673Y026206D01*
X000673Y026107D02*
X002494Y026107D01*
X005701Y022165D02*
X006050Y022165D01*
X006034Y021870D02*
X004015Y021870D01*
X004113Y021771D02*
X006074Y021771D01*
X006116Y021673D02*
X005759Y021673D01*
X005858Y021574D02*
X006116Y021574D01*
X006116Y021476D02*
X005957Y021476D01*
X006055Y021377D02*
X006116Y021377D01*
X005403Y020983D02*
X002682Y020983D01*
X002781Y020884D02*
X002939Y020884D01*
X004494Y019603D02*
X009108Y019603D01*
X009108Y019505D02*
X004494Y019505D01*
X004494Y019406D02*
X009108Y019406D01*
X009108Y019308D02*
X004494Y019308D01*
X005310Y020319D02*
X005382Y020490D01*
X007290Y020786D02*
X009102Y020786D01*
X009050Y020687D02*
X007453Y020687D01*
X007540Y020589D02*
X009011Y020589D01*
X009011Y020490D02*
X007581Y020490D01*
X007603Y020392D02*
X009018Y020392D01*
X009059Y020293D02*
X007603Y020293D01*
X007580Y020195D02*
X009108Y020195D01*
X009108Y020096D02*
X007539Y020096D01*
X007450Y019997D02*
X009108Y019997D01*
X009108Y019899D02*
X007282Y019899D01*
X009848Y019209D02*
X011722Y019209D01*
X011722Y019111D02*
X009848Y019111D01*
X009848Y019012D02*
X011722Y019012D01*
X011722Y018913D02*
X009848Y018913D01*
X009848Y018815D02*
X011722Y018815D01*
X011722Y018716D02*
X009848Y018716D01*
X009848Y018618D02*
X011722Y018618D01*
X011722Y018519D02*
X009848Y018519D01*
X009848Y018421D02*
X011722Y018421D01*
X011722Y018322D02*
X009848Y018322D01*
X009848Y018224D02*
X011722Y018224D01*
X011722Y018125D02*
X009848Y018125D01*
X009848Y018027D02*
X011722Y018027D01*
X011722Y017928D02*
X009848Y017928D01*
X009848Y017829D02*
X011750Y017829D01*
X013178Y017829D02*
X013278Y017829D01*
X013278Y017928D02*
X013178Y017928D01*
X013178Y018027D02*
X013278Y018027D01*
X013278Y018125D02*
X013178Y018125D01*
X013178Y018224D02*
X013278Y018224D01*
X013278Y018322D02*
X013178Y018322D01*
X013178Y018421D02*
X013278Y018421D01*
X013278Y018519D02*
X013178Y018519D01*
X013178Y018618D02*
X013278Y018618D01*
X013278Y018716D02*
X013178Y018716D01*
X013178Y018815D02*
X013278Y018815D01*
X013278Y018913D02*
X013178Y018913D01*
X013178Y019012D02*
X013278Y019012D01*
X013278Y019111D02*
X013178Y019111D01*
X013178Y019209D02*
X013278Y019209D01*
X013278Y019505D02*
X013178Y019505D01*
X013178Y019603D02*
X013278Y019603D01*
X013278Y019702D02*
X013178Y019702D01*
X013178Y019800D02*
X013278Y019800D01*
X013278Y019899D02*
X013178Y019899D01*
X013178Y019997D02*
X013278Y019997D01*
X013278Y020096D02*
X013178Y020096D01*
X013178Y020195D02*
X013278Y020195D01*
X013278Y020293D02*
X013178Y020293D01*
X013178Y020392D02*
X013278Y020392D01*
X013278Y020490D02*
X013178Y020490D01*
X013178Y020589D02*
X013278Y020589D01*
X013278Y020687D02*
X013178Y020687D01*
X013178Y020786D02*
X013278Y020786D01*
X014658Y020786D02*
X016846Y020786D01*
X016849Y020687D02*
X014734Y020687D01*
X014735Y020589D02*
X016890Y020589D01*
X016951Y020490D02*
X014735Y020490D01*
X014735Y020392D02*
X017051Y020392D01*
X017575Y020392D02*
X018124Y020392D01*
X018124Y020490D02*
X017675Y020490D01*
X017736Y020589D02*
X018124Y020589D01*
X018124Y020687D02*
X017777Y020687D01*
X017780Y020786D02*
X018124Y020786D01*
X018124Y020884D02*
X017779Y020884D01*
X017738Y020983D02*
X018124Y020983D01*
X018074Y021081D02*
X017681Y021081D01*
X017671Y021180D02*
X018034Y021180D01*
X018027Y021279D02*
X017671Y021279D01*
X017671Y021377D02*
X018027Y021377D01*
X018066Y021476D02*
X017671Y021476D01*
X017671Y021574D02*
X018119Y021574D01*
X018124Y021673D02*
X017671Y021673D01*
X017671Y021771D02*
X018124Y021771D01*
X018124Y021870D02*
X017671Y021870D01*
X017671Y021968D02*
X018124Y021968D01*
X018124Y022067D02*
X017671Y022067D01*
X017671Y022165D02*
X018124Y022165D01*
X018124Y022264D02*
X017671Y022264D01*
X017671Y022362D02*
X018124Y022362D01*
X018124Y022461D02*
X017671Y022461D01*
X017671Y022560D02*
X018124Y022560D01*
X018124Y022658D02*
X017678Y022658D01*
X017730Y022757D02*
X018124Y022757D01*
X018124Y022855D02*
X017768Y022855D01*
X017768Y022954D02*
X018124Y022954D01*
X018124Y023052D02*
X017761Y023052D01*
X017721Y023151D02*
X018124Y023151D01*
X018124Y023249D02*
X017655Y023249D01*
X017543Y023348D02*
X018124Y023348D01*
X018124Y023446D02*
X012058Y023446D01*
X012072Y023545D02*
X018124Y023545D01*
X018124Y023644D02*
X012072Y023644D01*
X012040Y023742D02*
X018124Y023742D01*
X018124Y023841D02*
X011997Y023841D01*
X011934Y023939D02*
X018124Y023939D01*
X018124Y024038D02*
X011934Y024038D01*
X011934Y024136D02*
X011955Y024136D01*
X012514Y024136D02*
X014041Y024136D01*
X014601Y024136D02*
X018124Y024136D01*
X018864Y024136D02*
X025286Y024136D01*
X025185Y024094D02*
X025000Y023909D01*
X024899Y023666D01*
X024899Y023404D01*
X025000Y023161D01*
X025119Y023042D01*
X024992Y022915D01*
X024891Y022672D01*
X024891Y022409D01*
X024992Y022167D01*
X025119Y022040D01*
X024998Y021919D01*
X024897Y021676D01*
X024897Y021413D01*
X024998Y021171D01*
X025126Y021043D01*
X024998Y020915D01*
X024897Y020672D01*
X024897Y020409D01*
X024998Y020167D01*
X025126Y020039D01*
X024998Y019911D01*
X024897Y019668D01*
X024897Y019406D01*
X024664Y019406D01*
X024670Y019420D02*
X024670Y019606D01*
X024599Y019778D01*
X024467Y019909D01*
X024296Y019980D01*
X024110Y019980D01*
X023938Y019909D01*
X023936Y019907D01*
X020350Y019907D01*
X020214Y019850D01*
X020110Y019746D01*
X019992Y019628D01*
X019935Y019492D01*
X019935Y019345D01*
X019935Y018804D01*
X019909Y018778D01*
X019838Y018606D01*
X019838Y018470D01*
X019437Y018470D01*
X019422Y018475D01*
X019364Y018470D01*
X019306Y018470D01*
X019291Y018464D01*
X019275Y018462D01*
X019224Y018436D01*
X019170Y018413D01*
X019159Y018402D01*
X019144Y018394D01*
X019107Y018350D01*
X019066Y018309D01*
X019060Y018294D01*
X018975Y018193D01*
X018972Y018193D01*
X018800Y018122D01*
X018669Y017990D01*
X018598Y017819D01*
X018598Y017633D01*
X018669Y017461D01*
X018800Y017330D01*
X018972Y017259D01*
X019158Y017259D01*
X019330Y017330D01*
X019461Y017461D01*
X019532Y017633D01*
X019532Y017706D01*
X019552Y017730D01*
X019960Y017730D01*
X019956Y017720D01*
X019956Y017534D01*
X019491Y017534D01*
X019532Y017632D02*
X019956Y017632D01*
X019956Y017534D02*
X020027Y017363D01*
X020159Y017231D01*
X020239Y017198D01*
X020145Y017105D01*
X020074Y016933D01*
X020074Y016747D01*
X020145Y016575D01*
X020277Y016444D01*
X020448Y016373D01*
X020485Y016373D01*
X020503Y016355D01*
X020607Y016251D01*
X020743Y016194D01*
X024018Y016194D01*
X024044Y016168D01*
X024216Y016097D01*
X024402Y016097D01*
X024574Y016168D01*
X024705Y016300D01*
X024776Y016471D01*
X024776Y016657D01*
X024705Y016829D01*
X024649Y016885D01*
X024717Y016885D01*
X024889Y016956D01*
X025020Y017087D01*
X025039Y017133D01*
X025124Y017049D01*
X025004Y016928D01*
X024903Y016686D01*
X024903Y016423D01*
X025004Y016181D01*
X025189Y015995D01*
X025432Y015895D01*
X026434Y015895D01*
X026677Y015995D01*
X026863Y016181D01*
X026963Y016423D01*
X026963Y016686D01*
X026863Y016928D01*
X026736Y017055D01*
X026857Y017175D01*
X026957Y017417D01*
X026957Y017680D01*
X026857Y017922D01*
X026732Y018048D01*
X026855Y018171D01*
X026955Y018413D01*
X026955Y018676D01*
X026855Y018919D01*
X026734Y019040D01*
X026857Y019163D01*
X026957Y019406D01*
X027173Y019406D01*
X027173Y019308D02*
X026917Y019308D01*
X026957Y019406D02*
X026957Y019668D01*
X026857Y019911D01*
X026729Y020039D01*
X026857Y020167D01*
X026957Y020409D01*
X026957Y020672D01*
X026857Y020915D01*
X026729Y021043D01*
X026857Y021171D01*
X026957Y021413D01*
X026957Y021676D01*
X026857Y021919D01*
X026730Y022046D01*
X026851Y022167D01*
X026951Y022409D01*
X026951Y022672D01*
X026851Y022915D01*
X026732Y023034D01*
X026859Y023161D01*
X026959Y023404D01*
X026959Y023666D01*
X026859Y023909D01*
X026673Y024094D01*
X026430Y024195D01*
X025428Y024195D01*
X025185Y024094D01*
X025129Y024038D02*
X018864Y024038D01*
X018864Y023939D02*
X025030Y023939D01*
X024971Y023841D02*
X018864Y023841D01*
X018864Y023742D02*
X024931Y023742D01*
X024899Y023644D02*
X018864Y023644D01*
X018864Y023545D02*
X024899Y023545D01*
X024899Y023446D02*
X018864Y023446D01*
X018864Y023348D02*
X024922Y023348D01*
X024963Y023249D02*
X019517Y023249D01*
X019616Y023151D02*
X025010Y023151D01*
X025108Y023052D02*
X019670Y023052D01*
X019709Y022954D02*
X025031Y022954D01*
X024967Y022855D02*
X019709Y022855D01*
X019704Y022757D02*
X024926Y022757D01*
X024891Y022658D02*
X019663Y022658D01*
X019612Y022560D02*
X024891Y022560D01*
X024891Y022461D02*
X019612Y022461D01*
X019612Y022362D02*
X024911Y022362D01*
X024952Y022264D02*
X019612Y022264D01*
X019612Y022165D02*
X024993Y022165D01*
X025092Y022067D02*
X024478Y022067D01*
X024633Y021968D02*
X025048Y021968D01*
X024978Y021870D02*
X024716Y021870D01*
X024757Y021771D02*
X024937Y021771D01*
X024897Y021673D02*
X024776Y021673D01*
X024776Y021574D02*
X024897Y021574D01*
X024897Y021476D02*
X024750Y021476D01*
X024709Y021377D02*
X024912Y021377D01*
X024953Y021279D02*
X024617Y021279D01*
X024440Y021180D02*
X024994Y021180D01*
X025087Y021081D02*
X020561Y021081D01*
X020520Y020983D02*
X021356Y020983D01*
X021340Y020976D02*
X021208Y020845D01*
X021137Y020673D01*
X021137Y020487D01*
X021208Y020316D01*
X021340Y020184D01*
X021511Y020113D01*
X021697Y020113D01*
X021869Y020184D01*
X021895Y020210D01*
X024129Y020210D01*
X024155Y020184D01*
X024326Y020113D01*
X024512Y020113D01*
X024684Y020184D01*
X024815Y020316D01*
X024886Y020487D01*
X024886Y020673D01*
X024815Y020845D01*
X024684Y020976D01*
X024512Y021047D01*
X024326Y021047D01*
X024155Y020976D01*
X024129Y020950D01*
X021895Y020950D01*
X021869Y020976D01*
X021697Y021047D01*
X021511Y021047D01*
X021340Y020976D01*
X021248Y020884D02*
X020443Y020884D01*
X020305Y020786D02*
X021184Y020786D01*
X021143Y020687D02*
X019616Y020687D01*
X019670Y020786D02*
X019912Y020786D01*
X019773Y020884D02*
X019709Y020884D01*
X019518Y020589D02*
X021137Y020589D01*
X021137Y020490D02*
X018864Y020490D01*
X018864Y020392D02*
X021177Y020392D01*
X021231Y020293D02*
X018864Y020293D01*
X018864Y020195D02*
X021329Y020195D01*
X021879Y020195D02*
X024144Y020195D01*
X024478Y019899D02*
X024993Y019899D01*
X024952Y019800D02*
X024576Y019800D01*
X024630Y019702D02*
X024911Y019702D01*
X024897Y019603D02*
X024670Y019603D01*
X024670Y019505D02*
X024897Y019505D01*
X024897Y019406D02*
X024998Y019163D01*
X025119Y019042D01*
X024996Y018919D01*
X024895Y018676D01*
X024895Y018413D01*
X024996Y018171D01*
X025121Y018046D01*
X024998Y017922D01*
X024915Y017722D01*
X024889Y017748D01*
X024717Y017819D01*
X024642Y017819D01*
X024658Y017835D01*
X024729Y018007D01*
X024729Y018193D01*
X024658Y018364D01*
X024526Y018496D01*
X024355Y018567D01*
X024169Y018567D01*
X023997Y018496D01*
X023971Y018470D01*
X020772Y018470D01*
X020772Y018606D01*
X020701Y018778D01*
X020675Y018804D01*
X020675Y019167D01*
X023889Y019167D01*
X023938Y019117D01*
X024110Y019046D01*
X024296Y019046D01*
X024467Y019117D01*
X024599Y019249D01*
X024670Y019420D01*
X024623Y019308D02*
X024938Y019308D01*
X024979Y019209D02*
X024559Y019209D01*
X024451Y019111D02*
X025050Y019111D01*
X025089Y019012D02*
X020675Y019012D01*
X020675Y019111D02*
X023954Y019111D01*
X024054Y018519D02*
X020772Y018519D01*
X020768Y018618D02*
X024895Y018618D01*
X024895Y018519D02*
X024470Y018519D01*
X024602Y018421D02*
X024895Y018421D01*
X024933Y018322D02*
X024675Y018322D01*
X024716Y018224D02*
X024974Y018224D01*
X025041Y018125D02*
X024729Y018125D01*
X024729Y018027D02*
X025102Y018027D01*
X025003Y017928D02*
X024696Y017928D01*
X024652Y017829D02*
X024959Y017829D01*
X024918Y017731D02*
X024906Y017731D01*
X024974Y017041D02*
X025116Y017041D01*
X025018Y016943D02*
X024857Y016943D01*
X024969Y016844D02*
X024690Y016844D01*
X024740Y016746D02*
X024928Y016746D01*
X024903Y016647D02*
X024776Y016647D01*
X024776Y016548D02*
X024903Y016548D01*
X024903Y016450D02*
X024767Y016450D01*
X024726Y016351D02*
X024933Y016351D01*
X024974Y016253D02*
X024658Y016253D01*
X024540Y016154D02*
X025030Y016154D01*
X025129Y016056D02*
X016384Y016056D01*
X016385Y016154D02*
X024079Y016154D01*
X024263Y015169D02*
X027173Y015169D01*
X027173Y015267D02*
X016384Y015267D01*
X016384Y015366D02*
X027173Y015366D01*
X027173Y015464D02*
X016384Y015464D01*
X016384Y015563D02*
X027173Y015563D01*
X027173Y015662D02*
X016384Y015662D01*
X016384Y015760D02*
X027173Y015760D01*
X027173Y015859D02*
X016384Y015859D01*
X016384Y015957D02*
X025281Y015957D01*
X024389Y015070D02*
X027173Y015070D01*
X027173Y014972D02*
X024461Y014972D01*
X024501Y014873D02*
X027173Y014873D01*
X027173Y014775D02*
X024512Y014775D01*
X024512Y014676D02*
X027173Y014676D01*
X027173Y014578D02*
X024478Y014578D01*
X024432Y014479D02*
X027173Y014479D01*
X027173Y014380D02*
X024333Y014380D01*
X024058Y014282D02*
X027173Y014282D01*
X027173Y014183D02*
X023959Y014183D01*
X024057Y013986D02*
X015808Y013986D01*
X015603Y014085D02*
X027173Y014085D01*
X027173Y013986D02*
X024082Y013986D01*
X024316Y013888D02*
X027173Y013888D01*
X027173Y013789D02*
X024459Y013789D01*
X024602Y013691D02*
X027173Y013691D01*
X027173Y013592D02*
X024746Y013592D01*
X024889Y013494D02*
X027173Y013494D01*
X027173Y013395D02*
X025218Y013395D01*
X025316Y013296D02*
X027173Y013296D01*
X027173Y013198D02*
X025375Y013198D01*
X025416Y013099D02*
X027173Y013099D01*
X027173Y013001D02*
X025418Y013001D01*
X025415Y012902D02*
X027173Y012902D01*
X027173Y012804D02*
X025375Y012804D01*
X025315Y012705D02*
X027173Y012705D01*
X027173Y012607D02*
X025217Y012607D01*
X024685Y012607D02*
X012796Y012607D01*
X012878Y012705D02*
X016825Y012705D01*
X017171Y012705D02*
X024586Y012705D01*
X024527Y012804D02*
X017323Y012804D01*
X017406Y012902D02*
X024443Y012902D01*
X024299Y013001D02*
X017446Y013001D01*
X017465Y013099D02*
X024156Y013099D01*
X024013Y013198D02*
X017465Y013198D01*
X016481Y014873D02*
X023589Y014873D01*
X023630Y014972D02*
X016481Y014972D01*
X016453Y015070D02*
X023702Y015070D01*
X023828Y015169D02*
X016413Y015169D01*
X016384Y016253D02*
X020605Y016253D01*
X020507Y016351D02*
X016357Y016351D01*
X016303Y016450D02*
X020271Y016450D01*
X020172Y016548D02*
X016188Y016548D01*
X016108Y016647D02*
X020116Y016647D01*
X020075Y016746D02*
X016108Y016746D01*
X016108Y016844D02*
X020074Y016844D01*
X020078Y016943D02*
X016108Y016943D01*
X016108Y017041D02*
X020119Y017041D01*
X020180Y017140D02*
X016169Y017140D01*
X016285Y017238D02*
X020152Y017238D01*
X020053Y017337D02*
X019337Y017337D01*
X019435Y017435D02*
X019997Y017435D01*
X019838Y018519D02*
X018510Y018519D01*
X018510Y018421D02*
X019188Y018421D01*
X019079Y018322D02*
X018545Y018322D01*
X018586Y018224D02*
X019001Y018224D01*
X018808Y018125D02*
X018607Y018125D01*
X018607Y018027D02*
X018705Y018027D01*
X018643Y017928D02*
X018582Y017928D01*
X018602Y017829D02*
X018542Y017829D01*
X018598Y017731D02*
X018451Y017731D01*
X018598Y017632D02*
X018280Y017632D01*
X018000Y017632D02*
X016568Y017632D01*
X016462Y017534D02*
X018639Y017534D01*
X018695Y017435D02*
X016394Y017435D01*
X016353Y017337D02*
X018793Y017337D01*
X018510Y018618D02*
X019843Y018618D01*
X019884Y018716D02*
X018510Y018716D01*
X018510Y018815D02*
X019935Y018815D01*
X019935Y018913D02*
X018510Y018913D01*
X018510Y019012D02*
X019935Y019012D01*
X019935Y019111D02*
X018510Y019111D01*
X018510Y019209D02*
X019935Y019209D01*
X019935Y019308D02*
X018552Y019308D01*
X018641Y019406D02*
X019935Y019406D01*
X019940Y019505D02*
X018732Y019505D01*
X018819Y019603D02*
X019981Y019603D01*
X020065Y019702D02*
X018857Y019702D01*
X018864Y019800D02*
X020164Y019800D01*
X020331Y019899D02*
X018864Y019899D01*
X018864Y019997D02*
X025085Y019997D01*
X025069Y020096D02*
X018864Y020096D01*
X018864Y020589D02*
X018967Y020589D01*
X018868Y020687D02*
X018864Y020687D01*
X018124Y020293D02*
X014735Y020293D01*
X014735Y020195D02*
X018124Y020195D01*
X018124Y020096D02*
X014735Y020096D01*
X014735Y019997D02*
X018124Y019997D01*
X018089Y019899D02*
X014735Y019899D01*
X014735Y019800D02*
X017998Y019800D01*
X017900Y019702D02*
X014735Y019702D01*
X014735Y019603D02*
X017816Y019603D01*
X017775Y019505D02*
X014735Y019505D01*
X016931Y022067D02*
X010985Y022067D01*
X011025Y022165D02*
X016931Y022165D01*
X016931Y022264D02*
X011600Y022264D01*
X011764Y022362D02*
X016931Y022362D01*
X016931Y022461D02*
X011851Y022461D01*
X011892Y022560D02*
X016931Y022560D01*
X016925Y022658D02*
X011914Y022658D01*
X011914Y022757D02*
X016872Y022757D01*
X016834Y022855D02*
X011891Y022855D01*
X011850Y022954D02*
X016834Y022954D01*
X016841Y023052D02*
X011761Y023052D01*
X011808Y023151D02*
X016882Y023151D01*
X016948Y023249D02*
X011942Y023249D01*
X012017Y023348D02*
X017060Y023348D01*
X018512Y024826D02*
X027173Y024826D01*
X027173Y024728D02*
X018610Y024728D01*
X018709Y024629D02*
X027173Y024629D01*
X027173Y024530D02*
X018807Y024530D01*
X018848Y024432D02*
X027173Y024432D01*
X027173Y024333D02*
X018864Y024333D01*
X018864Y024235D02*
X027173Y024235D01*
X027173Y024136D02*
X026572Y024136D01*
X026730Y024038D02*
X027173Y024038D01*
X027173Y023939D02*
X026828Y023939D01*
X026887Y023841D02*
X027173Y023841D01*
X027173Y023742D02*
X026928Y023742D01*
X026959Y023644D02*
X027173Y023644D01*
X027173Y023545D02*
X026959Y023545D01*
X026959Y023446D02*
X027173Y023446D01*
X027173Y023348D02*
X026936Y023348D01*
X026895Y023249D02*
X027173Y023249D01*
X027173Y023151D02*
X026848Y023151D01*
X026750Y023052D02*
X027173Y023052D01*
X027173Y022954D02*
X026812Y022954D01*
X026875Y022855D02*
X027173Y022855D01*
X027173Y022757D02*
X026916Y022757D01*
X026951Y022658D02*
X027173Y022658D01*
X027173Y022560D02*
X026951Y022560D01*
X026951Y022461D02*
X027173Y022461D01*
X027173Y022362D02*
X026932Y022362D01*
X026891Y022264D02*
X027173Y022264D01*
X027173Y022165D02*
X026849Y022165D01*
X026751Y022067D02*
X027173Y022067D01*
X027173Y021968D02*
X026807Y021968D01*
X026877Y021870D02*
X027173Y021870D01*
X027173Y021771D02*
X026918Y021771D01*
X026957Y021673D02*
X027173Y021673D01*
X027173Y021574D02*
X026957Y021574D01*
X026957Y021476D02*
X027173Y021476D01*
X027173Y021377D02*
X026942Y021377D01*
X026901Y021279D02*
X027173Y021279D01*
X027173Y021180D02*
X026860Y021180D01*
X026767Y021081D02*
X027173Y021081D01*
X027173Y020983D02*
X026788Y020983D01*
X026869Y020884D02*
X027173Y020884D01*
X027173Y020786D02*
X026910Y020786D01*
X026951Y020687D02*
X027173Y020687D01*
X027173Y020589D02*
X026957Y020589D01*
X026957Y020490D02*
X027173Y020490D01*
X027173Y020392D02*
X026950Y020392D01*
X026909Y020293D02*
X027173Y020293D01*
X027173Y020195D02*
X026868Y020195D01*
X026786Y020096D02*
X027173Y020096D01*
X027173Y019997D02*
X026770Y019997D01*
X026862Y019899D02*
X027173Y019899D01*
X027173Y019800D02*
X026902Y019800D01*
X026943Y019702D02*
X027173Y019702D01*
X027173Y019603D02*
X026957Y019603D01*
X026957Y019505D02*
X027173Y019505D01*
X027173Y019209D02*
X026876Y019209D01*
X026804Y019111D02*
X027173Y019111D01*
X027173Y019012D02*
X026761Y019012D01*
X026857Y018913D02*
X027173Y018913D01*
X027173Y018815D02*
X026898Y018815D01*
X026939Y018716D02*
X027173Y018716D01*
X027173Y018618D02*
X026955Y018618D01*
X026955Y018519D02*
X027173Y018519D01*
X027173Y018421D02*
X026955Y018421D01*
X026917Y018322D02*
X027173Y018322D01*
X027173Y018224D02*
X026877Y018224D01*
X026809Y018125D02*
X027173Y018125D01*
X027173Y018027D02*
X026753Y018027D01*
X026851Y017928D02*
X027173Y017928D01*
X027173Y017829D02*
X026895Y017829D01*
X026936Y017731D02*
X027173Y017731D01*
X027173Y017632D02*
X026957Y017632D01*
X026957Y017534D02*
X027173Y017534D01*
X027173Y017435D02*
X026957Y017435D01*
X026924Y017337D02*
X027173Y017337D01*
X027173Y017238D02*
X026883Y017238D01*
X026822Y017140D02*
X027173Y017140D01*
X027173Y017041D02*
X026750Y017041D01*
X026848Y016943D02*
X027173Y016943D01*
X027173Y016844D02*
X026898Y016844D01*
X026938Y016746D02*
X027173Y016746D01*
X027173Y016647D02*
X026963Y016647D01*
X026963Y016548D02*
X027173Y016548D01*
X027173Y016450D02*
X026963Y016450D01*
X026933Y016351D02*
X027173Y016351D01*
X027173Y016253D02*
X026892Y016253D01*
X026836Y016154D02*
X027173Y016154D01*
X027173Y016056D02*
X026738Y016056D01*
X026586Y015957D02*
X027173Y015957D01*
X024912Y018716D02*
X020727Y018716D01*
X020675Y018815D02*
X024953Y018815D01*
X024994Y018913D02*
X020675Y018913D01*
X021853Y020983D02*
X024171Y020983D01*
X024178Y021180D02*
X020601Y021180D01*
X020146Y021771D02*
X019612Y021771D01*
X019612Y021673D02*
X020004Y021673D01*
X019812Y021574D02*
X019612Y021574D01*
X019612Y021476D02*
X019713Y021476D01*
X019672Y021377D02*
X019612Y021377D01*
X019612Y021279D02*
X019641Y021279D01*
X019612Y021870D02*
X020245Y021870D01*
X020376Y021968D02*
X019612Y021968D01*
X019612Y022067D02*
X024140Y022067D01*
X024668Y020983D02*
X025066Y020983D01*
X024985Y020884D02*
X024776Y020884D01*
X024840Y020786D02*
X024944Y020786D01*
X024904Y020687D02*
X024881Y020687D01*
X024886Y020589D02*
X024897Y020589D01*
X024886Y020490D02*
X024897Y020490D01*
X024905Y020392D02*
X024847Y020392D01*
X024793Y020293D02*
X024945Y020293D01*
X024986Y020195D02*
X024694Y020195D01*
X018967Y023249D02*
X018864Y023249D01*
X018864Y023151D02*
X018869Y023151D01*
X019127Y027684D02*
X019186Y027684D01*
X019289Y027782D02*
X019028Y027782D01*
X018803Y027881D02*
X020526Y027881D01*
X020288Y027782D02*
X020022Y027782D01*
X020125Y027684D02*
X020188Y027684D01*
X020793Y027881D02*
X021506Y027881D01*
X021275Y027782D02*
X021031Y027782D01*
X021131Y027684D02*
X021176Y027684D01*
X021801Y027881D02*
X022485Y027881D01*
X022265Y027782D02*
X022032Y027782D01*
X022131Y027684D02*
X022167Y027684D01*
X025799Y027585D02*
X025898Y027585D01*
X025898Y027487D02*
X025799Y027487D01*
X025799Y027388D02*
X025898Y027388D01*
X025898Y027290D02*
X025799Y027290D01*
X025799Y027191D02*
X025898Y027191D01*
X025898Y027093D02*
X025799Y027093D01*
X025799Y026994D02*
X025898Y026994D01*
X025898Y026698D02*
X025799Y026698D01*
X025799Y026600D02*
X025898Y026600D01*
X025898Y026501D02*
X025799Y026501D01*
X025799Y026403D02*
X025898Y026403D01*
X025898Y026304D02*
X025799Y026304D01*
X025799Y026206D02*
X025898Y026206D01*
X025898Y026107D02*
X025799Y026107D01*
X025799Y026009D02*
X025898Y026009D01*
X018489Y027881D02*
X017806Y027881D01*
X018026Y027782D02*
X018263Y027782D01*
X018165Y027684D02*
X018125Y027684D01*
X017473Y027881D02*
X016829Y027881D01*
X017040Y027782D02*
X017253Y027782D01*
X017155Y027684D02*
X017139Y027684D01*
X016467Y027881D02*
X015833Y027881D01*
X016044Y027782D02*
X016255Y027782D01*
X016157Y027684D02*
X016143Y027684D01*
X015471Y027881D02*
X014836Y027881D01*
X015048Y027782D02*
X015259Y027782D01*
X015161Y027684D02*
X015147Y027684D01*
X014475Y027881D02*
X013861Y027881D01*
X014064Y027782D02*
X014263Y027782D01*
X014165Y027684D02*
X014162Y027684D01*
X013470Y027881D02*
X012864Y027881D01*
X013070Y027782D02*
X013267Y027782D01*
X011332Y025614D02*
X010951Y025614D01*
X010951Y025516D02*
X011234Y025516D01*
X011178Y025417D02*
X010951Y025417D01*
X010951Y025319D02*
X011077Y025319D01*
X010951Y022658D02*
X010972Y022658D01*
X010984Y022560D02*
X011002Y022560D01*
X011025Y022461D02*
X011043Y022461D01*
X011048Y022362D02*
X011130Y022362D01*
X011048Y022264D02*
X011294Y022264D01*
X010264Y021968D02*
X009907Y021968D01*
X009946Y022067D02*
X010177Y022067D01*
X010136Y022165D02*
X009946Y022165D01*
X009939Y022264D02*
X010114Y022264D01*
X010114Y022362D02*
X009898Y022362D01*
X009833Y022461D02*
X010137Y022461D01*
X010178Y022560D02*
X009722Y022560D01*
X007453Y026206D02*
X006937Y026206D01*
X007076Y026304D02*
X007314Y026304D01*
X007224Y026403D02*
X007166Y026403D01*
X014778Y016844D02*
X015368Y016844D01*
X012063Y012705D02*
X012053Y012705D01*
X012053Y012607D02*
X012146Y012607D01*
X012053Y012508D02*
X012298Y012508D01*
X012053Y012410D02*
X027173Y012410D01*
X027173Y012508D02*
X012643Y012508D01*
X012053Y012311D02*
X027173Y012311D01*
X027173Y012213D02*
X012053Y012213D01*
X012053Y012114D02*
X027173Y012114D01*
X027173Y012015D02*
X012053Y012015D01*
X012053Y011917D02*
X027173Y011917D01*
X027173Y011818D02*
X012053Y011818D01*
X012053Y011720D02*
X027173Y011720D01*
X027173Y011621D02*
X012053Y011621D01*
X012053Y011523D02*
X027173Y011523D01*
X027173Y011424D02*
X012053Y011424D01*
X012053Y011326D02*
X027173Y011326D01*
X027173Y011227D02*
X012053Y011227D01*
X012053Y011129D02*
X027173Y011129D01*
X027173Y011030D02*
X012053Y011030D01*
X012053Y010931D02*
X027173Y010931D01*
X027173Y010833D02*
X012053Y010833D01*
X012053Y010734D02*
X027173Y010734D01*
X027173Y010636D02*
X012053Y010636D01*
X012053Y010537D02*
X027173Y010537D01*
X027173Y010439D02*
X012053Y010439D01*
X012053Y010340D02*
X027173Y010340D01*
X027173Y010242D02*
X012053Y010242D01*
X011313Y009059D02*
X004888Y009059D01*
X004944Y008961D02*
X011313Y008961D01*
X011313Y008665D02*
X004980Y008665D01*
X004939Y008566D02*
X011313Y008566D01*
X011313Y008468D02*
X004877Y008468D01*
X000673Y008172D02*
X011313Y008172D01*
X011313Y008074D02*
X000673Y008074D01*
X000673Y007975D02*
X011313Y007975D01*
X011313Y007877D02*
X000673Y007877D01*
X000673Y007778D02*
X011313Y007778D01*
X011313Y007680D02*
X000673Y007680D01*
X000673Y007581D02*
X011313Y007581D01*
X011291Y012705D02*
X011313Y012705D01*
X009703Y014183D02*
X008510Y014183D01*
X008632Y014282D02*
X009150Y014282D01*
X009056Y014380D02*
X008702Y014380D01*
X008743Y014479D02*
X008962Y014479D01*
X008867Y014578D02*
X008753Y014578D01*
X008753Y014676D02*
X008773Y014676D01*
M02*
