G75*
G70*
%OFA0B0*%
%FSLAX24Y24*%
%IPPOS*%
%LPD*%
%AMOC8*
5,1,8,0,0,1.08239X$1,22.5*
%
%ADD10C,0.0160*%
%ADD11C,0.0004*%
%ADD12C,0.0040*%
%ADD13C,0.0030*%
%ADD14C,0.0050*%
%ADD15C,0.0010*%
%ADD16C,0.0080*%
%ADD17C,0.0100*%
%ADD18C,0.0060*%
%ADD19R,0.1102X0.0354*%
%ADD20C,0.0106*%
D10*
X003715Y000186D02*
X031156Y000186D01*
X031156Y028375D01*
X003793Y028375D01*
X003793Y000265D01*
D11*
X016943Y009242D02*
X017730Y009242D01*
X017337Y009635D02*
X017337Y008848D01*
X014384Y021053D02*
X014384Y021446D01*
X014187Y021249D02*
X014581Y021249D01*
D12*
X018725Y023803D02*
X019032Y023803D01*
X018878Y023803D02*
X018878Y024263D01*
X018725Y024110D01*
X019185Y024187D02*
X019185Y023880D01*
X019492Y024187D01*
X019492Y023880D01*
X019415Y023803D01*
X019262Y023803D01*
X019185Y023880D01*
X019185Y024187D02*
X019262Y024263D01*
X019415Y024263D01*
X019492Y024187D01*
X019646Y024187D02*
X019722Y024263D01*
X019876Y024263D01*
X019952Y024187D01*
X019646Y023880D01*
X019722Y023803D01*
X019876Y023803D01*
X019952Y023880D01*
X019952Y024187D01*
X020106Y024110D02*
X020106Y023803D01*
X020413Y023803D02*
X020413Y024033D01*
X020336Y024110D01*
X020106Y024110D01*
X020566Y024033D02*
X020720Y024033D01*
X020566Y024263D02*
X020873Y024263D01*
X020566Y024263D02*
X020566Y023803D01*
X019646Y023880D02*
X019646Y024187D01*
X019775Y027641D02*
X019775Y027718D01*
X020081Y028025D01*
X020081Y028102D01*
X019775Y028102D01*
X019546Y028025D02*
X019546Y027948D01*
X019469Y027872D01*
X019316Y027872D01*
X019239Y027948D01*
X019239Y028025D01*
X019316Y028102D01*
X019469Y028102D01*
X019546Y028025D01*
X019469Y027872D02*
X019546Y027795D01*
X019546Y027718D01*
X019469Y027641D01*
X019316Y027641D01*
X019239Y027718D01*
X019239Y027795D01*
X019316Y027872D01*
X019085Y028025D02*
X018778Y027718D01*
X018778Y027641D01*
X018550Y027718D02*
X018550Y028025D01*
X018473Y028102D01*
X018319Y028102D01*
X018243Y028025D01*
X018243Y027948D01*
X018319Y027872D01*
X018550Y027872D01*
X018550Y027718D02*
X018473Y027641D01*
X018319Y027641D01*
X018243Y027718D01*
X018089Y028025D02*
X017782Y027718D01*
X017782Y027641D01*
X017559Y027724D02*
X017559Y027801D01*
X017483Y027878D01*
X017253Y027878D01*
X017253Y027724D01*
X017329Y027647D01*
X017483Y027647D01*
X017559Y027724D01*
X017253Y027878D02*
X017406Y028031D01*
X017559Y028108D01*
X017782Y028102D02*
X018089Y028102D01*
X018089Y028025D01*
X018778Y028102D02*
X019085Y028102D01*
X019085Y028025D01*
X020235Y028102D02*
X020542Y028102D01*
X020542Y028025D01*
X020235Y027718D01*
X020235Y027641D01*
X020767Y027636D02*
X020767Y027712D01*
X021074Y028019D01*
X021074Y028096D01*
X020767Y028096D01*
X021227Y027866D02*
X021457Y027866D01*
X021534Y027789D01*
X021534Y027712D01*
X021457Y027636D01*
X021304Y027636D01*
X021227Y027712D01*
X021227Y027866D01*
X021380Y028019D01*
X021534Y028096D01*
X021773Y028092D02*
X022079Y028092D01*
X022079Y028015D01*
X021773Y027708D01*
X021773Y027632D01*
X022233Y027708D02*
X022310Y027632D01*
X022463Y027632D01*
X022540Y027708D01*
X022540Y027785D01*
X022463Y027862D01*
X022386Y027862D01*
X022463Y027862D02*
X022540Y027939D01*
X022540Y028015D01*
X022463Y028092D01*
X022310Y028092D01*
X022233Y028015D01*
X022782Y028080D02*
X023089Y028080D01*
X023089Y028003D01*
X022782Y027697D01*
X022782Y027620D01*
X023243Y027620D02*
X023550Y027927D01*
X023550Y028003D01*
X023473Y028080D01*
X023319Y028080D01*
X023243Y028003D01*
X023786Y028082D02*
X024093Y028082D01*
X024093Y028005D01*
X023786Y027699D01*
X023786Y027622D01*
X023550Y027620D02*
X023243Y027620D01*
X024247Y027622D02*
X024554Y027622D01*
X024400Y027622D02*
X024400Y028082D01*
X024247Y027929D01*
X024780Y028088D02*
X025087Y028088D01*
X025087Y028011D01*
X024780Y027704D01*
X024780Y027628D01*
X025241Y027704D02*
X025548Y028011D01*
X025548Y027704D01*
X025471Y027628D01*
X025317Y027628D01*
X025241Y027704D01*
X025241Y028011D01*
X025317Y028088D01*
X025471Y028088D01*
X025548Y028011D01*
X025778Y027866D02*
X026009Y027866D01*
X026085Y027789D01*
X026085Y027712D01*
X026009Y027636D01*
X025855Y027636D01*
X025778Y027712D01*
X025778Y027866D01*
X025932Y028019D01*
X026085Y028096D01*
X026239Y028019D02*
X026239Y027942D01*
X026316Y027866D01*
X026546Y027866D01*
X026546Y028019D02*
X026546Y027712D01*
X026469Y027636D01*
X026316Y027636D01*
X026239Y027712D01*
X026239Y028019D02*
X026316Y028096D01*
X026469Y028096D01*
X026546Y028019D01*
X027002Y025567D02*
X027243Y025567D01*
X027122Y025567D02*
X027122Y025206D01*
X027371Y025266D02*
X027371Y025507D01*
X027431Y025567D01*
X027551Y025567D01*
X027611Y025507D01*
X027611Y025266D01*
X027551Y025206D01*
X027431Y025206D01*
X027371Y025266D01*
X027739Y025206D02*
X027739Y025567D01*
X027919Y025567D01*
X027979Y025507D01*
X027979Y025387D01*
X027919Y025326D01*
X027739Y025326D01*
X028476Y025266D02*
X028536Y025206D01*
X028656Y025206D01*
X028716Y025266D01*
X028716Y025387D01*
X028596Y025387D01*
X028716Y025507D02*
X028656Y025567D01*
X028536Y025567D01*
X028476Y025507D01*
X028476Y025266D01*
X028844Y025206D02*
X028844Y025447D01*
X028964Y025567D01*
X029084Y025447D01*
X029084Y025206D01*
X029212Y025206D02*
X029452Y025206D01*
X029332Y025206D02*
X029332Y025567D01*
X029212Y025447D01*
X029084Y025387D02*
X028844Y025387D01*
X029580Y025387D02*
X029821Y025387D01*
X029949Y025387D02*
X030189Y025387D01*
X030129Y025567D02*
X030129Y025206D01*
X029949Y025387D02*
X030129Y025567D01*
X029761Y025567D02*
X029580Y025387D01*
X029761Y025206D02*
X029761Y025567D01*
X030303Y023822D02*
X030380Y023822D01*
X030457Y023745D01*
X030533Y023822D01*
X030610Y023822D01*
X030687Y023745D01*
X030687Y023592D01*
X030610Y023515D01*
X030610Y023362D02*
X030533Y023362D01*
X030457Y023285D01*
X030457Y023055D01*
X030610Y023055D01*
X030687Y023132D01*
X030687Y023285D01*
X030610Y023362D01*
X030457Y023669D02*
X030457Y023745D01*
X030303Y023822D02*
X030226Y023745D01*
X030226Y023592D01*
X030303Y023515D01*
X030226Y023362D02*
X030303Y023208D01*
X030457Y023055D01*
X030679Y022828D02*
X030679Y022521D01*
X030679Y022675D02*
X030219Y022675D01*
X030372Y022521D01*
X030219Y022368D02*
X030295Y022214D01*
X030449Y022061D01*
X030449Y022291D01*
X030525Y022368D01*
X030602Y022368D01*
X030679Y022291D01*
X030679Y022137D01*
X030602Y022061D01*
X030449Y022061D01*
X030301Y021832D02*
X030608Y021525D01*
X030685Y021602D01*
X030685Y021755D01*
X030608Y021832D01*
X030301Y021832D01*
X030224Y021755D01*
X030224Y021602D01*
X030301Y021525D01*
X030608Y021525D01*
X030608Y021372D02*
X030531Y021372D01*
X030455Y021295D01*
X030455Y021065D01*
X030608Y021065D01*
X030685Y021141D01*
X030685Y021295D01*
X030608Y021372D01*
X030301Y021218D02*
X030455Y021065D01*
X030301Y021218D02*
X030224Y021372D01*
X030301Y020828D02*
X030224Y020751D01*
X030224Y020598D01*
X030301Y020521D01*
X030378Y020521D01*
X030455Y020598D01*
X030455Y020828D01*
X030608Y020828D02*
X030301Y020828D01*
X030608Y020828D02*
X030685Y020751D01*
X030685Y020598D01*
X030608Y020521D01*
X030608Y020368D02*
X030685Y020291D01*
X030685Y020137D01*
X030608Y020061D01*
X030455Y020061D02*
X030378Y020214D01*
X030378Y020291D01*
X030455Y020368D01*
X030608Y020368D01*
X030455Y020061D02*
X030224Y020061D01*
X030224Y020368D01*
X030301Y019824D02*
X030224Y019747D01*
X030224Y019594D01*
X030301Y019517D01*
X030224Y019364D02*
X030224Y019057D01*
X030455Y019057D01*
X030378Y019210D01*
X030378Y019287D01*
X030455Y019364D01*
X030608Y019364D01*
X030685Y019287D01*
X030685Y019134D01*
X030608Y019057D01*
X030606Y018832D02*
X030683Y018755D01*
X030683Y018602D01*
X030606Y018525D01*
X030529Y018525D01*
X030453Y018602D01*
X030453Y018755D01*
X030529Y018832D01*
X030606Y018832D01*
X030453Y018755D02*
X030376Y018832D01*
X030299Y018832D01*
X030222Y018755D01*
X030222Y018602D01*
X030299Y018525D01*
X030376Y018525D01*
X030453Y018602D01*
X030453Y018372D02*
X030453Y018065D01*
X030222Y018295D01*
X030683Y018295D01*
X030685Y017836D02*
X030685Y017529D01*
X030685Y017682D02*
X030224Y017682D01*
X030378Y017529D01*
X030455Y017376D02*
X030378Y017299D01*
X030378Y017222D01*
X030455Y017069D01*
X030224Y017069D01*
X030224Y017376D01*
X030455Y017376D02*
X030608Y017376D01*
X030685Y017299D01*
X030685Y017145D01*
X030608Y017069D01*
X030614Y016842D02*
X030307Y016842D01*
X030614Y016535D01*
X030691Y016612D01*
X030691Y016765D01*
X030614Y016842D01*
X030307Y016842D02*
X030230Y016765D01*
X030230Y016612D01*
X030307Y016535D01*
X030614Y016535D01*
X030614Y016381D02*
X030691Y016305D01*
X030691Y016151D01*
X030614Y016075D01*
X030461Y016075D02*
X030384Y016228D01*
X030384Y016305D01*
X030461Y016381D01*
X030614Y016381D01*
X030461Y016075D02*
X030230Y016075D01*
X030230Y016381D01*
X030685Y019517D02*
X030378Y019824D01*
X030301Y019824D01*
X030685Y019824D02*
X030685Y019517D01*
X017099Y027724D02*
X017022Y027647D01*
X016869Y027647D01*
X016792Y027724D01*
X016792Y027801D01*
X016869Y027878D01*
X017022Y027878D01*
X017099Y027801D01*
X017099Y027724D01*
X017022Y027878D02*
X017099Y027954D01*
X017099Y028031D01*
X017022Y028108D01*
X016869Y028108D01*
X016792Y028031D01*
X016792Y027954D01*
X016869Y027878D01*
X016567Y028029D02*
X016260Y027722D01*
X016260Y027645D01*
X016107Y027722D02*
X016030Y027645D01*
X015877Y027645D01*
X015800Y027722D01*
X015800Y027799D01*
X015877Y027876D01*
X016030Y027876D01*
X016107Y027799D01*
X016107Y027722D01*
X016030Y027876D02*
X016107Y027952D01*
X016107Y028029D01*
X016030Y028106D01*
X015877Y028106D01*
X015800Y028029D01*
X015800Y027952D01*
X015877Y027876D01*
X016260Y028106D02*
X016567Y028106D01*
X016567Y028029D01*
X005538Y027732D02*
X005298Y027732D01*
X005418Y027732D02*
X005418Y027372D01*
X005170Y027432D02*
X005110Y027372D01*
X004990Y027372D01*
X004930Y027432D01*
X004990Y027552D02*
X005110Y027552D01*
X005170Y027492D01*
X005170Y027432D01*
X004990Y027552D02*
X004930Y027612D01*
X004930Y027672D01*
X004990Y027732D01*
X005110Y027732D01*
X005170Y027672D01*
X004802Y027672D02*
X004742Y027732D01*
X004561Y027732D01*
X004561Y027372D01*
X004561Y027492D02*
X004742Y027492D01*
X004802Y027552D01*
X004802Y027672D01*
X004681Y027492D02*
X004802Y027372D01*
X004561Y022848D02*
X004484Y022848D01*
X004407Y022772D01*
X004407Y022541D01*
X004561Y022541D01*
X004638Y022618D01*
X004638Y022772D01*
X004561Y022848D01*
X004254Y022695D02*
X004407Y022541D01*
X004254Y022695D02*
X004177Y022848D01*
X004177Y021852D02*
X004254Y021852D01*
X004561Y021545D01*
X004638Y021545D01*
X004177Y021545D02*
X004177Y021852D01*
X004407Y020848D02*
X004407Y020541D01*
X004177Y020771D01*
X004638Y020771D01*
X004638Y020388D02*
X004638Y020081D01*
X004638Y020234D02*
X004177Y020234D01*
X004331Y020081D01*
X004331Y019844D02*
X004407Y019768D01*
X004407Y019614D01*
X004331Y019537D01*
X004254Y019537D01*
X004177Y019614D01*
X004177Y019768D01*
X004254Y019844D01*
X004331Y019844D01*
X004407Y019768D02*
X004484Y019844D01*
X004561Y019844D01*
X004638Y019768D01*
X004638Y019614D01*
X004561Y019537D01*
X004484Y019537D01*
X004407Y019614D01*
X004638Y019384D02*
X004638Y019077D01*
X004638Y019230D02*
X004177Y019230D01*
X004331Y019077D01*
X004407Y018840D02*
X004331Y018764D01*
X004331Y018687D01*
X004407Y018533D01*
X004177Y018533D01*
X004177Y018840D01*
X004407Y018840D02*
X004561Y018840D01*
X004638Y018764D01*
X004638Y018610D01*
X004561Y018533D01*
X004638Y018380D02*
X004638Y018073D01*
X004638Y018227D02*
X004177Y018227D01*
X004331Y018073D01*
X004472Y017840D02*
X004396Y017764D01*
X004396Y017533D01*
X004549Y017533D01*
X004626Y017610D01*
X004626Y017764D01*
X004549Y017840D01*
X004472Y017840D01*
X004242Y017687D02*
X004396Y017533D01*
X004319Y017380D02*
X004242Y017380D01*
X004165Y017303D01*
X004165Y017150D01*
X004242Y017073D01*
X004262Y016838D02*
X004569Y016531D01*
X004645Y016531D01*
X004645Y016378D02*
X004645Y016071D01*
X004339Y016378D01*
X004262Y016378D01*
X004185Y016301D01*
X004185Y016148D01*
X004262Y016071D01*
X004274Y015829D02*
X004581Y015522D01*
X004657Y015598D01*
X004657Y015752D01*
X004581Y015829D01*
X004274Y015829D01*
X004197Y015752D01*
X004197Y015598D01*
X004274Y015522D01*
X004581Y015522D01*
X004657Y015368D02*
X004657Y015061D01*
X004350Y015368D01*
X004274Y015368D01*
X004197Y015291D01*
X004197Y015138D01*
X004274Y015061D01*
X004185Y016531D02*
X004185Y016838D01*
X004262Y016838D01*
X004626Y017073D02*
X004319Y017380D01*
X004626Y017380D02*
X004626Y017073D01*
X004242Y017687D02*
X004165Y017840D01*
X011721Y009119D02*
X011721Y008812D01*
X012181Y008812D01*
X012181Y008658D02*
X011951Y008658D01*
X011874Y008581D01*
X011874Y008351D01*
X012181Y008351D01*
X012104Y008198D02*
X011797Y008198D01*
X012104Y007891D01*
X012181Y007968D01*
X012181Y008121D01*
X012104Y008198D01*
X011797Y008198D02*
X011721Y008121D01*
X011721Y007968D01*
X011797Y007891D01*
X012104Y007891D01*
X012104Y007737D02*
X012181Y007661D01*
X012181Y007507D01*
X012104Y007431D01*
X011797Y007737D01*
X012104Y007737D01*
X012104Y007431D02*
X011797Y007431D01*
X011721Y007507D01*
X011721Y007661D01*
X011797Y007737D01*
X012181Y007277D02*
X012181Y006970D01*
X012181Y007124D02*
X011721Y007124D01*
X011874Y006970D01*
X012685Y007143D02*
X012839Y006990D01*
X012685Y007143D02*
X013145Y007143D01*
X013145Y006990D02*
X013145Y007297D01*
X013069Y007450D02*
X012762Y007450D01*
X012685Y007527D01*
X012685Y007680D01*
X012762Y007757D01*
X013069Y007450D01*
X013145Y007527D01*
X013145Y007680D01*
X013069Y007757D01*
X012762Y007757D01*
X012762Y007911D02*
X012685Y007987D01*
X012685Y008141D01*
X012762Y008218D01*
X013069Y007911D01*
X013145Y007987D01*
X013145Y008141D01*
X013069Y008218D01*
X012762Y008218D01*
X012839Y008371D02*
X012839Y008601D01*
X012915Y008678D01*
X013145Y008678D01*
X013145Y008831D02*
X012685Y008831D01*
X012685Y009138D01*
X012915Y008985D02*
X012915Y008831D01*
X012839Y008371D02*
X013145Y008371D01*
X013069Y007911D02*
X012762Y007911D01*
X011951Y008812D02*
X011951Y008965D01*
D13*
X009472Y027170D02*
X009472Y027460D01*
X009472Y027315D02*
X009278Y027315D01*
X009177Y027267D02*
X009177Y027218D01*
X009129Y027170D01*
X009032Y027170D01*
X008984Y027218D01*
X009032Y027315D02*
X009129Y027315D01*
X009177Y027267D01*
X009278Y027170D02*
X009278Y027460D01*
X009177Y027412D02*
X009129Y027460D01*
X009032Y027460D01*
X008984Y027412D01*
X008984Y027363D01*
X009032Y027315D01*
X008882Y027315D02*
X008689Y027315D01*
X008689Y027363D02*
X008786Y027460D01*
X008882Y027363D01*
X008882Y027170D01*
X008689Y027170D02*
X008689Y027363D01*
X008588Y027170D02*
X008394Y027170D01*
X008394Y027460D01*
X008293Y027460D02*
X008100Y027460D01*
X008100Y027170D01*
X008100Y027315D02*
X008196Y027315D01*
D14*
X008722Y025000D02*
X005342Y025000D01*
X005342Y023380D01*
X008722Y023380D01*
X008722Y025000D01*
X014784Y021257D02*
X014784Y021060D01*
X014784Y021257D02*
X014984Y021257D01*
X015197Y020848D02*
X015199Y020866D01*
X015205Y020882D01*
X015214Y020897D01*
X015227Y020910D01*
X015242Y020919D01*
X015258Y020925D01*
X015276Y020927D01*
X015294Y020925D01*
X015310Y020919D01*
X015325Y020910D01*
X015338Y020897D01*
X015347Y020882D01*
X015353Y020866D01*
X015355Y020848D01*
X015353Y020830D01*
X015347Y020814D01*
X015338Y020799D01*
X015325Y020786D01*
X015310Y020777D01*
X015294Y020771D01*
X015276Y020769D01*
X015258Y020771D01*
X015242Y020777D01*
X015227Y020786D01*
X015214Y020799D01*
X015205Y020814D01*
X015199Y020830D01*
X015197Y020848D01*
X018528Y021257D02*
X018724Y021257D01*
X018724Y021060D01*
X018724Y017517D02*
X018724Y017320D01*
X018528Y017320D01*
X014984Y017320D02*
X014784Y017320D01*
X014784Y017517D01*
X007991Y005119D02*
X004611Y005119D01*
X004611Y003499D01*
X007991Y003499D01*
X007991Y005119D01*
X019342Y004623D02*
X019342Y001243D01*
X020962Y001243D01*
X020962Y004623D01*
X019342Y004623D01*
X025613Y003744D02*
X025613Y003594D01*
X025688Y003519D01*
X025763Y003519D01*
X025838Y003594D01*
X025838Y003744D01*
X025913Y003819D01*
X025988Y003819D01*
X026063Y003744D01*
X026063Y003594D01*
X025988Y003519D01*
X025913Y003519D01*
X025838Y003594D01*
X025838Y003744D02*
X025763Y003819D01*
X025688Y003819D01*
X025613Y003744D01*
X025988Y003364D02*
X026063Y003364D01*
X026063Y003289D01*
X025988Y003289D01*
X025988Y003364D01*
X026063Y003128D02*
X026063Y002828D01*
X026063Y002978D02*
X025613Y002978D01*
X025763Y002828D01*
X025913Y002668D02*
X025613Y002668D01*
X025613Y002368D02*
X025913Y002368D01*
X026063Y002518D01*
X025913Y002668D01*
D15*
X023887Y002585D02*
X023737Y002585D01*
X023737Y002686D01*
X023812Y002636D02*
X023812Y002585D01*
X023812Y002538D02*
X023887Y002538D01*
X023812Y002538D02*
X023787Y002513D01*
X023787Y002438D01*
X023887Y002438D01*
X023862Y002391D02*
X023887Y002366D01*
X023887Y002316D01*
X023862Y002291D01*
X023762Y002391D01*
X023862Y002391D01*
X023762Y002391D02*
X023737Y002366D01*
X023737Y002316D01*
X023762Y002291D01*
X023862Y002291D01*
X023862Y002244D02*
X023762Y002244D01*
X023862Y002144D01*
X023887Y002169D01*
X023887Y002219D01*
X023862Y002244D01*
X023762Y002244D02*
X023737Y002219D01*
X023737Y002169D01*
X023762Y002144D01*
X023862Y002144D01*
X023887Y002096D02*
X023887Y001996D01*
X023887Y002046D02*
X023737Y002046D01*
X023787Y001996D01*
X020022Y001088D02*
X019922Y001088D01*
X019922Y000938D01*
X019875Y000938D02*
X019875Y001038D01*
X019922Y001013D02*
X019972Y001013D01*
X019875Y000938D02*
X019800Y000938D01*
X019775Y000963D01*
X019775Y001038D01*
X019728Y001063D02*
X019628Y000963D01*
X019628Y000938D01*
X019579Y000938D02*
X019554Y000938D01*
X019554Y000963D01*
X019579Y000963D01*
X019579Y000938D01*
X019482Y000938D02*
X019482Y001088D01*
X019407Y001013D01*
X019507Y001013D01*
X019628Y001088D02*
X019728Y001088D01*
X019728Y001063D01*
X017362Y002543D02*
X017362Y002644D01*
X017362Y002593D02*
X017212Y002593D01*
X017262Y002543D01*
X017237Y002691D02*
X017212Y002716D01*
X017212Y002766D01*
X017237Y002791D01*
X017337Y002691D01*
X017362Y002716D01*
X017362Y002766D01*
X017337Y002791D01*
X017237Y002791D01*
X017237Y002838D02*
X017212Y002863D01*
X017212Y002913D01*
X017237Y002938D01*
X017337Y002838D01*
X017362Y002863D01*
X017362Y002913D01*
X017337Y002938D01*
X017237Y002938D01*
X017262Y002985D02*
X017262Y003060D01*
X017287Y003085D01*
X017362Y003085D01*
X017362Y003133D02*
X017212Y003133D01*
X017212Y003233D01*
X017287Y003183D02*
X017287Y003133D01*
X017262Y002985D02*
X017362Y002985D01*
X017337Y002838D02*
X017237Y002838D01*
X017237Y002691D02*
X017337Y002691D01*
X008296Y003639D02*
X008146Y003639D01*
X008221Y003564D01*
X008221Y003664D01*
X008271Y003711D02*
X008271Y003736D01*
X008296Y003736D01*
X008296Y003711D01*
X008271Y003711D01*
X008271Y003784D02*
X008296Y003784D01*
X008271Y003784D02*
X008171Y003885D01*
X008146Y003885D01*
X008146Y003784D01*
X008196Y003932D02*
X008271Y003932D01*
X008296Y003957D01*
X008296Y004032D01*
X008196Y004032D01*
X008221Y004079D02*
X008221Y004129D01*
X008296Y004079D02*
X008146Y004079D01*
X008146Y004179D01*
X006193Y006148D02*
X006193Y006298D01*
X006293Y006298D01*
X006243Y006223D02*
X006193Y006223D01*
X006146Y006223D02*
X006146Y006148D01*
X006146Y006223D02*
X006121Y006248D01*
X006045Y006248D01*
X006045Y006148D01*
X005998Y006173D02*
X005973Y006148D01*
X005923Y006148D01*
X005898Y006173D01*
X005998Y006273D01*
X005998Y006173D01*
X005898Y006173D02*
X005898Y006273D01*
X005923Y006298D01*
X005973Y006298D01*
X005998Y006273D01*
X005851Y006273D02*
X005826Y006298D01*
X005776Y006298D01*
X005751Y006273D01*
X005751Y006173D01*
X005851Y006273D01*
X005851Y006173D01*
X005826Y006148D01*
X005776Y006148D01*
X005751Y006173D01*
X005704Y006148D02*
X005604Y006148D01*
X005654Y006148D02*
X005654Y006298D01*
X005604Y006248D01*
X011677Y012525D02*
X011652Y012550D01*
X011677Y012525D02*
X011727Y012525D01*
X011752Y012550D01*
X011752Y012600D01*
X011727Y012625D01*
X011702Y012625D01*
X011652Y012600D01*
X011652Y012675D01*
X011752Y012675D01*
X011873Y012625D02*
X011923Y012675D01*
X011923Y012525D01*
X011873Y012525D02*
X011973Y012525D01*
X012020Y012525D02*
X012020Y012675D01*
X012045Y012600D02*
X012120Y012525D01*
X012020Y012575D02*
X012120Y012675D01*
X011824Y012550D02*
X011824Y012525D01*
X011799Y012525D01*
X011799Y012550D01*
X011824Y012550D01*
X014077Y015673D02*
X014152Y015673D01*
X014127Y015723D01*
X014127Y015748D01*
X014152Y015773D01*
X014202Y015773D01*
X014227Y015748D01*
X014227Y015698D01*
X014202Y015673D01*
X014077Y015673D02*
X014077Y015773D01*
X014127Y015894D02*
X014077Y015944D01*
X014227Y015944D01*
X014227Y015894D02*
X014227Y015994D01*
X014227Y016041D02*
X014077Y016041D01*
X014152Y016066D02*
X014227Y016141D01*
X014177Y016041D02*
X014077Y016141D01*
X014202Y015845D02*
X014227Y015845D01*
X014227Y015820D01*
X014202Y015820D01*
X014202Y015845D01*
X020266Y014369D02*
X020317Y014419D01*
X020317Y014269D01*
X020367Y014269D02*
X020266Y014269D01*
X020414Y014294D02*
X020514Y014394D01*
X020514Y014294D01*
X020489Y014269D01*
X020439Y014269D01*
X020414Y014294D01*
X020414Y014394D01*
X020439Y014419D01*
X020489Y014419D01*
X020514Y014394D01*
X020561Y014394D02*
X020586Y014419D01*
X020636Y014419D01*
X020661Y014394D01*
X020561Y014294D01*
X020586Y014269D01*
X020636Y014269D01*
X020661Y014294D01*
X020661Y014394D01*
X020708Y014369D02*
X020708Y014269D01*
X020708Y014369D02*
X020784Y014369D01*
X020809Y014344D01*
X020809Y014269D01*
X020856Y014269D02*
X020856Y014419D01*
X020956Y014419D01*
X020906Y014344D02*
X020856Y014344D01*
X020561Y014294D02*
X020561Y014394D01*
X028965Y014619D02*
X029115Y014619D01*
X029115Y014569D02*
X029115Y014669D01*
X029115Y014716D02*
X028965Y014716D01*
X029040Y014741D02*
X029115Y014816D01*
X029065Y014716D02*
X028965Y014816D01*
X028965Y014619D02*
X029015Y014569D01*
X029158Y011109D02*
X029258Y011009D01*
X029233Y011034D02*
X029308Y011109D01*
X029308Y011009D02*
X029158Y011009D01*
X029158Y010912D02*
X029308Y010912D01*
X029308Y010862D02*
X029308Y010962D01*
X029208Y010862D02*
X029158Y010912D01*
X009648Y025329D02*
X009648Y025429D01*
X009648Y025476D02*
X009497Y025476D01*
X009573Y025501D02*
X009648Y025576D01*
X009598Y025476D02*
X009497Y025576D01*
X009497Y025379D02*
X009648Y025379D01*
X009548Y025329D02*
X009497Y025379D01*
X008876Y024061D02*
X008876Y023961D01*
X009027Y023961D01*
X009027Y023914D02*
X008926Y023914D01*
X008952Y023961D02*
X008952Y024011D01*
X009027Y023914D02*
X009027Y023839D01*
X009002Y023814D01*
X008926Y023814D01*
X008901Y023766D02*
X009002Y023666D01*
X009027Y023666D01*
X009027Y023618D02*
X009027Y023593D01*
X009002Y023593D01*
X009002Y023618D01*
X009027Y023618D01*
X009027Y023520D02*
X008876Y023520D01*
X008952Y023445D01*
X008952Y023545D01*
X008876Y023666D02*
X008876Y023766D01*
X008901Y023766D01*
X007341Y026084D02*
X007265Y026159D01*
X007240Y026134D02*
X007341Y026234D01*
X007240Y026234D02*
X007240Y026084D01*
X007193Y026084D02*
X007093Y026084D01*
X007044Y026084D02*
X007019Y026084D01*
X007019Y026109D01*
X007044Y026109D01*
X007044Y026084D01*
X006972Y026109D02*
X006947Y026084D01*
X006897Y026084D01*
X006872Y026109D01*
X006872Y026159D02*
X006922Y026184D01*
X006947Y026184D01*
X006972Y026159D01*
X006972Y026109D01*
X006872Y026159D02*
X006872Y026234D01*
X006972Y026234D01*
X007093Y026184D02*
X007143Y026234D01*
X007143Y026084D01*
D16*
X006738Y026694D02*
X006738Y027194D01*
X006734Y027210D02*
X006734Y026710D01*
X005738Y026694D02*
X005738Y027194D01*
X007734Y027210D02*
X007734Y026710D01*
X005658Y022982D02*
X005158Y022982D01*
X005158Y021986D02*
X005658Y021986D01*
X005658Y021982D02*
X005158Y021982D01*
X005158Y020986D02*
X005658Y020986D01*
X005658Y020982D02*
X005158Y020982D01*
X005158Y019982D02*
X005658Y019982D01*
X005658Y019978D02*
X005158Y019978D01*
X005158Y018978D02*
X005658Y018978D01*
X005658Y018974D02*
X005158Y018974D01*
X005158Y017974D02*
X005658Y017974D01*
X005646Y017974D02*
X005146Y017974D01*
X005146Y016974D02*
X005646Y016974D01*
X005665Y016972D02*
X005165Y016972D01*
X005165Y015972D02*
X005665Y015972D01*
X005677Y015962D02*
X005177Y015962D01*
X005177Y014962D02*
X005677Y014962D01*
X013577Y012683D02*
X013577Y008037D01*
X020742Y008037D01*
X020742Y012683D01*
X013577Y012683D01*
X006583Y006931D02*
X005323Y006931D01*
X005323Y005907D02*
X006583Y005907D01*
X009524Y005020D02*
X013069Y005020D01*
X013069Y001148D01*
X009524Y001148D01*
X016971Y002291D02*
X016971Y003551D01*
X017994Y003551D02*
X017994Y002291D01*
X023496Y001744D02*
X023496Y003003D01*
X024520Y003003D02*
X024520Y001744D01*
X029211Y016055D02*
X029711Y016055D01*
X029705Y017049D02*
X029205Y017049D01*
X029211Y017055D02*
X029711Y017055D01*
X029703Y018045D02*
X029203Y018045D01*
X029205Y018049D02*
X029705Y018049D01*
X029705Y019037D02*
X029205Y019037D01*
X029203Y019045D02*
X029703Y019045D01*
X029705Y020037D02*
X029205Y020037D01*
X029205Y020041D02*
X029705Y020041D01*
X029705Y021041D02*
X029205Y021041D01*
X029205Y021045D02*
X029705Y021045D01*
X029699Y022041D02*
X029199Y022041D01*
X029205Y022045D02*
X029705Y022045D01*
X029707Y023035D02*
X029207Y023035D01*
X029199Y023041D02*
X029699Y023041D01*
X029707Y024035D02*
X029207Y024035D01*
X026679Y026616D02*
X026679Y027116D01*
X025681Y027108D02*
X025681Y026608D01*
X025679Y026616D02*
X025679Y027116D01*
X024687Y027102D02*
X024687Y026602D01*
X024681Y026608D02*
X024681Y027108D01*
X023687Y027102D02*
X023687Y026602D01*
X023683Y026600D02*
X023683Y027100D01*
X022683Y027100D02*
X022683Y026600D01*
X022673Y026612D02*
X022673Y027112D01*
X021673Y027112D02*
X021673Y026612D01*
X021667Y026616D02*
X021667Y027116D01*
X020675Y027121D02*
X020675Y026621D01*
X020667Y026616D02*
X020667Y027116D01*
X019679Y027121D02*
X019679Y026621D01*
X019675Y026621D02*
X019675Y027121D01*
X018683Y027121D02*
X018683Y026621D01*
X018679Y026621D02*
X018679Y027121D01*
X017693Y027127D02*
X017693Y026627D01*
X017683Y026621D02*
X017683Y027121D01*
X016701Y027125D02*
X016701Y026625D01*
X016693Y026627D02*
X016693Y027127D01*
X015701Y027125D02*
X015701Y026625D01*
X012905Y024340D02*
X012907Y024355D01*
X012913Y024368D01*
X012922Y024380D01*
X012933Y024389D01*
X012947Y024395D01*
X012962Y024397D01*
X012977Y024395D01*
X012990Y024389D01*
X013002Y024380D01*
X013011Y024369D01*
X013017Y024355D01*
X013019Y024340D01*
X013017Y024325D01*
X013011Y024312D01*
X013002Y024300D01*
X012991Y024291D01*
X012977Y024285D01*
X012962Y024283D01*
X012947Y024285D01*
X012934Y024291D01*
X012922Y024300D01*
X012913Y024311D01*
X012907Y024325D01*
X012905Y024340D01*
D17*
X006532Y024190D02*
X006282Y024190D01*
X005801Y004309D02*
X005551Y004309D01*
X020152Y003683D02*
X020152Y003433D01*
D18*
X026238Y003290D02*
X026238Y003775D01*
X026496Y003954D01*
X027296Y003954D01*
X027553Y003775D01*
X027553Y003290D01*
X027296Y002954D01*
X027553Y002618D01*
X027553Y002133D01*
X027296Y001954D01*
X026496Y001954D01*
X026238Y002133D01*
X026238Y002697D01*
X026496Y002954D01*
X026238Y003290D01*
X013182Y023240D02*
X013182Y024660D01*
X011322Y024660D02*
X011322Y023240D01*
X011544Y026301D02*
X010980Y026301D01*
X010723Y026558D01*
X010386Y026301D01*
X009901Y026301D01*
X009723Y026558D01*
X009723Y027358D01*
X009901Y027616D01*
X010386Y027616D01*
X010723Y027358D01*
X011059Y027616D01*
X011544Y027616D01*
X011723Y027358D01*
X011723Y026558D01*
X011544Y026301D01*
D19*
X013660Y004084D03*
X013660Y003084D03*
X013660Y002084D03*
D20*
X013929Y012131D02*
X013931Y012164D01*
X013937Y012196D01*
X013946Y012228D01*
X013960Y012258D01*
X013976Y012286D01*
X013996Y012312D01*
X014019Y012336D01*
X014045Y012357D01*
X014073Y012374D01*
X014103Y012389D01*
X014134Y012399D01*
X014166Y012406D01*
X014199Y012409D01*
X014232Y012408D01*
X014264Y012403D01*
X014296Y012394D01*
X014327Y012382D01*
X014355Y012366D01*
X014382Y012347D01*
X014406Y012325D01*
X014428Y012300D01*
X014446Y012272D01*
X014461Y012243D01*
X014473Y012212D01*
X014481Y012180D01*
X014485Y012147D01*
X014485Y012115D01*
X014481Y012082D01*
X014473Y012050D01*
X014461Y012019D01*
X014446Y011990D01*
X014428Y011962D01*
X014406Y011937D01*
X014382Y011915D01*
X014355Y011896D01*
X014327Y011880D01*
X014296Y011868D01*
X014264Y011859D01*
X014232Y011854D01*
X014199Y011853D01*
X014166Y011856D01*
X014134Y011863D01*
X014103Y011873D01*
X014073Y011888D01*
X014045Y011905D01*
X014019Y011926D01*
X013996Y011950D01*
X013976Y011976D01*
X013960Y012004D01*
X013946Y012034D01*
X013937Y012066D01*
X013931Y012098D01*
X013929Y012131D01*
M02*
