G75*
G70*
%OFA0B0*%
%FSLAX24Y24*%
%IPPOS*%
%LPD*%
%AMOC8*
5,1,8,0,0,1.08239X$1,22.5*
%
%ADD10C,0.0059*%
%ADD11R,0.2815X0.2815*%
%ADD12C,0.0062*%
%ADD13C,0.0064*%
%ADD14C,0.0063*%
%ADD15C,0.0061*%
%ADD16C,0.0060*%
%ADD17C,0.0082*%
%ADD18C,0.0617*%
%ADD19C,0.0577*%
%ADD20C,0.0799*%
%ADD21C,0.0060*%
%ADD22C,0.0413*%
D10*
X015062Y017474D02*
X015142Y017474D01*
X015142Y017238D01*
X015062Y017238D01*
X015062Y017474D01*
X015062Y017296D02*
X015142Y017296D01*
X015142Y017354D02*
X015062Y017354D01*
X015062Y017412D02*
X015142Y017412D01*
X015142Y017470D02*
X015062Y017470D01*
X015220Y017474D02*
X015300Y017474D01*
X015300Y017238D01*
X015220Y017238D01*
X015220Y017474D01*
X015220Y017296D02*
X015300Y017296D01*
X015300Y017354D02*
X015220Y017354D01*
X015220Y017412D02*
X015300Y017412D01*
X015300Y017470D02*
X015220Y017470D01*
X015377Y017474D02*
X015457Y017474D01*
X015457Y017238D01*
X015377Y017238D01*
X015377Y017474D01*
X015377Y017296D02*
X015457Y017296D01*
X015457Y017354D02*
X015377Y017354D01*
X015377Y017412D02*
X015457Y017412D01*
X015457Y017470D02*
X015377Y017470D01*
X015535Y017474D02*
X015615Y017474D01*
X015615Y017238D01*
X015535Y017238D01*
X015535Y017474D01*
X015535Y017296D02*
X015615Y017296D01*
X015615Y017354D02*
X015535Y017354D01*
X015535Y017412D02*
X015615Y017412D01*
X015615Y017470D02*
X015535Y017470D01*
X015692Y017474D02*
X015772Y017474D01*
X015772Y017238D01*
X015692Y017238D01*
X015692Y017474D01*
X015692Y017296D02*
X015772Y017296D01*
X015772Y017354D02*
X015692Y017354D01*
X015692Y017412D02*
X015772Y017412D01*
X015772Y017470D02*
X015692Y017470D01*
X015850Y017474D02*
X015930Y017474D01*
X015930Y017238D01*
X015850Y017238D01*
X015850Y017474D01*
X015850Y017296D02*
X015930Y017296D01*
X015930Y017354D02*
X015850Y017354D01*
X015850Y017412D02*
X015930Y017412D01*
X015930Y017470D02*
X015850Y017470D01*
X016007Y017474D02*
X016087Y017474D01*
X016087Y017238D01*
X016007Y017238D01*
X016007Y017474D01*
X016007Y017296D02*
X016087Y017296D01*
X016087Y017354D02*
X016007Y017354D01*
X016007Y017412D02*
X016087Y017412D01*
X016087Y017470D02*
X016007Y017470D01*
X016165Y017474D02*
X016245Y017474D01*
X016245Y017238D01*
X016165Y017238D01*
X016165Y017474D01*
X016165Y017296D02*
X016245Y017296D01*
X016245Y017354D02*
X016165Y017354D01*
X016165Y017412D02*
X016245Y017412D01*
X016245Y017470D02*
X016165Y017470D01*
X016322Y017474D02*
X016402Y017474D01*
X016402Y017238D01*
X016322Y017238D01*
X016322Y017474D01*
X016322Y017296D02*
X016402Y017296D01*
X016402Y017354D02*
X016322Y017354D01*
X016322Y017412D02*
X016402Y017412D01*
X016402Y017470D02*
X016322Y017470D01*
X016480Y017474D02*
X016560Y017474D01*
X016560Y017238D01*
X016480Y017238D01*
X016480Y017474D01*
X016480Y017296D02*
X016560Y017296D01*
X016560Y017354D02*
X016480Y017354D01*
X016480Y017412D02*
X016560Y017412D01*
X016560Y017470D02*
X016480Y017470D01*
X016637Y017474D02*
X016717Y017474D01*
X016717Y017238D01*
X016637Y017238D01*
X016637Y017474D01*
X016637Y017296D02*
X016717Y017296D01*
X016717Y017354D02*
X016637Y017354D01*
X016637Y017412D02*
X016717Y017412D01*
X016717Y017470D02*
X016637Y017470D01*
X016795Y017474D02*
X016875Y017474D01*
X016875Y017238D01*
X016795Y017238D01*
X016795Y017474D01*
X016795Y017296D02*
X016875Y017296D01*
X016875Y017354D02*
X016795Y017354D01*
X016795Y017412D02*
X016875Y017412D01*
X016875Y017470D02*
X016795Y017470D01*
X016952Y017474D02*
X017032Y017474D01*
X017032Y017238D01*
X016952Y017238D01*
X016952Y017474D01*
X016952Y017296D02*
X017032Y017296D01*
X017032Y017354D02*
X016952Y017354D01*
X016952Y017412D02*
X017032Y017412D01*
X017032Y017470D02*
X016952Y017470D01*
X017110Y017474D02*
X017190Y017474D01*
X017190Y017238D01*
X017110Y017238D01*
X017110Y017474D01*
X017110Y017296D02*
X017190Y017296D01*
X017190Y017354D02*
X017110Y017354D01*
X017110Y017412D02*
X017190Y017412D01*
X017190Y017470D02*
X017110Y017470D01*
X017267Y017474D02*
X017347Y017474D01*
X017347Y017238D01*
X017267Y017238D01*
X017267Y017474D01*
X017267Y017296D02*
X017347Y017296D01*
X017347Y017354D02*
X017267Y017354D01*
X017267Y017412D02*
X017347Y017412D01*
X017347Y017470D02*
X017267Y017470D01*
X017425Y017474D02*
X017505Y017474D01*
X017505Y017238D01*
X017425Y017238D01*
X017425Y017474D01*
X017425Y017296D02*
X017505Y017296D01*
X017505Y017354D02*
X017425Y017354D01*
X017425Y017412D02*
X017505Y017412D01*
X017505Y017470D02*
X017425Y017470D01*
X017582Y017474D02*
X017662Y017474D01*
X017662Y017238D01*
X017582Y017238D01*
X017582Y017474D01*
X017582Y017296D02*
X017662Y017296D01*
X017662Y017354D02*
X017582Y017354D01*
X017582Y017412D02*
X017662Y017412D01*
X017662Y017470D02*
X017582Y017470D01*
X017740Y017474D02*
X017820Y017474D01*
X017820Y017238D01*
X017740Y017238D01*
X017740Y017474D01*
X017740Y017296D02*
X017820Y017296D01*
X017820Y017354D02*
X017740Y017354D01*
X017740Y017412D02*
X017820Y017412D01*
X017820Y017470D02*
X017740Y017470D01*
X017897Y017474D02*
X017977Y017474D01*
X017977Y017238D01*
X017897Y017238D01*
X017897Y017474D01*
X017897Y017296D02*
X017977Y017296D01*
X017977Y017354D02*
X017897Y017354D01*
X017897Y017412D02*
X017977Y017412D01*
X017977Y017470D02*
X017897Y017470D01*
X018055Y017474D02*
X018135Y017474D01*
X018135Y017238D01*
X018055Y017238D01*
X018055Y017474D01*
X018055Y017296D02*
X018135Y017296D01*
X018135Y017354D02*
X018055Y017354D01*
X018055Y017412D02*
X018135Y017412D01*
X018135Y017470D02*
X018055Y017470D01*
X018212Y017474D02*
X018292Y017474D01*
X018292Y017238D01*
X018212Y017238D01*
X018212Y017474D01*
X018212Y017296D02*
X018292Y017296D01*
X018292Y017354D02*
X018212Y017354D01*
X018212Y017412D02*
X018292Y017412D01*
X018292Y017470D02*
X018212Y017470D01*
X018370Y017474D02*
X018450Y017474D01*
X018450Y017238D01*
X018370Y017238D01*
X018370Y017474D01*
X018370Y017296D02*
X018450Y017296D01*
X018450Y017354D02*
X018370Y017354D01*
X018370Y017412D02*
X018450Y017412D01*
X018450Y017470D02*
X018370Y017470D01*
X018571Y017595D02*
X018571Y017675D01*
X018807Y017675D01*
X018807Y017595D01*
X018571Y017595D01*
X018571Y017653D02*
X018807Y017653D01*
X018571Y017753D02*
X018571Y017833D01*
X018807Y017833D01*
X018807Y017753D01*
X018571Y017753D01*
X018571Y017811D02*
X018807Y017811D01*
X018571Y017910D02*
X018571Y017990D01*
X018807Y017990D01*
X018807Y017910D01*
X018571Y017910D01*
X018571Y017968D02*
X018807Y017968D01*
X018571Y018068D02*
X018571Y018148D01*
X018807Y018148D01*
X018807Y018068D01*
X018571Y018068D01*
X018571Y018126D02*
X018807Y018126D01*
X018571Y018225D02*
X018571Y018305D01*
X018807Y018305D01*
X018807Y018225D01*
X018571Y018225D01*
X018571Y018283D02*
X018807Y018283D01*
X018571Y018383D02*
X018571Y018463D01*
X018807Y018463D01*
X018807Y018383D01*
X018571Y018383D01*
X018571Y018441D02*
X018807Y018441D01*
X018571Y018540D02*
X018571Y018620D01*
X018807Y018620D01*
X018807Y018540D01*
X018571Y018540D01*
X018571Y018598D02*
X018807Y018598D01*
X018571Y018698D02*
X018571Y018778D01*
X018807Y018778D01*
X018807Y018698D01*
X018571Y018698D01*
X018571Y018756D02*
X018807Y018756D01*
X018571Y018855D02*
X018571Y018935D01*
X018807Y018935D01*
X018807Y018855D01*
X018571Y018855D01*
X018571Y018913D02*
X018807Y018913D01*
X018571Y019013D02*
X018571Y019093D01*
X018807Y019093D01*
X018807Y019013D01*
X018571Y019013D01*
X018571Y019071D02*
X018807Y019071D01*
X018571Y019170D02*
X018571Y019250D01*
X018807Y019250D01*
X018807Y019170D01*
X018571Y019170D01*
X018571Y019228D02*
X018807Y019228D01*
X018571Y019328D02*
X018571Y019408D01*
X018807Y019408D01*
X018807Y019328D01*
X018571Y019328D01*
X018571Y019386D02*
X018807Y019386D01*
X018571Y019485D02*
X018571Y019565D01*
X018807Y019565D01*
X018807Y019485D01*
X018571Y019485D01*
X018571Y019543D02*
X018807Y019543D01*
X018571Y019643D02*
X018571Y019723D01*
X018807Y019723D01*
X018807Y019643D01*
X018571Y019643D01*
X018571Y019701D02*
X018807Y019701D01*
X018571Y019800D02*
X018571Y019880D01*
X018807Y019880D01*
X018807Y019800D01*
X018571Y019800D01*
X018571Y019858D02*
X018807Y019858D01*
X018571Y019957D02*
X018571Y020037D01*
X018807Y020037D01*
X018807Y019957D01*
X018571Y019957D01*
X018571Y020015D02*
X018807Y020015D01*
X018571Y020115D02*
X018571Y020195D01*
X018807Y020195D01*
X018807Y020115D01*
X018571Y020115D01*
X018571Y020173D02*
X018807Y020173D01*
X018571Y020272D02*
X018571Y020352D01*
X018807Y020352D01*
X018807Y020272D01*
X018571Y020272D01*
X018571Y020330D02*
X018807Y020330D01*
X018571Y020430D02*
X018571Y020510D01*
X018807Y020510D01*
X018807Y020430D01*
X018571Y020430D01*
X018571Y020488D02*
X018807Y020488D01*
X018571Y020587D02*
X018571Y020667D01*
X018807Y020667D01*
X018807Y020587D01*
X018571Y020587D01*
X018571Y020645D02*
X018807Y020645D01*
X018571Y020745D02*
X018571Y020825D01*
X018807Y020825D01*
X018807Y020745D01*
X018571Y020745D01*
X018571Y020803D02*
X018807Y020803D01*
X018571Y020902D02*
X018571Y020982D01*
X018807Y020982D01*
X018807Y020902D01*
X018571Y020902D01*
X018571Y020960D02*
X018807Y020960D01*
X018450Y021332D02*
X018370Y021332D01*
X018450Y021332D02*
X018450Y021096D01*
X018370Y021096D01*
X018370Y021332D01*
X018370Y021154D02*
X018450Y021154D01*
X018450Y021212D02*
X018370Y021212D01*
X018370Y021270D02*
X018450Y021270D01*
X018450Y021328D02*
X018370Y021328D01*
X018292Y021332D02*
X018212Y021332D01*
X018292Y021332D02*
X018292Y021096D01*
X018212Y021096D01*
X018212Y021332D01*
X018212Y021154D02*
X018292Y021154D01*
X018292Y021212D02*
X018212Y021212D01*
X018212Y021270D02*
X018292Y021270D01*
X018292Y021328D02*
X018212Y021328D01*
X018135Y021332D02*
X018055Y021332D01*
X018135Y021332D02*
X018135Y021096D01*
X018055Y021096D01*
X018055Y021332D01*
X018055Y021154D02*
X018135Y021154D01*
X018135Y021212D02*
X018055Y021212D01*
X018055Y021270D02*
X018135Y021270D01*
X018135Y021328D02*
X018055Y021328D01*
X017977Y021332D02*
X017897Y021332D01*
X017977Y021332D02*
X017977Y021096D01*
X017897Y021096D01*
X017897Y021332D01*
X017897Y021154D02*
X017977Y021154D01*
X017977Y021212D02*
X017897Y021212D01*
X017897Y021270D02*
X017977Y021270D01*
X017977Y021328D02*
X017897Y021328D01*
X017820Y021332D02*
X017740Y021332D01*
X017820Y021332D02*
X017820Y021096D01*
X017740Y021096D01*
X017740Y021332D01*
X017740Y021154D02*
X017820Y021154D01*
X017820Y021212D02*
X017740Y021212D01*
X017740Y021270D02*
X017820Y021270D01*
X017820Y021328D02*
X017740Y021328D01*
X017662Y021332D02*
X017582Y021332D01*
X017662Y021332D02*
X017662Y021096D01*
X017582Y021096D01*
X017582Y021332D01*
X017582Y021154D02*
X017662Y021154D01*
X017662Y021212D02*
X017582Y021212D01*
X017582Y021270D02*
X017662Y021270D01*
X017662Y021328D02*
X017582Y021328D01*
X017505Y021332D02*
X017425Y021332D01*
X017505Y021332D02*
X017505Y021096D01*
X017425Y021096D01*
X017425Y021332D01*
X017425Y021154D02*
X017505Y021154D01*
X017505Y021212D02*
X017425Y021212D01*
X017425Y021270D02*
X017505Y021270D01*
X017505Y021328D02*
X017425Y021328D01*
X017347Y021332D02*
X017267Y021332D01*
X017347Y021332D02*
X017347Y021096D01*
X017267Y021096D01*
X017267Y021332D01*
X017267Y021154D02*
X017347Y021154D01*
X017347Y021212D02*
X017267Y021212D01*
X017267Y021270D02*
X017347Y021270D01*
X017347Y021328D02*
X017267Y021328D01*
X017190Y021332D02*
X017110Y021332D01*
X017190Y021332D02*
X017190Y021096D01*
X017110Y021096D01*
X017110Y021332D01*
X017110Y021154D02*
X017190Y021154D01*
X017190Y021212D02*
X017110Y021212D01*
X017110Y021270D02*
X017190Y021270D01*
X017190Y021328D02*
X017110Y021328D01*
X017032Y021332D02*
X016952Y021332D01*
X017032Y021332D02*
X017032Y021096D01*
X016952Y021096D01*
X016952Y021332D01*
X016952Y021154D02*
X017032Y021154D01*
X017032Y021212D02*
X016952Y021212D01*
X016952Y021270D02*
X017032Y021270D01*
X017032Y021328D02*
X016952Y021328D01*
X016875Y021332D02*
X016795Y021332D01*
X016875Y021332D02*
X016875Y021096D01*
X016795Y021096D01*
X016795Y021332D01*
X016795Y021154D02*
X016875Y021154D01*
X016875Y021212D02*
X016795Y021212D01*
X016795Y021270D02*
X016875Y021270D01*
X016875Y021328D02*
X016795Y021328D01*
X016717Y021332D02*
X016637Y021332D01*
X016717Y021332D02*
X016717Y021096D01*
X016637Y021096D01*
X016637Y021332D01*
X016637Y021154D02*
X016717Y021154D01*
X016717Y021212D02*
X016637Y021212D01*
X016637Y021270D02*
X016717Y021270D01*
X016717Y021328D02*
X016637Y021328D01*
X016560Y021332D02*
X016480Y021332D01*
X016560Y021332D02*
X016560Y021096D01*
X016480Y021096D01*
X016480Y021332D01*
X016480Y021154D02*
X016560Y021154D01*
X016560Y021212D02*
X016480Y021212D01*
X016480Y021270D02*
X016560Y021270D01*
X016560Y021328D02*
X016480Y021328D01*
X016402Y021332D02*
X016322Y021332D01*
X016402Y021332D02*
X016402Y021096D01*
X016322Y021096D01*
X016322Y021332D01*
X016322Y021154D02*
X016402Y021154D01*
X016402Y021212D02*
X016322Y021212D01*
X016322Y021270D02*
X016402Y021270D01*
X016402Y021328D02*
X016322Y021328D01*
X016245Y021332D02*
X016165Y021332D01*
X016245Y021332D02*
X016245Y021096D01*
X016165Y021096D01*
X016165Y021332D01*
X016165Y021154D02*
X016245Y021154D01*
X016245Y021212D02*
X016165Y021212D01*
X016165Y021270D02*
X016245Y021270D01*
X016245Y021328D02*
X016165Y021328D01*
X016087Y021332D02*
X016007Y021332D01*
X016087Y021332D02*
X016087Y021096D01*
X016007Y021096D01*
X016007Y021332D01*
X016007Y021154D02*
X016087Y021154D01*
X016087Y021212D02*
X016007Y021212D01*
X016007Y021270D02*
X016087Y021270D01*
X016087Y021328D02*
X016007Y021328D01*
X015930Y021332D02*
X015850Y021332D01*
X015930Y021332D02*
X015930Y021096D01*
X015850Y021096D01*
X015850Y021332D01*
X015850Y021154D02*
X015930Y021154D01*
X015930Y021212D02*
X015850Y021212D01*
X015850Y021270D02*
X015930Y021270D01*
X015930Y021328D02*
X015850Y021328D01*
X015772Y021332D02*
X015692Y021332D01*
X015772Y021332D02*
X015772Y021096D01*
X015692Y021096D01*
X015692Y021332D01*
X015692Y021154D02*
X015772Y021154D01*
X015772Y021212D02*
X015692Y021212D01*
X015692Y021270D02*
X015772Y021270D01*
X015772Y021328D02*
X015692Y021328D01*
X015615Y021332D02*
X015535Y021332D01*
X015615Y021332D02*
X015615Y021096D01*
X015535Y021096D01*
X015535Y021332D01*
X015535Y021154D02*
X015615Y021154D01*
X015615Y021212D02*
X015535Y021212D01*
X015535Y021270D02*
X015615Y021270D01*
X015615Y021328D02*
X015535Y021328D01*
X015457Y021332D02*
X015377Y021332D01*
X015457Y021332D02*
X015457Y021096D01*
X015377Y021096D01*
X015377Y021332D01*
X015377Y021154D02*
X015457Y021154D01*
X015457Y021212D02*
X015377Y021212D01*
X015377Y021270D02*
X015457Y021270D01*
X015457Y021328D02*
X015377Y021328D01*
X015300Y021332D02*
X015220Y021332D01*
X015300Y021332D02*
X015300Y021096D01*
X015220Y021096D01*
X015220Y021332D01*
X015220Y021154D02*
X015300Y021154D01*
X015300Y021212D02*
X015220Y021212D01*
X015220Y021270D02*
X015300Y021270D01*
X015300Y021328D02*
X015220Y021328D01*
X015142Y021332D02*
X015062Y021332D01*
X015142Y021332D02*
X015142Y021096D01*
X015062Y021096D01*
X015062Y021332D01*
X015062Y021154D02*
X015142Y021154D01*
X015142Y021212D02*
X015062Y021212D01*
X015062Y021270D02*
X015142Y021270D01*
X015142Y021328D02*
X015062Y021328D01*
X014941Y020982D02*
X014941Y020902D01*
X014705Y020902D01*
X014705Y020982D01*
X014941Y020982D01*
X014941Y020960D02*
X014705Y020960D01*
X014941Y020825D02*
X014941Y020745D01*
X014705Y020745D01*
X014705Y020825D01*
X014941Y020825D01*
X014941Y020803D02*
X014705Y020803D01*
X014941Y020667D02*
X014941Y020587D01*
X014705Y020587D01*
X014705Y020667D01*
X014941Y020667D01*
X014941Y020645D02*
X014705Y020645D01*
X014941Y020510D02*
X014941Y020430D01*
X014705Y020430D01*
X014705Y020510D01*
X014941Y020510D01*
X014941Y020488D02*
X014705Y020488D01*
X014941Y020352D02*
X014941Y020272D01*
X014705Y020272D01*
X014705Y020352D01*
X014941Y020352D01*
X014941Y020330D02*
X014705Y020330D01*
X014941Y020195D02*
X014941Y020115D01*
X014705Y020115D01*
X014705Y020195D01*
X014941Y020195D01*
X014941Y020173D02*
X014705Y020173D01*
X014941Y020037D02*
X014941Y019957D01*
X014705Y019957D01*
X014705Y020037D01*
X014941Y020037D01*
X014941Y020015D02*
X014705Y020015D01*
X014941Y019880D02*
X014941Y019800D01*
X014705Y019800D01*
X014705Y019880D01*
X014941Y019880D01*
X014941Y019858D02*
X014705Y019858D01*
X014941Y019723D02*
X014941Y019643D01*
X014705Y019643D01*
X014705Y019723D01*
X014941Y019723D01*
X014941Y019701D02*
X014705Y019701D01*
X014941Y019565D02*
X014941Y019485D01*
X014705Y019485D01*
X014705Y019565D01*
X014941Y019565D01*
X014941Y019543D02*
X014705Y019543D01*
X014941Y019408D02*
X014941Y019328D01*
X014705Y019328D01*
X014705Y019408D01*
X014941Y019408D01*
X014941Y019386D02*
X014705Y019386D01*
X014941Y019250D02*
X014941Y019170D01*
X014705Y019170D01*
X014705Y019250D01*
X014941Y019250D01*
X014941Y019228D02*
X014705Y019228D01*
X014941Y019093D02*
X014941Y019013D01*
X014705Y019013D01*
X014705Y019093D01*
X014941Y019093D01*
X014941Y019071D02*
X014705Y019071D01*
X014941Y018935D02*
X014941Y018855D01*
X014705Y018855D01*
X014705Y018935D01*
X014941Y018935D01*
X014941Y018913D02*
X014705Y018913D01*
X014941Y018778D02*
X014941Y018698D01*
X014705Y018698D01*
X014705Y018778D01*
X014941Y018778D01*
X014941Y018756D02*
X014705Y018756D01*
X014941Y018620D02*
X014941Y018540D01*
X014705Y018540D01*
X014705Y018620D01*
X014941Y018620D01*
X014941Y018598D02*
X014705Y018598D01*
X014941Y018463D02*
X014941Y018383D01*
X014705Y018383D01*
X014705Y018463D01*
X014941Y018463D01*
X014941Y018441D02*
X014705Y018441D01*
X014941Y018305D02*
X014941Y018225D01*
X014705Y018225D01*
X014705Y018305D01*
X014941Y018305D01*
X014941Y018283D02*
X014705Y018283D01*
X014941Y018148D02*
X014941Y018068D01*
X014705Y018068D01*
X014705Y018148D01*
X014941Y018148D01*
X014941Y018126D02*
X014705Y018126D01*
X014941Y017990D02*
X014941Y017910D01*
X014705Y017910D01*
X014705Y017990D01*
X014941Y017990D01*
X014941Y017968D02*
X014705Y017968D01*
X014941Y017833D02*
X014941Y017753D01*
X014705Y017753D01*
X014705Y017833D01*
X014941Y017833D01*
X014941Y017811D02*
X014705Y017811D01*
X014941Y017675D02*
X014941Y017595D01*
X014705Y017595D01*
X014705Y017675D01*
X014941Y017675D01*
X014941Y017653D02*
X014705Y017653D01*
D11*
X016756Y019289D03*
D12*
X013985Y017082D02*
X013985Y016456D01*
X013279Y016456D01*
X013279Y017082D01*
X013985Y017082D01*
X013985Y016517D02*
X013279Y016517D01*
X013279Y016578D02*
X013985Y016578D01*
X013985Y016639D02*
X013279Y016639D01*
X013279Y016700D02*
X013985Y016700D01*
X013985Y016761D02*
X013279Y016761D01*
X013279Y016822D02*
X013985Y016822D01*
X013985Y016883D02*
X013279Y016883D01*
X013279Y016944D02*
X013985Y016944D01*
X013985Y017005D02*
X013279Y017005D01*
X013279Y017066D02*
X013985Y017066D01*
X013985Y015980D02*
X013985Y015354D01*
X013279Y015354D01*
X013279Y015980D01*
X013985Y015980D01*
X013985Y015415D02*
X013279Y015415D01*
X013279Y015476D02*
X013985Y015476D01*
X013985Y015537D02*
X013279Y015537D01*
X013279Y015598D02*
X013985Y015598D01*
X013985Y015659D02*
X013279Y015659D01*
X013279Y015720D02*
X013985Y015720D01*
X013985Y015781D02*
X013279Y015781D01*
X013279Y015842D02*
X013985Y015842D01*
X013985Y015903D02*
X013279Y015903D01*
X013279Y015964D02*
X013985Y015964D01*
X012476Y012433D02*
X011850Y012433D01*
X012476Y012433D02*
X012476Y011727D01*
X011850Y011727D01*
X011850Y012433D01*
X011850Y011788D02*
X012476Y011788D01*
X012476Y011849D02*
X011850Y011849D01*
X011850Y011910D02*
X012476Y011910D01*
X012476Y011971D02*
X011850Y011971D01*
X011850Y012032D02*
X012476Y012032D01*
X012476Y012093D02*
X011850Y012093D01*
X011850Y012154D02*
X012476Y012154D01*
X012476Y012215D02*
X011850Y012215D01*
X011850Y012276D02*
X012476Y012276D01*
X012476Y012337D02*
X011850Y012337D01*
X011850Y012398D02*
X012476Y012398D01*
X011374Y012433D02*
X010748Y012433D01*
X011374Y012433D02*
X011374Y011727D01*
X010748Y011727D01*
X010748Y012433D01*
X010748Y011788D02*
X011374Y011788D01*
X011374Y011849D02*
X010748Y011849D01*
X010748Y011910D02*
X011374Y011910D01*
X011374Y011971D02*
X010748Y011971D01*
X010748Y012032D02*
X011374Y012032D01*
X011374Y012093D02*
X010748Y012093D01*
X010748Y012154D02*
X011374Y012154D01*
X011374Y012215D02*
X010748Y012215D01*
X010748Y012276D02*
X011374Y012276D01*
X011374Y012337D02*
X010748Y012337D01*
X010748Y012398D02*
X011374Y012398D01*
X009740Y024204D02*
X009740Y024830D01*
X010446Y024830D01*
X010446Y024204D01*
X009740Y024204D01*
X009740Y024265D02*
X010446Y024265D01*
X010446Y024326D02*
X009740Y024326D01*
X009740Y024387D02*
X010446Y024387D01*
X010446Y024448D02*
X009740Y024448D01*
X009740Y024509D02*
X010446Y024509D01*
X010446Y024570D02*
X009740Y024570D01*
X009740Y024631D02*
X010446Y024631D01*
X010446Y024692D02*
X009740Y024692D01*
X009740Y024753D02*
X010446Y024753D01*
X010446Y024814D02*
X009740Y024814D01*
X009740Y025307D02*
X009740Y025933D01*
X010446Y025933D01*
X010446Y025307D01*
X009740Y025307D01*
X009740Y025368D02*
X010446Y025368D01*
X010446Y025429D02*
X009740Y025429D01*
X009740Y025490D02*
X010446Y025490D01*
X010446Y025551D02*
X009740Y025551D01*
X009740Y025612D02*
X010446Y025612D01*
X010446Y025673D02*
X009740Y025673D01*
X009740Y025734D02*
X010446Y025734D01*
X010446Y025795D02*
X009740Y025795D01*
X009740Y025856D02*
X010446Y025856D01*
X010446Y025917D02*
X009740Y025917D01*
X007697Y025992D02*
X007071Y025992D01*
X007697Y025992D02*
X007697Y025286D01*
X007071Y025286D01*
X007071Y025992D01*
X007071Y025347D02*
X007697Y025347D01*
X007697Y025408D02*
X007071Y025408D01*
X007071Y025469D02*
X007697Y025469D01*
X007697Y025530D02*
X007071Y025530D01*
X007071Y025591D02*
X007697Y025591D01*
X007697Y025652D02*
X007071Y025652D01*
X007071Y025713D02*
X007697Y025713D01*
X007697Y025774D02*
X007071Y025774D01*
X007071Y025835D02*
X007697Y025835D01*
X007697Y025896D02*
X007071Y025896D01*
X007071Y025957D02*
X007697Y025957D01*
X006595Y025992D02*
X005969Y025992D01*
X006595Y025992D02*
X006595Y025286D01*
X005969Y025286D01*
X005969Y025992D01*
X005969Y025347D02*
X006595Y025347D01*
X006595Y025408D02*
X005969Y025408D01*
X005969Y025469D02*
X006595Y025469D01*
X006595Y025530D02*
X005969Y025530D01*
X005969Y025591D02*
X006595Y025591D01*
X006595Y025652D02*
X005969Y025652D01*
X005969Y025713D02*
X006595Y025713D01*
X006595Y025774D02*
X005969Y025774D01*
X005969Y025835D02*
X006595Y025835D01*
X006595Y025896D02*
X005969Y025896D01*
X005969Y025957D02*
X006595Y025957D01*
X028873Y015978D02*
X028873Y015352D01*
X028167Y015352D01*
X028167Y015978D01*
X028873Y015978D01*
X028873Y015413D02*
X028167Y015413D01*
X028167Y015474D02*
X028873Y015474D01*
X028873Y015535D02*
X028167Y015535D01*
X028167Y015596D02*
X028873Y015596D01*
X028873Y015657D02*
X028167Y015657D01*
X028167Y015718D02*
X028873Y015718D01*
X028873Y015779D02*
X028167Y015779D01*
X028167Y015840D02*
X028873Y015840D01*
X028873Y015901D02*
X028167Y015901D01*
X028167Y015962D02*
X028873Y015962D01*
X028873Y014875D02*
X028873Y014249D01*
X028167Y014249D01*
X028167Y014875D01*
X028873Y014875D01*
X028873Y014310D02*
X028167Y014310D01*
X028167Y014371D02*
X028873Y014371D01*
X028873Y014432D02*
X028167Y014432D01*
X028167Y014493D02*
X028873Y014493D01*
X028873Y014554D02*
X028167Y014554D01*
X028167Y014615D02*
X028873Y014615D01*
X028873Y014676D02*
X028167Y014676D01*
X028167Y014737D02*
X028873Y014737D01*
X028873Y014798D02*
X028167Y014798D01*
X028167Y014859D02*
X028873Y014859D01*
X029066Y012271D02*
X029066Y011645D01*
X028360Y011645D01*
X028360Y012271D01*
X029066Y012271D01*
X029066Y011706D02*
X028360Y011706D01*
X028360Y011767D02*
X029066Y011767D01*
X029066Y011828D02*
X028360Y011828D01*
X028360Y011889D02*
X029066Y011889D01*
X029066Y011950D02*
X028360Y011950D01*
X028360Y012011D02*
X029066Y012011D01*
X029066Y012072D02*
X028360Y012072D01*
X028360Y012133D02*
X029066Y012133D01*
X029066Y012194D02*
X028360Y012194D01*
X028360Y012255D02*
X029066Y012255D01*
X029066Y011169D02*
X029066Y010543D01*
X028360Y010543D01*
X028360Y011169D01*
X029066Y011169D01*
X029066Y010604D02*
X028360Y010604D01*
X028360Y010665D02*
X029066Y010665D01*
X029066Y010726D02*
X028360Y010726D01*
X028360Y010787D02*
X029066Y010787D01*
X029066Y010848D02*
X028360Y010848D01*
X028360Y010909D02*
X029066Y010909D01*
X029066Y010970D02*
X028360Y010970D01*
X028360Y011031D02*
X029066Y011031D01*
X029066Y011092D02*
X028360Y011092D01*
X028360Y011153D02*
X029066Y011153D01*
D13*
X023617Y003236D02*
X023617Y002770D01*
X023617Y003236D02*
X024399Y003236D01*
X024399Y002770D01*
X023617Y002770D01*
X023617Y002833D02*
X024399Y002833D01*
X024399Y002896D02*
X023617Y002896D01*
X023617Y002959D02*
X024399Y002959D01*
X024399Y003022D02*
X023617Y003022D01*
X023617Y003085D02*
X024399Y003085D01*
X024399Y003148D02*
X023617Y003148D01*
X023617Y003211D02*
X024399Y003211D01*
X023617Y001977D02*
X023617Y001511D01*
X023617Y001977D02*
X024399Y001977D01*
X024399Y001511D01*
X023617Y001511D01*
X023617Y001574D02*
X024399Y001574D01*
X024399Y001637D02*
X023617Y001637D01*
X023617Y001700D02*
X024399Y001700D01*
X024399Y001763D02*
X023617Y001763D01*
X023617Y001826D02*
X024399Y001826D01*
X024399Y001889D02*
X023617Y001889D01*
X023617Y001952D02*
X024399Y001952D01*
X017091Y002058D02*
X017091Y002524D01*
X017873Y002524D01*
X017873Y002058D01*
X017091Y002058D01*
X017091Y002121D02*
X017873Y002121D01*
X017873Y002184D02*
X017091Y002184D01*
X017091Y002247D02*
X017873Y002247D01*
X017873Y002310D02*
X017091Y002310D01*
X017091Y002373D02*
X017873Y002373D01*
X017873Y002436D02*
X017091Y002436D01*
X017091Y002499D02*
X017873Y002499D01*
X017091Y003318D02*
X017091Y003784D01*
X017873Y003784D01*
X017873Y003318D01*
X017091Y003318D01*
X017091Y003381D02*
X017873Y003381D01*
X017873Y003444D02*
X017091Y003444D01*
X017091Y003507D02*
X017873Y003507D01*
X017873Y003570D02*
X017091Y003570D01*
X017091Y003633D02*
X017873Y003633D01*
X017873Y003696D02*
X017091Y003696D01*
X017091Y003759D02*
X017873Y003759D01*
X006816Y006028D02*
X006350Y006028D01*
X006350Y006810D01*
X006816Y006810D01*
X006816Y006028D01*
X006816Y006091D02*
X006350Y006091D01*
X006350Y006154D02*
X006816Y006154D01*
X006816Y006217D02*
X006350Y006217D01*
X006350Y006280D02*
X006816Y006280D01*
X006816Y006343D02*
X006350Y006343D01*
X006350Y006406D02*
X006816Y006406D01*
X006816Y006469D02*
X006350Y006469D01*
X006350Y006532D02*
X006816Y006532D01*
X006816Y006595D02*
X006350Y006595D01*
X006350Y006658D02*
X006816Y006658D01*
X006816Y006721D02*
X006350Y006721D01*
X006350Y006784D02*
X006816Y006784D01*
X005556Y006028D02*
X005090Y006028D01*
X005090Y006810D01*
X005556Y006810D01*
X005556Y006028D01*
X005556Y006091D02*
X005090Y006091D01*
X005090Y006154D02*
X005556Y006154D01*
X005556Y006217D02*
X005090Y006217D01*
X005090Y006280D02*
X005556Y006280D01*
X005556Y006343D02*
X005090Y006343D01*
X005090Y006406D02*
X005556Y006406D01*
X005556Y006469D02*
X005090Y006469D01*
X005090Y006532D02*
X005556Y006532D01*
X005556Y006595D02*
X005090Y006595D01*
X005090Y006658D02*
X005556Y006658D01*
X005556Y006721D02*
X005090Y006721D01*
X005090Y006784D02*
X005556Y006784D01*
D14*
X011646Y006651D02*
X011646Y007081D01*
X011646Y006651D02*
X011256Y006651D01*
X011256Y007081D01*
X011646Y007081D01*
X011646Y006713D02*
X011256Y006713D01*
X011256Y006775D02*
X011646Y006775D01*
X011646Y006837D02*
X011256Y006837D01*
X011256Y006899D02*
X011646Y006899D01*
X011646Y006961D02*
X011256Y006961D01*
X011256Y007023D02*
X011646Y007023D01*
X011646Y007320D02*
X011646Y007750D01*
X011646Y007320D02*
X011256Y007320D01*
X011256Y007750D01*
X011646Y007750D01*
X011646Y007382D02*
X011256Y007382D01*
X011256Y007444D02*
X011646Y007444D01*
X011646Y007506D02*
X011256Y007506D01*
X011256Y007568D02*
X011646Y007568D01*
X011646Y007630D02*
X011256Y007630D01*
X011256Y007692D02*
X011646Y007692D01*
X012610Y007770D02*
X012610Y007340D01*
X012220Y007340D01*
X012220Y007770D01*
X012610Y007770D01*
X012610Y007402D02*
X012220Y007402D01*
X012220Y007464D02*
X012610Y007464D01*
X012610Y007526D02*
X012220Y007526D01*
X012220Y007588D02*
X012610Y007588D01*
X012610Y007650D02*
X012220Y007650D01*
X012220Y007712D02*
X012610Y007712D01*
X012610Y007100D02*
X012610Y006670D01*
X012220Y006670D01*
X012220Y007100D01*
X012610Y007100D01*
X012610Y006732D02*
X012220Y006732D01*
X012220Y006794D02*
X012610Y006794D01*
X012610Y006856D02*
X012220Y006856D01*
X012220Y006918D02*
X012610Y006918D01*
X012610Y006980D02*
X012220Y006980D01*
X012220Y007042D02*
X012610Y007042D01*
X015611Y004279D02*
X015611Y003889D01*
X014275Y003889D01*
X014275Y004279D01*
X015611Y004279D01*
X015611Y003951D02*
X014275Y003951D01*
X014275Y004013D02*
X015611Y004013D01*
X015611Y004075D02*
X014275Y004075D01*
X014275Y004137D02*
X015611Y004137D01*
X015611Y004199D02*
X014275Y004199D01*
X014275Y004261D02*
X015611Y004261D01*
X015611Y003279D02*
X015611Y002889D01*
X014275Y002889D01*
X014275Y003279D01*
X015611Y003279D01*
X015611Y002951D02*
X014275Y002951D01*
X014275Y003013D02*
X015611Y003013D01*
X015611Y003075D02*
X014275Y003075D01*
X014275Y003137D02*
X015611Y003137D01*
X015611Y003199D02*
X014275Y003199D01*
X014275Y003261D02*
X015611Y003261D01*
X015611Y002279D02*
X015611Y001889D01*
X014275Y001889D01*
X014275Y002279D01*
X015611Y002279D01*
X015611Y001951D02*
X014275Y001951D01*
X014275Y002013D02*
X015611Y002013D01*
X015611Y002075D02*
X014275Y002075D01*
X014275Y002137D02*
X015611Y002137D01*
X015611Y002199D02*
X014275Y002199D01*
X014275Y002261D02*
X015611Y002261D01*
X020112Y014519D02*
X020542Y014519D01*
X020112Y014519D02*
X020112Y014909D01*
X020542Y014909D01*
X020542Y014519D01*
X020542Y014581D02*
X020112Y014581D01*
X020112Y014643D02*
X020542Y014643D01*
X020542Y014705D02*
X020112Y014705D01*
X020112Y014767D02*
X020542Y014767D01*
X020542Y014829D02*
X020112Y014829D01*
X020112Y014891D02*
X020542Y014891D01*
X020781Y014519D02*
X021211Y014519D01*
X020781Y014519D02*
X020781Y014909D01*
X021211Y014909D01*
X021211Y014519D01*
X021211Y014581D02*
X020781Y014581D01*
X020781Y014643D02*
X021211Y014643D01*
X021211Y014705D02*
X020781Y014705D01*
X020781Y014767D02*
X021211Y014767D01*
X021211Y014829D02*
X020781Y014829D01*
X020781Y014891D02*
X021211Y014891D01*
X019504Y024338D02*
X019074Y024338D01*
X019074Y024728D01*
X019504Y024728D01*
X019504Y024338D01*
X019504Y024400D02*
X019074Y024400D01*
X019074Y024462D02*
X019504Y024462D01*
X019504Y024524D02*
X019074Y024524D01*
X019074Y024586D02*
X019504Y024586D01*
X019504Y024648D02*
X019074Y024648D01*
X019074Y024710D02*
X019504Y024710D01*
X018835Y024338D02*
X018405Y024338D01*
X018405Y024728D01*
X018835Y024728D01*
X018835Y024338D01*
X018835Y024400D02*
X018405Y024400D01*
X018405Y024462D02*
X018835Y024462D01*
X018835Y024524D02*
X018405Y024524D01*
X018405Y024586D02*
X018835Y024586D01*
X018835Y024648D02*
X018405Y024648D01*
X018405Y024710D02*
X018835Y024710D01*
D15*
X005450Y005008D02*
X005450Y003610D01*
X004752Y003610D01*
X004752Y005008D01*
X005450Y005008D01*
X005450Y003670D02*
X004752Y003670D01*
X004752Y003730D02*
X005450Y003730D01*
X005450Y003790D02*
X004752Y003790D01*
X004752Y003850D02*
X005450Y003850D01*
X005450Y003910D02*
X004752Y003910D01*
X004752Y003970D02*
X005450Y003970D01*
X005450Y004030D02*
X004752Y004030D01*
X004752Y004090D02*
X005450Y004090D01*
X005450Y004150D02*
X004752Y004150D01*
X004752Y004210D02*
X005450Y004210D01*
X005450Y004270D02*
X004752Y004270D01*
X004752Y004330D02*
X005450Y004330D01*
X005450Y004390D02*
X004752Y004390D01*
X004752Y004450D02*
X005450Y004450D01*
X005450Y004510D02*
X004752Y004510D01*
X004752Y004570D02*
X005450Y004570D01*
X005450Y004630D02*
X004752Y004630D01*
X004752Y004690D02*
X005450Y004690D01*
X005450Y004750D02*
X004752Y004750D01*
X004752Y004810D02*
X005450Y004810D01*
X005450Y004870D02*
X004752Y004870D01*
X004752Y004930D02*
X005450Y004930D01*
X005450Y004990D02*
X004752Y004990D01*
X007850Y005008D02*
X007850Y003610D01*
X007152Y003610D01*
X007152Y005008D01*
X007850Y005008D01*
X007850Y003670D02*
X007152Y003670D01*
X007152Y003730D02*
X007850Y003730D01*
X007850Y003790D02*
X007152Y003790D01*
X007152Y003850D02*
X007850Y003850D01*
X007850Y003910D02*
X007152Y003910D01*
X007152Y003970D02*
X007850Y003970D01*
X007850Y004030D02*
X007152Y004030D01*
X007152Y004090D02*
X007850Y004090D01*
X007850Y004150D02*
X007152Y004150D01*
X007152Y004210D02*
X007850Y004210D01*
X007850Y004270D02*
X007152Y004270D01*
X007152Y004330D02*
X007850Y004330D01*
X007850Y004390D02*
X007152Y004390D01*
X007152Y004450D02*
X007850Y004450D01*
X007850Y004510D02*
X007152Y004510D01*
X007152Y004570D02*
X007850Y004570D01*
X007850Y004630D02*
X007152Y004630D01*
X007152Y004690D02*
X007850Y004690D01*
X007850Y004750D02*
X007152Y004750D01*
X007152Y004810D02*
X007850Y004810D01*
X007850Y004870D02*
X007152Y004870D01*
X007152Y004930D02*
X007850Y004930D01*
X007850Y004990D02*
X007152Y004990D01*
X019453Y003784D02*
X020851Y003784D01*
X019453Y003784D02*
X019453Y004482D01*
X020851Y004482D01*
X020851Y003784D01*
X020851Y003844D02*
X019453Y003844D01*
X019453Y003904D02*
X020851Y003904D01*
X020851Y003964D02*
X019453Y003964D01*
X019453Y004024D02*
X020851Y004024D01*
X020851Y004084D02*
X019453Y004084D01*
X019453Y004144D02*
X020851Y004144D01*
X020851Y004204D02*
X019453Y004204D01*
X019453Y004264D02*
X020851Y004264D01*
X020851Y004324D02*
X019453Y004324D01*
X019453Y004384D02*
X020851Y004384D01*
X020851Y004444D02*
X019453Y004444D01*
X019453Y001384D02*
X020851Y001384D01*
X019453Y001384D02*
X019453Y002082D01*
X020851Y002082D01*
X020851Y001384D01*
X020851Y001444D02*
X019453Y001444D01*
X019453Y001504D02*
X020851Y001504D01*
X020851Y001564D02*
X019453Y001564D01*
X019453Y001624D02*
X020851Y001624D01*
X020851Y001684D02*
X019453Y001684D01*
X019453Y001744D02*
X020851Y001744D01*
X020851Y001804D02*
X019453Y001804D01*
X019453Y001864D02*
X020851Y001864D01*
X020851Y001924D02*
X019453Y001924D01*
X019453Y001984D02*
X020851Y001984D01*
X020851Y002044D02*
X019453Y002044D01*
X008581Y023491D02*
X008581Y024889D01*
X008581Y023491D02*
X007883Y023491D01*
X007883Y024889D01*
X008581Y024889D01*
X008581Y023551D02*
X007883Y023551D01*
X007883Y023611D02*
X008581Y023611D01*
X008581Y023671D02*
X007883Y023671D01*
X007883Y023731D02*
X008581Y023731D01*
X008581Y023791D02*
X007883Y023791D01*
X007883Y023851D02*
X008581Y023851D01*
X008581Y023911D02*
X007883Y023911D01*
X007883Y023971D02*
X008581Y023971D01*
X008581Y024031D02*
X007883Y024031D01*
X007883Y024091D02*
X008581Y024091D01*
X008581Y024151D02*
X007883Y024151D01*
X007883Y024211D02*
X008581Y024211D01*
X008581Y024271D02*
X007883Y024271D01*
X007883Y024331D02*
X008581Y024331D01*
X008581Y024391D02*
X007883Y024391D01*
X007883Y024451D02*
X008581Y024451D01*
X008581Y024511D02*
X007883Y024511D01*
X007883Y024571D02*
X008581Y024571D01*
X008581Y024631D02*
X007883Y024631D01*
X007883Y024691D02*
X008581Y024691D01*
X008581Y024751D02*
X007883Y024751D01*
X007883Y024811D02*
X008581Y024811D01*
X008581Y024871D02*
X007883Y024871D01*
X006181Y024889D02*
X006181Y023491D01*
X005483Y023491D01*
X005483Y024889D01*
X006181Y024889D01*
X006181Y023551D02*
X005483Y023551D01*
X005483Y023611D02*
X006181Y023611D01*
X006181Y023671D02*
X005483Y023671D01*
X005483Y023731D02*
X006181Y023731D01*
X006181Y023791D02*
X005483Y023791D01*
X005483Y023851D02*
X006181Y023851D01*
X006181Y023911D02*
X005483Y023911D01*
X005483Y023971D02*
X006181Y023971D01*
X006181Y024031D02*
X005483Y024031D01*
X005483Y024091D02*
X006181Y024091D01*
X006181Y024151D02*
X005483Y024151D01*
X005483Y024211D02*
X006181Y024211D01*
X006181Y024271D02*
X005483Y024271D01*
X005483Y024331D02*
X006181Y024331D01*
X006181Y024391D02*
X005483Y024391D01*
X005483Y024451D02*
X006181Y024451D01*
X006181Y024511D02*
X005483Y024511D01*
X005483Y024571D02*
X006181Y024571D01*
X006181Y024631D02*
X005483Y024631D01*
X005483Y024691D02*
X006181Y024691D01*
X006181Y024751D02*
X005483Y024751D01*
X005483Y024811D02*
X006181Y024811D01*
X006181Y024871D02*
X005483Y024871D01*
D16*
X011383Y025414D02*
X011621Y025414D01*
X011621Y024546D01*
X011383Y024546D01*
X011383Y025414D01*
X011383Y024605D02*
X011621Y024605D01*
X011621Y024664D02*
X011383Y024664D01*
X011383Y024723D02*
X011621Y024723D01*
X011621Y024782D02*
X011383Y024782D01*
X011383Y024841D02*
X011621Y024841D01*
X011621Y024900D02*
X011383Y024900D01*
X011383Y024959D02*
X011621Y024959D01*
X011621Y025018D02*
X011383Y025018D01*
X011383Y025077D02*
X011621Y025077D01*
X011621Y025136D02*
X011383Y025136D01*
X011383Y025195D02*
X011621Y025195D01*
X011621Y025254D02*
X011383Y025254D01*
X011383Y025313D02*
X011621Y025313D01*
X011621Y025372D02*
X011383Y025372D01*
X011883Y025414D02*
X012121Y025414D01*
X012121Y024546D01*
X011883Y024546D01*
X011883Y025414D01*
X011883Y024605D02*
X012121Y024605D01*
X012121Y024664D02*
X011883Y024664D01*
X011883Y024723D02*
X012121Y024723D01*
X012121Y024782D02*
X011883Y024782D01*
X011883Y024841D02*
X012121Y024841D01*
X012121Y024900D02*
X011883Y024900D01*
X011883Y024959D02*
X012121Y024959D01*
X012121Y025018D02*
X011883Y025018D01*
X011883Y025077D02*
X012121Y025077D01*
X012121Y025136D02*
X011883Y025136D01*
X011883Y025195D02*
X012121Y025195D01*
X012121Y025254D02*
X011883Y025254D01*
X011883Y025313D02*
X012121Y025313D01*
X012121Y025372D02*
X011883Y025372D01*
X012383Y025414D02*
X012621Y025414D01*
X012621Y024546D01*
X012383Y024546D01*
X012383Y025414D01*
X012383Y024605D02*
X012621Y024605D01*
X012621Y024664D02*
X012383Y024664D01*
X012383Y024723D02*
X012621Y024723D01*
X012621Y024782D02*
X012383Y024782D01*
X012383Y024841D02*
X012621Y024841D01*
X012621Y024900D02*
X012383Y024900D01*
X012383Y024959D02*
X012621Y024959D01*
X012621Y025018D02*
X012383Y025018D01*
X012383Y025077D02*
X012621Y025077D01*
X012621Y025136D02*
X012383Y025136D01*
X012383Y025195D02*
X012621Y025195D01*
X012621Y025254D02*
X012383Y025254D01*
X012383Y025313D02*
X012621Y025313D01*
X012621Y025372D02*
X012383Y025372D01*
X012883Y025414D02*
X013121Y025414D01*
X013121Y024546D01*
X012883Y024546D01*
X012883Y025414D01*
X012883Y024605D02*
X013121Y024605D01*
X013121Y024664D02*
X012883Y024664D01*
X012883Y024723D02*
X013121Y024723D01*
X013121Y024782D02*
X012883Y024782D01*
X012883Y024841D02*
X013121Y024841D01*
X013121Y024900D02*
X012883Y024900D01*
X012883Y024959D02*
X013121Y024959D01*
X013121Y025018D02*
X012883Y025018D01*
X012883Y025077D02*
X013121Y025077D01*
X013121Y025136D02*
X012883Y025136D01*
X012883Y025195D02*
X013121Y025195D01*
X013121Y025254D02*
X012883Y025254D01*
X012883Y025313D02*
X013121Y025313D01*
X013121Y025372D02*
X012883Y025372D01*
X012883Y023354D02*
X013121Y023354D01*
X013121Y022486D01*
X012883Y022486D01*
X012883Y023354D01*
X012883Y022545D02*
X013121Y022545D01*
X013121Y022604D02*
X012883Y022604D01*
X012883Y022663D02*
X013121Y022663D01*
X013121Y022722D02*
X012883Y022722D01*
X012883Y022781D02*
X013121Y022781D01*
X013121Y022840D02*
X012883Y022840D01*
X012883Y022899D02*
X013121Y022899D01*
X013121Y022958D02*
X012883Y022958D01*
X012883Y023017D02*
X013121Y023017D01*
X013121Y023076D02*
X012883Y023076D01*
X012883Y023135D02*
X013121Y023135D01*
X013121Y023194D02*
X012883Y023194D01*
X012883Y023253D02*
X013121Y023253D01*
X013121Y023312D02*
X012883Y023312D01*
X012621Y023354D02*
X012383Y023354D01*
X012621Y023354D02*
X012621Y022486D01*
X012383Y022486D01*
X012383Y023354D01*
X012383Y022545D02*
X012621Y022545D01*
X012621Y022604D02*
X012383Y022604D01*
X012383Y022663D02*
X012621Y022663D01*
X012621Y022722D02*
X012383Y022722D01*
X012383Y022781D02*
X012621Y022781D01*
X012621Y022840D02*
X012383Y022840D01*
X012383Y022899D02*
X012621Y022899D01*
X012621Y022958D02*
X012383Y022958D01*
X012383Y023017D02*
X012621Y023017D01*
X012621Y023076D02*
X012383Y023076D01*
X012383Y023135D02*
X012621Y023135D01*
X012621Y023194D02*
X012383Y023194D01*
X012383Y023253D02*
X012621Y023253D01*
X012621Y023312D02*
X012383Y023312D01*
X012121Y023354D02*
X011883Y023354D01*
X012121Y023354D02*
X012121Y022486D01*
X011883Y022486D01*
X011883Y023354D01*
X011883Y022545D02*
X012121Y022545D01*
X012121Y022604D02*
X011883Y022604D01*
X011883Y022663D02*
X012121Y022663D01*
X012121Y022722D02*
X011883Y022722D01*
X011883Y022781D02*
X012121Y022781D01*
X012121Y022840D02*
X011883Y022840D01*
X011883Y022899D02*
X012121Y022899D01*
X012121Y022958D02*
X011883Y022958D01*
X011883Y023017D02*
X012121Y023017D01*
X012121Y023076D02*
X011883Y023076D01*
X011883Y023135D02*
X012121Y023135D01*
X012121Y023194D02*
X011883Y023194D01*
X011883Y023253D02*
X012121Y023253D01*
X012121Y023312D02*
X011883Y023312D01*
X011621Y023354D02*
X011383Y023354D01*
X011621Y023354D02*
X011621Y022486D01*
X011383Y022486D01*
X011383Y023354D01*
X011383Y022545D02*
X011621Y022545D01*
X011621Y022604D02*
X011383Y022604D01*
X011383Y022663D02*
X011621Y022663D01*
X011621Y022722D02*
X011383Y022722D01*
X011383Y022781D02*
X011621Y022781D01*
X011621Y022840D02*
X011383Y022840D01*
X011383Y022899D02*
X011621Y022899D01*
X011621Y022958D02*
X011383Y022958D01*
X011383Y023017D02*
X011621Y023017D01*
X011621Y023076D02*
X011383Y023076D01*
X011383Y023135D02*
X011621Y023135D01*
X011621Y023194D02*
X011383Y023194D01*
X011383Y023253D02*
X011621Y023253D01*
X011621Y023312D02*
X011383Y023312D01*
D17*
X012845Y004411D02*
X012845Y001757D01*
X009089Y001757D01*
X009089Y004411D01*
X012845Y004411D01*
X012845Y001838D02*
X009089Y001838D01*
X009089Y001919D02*
X012845Y001919D01*
X012845Y002000D02*
X009089Y002000D01*
X009089Y002081D02*
X012845Y002081D01*
X012845Y002162D02*
X009089Y002162D01*
X009089Y002243D02*
X012845Y002243D01*
X012845Y002324D02*
X009089Y002324D01*
X009089Y002405D02*
X012845Y002405D01*
X012845Y002486D02*
X009089Y002486D01*
X009089Y002567D02*
X012845Y002567D01*
X012845Y002648D02*
X009089Y002648D01*
X009089Y002729D02*
X012845Y002729D01*
X012845Y002810D02*
X009089Y002810D01*
X009089Y002891D02*
X012845Y002891D01*
X012845Y002972D02*
X009089Y002972D01*
X009089Y003053D02*
X012845Y003053D01*
X012845Y003134D02*
X009089Y003134D01*
X009089Y003215D02*
X012845Y003215D01*
X012845Y003296D02*
X009089Y003296D01*
X009089Y003377D02*
X012845Y003377D01*
X012845Y003458D02*
X009089Y003458D01*
X009089Y003539D02*
X012845Y003539D01*
X012845Y003620D02*
X009089Y003620D01*
X009089Y003701D02*
X012845Y003701D01*
X012845Y003782D02*
X009089Y003782D01*
X009089Y003863D02*
X012845Y003863D01*
X012845Y003944D02*
X009089Y003944D01*
X009089Y004025D02*
X012845Y004025D01*
X012845Y004106D02*
X009089Y004106D01*
X009089Y004187D02*
X012845Y004187D01*
X012845Y004268D02*
X009089Y004268D01*
X009089Y004349D02*
X012845Y004349D01*
D18*
X005773Y009366D02*
X005215Y009366D01*
X005215Y010350D02*
X005773Y010350D01*
D19*
X010223Y026699D02*
X010223Y027217D01*
X011223Y027217D02*
X011223Y026699D01*
X026637Y003454D02*
X027154Y003454D01*
X027154Y002454D02*
X026637Y002454D01*
D20*
X029091Y016555D02*
X029831Y016555D01*
X029825Y017549D02*
X029085Y017549D01*
X029083Y018545D02*
X029823Y018545D01*
X029825Y019537D02*
X029085Y019537D01*
X029085Y020541D02*
X029825Y020541D01*
X029825Y021545D02*
X029085Y021545D01*
X029079Y022541D02*
X029819Y022541D01*
X029827Y023535D02*
X029087Y023535D01*
X026179Y026496D02*
X026179Y027236D01*
X025181Y027228D02*
X025181Y026488D01*
X024187Y026482D02*
X024187Y027222D01*
X023183Y027220D02*
X023183Y026480D01*
X022173Y026492D02*
X022173Y027232D01*
X021167Y027236D02*
X021167Y026496D01*
X020175Y026501D02*
X020175Y027241D01*
X019179Y027241D02*
X019179Y026501D01*
X018183Y026501D02*
X018183Y027241D01*
X017193Y027247D02*
X017193Y026507D01*
X016201Y026505D02*
X016201Y027245D01*
X007234Y027330D02*
X007234Y026590D01*
X006238Y026574D02*
X006238Y027314D01*
X005778Y022482D02*
X005038Y022482D01*
X005038Y021486D02*
X005778Y021486D01*
X005778Y020482D02*
X005038Y020482D01*
X005038Y019478D02*
X005778Y019478D01*
X005778Y018474D02*
X005038Y018474D01*
X005026Y017474D02*
X005766Y017474D01*
X005785Y016472D02*
X005045Y016472D01*
X005057Y015462D02*
X005797Y015462D01*
D21*
X013145Y012565D02*
X013497Y012565D01*
X013145Y012565D02*
X013145Y012681D01*
X013497Y012681D01*
X013497Y012565D01*
X013497Y012624D02*
X013145Y012624D01*
X013145Y012369D02*
X013497Y012369D01*
X013145Y012369D02*
X013145Y012485D01*
X013497Y012485D01*
X013497Y012369D01*
X013497Y012428D02*
X013145Y012428D01*
X013145Y012172D02*
X013497Y012172D01*
X013145Y012172D02*
X013145Y012288D01*
X013497Y012288D01*
X013497Y012172D01*
X013497Y012231D02*
X013145Y012231D01*
X013145Y011975D02*
X013497Y011975D01*
X013145Y011975D02*
X013145Y012091D01*
X013497Y012091D01*
X013497Y011975D01*
X013497Y012034D02*
X013145Y012034D01*
X013145Y011778D02*
X013497Y011778D01*
X013145Y011778D02*
X013145Y011894D01*
X013497Y011894D01*
X013497Y011778D01*
X013497Y011837D02*
X013145Y011837D01*
X013145Y011581D02*
X013497Y011581D01*
X013145Y011581D02*
X013145Y011697D01*
X013497Y011697D01*
X013497Y011581D01*
X013497Y011640D02*
X013145Y011640D01*
X013145Y011384D02*
X013497Y011384D01*
X013145Y011384D02*
X013145Y011500D01*
X013497Y011500D01*
X013497Y011384D01*
X013497Y011443D02*
X013145Y011443D01*
X013145Y011188D02*
X013497Y011188D01*
X013145Y011188D02*
X013145Y011304D01*
X013497Y011304D01*
X013497Y011188D01*
X013497Y011247D02*
X013145Y011247D01*
X013145Y010991D02*
X013497Y010991D01*
X013145Y010991D02*
X013145Y011107D01*
X013497Y011107D01*
X013497Y010991D01*
X013497Y011050D02*
X013145Y011050D01*
X013145Y010794D02*
X013497Y010794D01*
X013145Y010794D02*
X013145Y010910D01*
X013497Y010910D01*
X013497Y010794D01*
X013497Y010853D02*
X013145Y010853D01*
X013145Y010597D02*
X013497Y010597D01*
X013145Y010597D02*
X013145Y010713D01*
X013497Y010713D01*
X013497Y010597D01*
X013497Y010656D02*
X013145Y010656D01*
X013145Y010400D02*
X013497Y010400D01*
X013145Y010400D02*
X013145Y010516D01*
X013497Y010516D01*
X013497Y010400D01*
X013497Y010459D02*
X013145Y010459D01*
X013145Y010203D02*
X013497Y010203D01*
X013145Y010203D02*
X013145Y010319D01*
X013497Y010319D01*
X013497Y010203D01*
X013497Y010262D02*
X013145Y010262D01*
X013145Y010006D02*
X013497Y010006D01*
X013145Y010006D02*
X013145Y010122D01*
X013497Y010122D01*
X013497Y010006D01*
X013497Y010065D02*
X013145Y010065D01*
X013145Y009810D02*
X013497Y009810D01*
X013145Y009810D02*
X013145Y009926D01*
X013497Y009926D01*
X013497Y009810D01*
X013497Y009869D02*
X013145Y009869D01*
X013145Y009613D02*
X013497Y009613D01*
X013145Y009613D02*
X013145Y009729D01*
X013497Y009729D01*
X013497Y009613D01*
X013497Y009672D02*
X013145Y009672D01*
X013145Y009416D02*
X013497Y009416D01*
X013145Y009416D02*
X013145Y009532D01*
X013497Y009532D01*
X013497Y009416D01*
X013497Y009475D02*
X013145Y009475D01*
X013145Y009219D02*
X013497Y009219D01*
X013145Y009219D02*
X013145Y009335D01*
X013497Y009335D01*
X013497Y009219D01*
X013497Y009278D02*
X013145Y009278D01*
X013145Y009022D02*
X013497Y009022D01*
X013145Y009022D02*
X013145Y009138D01*
X013497Y009138D01*
X013497Y009022D01*
X013497Y009081D02*
X013145Y009081D01*
X013145Y008825D02*
X013497Y008825D01*
X013145Y008825D02*
X013145Y008941D01*
X013497Y008941D01*
X013497Y008825D01*
X013497Y008884D02*
X013145Y008884D01*
X013145Y008628D02*
X013497Y008628D01*
X013145Y008628D02*
X013145Y008744D01*
X013497Y008744D01*
X013497Y008628D01*
X013497Y008687D02*
X013145Y008687D01*
X013145Y008432D02*
X013497Y008432D01*
X013145Y008432D02*
X013145Y008548D01*
X013497Y008548D01*
X013497Y008432D01*
X013497Y008491D02*
X013145Y008491D01*
X013145Y008235D02*
X013497Y008235D01*
X013145Y008235D02*
X013145Y008351D01*
X013497Y008351D01*
X013497Y008235D01*
X013497Y008294D02*
X013145Y008294D01*
X013145Y008038D02*
X013497Y008038D01*
X013145Y008038D02*
X013145Y008154D01*
X013497Y008154D01*
X013497Y008038D01*
X013497Y008097D02*
X013145Y008097D01*
X020822Y008154D02*
X021174Y008154D01*
X021174Y008038D01*
X020822Y008038D01*
X020822Y008154D01*
X020822Y008097D02*
X021174Y008097D01*
X021174Y008351D02*
X020822Y008351D01*
X021174Y008351D02*
X021174Y008235D01*
X020822Y008235D01*
X020822Y008351D01*
X020822Y008294D02*
X021174Y008294D01*
X021174Y008548D02*
X020822Y008548D01*
X021174Y008548D02*
X021174Y008432D01*
X020822Y008432D01*
X020822Y008548D01*
X020822Y008491D02*
X021174Y008491D01*
X021174Y008744D02*
X020822Y008744D01*
X021174Y008744D02*
X021174Y008628D01*
X020822Y008628D01*
X020822Y008744D01*
X020822Y008687D02*
X021174Y008687D01*
X021174Y008941D02*
X020822Y008941D01*
X021174Y008941D02*
X021174Y008825D01*
X020822Y008825D01*
X020822Y008941D01*
X020822Y008884D02*
X021174Y008884D01*
X021174Y009138D02*
X020822Y009138D01*
X021174Y009138D02*
X021174Y009022D01*
X020822Y009022D01*
X020822Y009138D01*
X020822Y009081D02*
X021174Y009081D01*
X021174Y009335D02*
X020822Y009335D01*
X021174Y009335D02*
X021174Y009219D01*
X020822Y009219D01*
X020822Y009335D01*
X020822Y009278D02*
X021174Y009278D01*
X021174Y009532D02*
X020822Y009532D01*
X021174Y009532D02*
X021174Y009416D01*
X020822Y009416D01*
X020822Y009532D01*
X020822Y009475D02*
X021174Y009475D01*
X021174Y009729D02*
X020822Y009729D01*
X021174Y009729D02*
X021174Y009613D01*
X020822Y009613D01*
X020822Y009729D01*
X020822Y009672D02*
X021174Y009672D01*
X021174Y009926D02*
X020822Y009926D01*
X021174Y009926D02*
X021174Y009810D01*
X020822Y009810D01*
X020822Y009926D01*
X020822Y009869D02*
X021174Y009869D01*
X021174Y010122D02*
X020822Y010122D01*
X021174Y010122D02*
X021174Y010006D01*
X020822Y010006D01*
X020822Y010122D01*
X020822Y010065D02*
X021174Y010065D01*
X021174Y010319D02*
X020822Y010319D01*
X021174Y010319D02*
X021174Y010203D01*
X020822Y010203D01*
X020822Y010319D01*
X020822Y010262D02*
X021174Y010262D01*
X021174Y010516D02*
X020822Y010516D01*
X021174Y010516D02*
X021174Y010400D01*
X020822Y010400D01*
X020822Y010516D01*
X020822Y010459D02*
X021174Y010459D01*
X021174Y010713D02*
X020822Y010713D01*
X021174Y010713D02*
X021174Y010597D01*
X020822Y010597D01*
X020822Y010713D01*
X020822Y010656D02*
X021174Y010656D01*
X021174Y010910D02*
X020822Y010910D01*
X021174Y010910D02*
X021174Y010794D01*
X020822Y010794D01*
X020822Y010910D01*
X020822Y010853D02*
X021174Y010853D01*
X021174Y011107D02*
X020822Y011107D01*
X021174Y011107D02*
X021174Y010991D01*
X020822Y010991D01*
X020822Y011107D01*
X020822Y011050D02*
X021174Y011050D01*
X021174Y011304D02*
X020822Y011304D01*
X021174Y011304D02*
X021174Y011188D01*
X020822Y011188D01*
X020822Y011304D01*
X020822Y011247D02*
X021174Y011247D01*
X021174Y011500D02*
X020822Y011500D01*
X021174Y011500D02*
X021174Y011384D01*
X020822Y011384D01*
X020822Y011500D01*
X020822Y011443D02*
X021174Y011443D01*
X021174Y011697D02*
X020822Y011697D01*
X021174Y011697D02*
X021174Y011581D01*
X020822Y011581D01*
X020822Y011697D01*
X020822Y011640D02*
X021174Y011640D01*
X021174Y011894D02*
X020822Y011894D01*
X021174Y011894D02*
X021174Y011778D01*
X020822Y011778D01*
X020822Y011894D01*
X020822Y011837D02*
X021174Y011837D01*
X021174Y012091D02*
X020822Y012091D01*
X021174Y012091D02*
X021174Y011975D01*
X020822Y011975D01*
X020822Y012091D01*
X020822Y012034D02*
X021174Y012034D01*
X021174Y012288D02*
X020822Y012288D01*
X021174Y012288D02*
X021174Y012172D01*
X020822Y012172D01*
X020822Y012288D01*
X020822Y012231D02*
X021174Y012231D01*
X021174Y012485D02*
X020822Y012485D01*
X021174Y012485D02*
X021174Y012369D01*
X020822Y012369D01*
X020822Y012485D01*
X020822Y012428D02*
X021174Y012428D01*
X021174Y012681D02*
X020822Y012681D01*
X021174Y012681D02*
X021174Y012565D01*
X020822Y012565D01*
X020822Y012681D01*
X020822Y012624D02*
X021174Y012624D01*
D22*
X020526Y013139D03*
X021077Y014005D03*
X019541Y014911D03*
X018203Y014871D03*
X018321Y013887D03*
X019049Y013612D03*
X015998Y012942D03*
X014817Y014557D03*
X014266Y015068D03*
X013518Y014557D03*
X011813Y014596D03*
X011746Y015501D03*
X010801Y016368D03*
X011746Y016761D03*
X011825Y017982D03*
X010841Y018690D03*
X009305Y020226D03*
X010663Y020344D03*
X010014Y021997D03*
X008951Y022549D03*
X007266Y021486D03*
X006667Y020462D03*
X006667Y019478D03*
X007494Y017194D03*
X006746Y015934D03*
X006628Y014596D03*
X011077Y012942D03*
X009620Y010462D03*
X008045Y008769D03*
X006589Y007588D03*
X008459Y005856D03*
X013163Y007588D03*
X013793Y006643D03*
X021667Y009714D03*
X021667Y011289D03*
X018045Y016446D03*
X019463Y017549D03*
X021667Y018080D03*
X022593Y017726D03*
X023951Y017627D03*
X024069Y016840D03*
X023833Y018513D03*
X025132Y020580D03*
X023636Y021210D03*
X022770Y020974D03*
X022022Y021289D03*
X020841Y020789D03*
X020829Y022942D03*
X022770Y022864D03*
X019935Y024950D03*
X017849Y024517D03*
X016352Y025620D03*
X015762Y024517D03*
X015132Y025226D03*
X014108Y026309D03*
X012534Y026092D03*
X012534Y026840D03*
X010919Y025226D03*
X009384Y024517D03*
X008203Y025620D03*
X009384Y026171D03*
X013675Y023100D03*
X014108Y022312D03*
X014974Y022706D03*
X015132Y023572D03*
X013006Y022155D03*
X013006Y020501D03*
X015841Y016309D03*
X015455Y015934D03*
X015683Y015147D03*
X027573Y014753D03*
X027837Y016564D03*
X028152Y017352D03*
X027789Y018100D03*
X027730Y019513D03*
X027947Y020580D03*
X027837Y021631D03*
X029423Y014005D03*
X028478Y013001D03*
X027770Y011289D03*
X022100Y003454D03*
M02*
