G75*
G70*
%OFA0B0*%
%FSLAX24Y24*%
%IPPOS*%
%LPD*%
%AMOC8*
5,1,8,0,0,1.08239X$1,22.5*
%
%ADD10R,0.2815X0.2815*%
%ADD11C,0.0577*%
%ADD12C,0.0799*%
%ADD13C,0.0413*%
D10*
X013228Y019289D03*
D11*
X007695Y026699D02*
X007695Y027217D01*
X006695Y027217D02*
X006695Y026699D01*
X023109Y003454D02*
X023627Y003454D01*
X023627Y002454D02*
X023109Y002454D01*
D12*
X025565Y005545D02*
X026305Y005545D01*
X026305Y006553D02*
X025565Y006553D01*
X025563Y016555D02*
X026303Y016555D01*
X026297Y017549D02*
X025557Y017549D01*
X025555Y018545D02*
X026295Y018545D01*
X026297Y019537D02*
X025557Y019537D01*
X025557Y020541D02*
X026297Y020541D01*
X026297Y021545D02*
X025557Y021545D01*
X025551Y022541D02*
X026291Y022541D01*
X026299Y023535D02*
X025559Y023535D01*
X025849Y026458D02*
X025849Y027198D01*
X024833Y027198D02*
X024833Y026458D01*
X022652Y026496D02*
X022652Y027236D01*
X021654Y027228D02*
X021654Y026488D01*
X020660Y026482D02*
X020660Y027222D01*
X019656Y027220D02*
X019656Y026480D01*
X018646Y026492D02*
X018646Y027232D01*
X017640Y027236D02*
X017640Y026496D01*
X016648Y026501D02*
X016648Y027241D01*
X015652Y027241D02*
X015652Y026501D01*
X014656Y026501D02*
X014656Y027241D01*
X013665Y027247D02*
X013665Y026507D01*
X012673Y026505D02*
X012673Y027245D01*
X003707Y027488D02*
X003707Y026748D01*
X002711Y026732D02*
X002711Y027472D01*
X002250Y022482D02*
X001510Y022482D01*
X001510Y021486D02*
X002250Y021486D01*
X002250Y020482D02*
X001510Y020482D01*
X001510Y019478D02*
X002250Y019478D01*
X002250Y018474D02*
X001510Y018474D01*
X001510Y017474D02*
X002250Y017474D01*
X002250Y016472D02*
X001510Y016472D01*
X001510Y015462D02*
X002250Y015462D01*
X002250Y011812D02*
X001510Y011812D01*
X001510Y009812D02*
X002250Y009812D01*
D13*
X004931Y005856D03*
X003061Y007588D03*
X004518Y008769D03*
X006093Y010462D03*
X007549Y012942D03*
X008286Y014596D03*
X008219Y015501D03*
X007274Y016368D03*
X008219Y016761D03*
X008297Y017982D03*
X007313Y018690D03*
X007136Y020344D03*
X005778Y020226D03*
X006486Y021997D03*
X005423Y022549D03*
X003738Y021486D03*
X003140Y020462D03*
X003140Y019478D03*
X003967Y017194D03*
X003219Y015934D03*
X003100Y014596D03*
X009478Y020501D03*
X009478Y022155D03*
X010148Y023100D03*
X010581Y022312D03*
X011447Y022706D03*
X011604Y023572D03*
X012234Y024517D03*
X011604Y025226D03*
X010581Y026309D03*
X009006Y026092D03*
X009006Y026840D03*
X007392Y025226D03*
X005856Y024517D03*
X004675Y025620D03*
X005856Y026171D03*
X012825Y025620D03*
X014321Y024517D03*
X016408Y024950D03*
X017301Y022942D03*
X018494Y021289D03*
X019242Y020974D03*
X020108Y021210D03*
X021604Y020580D03*
X020305Y018513D03*
X020423Y017627D03*
X020541Y016840D03*
X019065Y017726D03*
X018140Y018080D03*
X015935Y017549D03*
X014518Y016446D03*
X014675Y014871D03*
X014793Y013887D03*
X015522Y013612D03*
X016014Y014911D03*
X017549Y014005D03*
X016998Y013139D03*
X018140Y011289D03*
X018140Y009714D03*
X018573Y003454D03*
X024242Y011289D03*
X024951Y013001D03*
X025896Y014005D03*
X024045Y014753D03*
X024309Y016564D03*
X024624Y017352D03*
X024262Y018100D03*
X024203Y019513D03*
X024419Y020580D03*
X024309Y021631D03*
X019242Y022864D03*
X017313Y020789D03*
X012313Y016309D03*
X011927Y015934D03*
X012156Y015147D03*
X011289Y014557D03*
X010738Y015068D03*
X009990Y014557D03*
X012471Y012942D03*
X009636Y007588D03*
X010266Y006643D03*
M02*
